<?xml version='1.0' encoding='utf-8'?>
<svg xmlns:xlink="http://www.w3.org/1999/xlink" class="pygal-chart" id="chart-8f0ade1d-e5af-4028-a0b7-11bd87ed9cfe" viewBox="0 0 1000 600" xmlns="http://www.w3.org/2000/svg"><!--Generated with pygal 2.4.0 (etree) ©Kozea 2012-2016 on 2017-11-18--><!--http://pygal.org--><!--http://github.com/Kozea/pygal--><defs><style type="text/css">#chart-8f0ade1d-e5af-4028-a0b7-11bd87ed9cfe{-webkit-user-select:none;-webkit-font-smoothing:antialiased;font-family:Consolas,"Liberation Mono",Menlo,Courier,monospace}#chart-8f0ade1d-e5af-4028-a0b7-11bd87ed9cfe .title{font-family:Consolas,"Liberation Mono",Menlo,Courier,monospace;font-size:16px}#chart-8f0ade1d-e5af-4028-a0b7-11bd87ed9cfe .legends .legend text{font-family:Consolas,"Liberation Mono",Menlo,Courier,monospace;font-size:14px}#chart-8f0ade1d-e5af-4028-a0b7-11bd87ed9cfe .axis text{font-family:Consolas,"Liberation Mono",Menlo,Courier,monospace;font-size:10px}#chart-8f0ade1d-e5af-4028-a0b7-11bd87ed9cfe .axis text.major{font-family:Consolas,"Liberation Mono",Menlo,Courier,monospace;font-size:10px}#chart-8f0ade1d-e5af-4028-a0b7-11bd87ed9cfe .text-overlay text.value{font-family:Consolas,"Liberation Mono",Menlo,Courier,monospace;font-size:16px}#chart-8f0ade1d-e5af-4028-a0b7-11bd87ed9cfe .text-overlay text.label{font-family:Consolas,"Liberation Mono",Menlo,Courier,monospace;font-size:10px}#chart-8f0ade1d-e5af-4028-a0b7-11bd87ed9cfe .tooltip{font-family:Consolas,"Liberation Mono",Menlo,Courier,monospace;font-size:14px}#chart-8f0ade1d-e5af-4028-a0b7-11bd87ed9cfe text.no_data{font-family:Consolas,"Liberation Mono",Menlo,Courier,monospace;font-size:64px}
#chart-8f0ade1d-e5af-4028-a0b7-11bd87ed9cfe{background-color:transparent}#chart-8f0ade1d-e5af-4028-a0b7-11bd87ed9cfe path,#chart-8f0ade1d-e5af-4028-a0b7-11bd87ed9cfe line,#chart-8f0ade1d-e5af-4028-a0b7-11bd87ed9cfe rect,#chart-8f0ade1d-e5af-4028-a0b7-11bd87ed9cfe circle{-webkit-transition:1s ease-out;-moz-transition:1s ease-out;transition:1s ease-out}#chart-8f0ade1d-e5af-4028-a0b7-11bd87ed9cfe .graph &gt; .background{fill:transparent}#chart-8f0ade1d-e5af-4028-a0b7-11bd87ed9cfe .plot &gt; .background{fill:#111}#chart-8f0ade1d-e5af-4028-a0b7-11bd87ed9cfe .graph{fill:#999}#chart-8f0ade1d-e5af-4028-a0b7-11bd87ed9cfe text.no_data{fill:#eee}#chart-8f0ade1d-e5af-4028-a0b7-11bd87ed9cfe .title{fill:#eee}#chart-8f0ade1d-e5af-4028-a0b7-11bd87ed9cfe .legends .legend text{fill:#999}#chart-8f0ade1d-e5af-4028-a0b7-11bd87ed9cfe .legends .legend:hover text{fill:#eee}#chart-8f0ade1d-e5af-4028-a0b7-11bd87ed9cfe .axis .line{stroke:#eee}#chart-8f0ade1d-e5af-4028-a0b7-11bd87ed9cfe .axis .guide.line{stroke:#555}#chart-8f0ade1d-e5af-4028-a0b7-11bd87ed9cfe .axis .major.line{stroke:#999}#chart-8f0ade1d-e5af-4028-a0b7-11bd87ed9cfe .axis text.major{fill:#eee}#chart-8f0ade1d-e5af-4028-a0b7-11bd87ed9cfe .axis.y .guides:hover .guide.line,#chart-8f0ade1d-e5af-4028-a0b7-11bd87ed9cfe .line-graph .axis.x .guides:hover .guide.line,#chart-8f0ade1d-e5af-4028-a0b7-11bd87ed9cfe .stackedline-graph .axis.x .guides:hover .guide.line,#chart-8f0ade1d-e5af-4028-a0b7-11bd87ed9cfe .xy-graph .axis.x .guides:hover .guide.line{stroke:#eee}#chart-8f0ade1d-e5af-4028-a0b7-11bd87ed9cfe .axis .guides:hover text{fill:#eee}#chart-8f0ade1d-e5af-4028-a0b7-11bd87ed9cfe .reactive{fill-opacity:.1;stroke-opacity:.8}#chart-8f0ade1d-e5af-4028-a0b7-11bd87ed9cfe .ci{stroke:#999}#chart-8f0ade1d-e5af-4028-a0b7-11bd87ed9cfe .reactive.active,#chart-8f0ade1d-e5af-4028-a0b7-11bd87ed9cfe .active .reactive{fill-opacity:.75;stroke-opacity:.9;stroke-width:4}#chart-8f0ade1d-e5af-4028-a0b7-11bd87ed9cfe .ci .reactive.active{stroke-width:1.5}#chart-8f0ade1d-e5af-4028-a0b7-11bd87ed9cfe .series text{fill:#eee}#chart-8f0ade1d-e5af-4028-a0b7-11bd87ed9cfe .tooltip rect{fill:#111;stroke:#eee;-webkit-transition:opacity 1s ease-out;-moz-transition:opacity 1s ease-out;transition:opacity 1s ease-out}#chart-8f0ade1d-e5af-4028-a0b7-11bd87ed9cfe .tooltip .label{fill:#999}#chart-8f0ade1d-e5af-4028-a0b7-11bd87ed9cfe .tooltip .label{fill:#999}#chart-8f0ade1d-e5af-4028-a0b7-11bd87ed9cfe .tooltip .legend{font-size:.8em;fill:#555}#chart-8f0ade1d-e5af-4028-a0b7-11bd87ed9cfe .tooltip .x_label{font-size:.6em;fill:#eee}#chart-8f0ade1d-e5af-4028-a0b7-11bd87ed9cfe .tooltip .xlink{font-size:.5em;text-decoration:underline}#chart-8f0ade1d-e5af-4028-a0b7-11bd87ed9cfe .tooltip .value{font-size:1.5em}#chart-8f0ade1d-e5af-4028-a0b7-11bd87ed9cfe .bound{font-size:.5em}#chart-8f0ade1d-e5af-4028-a0b7-11bd87ed9cfe .max-value{font-size:.75em;fill:#555}#chart-8f0ade1d-e5af-4028-a0b7-11bd87ed9cfe .map-element{fill:#111;stroke:#555 !important}#chart-8f0ade1d-e5af-4028-a0b7-11bd87ed9cfe .map-element .reactive{fill-opacity:inherit;stroke-opacity:inherit}#chart-8f0ade1d-e5af-4028-a0b7-11bd87ed9cfe .color-0,#chart-8f0ade1d-e5af-4028-a0b7-11bd87ed9cfe .color-0 a:visited{stroke:#0000FF;fill:#0000FF}#chart-8f0ade1d-e5af-4028-a0b7-11bd87ed9cfe .text-overlay .color-0 text{fill:black}
#chart-8f0ade1d-e5af-4028-a0b7-11bd87ed9cfe text.no_data{text-anchor:middle}#chart-8f0ade1d-e5af-4028-a0b7-11bd87ed9cfe .guide.line{fill:none}#chart-8f0ade1d-e5af-4028-a0b7-11bd87ed9cfe .centered{text-anchor:middle}#chart-8f0ade1d-e5af-4028-a0b7-11bd87ed9cfe .title{text-anchor:middle}#chart-8f0ade1d-e5af-4028-a0b7-11bd87ed9cfe .legends .legend text{fill-opacity:1}#chart-8f0ade1d-e5af-4028-a0b7-11bd87ed9cfe .axis.x text{text-anchor:middle}#chart-8f0ade1d-e5af-4028-a0b7-11bd87ed9cfe .axis.x:not(.web) text[transform]{text-anchor:start}#chart-8f0ade1d-e5af-4028-a0b7-11bd87ed9cfe .axis.x:not(.web) text[transform].backwards{text-anchor:end}#chart-8f0ade1d-e5af-4028-a0b7-11bd87ed9cfe .axis.y text{text-anchor:end}#chart-8f0ade1d-e5af-4028-a0b7-11bd87ed9cfe .axis.y text[transform].backwards{text-anchor:start}#chart-8f0ade1d-e5af-4028-a0b7-11bd87ed9cfe .axis.y2 text{text-anchor:start}#chart-8f0ade1d-e5af-4028-a0b7-11bd87ed9cfe .axis.y2 text[transform].backwards{text-anchor:end}#chart-8f0ade1d-e5af-4028-a0b7-11bd87ed9cfe .axis .guide.line{stroke-dasharray:4,4}#chart-8f0ade1d-e5af-4028-a0b7-11bd87ed9cfe .axis .major.guide.line{stroke-dasharray:6,6}#chart-8f0ade1d-e5af-4028-a0b7-11bd87ed9cfe .horizontal .axis.y .guide.line,#chart-8f0ade1d-e5af-4028-a0b7-11bd87ed9cfe .horizontal .axis.y2 .guide.line,#chart-8f0ade1d-e5af-4028-a0b7-11bd87ed9cfe .vertical .axis.x .guide.line{opacity:0}#chart-8f0ade1d-e5af-4028-a0b7-11bd87ed9cfe .horizontal .axis.always_show .guide.line,#chart-8f0ade1d-e5af-4028-a0b7-11bd87ed9cfe .vertical .axis.always_show .guide.line{opacity:1 !important}#chart-8f0ade1d-e5af-4028-a0b7-11bd87ed9cfe .axis.y .guides:hover .guide.line,#chart-8f0ade1d-e5af-4028-a0b7-11bd87ed9cfe .axis.y2 .guides:hover .guide.line,#chart-8f0ade1d-e5af-4028-a0b7-11bd87ed9cfe .axis.x .guides:hover .guide.line{opacity:1}#chart-8f0ade1d-e5af-4028-a0b7-11bd87ed9cfe .axis .guides:hover text{opacity:1}#chart-8f0ade1d-e5af-4028-a0b7-11bd87ed9cfe .nofill{fill:none}#chart-8f0ade1d-e5af-4028-a0b7-11bd87ed9cfe .subtle-fill{fill-opacity:.2}#chart-8f0ade1d-e5af-4028-a0b7-11bd87ed9cfe .dot{stroke-width:1px;fill-opacity:1}#chart-8f0ade1d-e5af-4028-a0b7-11bd87ed9cfe .dot.active{stroke-width:5px}#chart-8f0ade1d-e5af-4028-a0b7-11bd87ed9cfe .dot.negative{fill:transparent}#chart-8f0ade1d-e5af-4028-a0b7-11bd87ed9cfe text,#chart-8f0ade1d-e5af-4028-a0b7-11bd87ed9cfe tspan{stroke:none !important}#chart-8f0ade1d-e5af-4028-a0b7-11bd87ed9cfe .series text.active{opacity:1}#chart-8f0ade1d-e5af-4028-a0b7-11bd87ed9cfe .tooltip rect{fill-opacity:.95;stroke-width:.5}#chart-8f0ade1d-e5af-4028-a0b7-11bd87ed9cfe .tooltip text{fill-opacity:1}#chart-8f0ade1d-e5af-4028-a0b7-11bd87ed9cfe .showable{visibility:hidden}#chart-8f0ade1d-e5af-4028-a0b7-11bd87ed9cfe .showable.shown{visibility:visible}#chart-8f0ade1d-e5af-4028-a0b7-11bd87ed9cfe .gauge-background{fill:rgba(229,229,229,1);stroke:none}#chart-8f0ade1d-e5af-4028-a0b7-11bd87ed9cfe .bg-lines{stroke:transparent;stroke-width:2px}</style><script type="text/javascript">window.pygal = window.pygal || {};window.pygal.config = window.pygal.config || {};window.pygal.config['8f0ade1d-e5af-4028-a0b7-11bd87ed9cfe'] = {"allow_interruptions": false, "box_mode": "extremes", "classes": ["pygal-chart"], "css": ["file://style.css", "file://graph.css"], "defs": [], "disable_xml_declaration": false, "dots_size": 2.5, "dynamic_print_values": false, "explicit_size": false, "fill": true, "force_uri_protocol": "https", "formatter": null, "half_pie": false, "height": 600, "include_x_axis": false, "inner_radius": 0, "interpolate": "cubic", "interpolation_parameters": {}, "interpolation_precision": 250, "inverse_y_axis": false, "js": ["//kozea.github.io/pygal.js/2.0.x/pygal-tooltips.min.js"], "legend_at_bottom": false, "legend_at_bottom_columns": null, "legend_box_size": 12, "logarithmic": false, "margin": 20, "margin_bottom": null, "margin_left": null, "margin_right": null, "margin_top": null, "max_scale": 16, "min_scale": 4, "missing_value_fill_truncation": "x", "no_data_text": "No data", "no_prefix": false, "order_min": null, "pretty_print": false, "print_labels": false, "print_values": false, "print_values_position": "center", "print_zeroes": true, "range": null, "rounded_bars": null, "secondary_range": null, "show_dots": true, "show_legend": true, "show_minor_x_labels": true, "show_minor_y_labels": true, "show_only_major_dots": false, "show_x_guides": false, "show_x_labels": true, "show_y_guides": true, "show_y_labels": true, "spacing": 10, "stack_from_top": false, "strict": false, "stroke": true, "stroke_style": null, "style": {"background": "transparent", "ci_colors": [], "colors": ["#0000FF", "#FF0000"], "font_family": "Consolas, \"Liberation Mono\", Menlo, Courier, monospace", "foreground": "#999", "foreground_strong": "#eee", "foreground_subtle": "#555", "guide_stroke_dasharray": "4,4", "label_font_family": "Consolas, \"Liberation Mono\", Menlo, Courier, monospace", "label_font_size": 10, "legend_font_family": "Consolas, \"Liberation Mono\", Menlo, Courier, monospace", "legend_font_size": 14, "major_guide_stroke_dasharray": "6,6", "major_label_font_family": "Consolas, \"Liberation Mono\", Menlo, Courier, monospace", "major_label_font_size": 10, "no_data_font_family": "Consolas, \"Liberation Mono\", Menlo, Courier, monospace", "no_data_font_size": 64, "opacity": ".1", "opacity_hover": ".75", "plot_background": "#111", "stroke_opacity": ".8", "stroke_opacity_hover": ".9", "title_font_family": "Consolas, \"Liberation Mono\", Menlo, Courier, monospace", "title_font_size": 16, "tooltip_font_family": "Consolas, \"Liberation Mono\", Menlo, Courier, monospace", "tooltip_font_size": 14, "transition": "1s ease-out", "value_background": "rgba(229, 229, 229, 1)", "value_colors": [], "value_font_family": "Consolas, \"Liberation Mono\", Menlo, Courier, monospace", "value_font_size": 16, "value_label_font_family": "Consolas, \"Liberation Mono\", Menlo, Courier, monospace", "value_label_font_size": 10}, "title": "Japan Year: 1960 - 2016 AD", "tooltip_border_radius": 0, "tooltip_fancy_mode": true, "truncate_label": null, "truncate_legend": null, "width": 1000, "x_label_rotation": 90, "x_labels": ["1960", "1964", "1968", "1972", "1976", "1980", "1984", "1988", "1992", "1996", "2000", "2004", "2008", "2012", "2016"], "x_labels_major": null, "x_labels_major_count": null, "x_labels_major_every": null, "x_title": null, "xrange": null, "y_label_rotation": 0, "y_labels": null, "y_labels_major": null, "y_labels_major_count": null, "y_labels_major_every": null, "y_title": null, "zero": 0, "legends": ["Populations"]}</script><script type="text/javascript" xlink:href="https://kozea.github.io/pygal.js/2.0.x/pygal-tooltips.min.js" /></defs><title>Japan Year: 1960 - 2016 AD</title><g class="graph line-graph vertical"><rect class="background" height="600" width="1000" x="0" y="0" /><g class="plot" transform="translate(264, 46)"><rect class="background" height="500.0" width="715.6" x="0" y="0" /><g class="axis y always_show"><path class="line" d="M0.000000 500.000000 h715.600000" /><g class="guides"><path class="guide line" d="M0.000000 443.086600 h715.600000" /><text class="" x="-5" y="446.586600004">96,000,000.0 People</text><title>96,000,000.0 People</title></g><g class="guides"><path class="guide line" d="M0.000000 389.022890 h715.600000" /><text class="" x="-5" y="392.522889729">100,000,000.0 People</text><title>100,000,000.0 People</title></g><g class="guides"><path class="guide line" d="M0.000000 334.959179 h715.600000" /><text class="" x="-5" y="338.459179453">104,000,000.0 People</text><title>104,000,000.0 People</title></g><g class="guides"><path class="guide line" d="M0.000000 280.895469 h715.600000" /><text class="" x="-5" y="284.395469178">108,000,000.0 People</text><title>108,000,000.0 People</title></g><g class="guides"><path class="guide line" d="M0.000000 226.831759 h715.600000" /><text class="" x="-5" y="230.331758903">112,000,000.0 People</text><title>112,000,000.0 People</title></g><g class="guides"><path class="guide line" d="M0.000000 172.768049 h715.600000" /><text class="" x="-5" y="176.268048627">116,000,000.0 People</text><title>116,000,000.0 People</title></g><g class="guides"><path class="guide line" d="M0.000000 118.704338 h715.600000" /><text class="" x="-5" y="122.204338352">120,000,000.0 People</text><title>120,000,000.0 People</title></g><g class="guides"><path class="guide line" d="M0.000000 64.640628 h715.600000" /><text class="" x="-5" y="68.1406280766">124,000,000.0 People</text><title>124,000,000.0 People</title></g><g class="guides"><path class="guide line" d="M0.000000 10.576918 h715.600000" /><text class="" x="-5" y="14.0769178012">128,000,000.0 People</text><title>128,000,000.0 People</title></g></g><g class="axis x"><g class="guides"><path class="line" d="M13.761538 0.000000 v500.000000" /><text class="" transform="rotate(90 13.761538 515.000000)" x="13.761538461538462" y="515.0">1960</text></g><g class="guides"><path class="guide line" d="M62.909890 0.000000 v500.000000" /><text class="" transform="rotate(90 62.909890 515.000000)" x="62.90989010989011" y="515.0">1964</text></g><g class="guides"><path class="guide line" d="M112.058242 0.000000 v500.000000" /><text class="" transform="rotate(90 112.058242 515.000000)" x="112.05824175824175" y="515.0">1968</text></g><g class="guides"><path class="guide line" d="M161.206593 0.000000 v500.000000" /><text class="" transform="rotate(90 161.206593 515.000000)" x="161.20659340659338" y="515.0">1972</text></g><g class="guides"><path class="guide line" d="M210.354945 0.000000 v500.000000" /><text class="" transform="rotate(90 210.354945 515.000000)" x="210.35494505494506" y="515.0">1976</text></g><g class="guides"><path class="guide line" d="M259.503297 0.000000 v500.000000" /><text class="" transform="rotate(90 259.503297 515.000000)" x="259.50329670329677" y="515.0">1980</text></g><g class="guides"><path class="guide line" d="M308.651648 0.000000 v500.000000" /><text class="" transform="rotate(90 308.651648 515.000000)" x="308.6516483516483" y="515.0">1984</text></g><g class="guides"><path class="guide line" d="M357.800000 0.000000 v500.000000" /><text class="" transform="rotate(90 357.800000 515.000000)" x="357.8" y="515.0">1988</text></g><g class="guides"><path class="guide line" d="M406.948352 0.000000 v500.000000" /><text class="" transform="rotate(90 406.948352 515.000000)" x="406.94835164835166" y="515.0">1992</text></g><g class="guides"><path class="guide line" d="M456.096703 0.000000 v500.000000" /><text class="" transform="rotate(90 456.096703 515.000000)" x="456.0967032967033" y="515.0">1996</text></g><g class="guides"><path class="guide line" d="M505.245055 0.000000 v500.000000" /><text class="" transform="rotate(90 505.245055 515.000000)" x="505.245054945055" y="515.0">2000</text></g><g class="guides"><path class="guide line" d="M554.393407 0.000000 v500.000000" /><text class="" transform="rotate(90 554.393407 515.000000)" x="554.3934065934066" y="515.0">2004</text></g><g class="guides"><path class="guide line" d="M603.541758 0.000000 v500.000000" /><text class="" transform="rotate(90 603.541758 515.000000)" x="603.5417582417582" y="515.0">2008</text></g><g class="guides"><path class="guide line" d="M652.690110 0.000000 v500.000000" /><text class="" transform="rotate(90 652.690110 515.000000)" x="652.69010989011" y="515.0">2012</text></g><g class="guides"><path class="guide line" d="M701.838462 0.000000 v500.000000" /><text class="" transform="rotate(90 701.838462 515.000000)" x="701.8384615384615" y="515.0">2016</text></g></g><g class="series serie-0 color-0"><path class="line reactive" d="M13.761538 500.000000 L13.761538 490.384615 13.958132 490.055017 14.154725 489.725423 14.351319 489.395837 14.547912 489.066263 14.744505 488.736706 14.941099 488.407168 15.137692 488.077654 15.334286 487.748168 15.530879 487.418714 15.727473 487.089296 15.924066 486.759918 16.120659 486.430584 16.317253 486.101298 16.513846 485.772065 16.710440 485.442887 16.907033 485.113769 17.103626 484.784715 17.300220 484.455730 17.496813 484.126816 17.693407 483.797978 17.890000 483.469221 18.086593 483.140547 18.283187 482.811962 18.479780 482.483468 18.676374 482.155071 18.872967 481.826773 19.069560 481.498580 19.266154 481.170495 19.462747 480.842522 19.659341 480.514664 19.855934 480.186927 20.052527 479.859314 20.249121 479.531829 20.445714 479.204476 20.642308 478.877260 20.838901 478.550183 21.035495 478.223250 21.232088 477.896465 21.428681 477.569833 21.625275 477.243356 21.821868 476.917040 22.018462 476.590887 22.215055 476.264903 22.411648 475.939091 22.608242 475.613455 22.804835 475.287999 23.001429 474.962727 23.198022 474.637643 23.394615 474.312751 23.591209 473.988056 23.787802 473.663560 23.984396 473.339269 24.180989 473.015185 24.377582 472.691314 24.574176 472.367659 24.770769 472.044224 24.967363 471.721013 25.163956 471.398030 25.360549 471.075279 25.557143 470.752764 25.753736 470.430490 25.950330 470.108459 26.146923 469.786677 26.343516 469.465147 26.540110 469.143873 26.736703 468.822859 26.933297 468.502109 27.129890 468.181627 27.326484 467.861418 27.523077 467.541484 27.719670 467.221831 27.916264 466.902462 28.112857 466.583381 28.309451 466.264592 28.506044 465.946099 28.702637 465.627907 28.899231 465.310018 29.095824 464.992438 29.292418 464.675170 29.489011 464.358218 29.685604 464.041586 29.882198 463.725278 30.078791 463.409298 30.275385 463.093651 30.471978 462.778340 30.668571 462.463369 30.865165 462.148742 31.061758 461.834463 31.258352 461.520536 31.454945 461.206966 31.651538 460.893755 31.848132 460.580909 32.044725 460.268431 32.241319 459.956326 32.437912 459.644596 32.634505 459.333247 32.831099 459.022281 33.027692 458.711704 33.224286 458.401520 33.420879 458.091731 33.617473 457.782342 33.814066 457.473358 34.010659 457.164782 34.207253 456.856618 34.403846 456.548870 34.600440 456.241543 34.797033 455.934639 34.993626 455.628164 35.190220 455.322121 35.386813 455.016515 35.583407 454.711348 35.780000 454.406626 35.976593 454.102352 36.173187 453.798530 36.369780 453.495164 36.566374 453.192259 36.762967 452.889818 36.959560 452.587845 37.156154 452.286344 37.352747 451.985319 37.549341 451.684775 37.745934 451.384715 37.942527 451.085143 38.139121 450.786063 38.335714 450.487480 38.532308 450.189397 38.728901 449.891818 38.925495 449.594747 39.122088 449.298189 39.318681 449.002147 39.515275 448.706625 39.711868 448.411627 39.908462 448.117157 40.105055 447.823220 40.301648 447.529819 40.498242 447.236958 40.694835 446.944642 40.891429 446.652874 41.088022 446.361658 41.284615 446.070998 41.481209 445.780899 41.677802 445.491364 41.874396 445.202397 42.070989 444.914002 42.267582 444.626184 42.464176 444.338946 42.660769 444.052292 42.857363 443.766226 43.053956 443.480753 43.250549 443.195876 43.447143 442.911599 43.643736 442.627927 43.840330 442.344863 44.036923 442.062411 44.233516 441.780575 44.430110 441.499360 44.626703 441.218769 44.823297 440.938807 45.019890 440.659476 45.216484 440.380782 45.413077 440.102728 45.609670 439.825319 45.806264 439.548558 46.002857 439.272449 46.199451 438.996996 46.396044 438.722204 46.592637 438.448076 46.789231 438.174617 46.985824 437.901829 47.182418 437.629718 47.379011 437.358288 47.575604 437.087541 47.772198 436.817483 47.968791 436.548118 48.165385 436.279448 48.361978 436.011479 48.558571 435.744215 48.755165 435.477658 48.951758 435.211814 49.148352 434.946686 49.344945 434.682279 49.541538 434.418596 49.738132 434.155641 49.934725 433.893419 50.131319 433.631933 50.327912 433.371187 50.524505 433.111186 50.721099 432.851933 50.917692 432.593433 51.114286 432.335688 51.310879 432.078705 51.507473 431.822485 51.704066 431.567034 51.900659 431.312355 52.097253 431.058453 52.293846 430.805331 52.490440 430.552993 52.687033 430.301444 52.883626 430.050687 53.080220 429.800726 53.276813 429.551566 53.473407 429.303210 53.670000 429.055663 53.866593 428.808928 54.063187 428.563009 54.259780 428.317911 54.456374 428.073637 54.652967 427.830191 54.849560 427.587578 55.046154 427.345801 55.242747 427.104865 55.439341 426.864773 55.635934 426.625530 55.832527 426.387139 56.029121 426.149604 56.225714 425.912929 56.422308 425.677120 56.618901 425.442178 56.815495 425.208109 57.012088 424.974916 57.208681 424.742604 57.405275 424.511176 57.601868 424.280637 57.798462 424.050990 57.995055 423.822239 58.191648 423.594389 58.388242 423.367443 58.584835 423.141406 58.781429 422.916281 58.978022 422.692072 59.174615 422.468784 59.371209 422.246421 59.567802 422.024986 59.764396 421.804483 59.960989 421.584917 60.157582 421.366291 60.354176 421.148609 60.550769 420.931876 60.747363 420.716096 60.943956 420.501272 61.140549 420.287408 61.337143 420.074509 61.533736 419.862578 61.730330 419.651620 61.926923 419.441638 62.123516 419.232637 62.320110 419.024620 62.516703 418.817592 62.713297 418.611556 62.909890 418.406516 63.106484 418.202475 63.303077 417.999425 63.499670 417.797357 63.696264 417.596263 63.892857 417.396132 64.089451 417.196956 64.286044 416.998725 64.482637 416.801430 64.679231 416.605063 64.875824 416.409614 65.072418 416.215074 65.269011 416.021433 65.465604 415.828683 65.662198 415.636815 65.858791 415.445818 66.055385 415.255685 66.251978 415.066406 66.448571 414.877971 66.645165 414.690372 66.841758 414.503599 67.038352 414.317644 67.234945 414.132497 67.431538 413.948148 67.628132 413.764590 67.824725 413.581812 68.021319 413.399806 68.217912 413.218561 68.414505 413.038071 68.611099 412.858324 68.807692 412.679312 69.004286 412.501025 69.200879 412.323455 69.397473 412.146593 69.594066 411.970428 69.790659 411.794953 69.987253 411.620158 70.183846 411.446033 70.380440 411.272570 70.577033 411.099759 70.773626 410.927591 70.970220 410.756058 71.166813 410.585149 71.363407 410.414857 71.560000 410.245170 71.756593 410.076082 71.953187 409.907581 72.149780 409.739660 72.346374 409.572308 72.542967 409.405518 72.739560 409.239279 72.936154 409.073582 73.132747 408.908419 73.329341 408.743780 73.525934 408.579656 73.722527 408.416038 73.919121 408.252917 74.115714 408.090283 74.312308 407.928127 74.508901 407.766441 74.705495 407.605214 74.902088 407.444439 75.098681 407.284105 75.295275 407.124204 75.491868 406.964726 75.688462 406.805662 75.885055 406.647004 76.081648 406.488741 76.278242 406.330865 76.474835 406.173367 76.671429 406.016238 76.868022 405.859467 77.064615 405.703047 77.261209 405.546967 77.457802 405.391220 77.654396 405.235795 77.850989 405.080683 78.047582 404.925876 78.244176 404.771364 78.440769 404.617138 78.637363 404.463189 78.833956 404.309508 79.030549 404.156085 79.227143 404.002911 79.423736 403.849978 79.620330 403.697275 79.816923 403.544795 80.013516 403.392527 80.210110 403.240463 80.406703 403.088593 80.603297 402.936909 80.799890 402.785400 80.996484 402.634059 81.193077 402.482875 81.389670 402.331840 81.586264 402.180944 81.782857 402.030179 81.979451 401.879535 82.176044 401.729002 82.372637 401.578573 82.569231 401.428237 82.765824 401.277986 82.962418 401.127810 83.159011 400.977700 83.355604 400.827647 83.552198 400.677642 83.748791 400.527676 83.945385 400.377739 84.141978 400.227822 84.338571 400.077917 84.535165 399.928014 84.731758 399.778104 84.928352 399.628177 85.124945 399.478225 85.321538 399.328239 85.518132 399.178208 85.714725 399.028125 85.911319 398.877980 86.107912 398.727763 86.304505 398.577466 86.501099 398.427080 86.697692 398.276594 86.894286 398.126001 87.090879 397.975291 87.287473 397.824455 87.484066 397.673483 87.680659 397.522367 87.877253 397.371097 88.073846 397.219665 88.270440 397.068060 88.467033 396.916274 88.663626 396.764298 88.860220 396.612123 89.056813 396.459738 89.253407 396.307137 89.450000 396.154308 89.646593 396.001243 89.843187 395.847932 90.039780 395.694368 90.236374 395.540539 90.432967 395.386438 90.629560 395.232055 90.826154 395.077381 91.022747 394.922407 91.219341 394.767123 91.415934 394.611521 91.612527 394.455591 91.809121 394.299324 92.005714 394.142712 92.202308 393.985744 92.398901 393.828411 92.595495 393.670705 92.792088 393.512617 92.988681 393.354137 93.185275 393.195255 93.381868 393.035964 93.578462 392.876253 93.775055 392.716114 93.971648 392.555537 94.168242 392.394513 94.364835 392.233034 94.561429 392.071089 94.758022 391.908670 94.954615 391.745768 95.151209 391.582373 95.347802 391.418476 95.544396 391.254069 95.740989 391.089141 95.937582 390.923684 96.134176 390.757689 96.330769 390.591146 96.527363 390.424047 96.723956 390.256381 96.920549 390.088141 97.117143 389.919316 97.313736 389.749898 97.510330 389.579878 97.706923 389.409246 97.903516 389.237993 98.100110 389.066110 98.296703 388.893588 98.493297 388.720418 98.689890 388.546590 98.886484 388.372096 99.083077 388.196926 99.279670 388.021070 99.476264 387.844521 99.672857 387.667269 99.869451 387.489304 100.066044 387.310617 100.262637 387.131200 100.459231 386.951043 100.655824 386.770137 100.852418 386.588473 101.049011 386.406041 101.245604 386.222832 101.442198 386.038838 101.638791 385.854050 101.835385 385.668457 102.031978 385.482051 102.228571 385.294822 102.425165 385.106762 102.621758 384.917862 102.818352 384.728111 103.014945 384.537502 103.211538 384.346025 103.408132 384.153670 103.604725 383.960429 103.801319 383.766292 103.997912 383.571250 104.194505 383.375295 104.391099 383.178416 104.587692 382.980605 104.784286 382.781853 104.980879 382.582150 105.177473 382.381487 105.374066 382.179856 105.570659 381.977246 105.767253 381.773649 105.963846 381.569056 106.160440 381.363458 106.357033 381.156844 106.553626 380.949207 106.750220 380.740537 106.946813 380.530824 107.143407 380.320060 107.340000 380.108236 107.536593 379.895342 107.733187 379.681370 107.929780 379.466309 108.126374 379.250151 108.322967 379.032887 108.519560 378.814507 108.716154 378.595003 108.912747 378.374365 109.109341 378.152584 109.305934 377.929651 109.502527 377.705557 109.699121 377.480292 109.895714 377.253848 110.092308 377.026215 110.288901 376.797385 110.485495 376.567347 110.682088 376.336093 110.878681 376.103613 111.075275 375.869899 111.271868 375.634941 111.468462 375.398731 111.665055 375.161258 111.861648 374.922515 112.058242 374.682491 112.254835 374.441180 112.451429 374.198586 112.648022 373.954717 112.844615 373.709578 113.041209 373.463177 113.237802 373.215520 113.434396 372.966615 113.630989 372.716467 113.827582 372.465085 114.024176 372.212473 114.220769 371.958640 114.417363 371.703592 114.613956 371.447336 114.810549 371.189879 115.007143 370.931227 115.203736 370.671387 115.400330 370.410366 115.596923 370.148171 115.793516 369.884808 115.990110 369.620285 116.186703 369.354608 116.383297 369.087783 116.579890 368.819819 116.776484 368.550720 116.973077 368.280495 117.169670 368.009150 117.366264 367.736691 117.562857 367.463127 117.759451 367.188462 117.956044 366.912704 118.152637 366.635861 118.349231 366.357937 118.545824 366.078942 118.742418 365.798880 118.939011 365.517760 119.135604 365.235587 119.332198 364.952369 119.528791 364.668112 119.725385 364.382823 119.921978 364.096509 120.118571 363.809176 120.315165 363.520832 120.511758 363.231484 120.708352 362.941137 120.904945 362.649799 121.101538 362.357476 121.298132 362.064176 121.494725 361.769905 121.691319 361.474669 121.887912 361.178477 122.084505 360.881333 122.281099 360.583246 122.477692 360.284222 122.674286 359.984268 122.870879 359.683390 123.067473 359.381596 123.264066 359.078891 123.460659 358.775284 123.657253 358.470780 123.853846 358.165386 124.050440 357.859110 124.247033 357.551958 124.443626 357.243936 124.640220 356.935052 124.836813 356.625312 125.033407 356.314723 125.230000 356.003293 125.426593 355.691027 125.623187 355.377932 125.819780 355.064015 126.016374 354.749284 126.212967 354.433744 126.409560 354.117403 126.606154 353.800267 126.802747 353.482343 126.999341 353.163638 127.195934 352.844158 127.392527 352.523911 127.589121 352.202904 127.785714 351.881142 127.982308 351.558633 128.178901 351.235384 128.375495 350.911400 128.572088 350.586690 128.768681 350.261260 128.965275 349.935117 129.161868 349.608266 129.358462 349.280717 129.555055 348.952474 129.751648 348.623544 129.948242 348.293936 130.144835 347.963655 130.341429 347.632707 130.538022 347.301101 130.734615 346.968842 130.931209 346.635938 131.127802 346.302395 131.324396 345.968220 131.520989 345.633420 131.717582 345.298001 131.914176 344.961970 132.110769 344.625335 132.307363 344.288102 132.503956 343.950277 132.700549 343.611867 132.897143 343.272880 133.093736 342.933322 133.290330 342.593200 133.486923 342.252520 133.683516 341.911289 133.880110 341.569515 134.076703 341.227203 134.273297 340.884361 134.469890 340.540996 134.666484 340.197113 134.863077 339.852721 135.059670 339.507826 135.256264 339.162434 135.452857 338.816552 135.649451 338.470187 135.846044 338.123347 136.042637 337.776037 136.239231 337.428264 136.435824 337.080036 136.632418 336.731358 136.829011 336.382239 137.025604 336.032684 137.222198 335.682700 137.418791 335.332295 137.615385 334.981474 137.811978 334.630245 138.008571 334.278614 138.205165 333.926589 138.401758 333.574175 138.598352 333.221381 138.794945 332.868212 138.991538 332.514675 139.188132 332.160777 139.384725 331.806525 139.581319 331.451926 139.777912 331.096987 139.974505 330.741713 140.171099 330.386113 140.367692 330.030192 140.564286 329.673958 140.760879 329.317417 140.957473 328.960577 141.154066 328.603443 141.350659 328.246023 141.547253 327.888323 141.743846 327.530351 141.940440 327.172112 142.137033 326.813615 142.333626 326.454865 142.530220 326.095869 142.726813 325.736634 142.923407 325.377167 143.120000 325.017475 143.316593 324.657565 143.513187 324.297442 143.709780 323.937115 143.906374 323.576589 144.102967 323.215872 144.299560 322.854970 144.496154 322.493891 144.692747 322.132640 144.889341 321.771225 145.085934 321.409652 145.282527 321.047929 145.479121 320.686062 145.675714 320.324057 145.872308 319.961922 146.068901 319.599664 146.265495 319.237288 146.462088 318.874802 146.658681 318.512213 146.855275 318.149528 147.051868 317.786753 147.248462 317.423894 147.445055 317.060960 147.641648 316.697956 147.838242 316.334889 148.034835 315.971767 148.231429 315.608595 148.428022 315.245381 148.624615 314.882132 148.821209 314.518854 149.017802 314.155554 149.214396 313.792238 149.410989 313.428914 149.607582 313.065589 149.804176 312.702269 150.000769 312.338960 150.197363 311.975670 150.393956 311.612406 150.590549 311.249174 150.787143 310.885981 150.983736 310.522834 151.180330 310.159739 151.376923 309.796704 151.573516 309.433734 151.770110 309.070838 151.966703 308.708021 152.163297 308.345291 152.359890 307.982654 152.556484 307.620117 152.753077 307.257687 152.949670 306.895371 153.146264 306.533175 153.342857 306.171106 153.539451 305.809170 153.736044 305.447376 153.932637 305.085729 154.129231 304.724236 154.325824 304.362904 154.522418 304.001741 154.719011 303.640751 154.915604 303.279943 155.112198 302.919323 155.308791 302.558898 155.505385 302.198675 155.701978 301.838660 155.898571 301.478861 156.095165 301.119283 156.291758 300.759934 156.488352 300.400821 156.684945 300.041950 156.881538 299.683329 157.078132 299.324963 157.274725 298.966860 157.471319 298.609026 157.667912 298.251469 157.864505 297.894195 158.061099 297.537210 158.257692 297.180522 158.454286 296.824138 158.650879 296.468063 158.847473 296.112306 159.044066 295.756872 159.240659 295.401769 159.437253 295.047003 159.633846 294.692580 159.830440 294.338509 160.027033 293.984796 160.223626 293.631446 160.420220 293.278468 160.616813 292.925868 160.813407 292.573652 161.010000 292.221828 161.206593 291.870402 161.403187 291.519380 161.599780 291.168763 161.796374 290.818551 161.992967 290.468744 162.189560 290.119341 162.386154 289.770342 162.582747 289.421748 162.779341 289.073558 162.975934 288.725772 163.172527 288.378390 163.369121 288.031411 163.565714 287.684837 163.762308 287.338666 163.958901 286.992899 164.155495 286.647535 164.352088 286.302574 164.548681 285.958016 164.745275 285.613862 164.941868 285.270110 165.138462 284.926761 165.335055 284.583814 165.531648 284.241271 165.728242 283.899129 165.924835 283.557390 166.121429 283.216053 166.318022 282.875118 166.514615 282.534585 166.711209 282.194454 166.907802 281.854725 167.104396 281.515397 167.300989 281.176470 167.497582 280.837945 167.694176 280.499821 167.890769 280.162098 168.087363 279.824777 168.283956 279.487856 168.480549 279.151335 168.677143 278.815216 168.873736 278.479497 169.070330 278.144178 169.266923 277.809259 169.463516 277.474741 169.660110 277.140623 169.856703 276.806904 170.053297 276.473586 170.249890 276.140667 170.446484 275.808147 170.643077 275.476027 170.839670 275.144307 171.036264 274.812985 171.232857 274.482063 171.429451 274.151539 171.626044 273.821415 171.822637 273.491689 172.019231 273.162361 172.215824 272.833433 172.412418 272.504902 172.609011 272.176770 172.805604 271.849036 173.002198 271.521699 173.198791 271.194761 173.395385 270.868221 173.591978 270.542078 173.788571 270.216332 173.985165 269.890984 174.181758 269.566034 174.378352 269.241480 174.574945 268.917324 174.771538 268.593564 174.968132 268.270201 175.164725 267.947235 175.361319 267.624666 175.557912 267.302493 175.754505 266.980716 175.951099 266.659335 176.147692 266.338351 176.344286 266.017762 176.540879 265.697570 176.737473 265.377773 176.934066 265.058372 177.130659 264.739366 177.327253 264.420755 177.523846 264.102540 177.720440 263.784720 177.917033 263.467295 178.113626 263.150265 178.310220 262.833630 178.506813 262.517389 178.703407 262.201543 178.900000 261.886091 179.096593 261.571034 179.293187 261.256370 179.489780 260.942101 179.686374 260.628226 179.882967 260.314744 180.079560 260.001657 180.276154 259.688963 180.472747 259.376662 180.669341 259.064754 180.865934 258.753240 181.062527 258.442119 181.259121 258.131391 181.455714 257.821056 181.652308 257.511114 181.848901 257.201564 182.045495 256.892407 182.242088 256.583642 182.438681 256.275269 182.635275 255.967289 182.831868 255.659700 183.028462 255.352504 183.225055 255.045699 183.421648 254.739286 183.618242 254.433265 183.814835 254.127635 184.011429 253.822396 184.208022 253.517548 184.404615 253.213092 184.601209 252.909026 184.797802 252.605352 184.994396 252.302068 185.190989 251.999174 185.387582 251.696672 185.584176 251.394559 185.780769 251.092837 185.977363 250.791505 186.173956 250.490563 186.370549 250.190010 186.567143 249.889848 186.763736 249.590075 186.960330 249.290692 187.156923 248.991698 187.353516 248.693094 187.550110 248.394878 187.746703 248.097052 187.943297 247.799614 188.139890 247.502566 188.336484 247.205906 188.533077 246.909635 188.729670 246.613752 188.926264 246.318257 189.122857 246.023151 189.319451 245.728433 189.516044 245.434102 189.712637 245.140160 189.909231 244.846605 190.105824 244.553438 190.302418 244.260659 190.499011 243.968267 190.695604 243.676262 190.892198 243.384644 191.088791 243.093413 191.285385 242.802569 191.481978 242.512112 191.678571 242.222042 191.875165 241.932358 192.071758 241.643061 192.268352 241.354150 192.464945 241.065625 192.661538 240.777486 192.858132 240.489733 193.054725 240.202366 193.251319 239.915385 193.447912 239.628789 193.644505 239.342579 193.841099 239.056754 194.037692 238.771315 194.234286 238.486260 194.430879 238.201590 194.627473 237.917306 194.824066 237.633406 195.020659 237.349891 195.217253 237.066760 195.413846 236.784014 195.610440 236.501652 195.807033 236.219674 196.003626 235.938080 196.200220 235.656870 196.396813 235.376044 196.593407 235.095601 196.790000 234.815543 196.986593 234.535867 197.183187 234.256575 197.379780 233.977666 197.576374 233.699140 197.772967 233.420998 197.969560 233.143238 198.166154 232.865860 198.362747 232.588866 198.559341 232.312254 198.755934 232.036024 198.952527 231.760176 199.149121 231.484711 199.345714 231.209628 199.542308 230.934926 199.738901 230.660607 199.935495 230.386668 200.132088 230.113112 200.328681 229.839937 200.525275 229.567143 200.721868 229.294731 200.918462 229.022699 201.115055 228.751049 201.311648 228.479779 201.508242 228.208890 201.704835 227.938381 201.901429 227.668253 202.098022 227.398506 202.294615 227.129138 202.491209 226.860151 202.687802 226.591544 202.884396 226.323316 203.080989 226.055469 203.277582 225.788000 203.474176 225.520912 203.670769 225.254203 203.867363 224.987873 204.063956 224.721922 204.260549 224.456350 204.457143 224.191158 204.653736 223.926344 204.850330 223.661908 205.046923 223.397852 205.243516 223.134173 205.440110 222.870873 205.636703 222.607952 205.833297 222.345408 206.029890 222.083242 206.226484 221.821454 206.423077 221.560044 206.619670 221.299011 206.816264 221.038356 207.012857 220.778079 207.209451 220.518178 207.406044 220.258655 207.602637 219.999508 207.799231 219.740739 207.995824 219.482346 208.192418 219.224330 208.389011 218.966691 208.585604 218.709428 208.782198 218.452541 208.978791 218.196030 209.175385 217.939896 209.371978 217.684137 209.568571 217.428754 209.765165 217.173747 209.961758 216.919116 210.158352 216.664859 210.354945 216.410979 210.551538 216.157473 210.748132 215.904342 210.944725 215.651584 211.141319 215.399198 211.337912 215.147183 211.534505 214.895539 211.731099 214.644265 211.927692 214.393358 212.124286 214.142820 212.320879 213.892648 212.517473 213.642841 212.714066 213.393399 212.910659 213.144321 213.107253 212.895605 213.303846 212.647251 213.500440 212.399258 213.697033 212.151624 213.893626 211.904349 214.090220 211.657433 214.286813 211.410873 214.483407 211.164669 214.680000 210.918819 214.876593 210.673324 215.073187 210.428182 215.269780 210.183392 215.466374 209.938953 215.662967 209.694864 215.859560 209.451124 216.056154 209.207733 216.252747 208.964688 216.449341 208.721990 216.645934 208.479637 216.842527 208.237629 217.039121 207.995964 217.235714 207.754641 217.432308 207.513659 217.628901 207.273019 217.825495 207.032717 218.022088 206.792754 218.218681 206.553129 218.415275 206.313840 218.611868 206.074887 218.808462 205.836269 219.005055 205.597984 219.201648 205.360032 219.398242 205.122412 219.594835 204.885122 219.791429 204.648163 219.988022 204.411532 220.184615 204.175229 220.381209 203.939253 220.577802 203.703603 220.774396 203.468278 220.970989 203.233277 221.167582 202.998599 221.364176 202.764244 221.560769 202.530209 221.757363 202.296495 221.953956 202.063100 222.150549 201.830023 222.347143 201.597263 222.543736 201.364820 222.740330 201.132692 222.936923 200.900878 223.133516 200.669378 223.330110 200.438190 223.526703 200.207314 223.723297 199.976748 223.919890 199.746492 224.116484 199.516544 224.313077 199.286904 224.509670 199.057571 224.706264 198.828543 224.902857 198.599821 225.099451 198.371401 225.296044 198.143285 225.492637 197.915471 225.689231 197.687957 225.885824 197.460743 226.082418 197.233828 226.279011 197.007212 226.475604 196.780892 226.672198 196.554868 226.868791 196.329139 227.065385 196.103705 227.261978 195.878563 227.458571 195.653714 227.655165 195.429156 227.851758 195.204888 228.048352 194.980909 228.244945 194.757219 228.441538 194.533816 228.638132 194.310700 228.834725 194.087868 229.031319 193.865322 229.227912 193.643059 229.424505 193.421078 229.621099 193.199379 229.817692 192.977960 230.014286 192.756821 230.210879 192.535961 230.407473 192.315378 230.604066 192.095073 230.800659 191.875042 230.997253 191.655287 231.193846 191.435806 231.390440 191.216597 231.587033 190.997660 231.783626 190.778995 231.980220 190.560599 232.176813 190.342472 232.373407 190.124613 232.570000 189.907021 232.766593 189.689696 232.963187 189.472635 233.159780 189.255839 233.356374 189.039306 233.552967 188.823035 233.749560 188.607025 233.946154 188.391276 234.142747 188.175786 234.339341 187.960554 234.535934 187.745580 234.732527 187.530862 234.929121 187.316400 235.125714 187.102192 235.322308 186.888238 235.518901 186.674537 235.715495 186.461087 235.912088 186.247887 236.108681 186.034938 236.305275 185.822237 236.501868 185.609784 236.698462 185.397577 236.895055 185.185617 237.091648 184.973901 237.288242 184.762429 237.484835 184.551200 237.681429 184.340213 237.878022 184.129467 238.074615 183.918961 238.271209 183.708694 238.467802 183.498666 238.664396 183.288874 238.860989 183.079319 239.057582 182.869998 239.254176 182.660912 239.450769 182.452060 239.647363 182.243439 239.843956 182.035050 240.040549 181.826891 240.237143 181.618962 240.433736 181.411261 240.630330 181.203788 240.826923 180.996541 241.023516 180.789519 241.220110 180.582723 241.416703 180.376149 241.613297 180.169799 241.809890 179.963670 242.006484 179.757762 242.203077 179.552073 242.399670 179.346604 242.596264 179.141352 242.792857 178.936317 242.989451 178.731498 243.186044 178.526894 243.382637 178.322504 243.579231 178.118327 243.775824 177.914362 243.972418 177.710607 244.169011 177.507063 244.365604 177.303729 244.562198 177.100602 244.758791 176.897682 244.955385 176.694969 245.151978 176.492461 245.348571 176.290157 245.545165 176.088057 245.741758 175.886159 245.938352 175.684462 246.134945 175.482966 246.331538 175.281670 246.528132 175.080571 246.724725 174.879671 246.921319 174.678967 247.117912 174.478458 247.314505 174.278144 247.511099 174.078024 247.707692 173.878097 247.904286 173.678361 248.100879 173.478816 248.297473 173.279461 248.494066 173.080295 248.690659 172.881317 248.887253 172.682525 249.083846 172.483920 249.280440 172.285499 249.477033 172.087263 249.673626 171.889209 249.870220 171.691338 250.066813 171.493648 250.263407 171.296138 250.460000 171.098807 250.656593 170.901654 250.853187 170.704679 251.049780 170.507880 251.246374 170.311256 251.442967 170.114807 251.639560 169.918531 251.836154 169.722427 252.032747 169.526495 252.229341 169.330733 252.425934 169.135141 252.622527 168.939718 252.819121 168.744462 253.015714 168.549373 253.212308 168.354449 253.408901 168.159690 253.605495 167.965095 253.802088 167.770663 253.998681 167.576393 254.195275 167.382283 254.391868 167.188333 254.588462 166.994542 254.785055 166.800909 254.981648 166.607433 255.178242 166.414113 255.374835 166.220949 255.571429 166.027938 255.768022 165.835080 255.964615 165.642375 256.161209 165.449820 256.357802 165.257416 256.554396 165.065161 256.750989 164.873055 256.947582 164.681096 257.144176 164.489283 257.340769 164.297615 257.537363 164.106092 257.733956 163.914713 257.930549 163.723476 258.127143 163.532380 258.323736 163.341425 258.520330 163.150610 258.716923 162.959933 258.913516 162.769394 259.110110 162.578992 259.306703 162.388725 259.503297 162.198593 259.699890 162.008595 259.896484 161.818731 260.093077 161.629000 260.289670 161.439403 260.486264 161.249939 260.682857 161.060608 260.879451 160.871409 261.076044 160.682344 261.272637 160.493411 261.469231 160.304610 261.665824 160.115942 261.862418 159.927406 262.059011 159.739001 262.255604 159.550729 262.452198 159.362588 262.648791 159.174579 262.845385 158.986701 263.041978 158.798954 263.238571 158.611338 263.435165 158.423853 263.631758 158.236499 263.828352 158.049275 264.024945 157.862182 264.221538 157.675219 264.418132 157.488386 264.614725 157.301683 264.811319 157.115110 265.007912 156.928666 265.204505 156.742352 265.401099 156.556167 265.597692 156.370112 265.794286 156.184185 265.990879 155.998387 266.187473 155.812718 266.384066 155.627178 266.580659 155.441766 266.777253 155.256482 266.973846 155.071326 267.170440 154.886298 267.367033 154.701398 267.563626 154.516626 267.760220 154.331981 267.956813 154.147463 268.153407 153.963073 268.350000 153.778809 268.546593 153.594673 268.743187 153.410663 268.939780 153.226779 269.136374 153.043022 269.332967 152.859391 269.529560 152.675886 269.726154 152.492508 269.922747 152.309255 270.119341 152.126127 270.315934 151.943125 270.512527 151.760248 270.709121 151.577497 270.905714 151.394870 271.102308 151.212369 271.298901 151.029992 271.495495 150.847739 271.692088 150.665611 271.888681 150.483607 272.085275 150.301727 272.281868 150.119971 272.478462 149.938339 272.675055 149.756830 272.871648 149.575445 273.068242 149.394183 273.264835 149.213044 273.461429 149.032029 273.658022 148.851136 273.854615 148.670365 274.051209 148.489718 274.247802 148.309192 274.444396 148.128789 274.640989 147.948508 274.837582 147.768349 275.034176 147.588311 275.230769 147.408395 275.427363 147.228601 275.623956 147.048928 275.820549 146.869376 276.017143 146.689944 276.213736 146.510634 276.410330 146.331445 276.606923 146.152375 276.803516 145.973427 277.000110 145.794598 277.196703 145.615889 277.393297 145.437301 277.589890 145.258832 277.786484 145.080482 277.983077 144.902253 278.179670 144.724142 278.376264 144.546150 278.572857 144.368278 278.769451 144.190524 278.966044 144.012889 279.162637 143.835372 279.359231 143.657974 279.555824 143.480694 279.752418 143.303532 279.949011 143.126487 280.145604 142.949561 280.342198 142.772752 280.538791 142.596060 280.735385 142.419486 280.931978 142.243029 281.128571 142.066689 281.325165 141.890465 281.521758 141.714358 281.718352 141.538368 281.914945 141.362494 282.111538 141.186736 282.308132 141.011095 282.504725 140.835569 282.701319 140.660158 282.897912 140.484864 283.094505 140.309684 283.291099 140.134620 283.487692 139.959671 283.684286 139.784837 283.880879 139.610118 284.077473 139.435514 284.274066 139.261024 284.470659 139.086648 284.667253 138.912386 284.863846 138.738238 285.060440 138.564205 285.257033 138.390285 285.453626 138.216478 285.650220 138.042785 285.846813 137.869205 286.043407 137.695738 286.240000 137.522384 286.436593 137.349143 286.633187 137.176015 286.829780 137.002998 287.026374 136.830095 287.222967 136.657303 287.419560 136.484623 287.616154 136.312056 287.812747 136.139600 288.009341 135.967255 288.205934 135.795022 288.402527 135.622900 288.599121 135.450889 288.795714 135.278989 288.992308 135.107200 289.188901 134.935521 289.385495 134.763953 289.582088 134.592495 289.778681 134.421148 289.975275 134.249910 290.171868 134.078782 290.368462 133.907764 290.565055 133.736855 290.761648 133.566056 290.958242 133.395365 291.154835 133.224784 291.351429 133.054312 291.548022 132.883949 291.744615 132.713694 291.941209 132.543548 292.137802 132.373509 292.334396 132.203580 292.530989 132.033758 292.727582 131.864043 292.924176 131.694437 293.120769 131.524938 293.317363 131.355546 293.513956 131.186262 293.710549 131.017084 293.907143 130.848014 294.103736 130.679050 294.300330 130.510193 294.496923 130.341442 294.693516 130.172798 294.890110 130.004259 295.086703 129.835827 295.283297 129.667500 295.479890 129.499279 295.676484 129.331164 295.873077 129.163154 296.069670 128.995249 296.266264 128.827449 296.462857 128.659754 296.659451 128.492164 296.856044 128.324678 297.052637 128.157297 297.249231 127.990020 297.445824 127.822847 297.642418 127.655778 297.839011 127.488813 298.035604 127.321951 298.232198 127.155193 298.428791 126.988538 298.625385 126.821987 298.821978 126.655538 299.018571 126.489193 299.215165 126.322950 299.411758 126.156810 299.608352 125.990772 299.804945 125.824836 300.001538 125.659002 300.198132 125.493271 300.394725 125.327641 300.591319 125.162113 300.787912 124.996686 300.984505 124.831360 301.181099 124.666136 301.377692 124.501013 301.574286 124.335991 301.770879 124.171069 301.967473 124.006248 302.164066 123.841527 302.360659 123.676906 302.557253 123.512386 302.753846 123.347966 302.950440 123.183645 303.147033 123.019424 303.343626 122.855302 303.540220 122.691280 303.736813 122.527357 303.933407 122.363533 304.130000 122.199807 304.326593 122.036181 304.523187 121.872653 304.719780 121.709223 304.916374 121.545891 305.112967 121.382658 305.309560 121.219523 305.506154 121.056485 305.702747 120.893545 305.899341 120.730702 306.095934 120.567957 306.292527 120.405309 306.489121 120.242758 306.685714 120.080303 306.882308 119.917945 307.078901 119.755684 307.275495 119.593520 307.472088 119.431451 307.668681 119.269479 307.865275 119.107602 308.061868 118.945821 308.258462 118.784136 308.455055 118.622546 308.651648 118.461052 308.848242 118.299652 309.044835 118.138349 309.241429 117.977143 309.438022 117.816035 309.634615 117.655025 309.831209 117.494115 310.027802 117.333305 310.224396 117.172597 310.420989 117.011991 310.617582 116.851488 310.814176 116.691089 311.010769 116.530795 311.207363 116.370606 311.403956 116.210525 311.600549 116.050551 311.797143 115.890686 311.993736 115.730929 312.190330 115.571284 312.386923 115.411749 312.583516 115.252326 312.780110 115.093016 312.976703 114.933820 313.173297 114.774739 313.369890 114.615773 313.566484 114.456924 313.763077 114.298192 313.959670 114.139578 314.156264 113.981084 314.352857 113.822710 314.549451 113.664456 314.746044 113.506324 314.942637 113.348315 315.139231 113.190430 315.335824 113.032669 315.532418 112.875033 315.729011 112.717524 315.925604 112.560141 316.122198 112.402887 316.318791 112.245762 316.515385 112.088766 316.711978 111.931901 316.908571 111.775168 317.105165 111.618567 317.301758 111.462100 317.498352 111.305767 317.694945 111.149569 317.891538 110.993507 318.088132 110.837581 318.284725 110.681794 318.481319 110.526146 318.677912 110.370636 318.874505 110.215268 319.071099 110.060041 319.267692 109.904956 319.464286 109.750014 319.660879 109.595216 319.857473 109.440563 320.054066 109.286056 320.250659 109.131696 320.447253 108.977483 320.643846 108.823419 320.840440 108.669504 321.037033 108.515739 321.233626 108.362126 321.430220 108.208664 321.626813 108.055355 321.823407 107.902201 322.020000 107.749200 322.216593 107.596356 322.413187 107.443668 322.609780 107.291137 322.806374 107.138765 323.002967 106.986551 323.199560 106.834498 323.396154 106.682606 323.592747 106.530875 323.789341 106.379307 323.985934 106.227903 324.182527 106.076663 324.379121 105.925588 324.575714 105.774680 324.772308 105.623939 324.968901 105.473366 325.165495 105.322962 325.362088 105.172728 325.558681 105.022664 325.755275 104.872772 325.951868 104.723052 326.148462 104.573506 326.345055 104.424134 326.541648 104.274937 326.738242 104.125916 326.934835 103.977073 327.131429 103.828406 327.328022 103.679919 327.524615 103.531611 327.721209 103.383484 327.917802 103.235538 328.114396 103.087774 328.310989 102.940194 328.507582 102.792797 328.704176 102.645585 328.900769 102.498560 329.097363 102.351720 329.293956 102.205069 329.490549 102.058606 329.687143 101.912332 329.883736 101.766249 330.080330 101.620356 330.276923 101.474656 330.473516 101.329149 330.670110 101.183835 330.866703 101.038716 331.063297 100.893793 331.259890 100.749066 331.456484 100.604536 331.653077 100.460205 331.849670 100.316073 332.046264 100.172141 332.242857 100.028410 332.439451 99.884881 332.636044 99.741554 332.832637 99.598431 333.029231 99.455512 333.225824 99.312799 333.422418 99.170292 333.619011 99.027992 333.815604 98.885901 334.012198 98.744018 334.208791 98.602345 334.405385 98.460882 334.601978 98.319632 334.798571 98.178593 334.995165 98.037768 335.191758 97.897158 335.388352 97.756762 335.584945 97.616582 335.781538 97.476620 335.978132 97.336875 336.174725 97.197349 336.371319 97.058042 336.567912 96.918956 336.764505 96.780092 336.961099 96.641449 337.157692 96.503030 337.354286 96.364835 337.550879 96.226864 337.747473 96.089120 337.944066 95.951602 338.140659 95.814312 338.337253 95.677250 338.533846 95.540417 338.730440 95.403815 338.927033 95.267444 339.123626 95.131305 339.320220 94.995399 339.516813 94.859727 339.713407 94.724289 339.910000 94.589087 340.106593 94.454122 340.303187 94.319394 340.499780 94.184904 340.696374 94.050653 340.892967 93.916642 341.089560 93.782872 341.286154 93.649344 341.482747 93.516059 341.679341 93.383017 341.875934 93.250220 342.072527 93.117668 342.269121 92.985363 342.465714 92.853304 342.662308 92.721494 342.858901 92.589932 343.055495 92.458620 343.252088 92.327559 343.448681 92.196750 343.645275 92.066193 343.841868 91.935889 344.038462 91.805840 344.235055 91.676046 344.431648 91.546508 344.628242 91.417226 344.824835 91.288203 345.021429 91.159438 345.218022 91.030933 345.414615 90.902688 345.611209 90.774705 345.807802 90.646984 346.004396 90.519526 346.200989 90.392332 346.397582 90.265403 346.594176 90.138740 346.790769 90.012343 346.987363 89.886215 347.183956 89.760354 347.380549 89.634763 347.577143 89.509442 347.773736 89.384393 347.970330 89.259615 348.166923 89.135110 348.363516 89.010880 348.560110 88.886923 348.756703 88.763243 348.953297 88.639839 349.149890 88.516712 349.346484 88.393863 349.543077 88.271294 349.739670 88.149005 349.936264 88.026996 350.132857 87.905270 350.329451 87.783826 350.526044 87.662665 350.722637 87.541790 350.919231 87.421199 351.115824 87.300895 351.312418 87.180878 351.509011 87.061149 351.705604 86.941709 351.902198 86.822558 352.098791 86.703699 352.295385 86.585131 352.491978 86.466855 352.688571 86.348873 352.885165 86.231185 353.081758 86.113792 353.278352 85.996695 353.474945 85.879896 353.671538 85.763394 353.868132 85.647190 354.064725 85.531287 354.261319 85.415683 354.457912 85.300381 354.654505 85.185382 354.851099 85.070685 355.047692 84.956293 355.244286 84.842205 355.440879 84.728424 355.637473 84.614949 355.834066 84.501781 356.030659 84.388922 356.227253 84.276373 356.423846 84.164133 356.620440 84.052205 356.817033 83.940589 357.013626 83.829286 357.210220 83.718296 357.406813 83.607621 357.603407 83.497262 357.800000 83.387220 357.996593 83.277494 358.193187 83.168084 358.389780 83.058988 358.586374 82.950204 358.782967 82.841732 358.979560 82.733568 359.176154 82.625712 359.372747 82.518162 359.569341 82.410916 359.765934 82.303972 359.962527 82.197330 360.159121 82.090986 360.355714 81.984940 360.552308 81.879191 360.748901 81.773735 360.945495 81.668572 361.142088 81.563700 361.338681 81.459118 361.535275 81.354823 361.731868 81.250815 361.928462 81.147091 362.125055 81.043649 362.321648 80.940489 362.518242 80.837608 362.714835 80.735005 362.911429 80.632678 363.108022 80.530626 363.304615 80.428847 363.501209 80.327339 363.697802 80.226100 363.894396 80.125130 364.090989 80.024426 364.287582 79.923986 364.484176 79.823810 364.680769 79.723895 364.877363 79.624239 365.073956 79.524842 365.270549 79.425701 365.467143 79.326815 365.663736 79.228182 365.860330 79.129801 366.056923 79.031670 366.253516 78.933786 366.450110 78.836149 366.646703 78.738758 366.843297 78.641609 367.039890 78.544702 367.236484 78.448035 367.433077 78.351606 367.629670 78.255414 367.826264 78.159457 368.022857 78.063734 368.219451 77.968242 368.416044 77.872980 368.612637 77.777947 368.809231 77.683140 369.005824 77.588559 369.202418 77.494201 369.399011 77.400065 369.595604 77.306149 369.792198 77.212452 369.988791 77.118971 370.185385 77.025706 370.381978 76.932655 370.578571 76.839815 370.775165 76.747186 370.971758 76.654766 371.168352 76.562552 371.364945 76.470544 371.561538 76.378740 371.758132 76.287137 371.954725 76.195736 372.151319 76.104533 372.347912 76.013527 372.544505 75.922717 372.741099 75.832100 372.937692 75.741676 373.134286 75.651442 373.330879 75.561397 373.527473 75.471540 373.724066 75.381868 373.920659 75.292380 374.117253 75.203075 374.313846 75.113950 374.510440 75.025004 374.707033 74.936235 374.903626 74.847643 375.100220 74.759224 375.296813 74.670978 375.493407 74.582903 375.690000 74.494997 375.886593 74.407258 376.083187 74.319685 376.279780 74.232277 376.476374 74.145031 376.672967 74.057946 376.869560 73.971020 377.066154 73.884252 377.262747 73.797639 377.459341 73.711182 377.655934 73.624876 377.852527 73.538722 378.049121 73.452718 378.245714 73.366861 378.442308 73.281150 378.638901 73.195583 378.835495 73.110160 379.032088 73.024877 379.228681 72.939734 379.425275 72.854729 379.621868 72.769861 379.818462 72.685126 380.015055 72.600525 380.211648 72.516055 380.408242 72.431715 380.604835 72.347502 380.801429 72.263416 380.998022 72.179455 381.194615 72.095617 381.391209 72.011900 381.587802 71.928303 381.784396 71.844824 381.980989 71.761461 382.177582 71.678213 382.374176 71.595079 382.570769 71.512056 382.767363 71.429143 382.963956 71.346338 383.160549 71.263639 383.357143 71.181046 383.553736 71.098556 383.750330 71.016167 383.946923 70.933879 384.143516 70.851688 384.340110 70.769595 384.536703 70.687597 384.733297 70.605692 384.929890 70.523878 385.126484 70.442155 385.323077 70.360521 385.519670 70.278973 385.716264 70.197510 385.912857 70.116131 386.109451 70.034834 386.306044 69.953617 386.502637 69.872478 386.699231 69.791417 386.895824 69.710431 387.092418 69.629518 387.289011 69.548678 387.485604 69.467907 387.682198 69.387206 387.878791 69.306572 388.075385 69.226003 388.271978 69.145497 388.468571 69.065054 388.665165 68.984672 388.861758 68.904348 389.058352 68.824081 389.254945 68.743870 389.451538 68.663713 389.648132 68.583608 389.844725 68.503554 390.041319 68.423548 390.237912 68.343590 390.434505 68.263677 390.631099 68.183809 390.827692 68.103983 391.024286 68.024197 391.220879 67.944451 391.417473 67.864742 391.614066 67.785069 391.810659 67.705430 392.007253 67.625824 392.203846 67.546248 392.400440 67.466701 392.597033 67.387182 392.793626 67.307689 392.990220 67.228220 393.186813 67.148774 393.383407 67.069349 393.580000 66.989943 393.776593 66.910554 393.973187 66.831182 394.169780 66.751824 394.366374 66.672479 394.562967 66.593145 394.759560 66.513820 394.956154 66.434503 395.152747 66.355192 395.349341 66.275886 395.545934 66.196582 395.742527 66.117280 395.939121 66.037977 396.135714 65.958672 396.332308 65.879364 396.528901 65.800050 396.725495 65.720729 396.922088 65.641399 397.118681 65.562059 397.315275 65.482707 397.511868 65.403341 397.708462 65.323960 397.905055 65.244562 398.101648 65.165145 398.298242 65.085709 398.494835 65.006250 398.691429 64.926768 398.888022 64.847261 399.084615 64.767727 399.281209 64.688164 399.477802 64.608572 399.674396 64.528947 399.870989 64.449290 400.067582 64.369597 400.264176 64.289867 400.460769 64.210100 400.657363 64.130292 400.853956 64.050442 401.050549 63.970550 401.247143 63.890612 401.443736 63.810628 401.640330 63.730596 401.836923 63.650514 402.033516 63.570380 402.230110 63.490193 402.426703 63.409951 402.623297 63.329653 402.819890 63.249297 403.016484 63.168881 403.213077 63.088404 403.409670 63.007863 403.606264 62.927258 403.802857 62.846587 403.999451 62.765847 404.196044 62.685039 404.392637 62.604158 404.589231 62.523205 404.785824 62.442177 404.982418 62.361073 405.179011 62.279892 405.375604 62.198630 405.572198 62.117288 405.768791 62.035863 405.965385 61.954353 406.161978 61.872757 406.358571 61.791074 406.555165 61.709301 406.751758 61.627437 406.948352 61.545481 407.144945 61.463430 407.341538 61.381287 407.538132 61.299051 407.734725 61.216724 407.931319 61.134307 408.127912 61.051801 408.324505 60.969207 408.521099 60.886526 408.717692 60.803760 408.914286 60.720909 409.110879 60.637975 409.307473 60.554957 409.504066 60.471859 409.700659 60.388680 409.897253 60.305422 410.093846 60.222085 410.290440 60.138672 410.487033 60.055182 410.683626 59.971618 410.880220 59.887979 411.076813 59.804268 411.273407 59.720485 411.470000 59.636631 411.666593 59.552707 411.863187 59.468715 412.059780 59.384656 412.256374 59.300530 412.452967 59.216339 412.649560 59.132083 412.846154 59.047764 413.042747 58.963384 413.239341 58.878942 413.435934 58.794440 413.632527 58.709879 413.829121 58.625261 414.025714 58.540586 414.222308 58.455855 414.418901 58.371069 414.615495 58.286230 414.812088 58.201339 415.008681 58.116396 415.205275 58.031403 415.401868 57.946360 415.598462 57.861270 415.795055 57.776132 415.991648 57.690949 416.188242 57.605720 416.384835 57.520448 416.581429 57.435132 416.778022 57.349775 416.974615 57.264378 417.171209 57.178941 417.367802 57.093465 417.564396 57.007952 417.760989 56.922403 417.957582 56.836818 418.154176 56.751200 418.350769 56.665548 418.547363 56.579864 418.743956 56.494149 418.940549 56.408404 419.137143 56.322630 419.333736 56.236829 419.530330 56.151001 419.726923 56.065147 419.923516 55.979269 420.120110 55.893367 420.316703 55.807443 420.513297 55.721497 420.709890 55.635532 420.906484 55.549547 421.103077 55.463544 421.299670 55.377524 421.496264 55.291488 421.692857 55.205438 421.889451 55.119373 422.086044 55.033296 422.282637 54.947207 422.479231 54.861108 422.675824 54.774999 422.872418 54.688881 423.069011 54.602757 423.265604 54.516626 423.462198 54.430489 423.658791 54.344349 423.855385 54.258206 424.051978 54.172060 424.248571 54.085914 424.445165 53.999768 424.641758 53.913623 424.838352 53.827480 425.034945 53.741341 425.231538 53.655206 425.428132 53.569077 425.624725 53.482955 425.821319 53.396840 426.017912 53.310734 426.214505 53.224637 426.411099 53.138552 426.607692 53.052478 426.804286 52.966418 427.000879 52.880372 427.197473 52.794340 427.394066 52.708326 427.590659 52.622328 427.787253 52.536349 427.983846 52.450389 428.180440 52.364450 428.377033 52.278533 428.573626 52.192638 428.770220 52.106767 428.966813 52.020921 429.163407 51.935101 429.360000 51.849308 429.556593 51.763543 429.753187 51.677807 429.949780 51.592102 430.146374 51.506427 430.342967 51.420785 430.539560 51.335177 430.736154 51.249603 430.932747 51.164064 431.129341 51.078563 431.325934 50.993099 431.522527 50.907674 431.719121 50.822288 431.915714 50.736944 432.112308 50.651642 432.308901 50.566382 432.505495 50.481167 432.702088 50.395998 432.898681 50.310874 433.095275 50.225798 433.291868 50.140771 433.488462 50.055793 433.685055 49.970866 433.881648 49.885990 434.078242 49.801167 434.274835 49.716398 434.471429 49.631684 434.668022 49.547026 434.864615 49.462425 435.061209 49.377882 435.257802 49.293398 435.454396 49.208975 435.650989 49.124613 435.847582 49.040313 436.044176 48.956077 436.240769 48.871906 436.437363 48.787800 436.633956 48.703761 436.830549 48.619789 437.027143 48.535887 437.223736 48.452055 437.420330 48.368293 437.616923 48.284604 437.813516 48.200988 438.010110 48.117446 438.206703 48.033979 438.403297 47.950589 438.599890 47.867276 438.796484 47.784042 438.993077 47.700888 439.189670 47.617814 439.386264 47.534822 439.582857 47.451912 439.779451 47.369087 439.976044 47.286347 440.172637 47.203692 440.369231 47.121125 440.565824 47.038646 440.762418 46.956256 440.959011 46.873957 441.155604 46.791749 441.352198 46.709634 441.548791 46.627612 441.745385 46.545685 441.941978 46.463853 442.138571 46.382118 442.335165 46.300482 442.531758 46.218944 442.728352 46.137506 442.924945 46.056169 443.121538 45.974935 443.318132 45.893803 443.514725 45.812776 443.711319 45.731854 443.907912 45.651039 444.104505 45.570332 444.301099 45.489732 444.497692 45.409243 444.694286 45.328864 444.890879 45.248598 445.087473 45.168444 445.284066 45.088404 445.480659 45.008479 445.677253 44.928670 445.873846 44.848979 446.070440 44.769405 446.267033 44.689951 446.463626 44.610618 446.660220 44.531406 446.856813 44.452316 447.053407 44.373350 447.250000 44.294509 447.446593 44.215794 447.643187 44.137205 447.839780 44.058745 448.036374 43.980413 448.232967 43.902212 448.429560 43.824141 448.626154 43.746203 448.822747 43.668398 449.019341 43.590728 449.215934 43.513193 449.412527 43.435795 449.609121 43.358534 449.805714 43.281411 450.002308 43.204429 450.198901 43.127587 450.395495 43.050888 450.592088 42.974331 450.788681 42.897918 450.985275 42.821650 451.181868 42.745529 451.378462 42.669555 451.575055 42.593729 451.771648 42.518053 451.968242 42.442527 452.164835 42.367152 452.361429 42.291930 452.558022 42.216862 452.754615 42.141949 452.951209 42.067191 453.147802 41.992591 453.344396 41.918148 453.540989 41.843865 453.737582 41.769742 453.934176 41.695779 454.130769 41.621980 454.327363 41.548343 454.523956 41.474871 454.720549 41.401565 454.917143 41.328425 455.113736 41.255452 455.310330 41.182649 455.506923 41.110015 455.703516 41.037552 455.900110 40.965261 456.096703 40.893143 456.293297 40.821199 456.489890 40.749428 456.686484 40.677830 456.883077 40.606403 457.079670 40.535148 457.276264 40.464062 457.472857 40.393145 457.669451 40.322397 457.866044 40.251817 458.062637 40.181403 458.259231 40.111155 458.455824 40.041073 458.652418 39.971155 458.849011 39.901400 459.045604 39.831808 459.242198 39.762379 459.438791 39.693110 459.635385 39.624001 459.831978 39.555053 460.028571 39.486262 460.225165 39.417630 460.421758 39.349155 460.618352 39.280836 460.814945 39.212672 461.011538 39.144663 461.208132 39.076808 461.404725 39.009106 461.601319 38.941556 461.797912 38.874158 461.994505 38.806910 462.191099 38.739812 462.387692 38.672863 462.584286 38.606062 462.780879 38.539408 462.977473 38.472901 463.174066 38.406540 463.370659 38.340324 463.567253 38.274251 463.763846 38.208322 463.960440 38.142536 464.157033 38.076891 464.353626 38.011387 464.550220 37.946023 464.746813 37.880798 464.943407 37.815712 465.140000 37.750764 465.336593 37.685952 465.533187 37.621276 465.729780 37.556735 465.926374 37.492329 466.122967 37.428056 466.319560 37.363916 466.516154 37.299908 466.712747 37.236031 466.909341 37.172285 467.105934 37.108668 467.302527 37.045180 467.499121 36.981819 467.695714 36.918586 467.892308 36.855479 468.088901 36.792497 468.285495 36.729640 468.482088 36.666907 468.678681 36.604297 468.875275 36.541809 469.071868 36.479442 469.268462 36.417196 469.465055 36.355070 469.661648 36.293063 469.858242 36.231174 470.054835 36.169403 470.251429 36.107747 470.448022 36.046208 470.644615 35.984784 470.841209 35.923473 471.037802 35.862276 471.234396 35.801192 471.430989 35.740219 471.627582 35.679357 471.824176 35.618605 472.020769 35.557962 472.217363 35.497428 472.413956 35.437001 472.610549 35.376681 472.807143 35.316468 473.003736 35.256359 473.200330 35.196355 473.396923 35.136454 473.593516 35.076656 473.790110 35.016960 473.986703 34.957365 474.183297 34.897871 474.379890 34.838476 474.576484 34.779180 474.773077 34.719981 474.969670 34.660880 475.166264 34.601875 475.362857 34.542965 475.559451 34.484150 475.756044 34.425429 475.952637 34.366801 476.149231 34.308265 476.345824 34.249821 476.542418 34.191467 476.739011 34.133203 476.935604 34.075028 477.132198 34.016941 477.328791 33.958942 477.525385 33.901029 477.721978 33.843201 477.918571 33.785459 478.115165 33.727801 478.311758 33.670226 478.508352 33.612733 478.704945 33.555323 478.901538 33.497993 479.098132 33.440743 479.294725 33.383572 479.491319 33.326480 479.687912 33.269466 479.884505 33.212528 480.081099 33.155666 480.277692 33.098880 480.474286 33.042168 480.670879 32.985529 480.867473 32.928964 481.064066 32.872470 481.260659 32.816047 481.457253 32.759695 481.653846 32.703412 481.850440 32.647198 482.047033 32.591052 482.243626 32.534973 482.440220 32.478960 482.636813 32.423012 482.833407 32.367130 483.030000 32.311311 483.226593 32.255555 483.423187 32.199861 483.619780 32.144229 483.816374 32.088658 484.012967 32.033146 484.209560 31.977693 484.406154 31.922298 484.602747 31.866961 484.799341 31.811680 484.995934 31.756455 485.192527 31.701285 485.389121 31.646169 485.585714 31.591107 485.782308 31.536097 485.978901 31.481138 486.175495 31.426231 486.372088 31.371373 486.568681 31.316565 486.765275 31.261805 486.961868 31.207093 487.158462 31.152427 487.355055 31.097808 487.551648 31.043234 487.748242 30.988704 487.944835 30.934218 488.141429 30.879775 488.338022 30.825373 488.534615 30.771013 488.731209 30.716693 488.927802 30.662412 489.124396 30.608171 489.320989 30.553967 489.517582 30.499800 489.714176 30.445670 489.910769 30.391575 490.107363 30.337514 490.303956 30.283488 490.500549 30.229494 490.697143 30.175533 490.893736 30.121603 491.090330 30.067704 491.286923 30.013835 491.483516 29.959994 491.680110 29.906182 491.876703 29.852397 492.073297 29.798639 492.269890 29.744906 492.466484 29.691199 492.663077 29.637515 492.859670 29.583855 493.056264 29.530217 493.252857 29.476601 493.449451 29.423006 493.646044 29.369431 493.842637 29.315875 494.039231 29.262338 494.235824 29.208818 494.432418 29.155315 494.629011 29.101828 494.825604 29.048357 495.022198 28.994899 495.218791 28.941456 495.415385 28.888025 495.611978 28.834606 495.808571 28.781198 496.005165 28.727800 496.201758 28.674413 496.398352 28.621033 496.594945 28.567662 496.791538 28.514298 496.988132 28.460940 497.184725 28.407587 497.381319 28.354240 497.577912 28.300896 497.774505 28.247555 497.971099 28.194216 498.167692 28.140879 498.364286 28.087542 498.560879 28.034205 498.757473 27.980867 498.954066 27.927528 499.150659 27.874185 499.347253 27.820840 499.543846 27.767490 499.740440 27.714135 499.937033 27.660774 500.133626 27.607406 500.330220 27.554031 500.526813 27.500648 500.723407 27.447255 500.920000 27.393853 501.116593 27.340439 501.313187 27.287015 501.509780 27.233578 501.706374 27.180127 501.902967 27.126663 502.099560 27.073184 502.296154 27.019689 502.492747 26.966178 502.689341 26.912650 502.885934 26.859104 503.082527 26.805538 503.279121 26.751954 503.475714 26.698348 503.672308 26.644722 503.868901 26.591073 504.065495 26.537402 504.262088 26.483706 504.458681 26.429987 504.655275 26.376241 504.851868 26.322470 505.048462 26.268672 505.245055 26.214846 505.441648 26.160992 505.638242 26.107110 505.834835 26.053200 506.031429 25.999265 506.228022 25.945304 506.424615 25.891318 506.621209 25.837308 506.817802 25.783274 507.014396 25.729218 507.210989 25.675141 507.407582 25.621042 507.604176 25.566922 507.800769 25.512783 507.997363 25.458626 508.193956 25.404450 508.390549 25.350257 508.587143 25.296047 508.783736 25.241821 508.980330 25.187580 509.176923 25.133325 509.373516 25.079056 509.570110 25.024774 509.766703 24.970480 509.963297 24.916175 510.159890 24.861859 510.356484 24.807533 510.553077 24.753198 510.749670 24.698855 510.946264 24.644504 511.142857 24.590146 511.339451 24.535782 511.536044 24.481412 511.732637 24.427038 511.929231 24.372660 512.125824 24.318278 512.322418 24.263895 512.519011 24.209509 512.715604 24.155123 512.912198 24.100736 513.108791 24.046350 513.305385 23.991966 513.501978 23.937583 513.698571 23.883203 513.895165 23.828827 514.091758 23.774455 514.288352 23.720088 514.484945 23.665727 514.681538 23.611372 514.878132 23.557025 515.074725 23.502686 515.271319 23.448355 515.467912 23.394034 515.664505 23.339723 515.861099 23.285424 516.057692 23.231136 516.254286 23.176860 516.450879 23.122598 516.647473 23.068350 516.844066 23.014116 517.040659 22.959899 517.237253 22.905697 517.433846 22.851512 517.630440 22.797345 517.827033 22.743197 518.023626 22.689068 518.220220 22.634958 518.416813 22.580870 518.613407 22.526803 518.810000 22.472758 519.006593 22.418736 519.203187 22.364738 519.399780 22.310764 519.596374 22.256816 519.792967 22.202894 519.989560 22.148998 520.186154 22.095129 520.382747 22.041289 520.579341 21.987478 520.775934 21.933697 520.972527 21.879946 521.169121 21.826226 521.365714 21.772538 521.562308 21.718883 521.758901 21.665261 521.955495 21.611673 522.152088 21.558120 522.348681 21.504603 522.545275 21.451123 522.741868 21.397679 522.938462 21.344274 523.135055 21.290907 523.331648 21.237579 523.528242 21.184292 523.724835 21.131045 523.921429 21.077841 524.118022 21.024678 524.314615 20.971559 524.511209 20.918483 524.707802 20.865453 524.904396 20.812467 525.100989 20.759528 525.297582 20.706636 525.494176 20.653791 525.690769 20.600995 525.887363 20.548247 526.083956 20.495550 526.280549 20.442903 526.477143 20.390308 526.673736 20.337764 526.870330 20.285274 527.066923 20.232837 527.263516 20.180454 527.460110 20.128127 527.656703 20.075855 527.853297 20.023640 528.049890 19.971483 528.246484 19.919383 528.443077 19.867342 528.639670 19.815361 528.836264 19.763440 529.032857 19.711580 529.229451 19.659782 529.426044 19.608047 529.622637 19.556375 529.819231 19.504766 530.015824 19.453223 530.212418 19.401745 530.409011 19.350334 530.605604 19.298990 530.802198 19.247713 530.998791 19.196505 531.195385 19.145366 531.391978 19.094297 531.588571 19.043299 531.785165 18.992373 531.981758 18.941519 532.178352 18.890738 532.374945 18.840030 532.571538 18.789397 532.768132 18.738840 532.964725 18.688358 533.161319 18.637953 533.357912 18.587626 533.554505 18.537377 533.751099 18.487207 533.947692 18.437116 534.144286 18.387106 534.340879 18.337178 534.537473 18.287331 534.734066 18.237567 534.930659 18.187887 535.127253 18.138290 535.323846 18.088779 535.520440 18.039354 535.717033 17.990015 535.913626 17.940763 536.110220 17.891599 536.306813 17.842524 536.503407 17.793538 536.700000 17.744642 536.896593 17.695838 537.093187 17.647125 537.289780 17.598504 537.486374 17.549977 537.682967 17.501544 537.879560 17.453205 538.076154 17.404962 538.272747 17.356815 538.469341 17.308765 538.665934 17.260812 538.862527 17.212958 539.059121 17.165203 539.255714 17.117548 539.452308 17.069994 539.648901 17.022541 539.845495 16.975191 540.042088 16.927943 540.238681 16.880798 540.435275 16.833759 540.631868 16.786824 540.828462 16.739995 541.025055 16.693273 541.221648 16.646658 541.418242 16.600152 541.614835 16.553754 541.811429 16.507466 542.008022 16.461288 542.204615 16.415221 542.401209 16.369267 542.597802 16.323425 542.794396 16.277696 542.990989 16.232081 543.187582 16.186581 543.384176 16.141197 543.580769 16.095929 543.777363 16.050778 543.973956 16.005745 544.170549 15.960831 544.367143 15.916036 544.563736 15.871361 544.760330 15.826807 544.956923 15.782374 545.153516 15.738064 545.350110 15.693877 545.546703 15.649813 545.743297 15.605875 545.939890 15.562061 546.136484 15.518374 546.333077 15.474813 546.529670 15.431380 546.726264 15.388075 546.922857 15.344899 547.119451 15.301854 547.316044 15.258938 547.512637 15.216154 547.709231 15.173502 547.905824 15.130983 548.102418 15.088597 548.299011 15.046345 548.495604 15.004229 548.692198 14.962248 548.888791 14.920404 549.085385 14.878697 549.281978 14.837128 549.478571 14.795698 549.675165 14.754407 549.871758 14.713257 550.068352 14.672247 550.264945 14.631380 550.461538 14.590655 550.658132 14.550073 550.854725 14.509635 551.051319 14.469341 551.247912 14.429194 551.444505 14.389192 551.641099 14.349338 551.837692 14.309631 552.034286 14.270072 552.230879 14.230663 552.427473 14.191404 552.624066 14.152296 552.820659 14.113339 553.017253 14.074534 553.213846 14.035882 553.410440 13.997384 553.607033 13.959040 553.803626 13.920851 554.000220 13.882819 554.196813 13.844943 554.393407 13.807224 554.590000 13.769664 554.786593 13.732262 554.983187 13.695018 555.179780 13.657933 555.376374 13.621007 555.572967 13.584240 555.769560 13.547632 555.966154 13.511183 556.162747 13.474893 556.359341 13.438763 556.555934 13.402792 556.752527 13.366982 556.949121 13.331331 557.145714 13.295840 557.342308 13.260510 557.538901 13.225340 557.735495 13.190330 557.932088 13.155482 558.128681 13.120794 558.325275 13.086267 558.521868 13.051901 558.718462 13.017697 558.915055 12.983653 559.111648 12.949772 559.308242 12.916052 559.504835 12.882494 559.701429 12.849098 559.898022 12.815865 560.094615 12.782793 560.291209 12.749884 560.487802 12.717138 560.684396 12.684554 560.880989 12.652134 561.077582 12.619876 561.274176 12.587782 561.470769 12.555851 561.667363 12.524083 561.863956 12.492479 562.060549 12.461039 562.257143 12.429763 562.453736 12.398651 562.650330 12.367703 562.846923 12.336920 563.043516 12.306301 563.240110 12.275847 563.436703 12.245557 563.633297 12.215433 563.829890 12.185474 564.026484 12.155680 564.223077 12.126051 564.419670 12.096588 564.616264 12.067291 564.812857 12.038160 565.009451 12.009194 565.206044 11.980395 565.402637 11.951762 565.599231 11.923296 565.795824 11.894996 565.992418 11.866863 566.189011 11.838896 566.385604 11.811097 566.582198 11.783465 566.778791 11.756001 566.975385 11.728703 567.171978 11.701574 567.368571 11.674612 567.565165 11.647818 567.761758 11.621193 567.958352 11.594735 568.154945 11.568446 568.351538 11.542326 568.548132 11.516374 568.744725 11.490591 568.941319 11.464977 569.137912 11.439532 569.334505 11.414256 569.531099 11.389150 569.727692 11.364213 569.924286 11.339446 570.120879 11.314849 570.317473 11.290422 570.514066 11.266165 570.710659 11.242078 570.907253 11.218162 571.103846 11.194416 571.300440 11.170841 571.497033 11.147437 571.693626 11.124204 571.890220 11.101143 572.086813 11.078252 572.283407 11.055533 572.480000 11.032986 572.676593 11.010610 572.873187 10.988407 573.069780 10.966375 573.266374 10.944516 573.462967 10.922829 573.659560 10.901314 573.856154 10.879973 574.052747 10.858804 574.249341 10.837808 574.445934 10.816985 574.642527 10.796335 574.839121 10.775859 575.035714 10.755556 575.232308 10.735427 575.428901 10.715472 575.625495 10.695691 575.822088 10.676084 576.018681 10.656652 576.215275 10.637393 576.411868 10.618310 576.608462 10.599401 576.805055 10.580667 577.001648 10.562108 577.198242 10.543724 577.394835 10.525515 577.591429 10.507482 577.788022 10.489625 577.984615 10.471943 578.181209 10.454438 578.377802 10.437108 578.574396 10.419955 578.770989 10.402978 578.967582 10.386177 579.164176 10.369553 579.360769 10.353106 579.557363 10.336836 579.753956 10.320743 579.950549 10.304827 580.147143 10.289089 580.343736 10.273528 580.540330 10.258145 580.736923 10.242940 580.933516 10.227912 581.130110 10.213063 581.326703 10.198392 581.523297 10.183900 581.719890 10.169586 581.916484 10.155451 582.113077 10.141494 582.309670 10.127717 582.506264 10.114119 582.702857 10.100700 582.899451 10.087461 583.096044 10.074401 583.292637 10.061521 583.489231 10.048821 583.685824 10.036302 583.882418 10.023962 584.079011 10.011802 584.275604 9.999824 584.472198 9.988025 584.668791 9.976408 584.865385 9.964971 585.061978 9.953716 585.258571 9.942642 585.455165 9.931749 585.651758 9.921038 585.848352 9.910508 586.044945 9.900161 586.241538 9.889995 586.438132 9.880011 586.634725 9.870210 586.831319 9.860591 587.027912 9.851155 587.224505 9.841901 587.421099 9.832830 587.617692 9.823943 587.814286 9.815238 588.010879 9.806717 588.207473 9.798379 588.404066 9.790225 588.600659 9.782254 588.797253 9.774468 588.993846 9.766865 589.190440 9.759447 589.387033 9.752213 589.583626 9.745164 589.780220 9.738299 589.976813 9.731619 590.173407 9.725124 590.370000 9.718814 590.566593 9.712689 590.763187 9.706750 590.959780 9.700996 591.156374 9.695428 591.352967 9.690045 591.549560 9.684849 591.746154 9.679839 591.942747 9.675015 592.139341 9.670377 592.335934 9.665926 592.532527 9.661662 592.729121 9.657584 592.925714 9.653694 593.122308 9.649991 593.318901 9.646475 593.515495 9.643146 593.712088 9.640005 593.908681 9.637052 594.105275 9.634287 594.301868 9.631710 594.498462 9.629321 594.695055 9.627120 594.891648 9.625108 595.088242 9.623284 595.284835 9.621649 595.481429 9.620203 595.678022 9.618947 595.874615 9.617879 596.071209 9.617001 596.267802 9.616312 596.464396 9.615813 596.660989 9.615504 596.857582 9.615385 597.054176 9.615455 597.250769 9.615717 597.447363 9.616168 597.643956 9.616810 597.840549 9.617643 598.037143 9.618667 598.233736 9.619881 598.430330 9.621287 598.626923 9.622884 598.823516 9.624673 599.020110 9.626653 599.216703 9.628825 599.413297 9.631188 599.609890 9.633744 599.806484 9.636492 600.003077 9.639432 600.199670 9.642565 600.396264 9.645891 600.592857 9.649409 600.789451 9.653120 600.986044 9.657024 601.182637 9.661121 601.379231 9.665412 601.575824 9.669896 601.772418 9.674574 601.969011 9.679446 602.165604 9.684512 602.362198 9.689771 602.558791 9.695225 602.755385 9.700874 602.951978 9.706717 603.148571 9.712754 603.345165 9.718987 603.541758 9.725414 603.738352 9.732037 603.934945 9.738854 604.131538 9.745864 604.328132 9.753068 604.524725 9.760464 604.721319 9.768051 604.917912 9.775830 605.114505 9.783798 605.311099 9.791956 605.507692 9.800302 605.704286 9.808837 605.900879 9.817559 606.097473 9.826467 606.294066 9.835561 606.490659 9.844840 606.687253 9.854304 606.883846 9.863951 607.080440 9.873782 607.277033 9.883794 607.473626 9.893989 607.670220 9.904364 607.866813 9.914919 608.063407 9.925653 608.260000 9.936566 608.456593 9.947657 608.653187 9.958926 608.849780 9.970371 609.046374 9.981991 609.242967 9.993787 609.439560 10.005758 609.636154 10.017901 609.832747 10.030218 610.029341 10.042707 610.225934 10.055368 610.422527 10.068199 610.619121 10.081201 610.815714 10.094372 611.012308 10.107711 611.208901 10.121219 611.405495 10.134894 611.602088 10.148735 611.798681 10.162742 611.995275 10.176914 612.191868 10.191251 612.388462 10.205751 612.585055 10.220414 612.781648 10.235239 612.978242 10.250226 613.174835 10.265374 613.371429 10.280681 613.568022 10.296148 613.764615 10.311774 613.961209 10.327558 614.157802 10.343499 614.354396 10.359596 614.550989 10.375849 614.747582 10.392257 614.944176 10.408820 615.140769 10.425536 615.337363 10.442405 615.533956 10.459427 615.730549 10.476599 615.927143 10.493923 616.123736 10.511397 616.320330 10.529020 616.516923 10.546791 616.713516 10.564711 616.910110 10.582777 617.106703 10.600991 617.303297 10.619350 617.499890 10.637854 617.696484 10.656502 617.893077 10.675294 618.089670 10.694229 618.286264 10.713306 618.482857 10.732524 618.679451 10.751884 618.876044 10.771383 619.072637 10.791022 619.269231 10.810799 619.465824 10.830714 619.662418 10.850766 619.859011 10.870955 620.055604 10.891280 620.252198 10.911739 620.448791 10.932333 620.645385 10.953061 620.841978 10.973921 621.038571 10.994913 621.235165 11.016037 621.431758 11.037292 621.628352 11.058677 621.824945 11.080191 622.021538 11.101834 622.218132 11.123604 622.414725 11.145502 622.611319 11.167526 622.807912 11.189676 623.004505 11.211951 623.201099 11.234350 623.397692 11.256873 623.594286 11.279518 623.790879 11.302286 623.987473 11.325175 624.184066 11.348185 624.380659 11.371315 624.577253 11.394565 624.773846 11.417932 624.970440 11.441418 625.167033 11.465021 625.363626 11.488740 625.560220 11.512575 625.756813 11.536525 625.953407 11.560589 626.150000 11.584767 626.346593 11.609058 626.543187 11.633460 626.739780 11.657975 626.936374 11.682600 627.132967 11.707334 627.329560 11.732179 627.526154 11.757131 627.722747 11.782192 627.919341 11.807360 628.115934 11.832634 628.312527 11.858013 628.509121 11.883498 628.705714 11.909087 628.902308 11.934780 629.098901 11.960575 629.295495 11.986473 629.492088 12.012472 629.688681 12.038571 629.885275 12.064771 630.081868 12.091070 630.278462 12.117467 630.475055 12.143962 630.671648 12.170555 630.868242 12.197243 631.064835 12.224028 631.261429 12.250907 631.458022 12.277881 631.654615 12.304948 631.851209 12.332108 632.047802 12.359360 632.244396 12.386703 632.440989 12.414137 632.637582 12.441661 632.834176 12.469274 633.030769 12.496976 633.227363 12.524766 633.423956 12.552643 633.620549 12.580606 633.817143 12.608654 634.013736 12.636788 634.210330 12.665006 634.406923 12.693307 634.603516 12.721691 634.800110 12.750158 634.996703 12.778705 635.193297 12.807334 635.389890 12.836042 635.586484 12.864829 635.783077 12.893695 635.979670 12.922639 636.176264 12.951660 636.372857 12.980757 636.569451 13.009930 636.766044 13.039178 636.962637 13.068500 637.159231 13.097895 637.355824 13.127363 637.552418 13.156904 637.749011 13.186515 637.945604 13.216197 638.142198 13.245950 638.338791 13.275771 638.535385 13.305661 638.731978 13.335618 638.928571 13.365643 639.125165 13.395734 639.321758 13.425891 639.518352 13.456112 639.714945 13.486398 639.911538 13.516747 640.108132 13.547159 640.304725 13.577633 640.501319 13.608169 640.697912 13.638765 640.894505 13.669421 641.091099 13.700136 641.287692 13.730909 641.484286 13.761741 641.680879 13.792629 641.877473 13.823574 642.074066 13.854574 642.270659 13.885629 642.467253 13.916738 642.663846 13.947901 642.860440 13.979117 643.057033 14.010384 643.253626 14.041703 643.450220 14.073072 643.646813 14.104492 643.843407 14.135960 644.040000 14.167477 644.236593 14.199042 644.433187 14.230654 644.629780 14.262312 644.826374 14.294015 645.022967 14.325764 645.219560 14.357556 645.416154 14.389392 645.612747 14.421271 645.809341 14.453192 646.005934 14.485154 646.202527 14.517157 646.399121 14.549199 646.595714 14.581281 646.792308 14.613401 646.988901 14.645559 647.185495 14.677754 647.382088 14.709985 647.578681 14.742252 647.775275 14.774553 647.971868 14.806889 648.168462 14.839258 648.365055 14.871660 648.561648 14.904094 648.758242 14.936559 648.954835 14.969054 649.151429 15.001580 649.348022 15.034135 649.544615 15.066718 649.741209 15.099328 649.937802 15.131966 650.134396 15.164630 650.330989 15.197320 650.527582 15.230034 650.724176 15.262773 650.920769 15.295534 651.117363 15.328319 651.313956 15.361126 651.510549 15.393953 651.707143 15.426802 651.903736 15.459670 652.100330 15.492557 652.296923 15.525463 652.493516 15.558387 652.690110 15.591327 652.886703 15.624284 653.083297 15.657257 653.279890 15.690246 653.476484 15.723251 653.673077 15.756272 653.869670 15.789309 654.066264 15.822362 654.262857 15.855430 654.459451 15.888515 654.656044 15.921615 654.852637 15.954730 655.049231 15.987862 655.245824 16.021008 655.442418 16.054170 655.639011 16.087348 655.835604 16.120541 656.032198 16.153748 656.228791 16.186971 656.425385 16.220210 656.621978 16.253463 656.818571 16.286731 657.015165 16.320014 657.211758 16.353312 657.408352 16.386624 657.604945 16.419951 657.801538 16.453293 657.998132 16.486650 658.194725 16.520021 658.391319 16.553406 658.587912 16.586806 658.784505 16.620220 658.981099 16.653648 659.177692 16.687090 659.374286 16.720547 659.570879 16.754018 659.767473 16.787502 659.964066 16.821001 660.160659 16.854513 660.357253 16.888039 660.553846 16.921579 660.750440 16.955132 660.947033 16.988699 661.143626 17.022280 661.340220 17.055874 661.536813 17.089481 661.733407 17.123102 661.930000 17.156736 662.126593 17.190383 662.323187 17.224043 662.519780 17.257717 662.716374 17.291403 662.912967 17.325102 663.109560 17.358815 663.306154 17.392540 663.502747 17.426277 663.699341 17.460028 663.895934 17.493791 664.092527 17.527566 664.289121 17.561354 664.485714 17.595155 664.682308 17.628968 664.878901 17.662793 665.075495 17.696630 665.272088 17.730480 665.468681 17.764341 665.665275 17.798215 665.861868 17.832100 666.058462 17.865998 666.255055 17.899907 666.451648 17.933828 666.648242 17.967761 666.844835 18.001705 667.041429 18.035661 667.238022 18.069629 667.434615 18.103607 667.631209 18.137598 667.827802 18.171599 668.024396 18.205612 668.220989 18.239636 668.417582 18.273671 668.614176 18.307717 668.810769 18.341775 669.007363 18.375843 669.203956 18.409922 669.400549 18.444011 669.597143 18.478112 669.793736 18.512223 669.990330 18.546345 670.186923 18.580477 670.383516 18.614619 670.580110 18.648773 670.776703 18.682936 670.973297 18.717110 671.169890 18.751294 671.366484 18.785488 671.563077 18.819692 671.759670 18.853906 671.956264 18.888130 672.152857 18.922364 672.349451 18.956608 672.546044 18.990861 672.742637 19.025124 672.939231 19.059397 673.135824 19.093680 673.332418 19.127972 673.529011 19.162273 673.725604 19.196583 673.922198 19.230903 674.118791 19.265233 674.315385 19.299571 674.511978 19.333918 674.708571 19.368275 674.905165 19.402640 675.101758 19.437015 675.298352 19.471398 675.494945 19.505790 675.691538 19.540191 675.888132 19.574600 676.084725 19.609018 676.281319 19.643444 676.477912 19.677879 676.674505 19.712322 676.871099 19.746774 677.067692 19.781234 677.264286 19.815702 677.460879 19.850178 677.657473 19.884662 677.854066 19.919155 678.050659 19.953655 678.247253 19.988163 678.443846 20.022678 678.640440 20.057202 678.837033 20.091733 679.033626 20.126272 679.230220 20.160818 679.426813 20.195372 679.623407 20.229933 679.820000 20.264502 680.016593 20.299078 680.213187 20.333661 680.409780 20.368251 680.606374 20.402849 680.802967 20.437453 680.999560 20.472064 681.196154 20.506682 681.392747 20.541307 681.589341 20.575939 681.785934 20.610578 681.982527 20.645223 682.179121 20.679874 682.375714 20.714533 682.572308 20.749197 682.768901 20.783868 682.965495 20.818545 683.162088 20.853229 683.358681 20.887919 683.555275 20.922614 683.751868 20.957316 683.948462 20.992024 684.145055 21.026738 684.341648 21.061457 684.538242 21.096183 684.734835 21.130914 684.931429 21.165651 685.128022 21.200393 685.324615 21.235141 685.521209 21.269894 685.717802 21.304653 685.914396 21.339417 686.110989 21.374186 686.307582 21.408961 686.504176 21.443740 686.700769 21.478525 686.897363 21.513315 687.093956 21.548110 687.290549 21.582909 687.487143 21.617714 687.683736 21.652523 687.880330 21.687336 688.076923 21.722155 688.273516 21.756978 688.470110 21.791805 688.666703 21.826637 688.863297 21.861473 689.059890 21.896314 689.256484 21.931158 689.453077 21.966007 689.649670 22.000860 689.846264 22.035717 690.042857 22.070578 690.239451 22.105443 690.436044 22.140312 690.632637 22.175184 690.829231 22.210060 691.025824 22.244940 691.222418 22.279824 691.419011 22.314711 691.615604 22.349601 691.812198 22.384495 692.008791 22.419392 692.205385 22.454292 692.401978 22.489196 692.598571 22.524102 692.795165 22.559012 692.991758 22.593924 693.188352 22.628840 693.384945 22.663758 693.581538 22.698680 693.778132 22.733604 693.974725 22.768530 694.171319 22.803459 694.367912 22.838391 694.564505 22.873325 694.761099 22.908262 694.957692 22.943201 695.154286 22.978142 695.350879 23.013086 695.547473 23.048031 695.744066 23.082979 695.940659 23.117929 696.137253 23.152880 696.333846 23.187834 696.530440 23.222789 696.727033 23.257746 696.923626 23.292705 697.120220 23.327666 697.316813 23.362628 697.513407 23.397591 697.710000 23.432556 697.906593 23.467522 698.103187 23.502490 698.299780 23.537459 698.496374 23.572429 698.692967 23.607400 698.889560 23.642372 699.086154 23.677345 699.282747 23.712319 699.479341 23.747294 699.675934 23.782269 699.872527 23.817246 700.069121 23.852223 700.265714 23.887200 700.462308 23.922178 700.658901 23.957157 700.855495 23.992136 701.052088 24.027115 701.248681 24.062095 701.445275 24.097075 701.641868 24.132054 701.838462 24.167034 701.838462 500.000000" /></g></g><g class="titles"><text class="title plot_title" x="500.0" y="26">Japan Year: 1960 - 2016 AD</text></g><g class="plot overlay" transform="translate(264, 46)"><g class="series serie-0 color-0"><g class="dots"><circle class="dot reactive tooltip-trigger" cx="13.761538461538462" cy="490.384615385" r="2.5" /><desc class="value">92,500,572.0 People</desc><desc class="x top">13.761538461538462</desc><desc class="y top">490.384615385</desc><desc class="x_label">1960</desc></g><g class="dots"><circle class="dot reactive tooltip-trigger" cx="62.90989010989011" cy="418.406516264" r="2.5" /><desc class="value">97,826,000.0 People</desc><desc class="x top">62.90989010989011</desc><desc class="y top">418.406516264</desc><desc class="x_label">1964</desc></g><g class="dots"><circle class="dot reactive tooltip-trigger" cx="112.05824175824175" cy="374.682490578" r="2.5" /><desc class="value">101,061,000.0 People</desc><desc class="x top">112.05824175824175</desc><desc class="y top">374.682490578</desc><desc class="x_label">1968</desc></g><g class="dots"><circle class="dot reactive tooltip-trigger" cx="161.20659340659338" cy="291.870402364" r="2.5" /><desc class="value">107,188,000.0 People</desc><desc class="x top">161.20659340659338</desc><desc class="y top">291.870402364</desc><desc class="x_label">1972</desc></g><g class="dots"><circle class="dot reactive tooltip-trigger" cx="210.35494505494506" cy="216.410978747" r="2.5" /><desc class="value">112,771,000.0 People</desc><desc class="x ">210.35494505494506</desc><desc class="y ">216.410978747</desc><desc class="x_label">1976</desc></g><g class="dots"><circle class="dot reactive tooltip-trigger" cx="259.50329670329677" cy="162.198593268" r="2.5" /><desc class="value">116,782,000.0 People</desc><desc class="x ">259.50329670329677</desc><desc class="y ">162.198593268</desc><desc class="x_label">1980</desc></g><g class="dots"><circle class="dot reactive tooltip-trigger" cx="308.6516483516483" cy="118.461051656" r="2.5" /><desc class="value">120,018,000.0 People</desc><desc class="x ">308.6516483516483</desc><desc class="y ">118.461051656</desc><desc class="x_label">1984</desc></g><g class="dots"><circle class="dot reactive tooltip-trigger" cx="357.8" cy="83.3872196145" r="2.5" /><desc class="value">122,613,000.0 People</desc><desc class="x ">357.8</desc><desc class="y ">83.3872196145</desc><desc class="x_label">1988</desc></g><g class="dots"><circle class="dot reactive tooltip-trigger" cx="406.94835164835166" cy="61.5454806633" r="2.5" /><desc class="value">124,229,000.0 People</desc><desc class="x left">406.94835164835166</desc><desc class="y left">61.5454806633</desc><desc class="x_label">1992</desc></g><g class="dots"><circle class="dot reactive tooltip-trigger" cx="456.0967032967033" cy="40.8931433381" r="2.5" /><desc class="value">125,757,000.0 People</desc><desc class="x left">456.0967032967033</desc><desc class="y left">40.8931433381</desc><desc class="x_label">1996</desc></g><g class="dots"><circle class="dot reactive tooltip-trigger" cx="505.245054945055" cy="26.2148459983" r="2.5" /><desc class="value">126,843,000.0 People</desc><desc class="x left">505.245054945055</desc><desc class="y left">26.2148459983</desc><desc class="x_label">2000</desc></g><g class="dots"><circle class="dot reactive tooltip-trigger" cx="554.3934065934066" cy="13.8072244901" r="2.5" /><desc class="value">127,761,000.0 People</desc><desc class="x left">554.3934065934066</desc><desc class="y left">13.8072244901</desc><desc class="x_label">2004</desc></g><g class="dots"><circle class="dot reactive tooltip-trigger" cx="603.5417582417582" cy="9.72541436433" r="2.5" /><desc class="value">128,063,000.0 People</desc><desc class="x left">603.5417582417582</desc><desc class="y left">9.72541436433</desc><desc class="x_label">2008</desc></g><g class="dots"><circle class="dot reactive tooltip-trigger" cx="652.69010989011" cy="15.5913269292" r="2.5" /><desc class="value">127,629,000.0 People</desc><desc class="x left">652.69010989011</desc><desc class="y left">15.5913269292</desc><desc class="x_label">2012</desc></g><g class="dots"><circle class="dot reactive tooltip-trigger" cx="701.8384615384615" cy="24.1670342964" r="2.5" /><desc class="value">126,994,511.0 People</desc><desc class="x left">701.8384615384615</desc><desc class="y left">24.1670342964</desc><desc class="x_label">2016</desc></g></g></g><g class="plot text-overlay" transform="translate(264, 46)"><g class="series serie-0 color-0" /></g><g class="plot tooltip-overlay" transform="translate(264, 46)"><g class="tooltip" style="opacity: 0" transform="translate(0 0)"><rect class="tooltip-box" height="0" rx="0" ry="0" width="0" /><g class="text" /></g></g><g class="legends" transform="translate(10, 56)"><g class="legend reactive activate-serie" id="activate-serie-0"><rect class="color-0 reactive" height="12" width="12" x="0.0" y="1.0" /><text x="17.0" y="11.2">Populations</text></g></g><g class="legends" transform="translate(990, 56)" /></g></svg>