<?xml version='1.0' encoding='utf-8'?>
<svg xmlns:xlink="http://www.w3.org/1999/xlink" class="pygal-chart" id="chart-a213a131-f10f-468a-838a-ad4b67ec22c4" viewBox="0 0 800 600" xmlns="http://www.w3.org/2000/svg"><!--Generated with pygal 2.4.0 (etree) ©Kozea 2012-2016 on 2017-11-20--><!--http://pygal.org--><!--http://github.com/Kozea/pygal--><defs><style type="text/css">#chart-a213a131-f10f-468a-838a-ad4b67ec22c4{-webkit-user-select:none;-webkit-font-smoothing:antialiased;font-family:Consolas,"Liberation Mono",Menlo,Courier,monospace}#chart-a213a131-f10f-468a-838a-ad4b67ec22c4 .title{font-family:Consolas,"Liberation Mono",Menlo,Courier,monospace;font-size:16px}#chart-a213a131-f10f-468a-838a-ad4b67ec22c4 .legends .legend text{font-family:Consolas,"Liberation Mono",Menlo,Courier,monospace;font-size:14px}#chart-a213a131-f10f-468a-838a-ad4b67ec22c4 .axis text{font-family:Consolas,"Liberation Mono",Menlo,Courier,monospace;font-size:10px}#chart-a213a131-f10f-468a-838a-ad4b67ec22c4 .axis text.major{font-family:Consolas,"Liberation Mono",Menlo,Courier,monospace;font-size:10px}#chart-a213a131-f10f-468a-838a-ad4b67ec22c4 .text-overlay text.value{font-family:Consolas,"Liberation Mono",Menlo,Courier,monospace;font-size:16px}#chart-a213a131-f10f-468a-838a-ad4b67ec22c4 .text-overlay text.label{font-family:Consolas,"Liberation Mono",Menlo,Courier,monospace;font-size:10px}#chart-a213a131-f10f-468a-838a-ad4b67ec22c4 .tooltip{font-family:Consolas,"Liberation Mono",Menlo,Courier,monospace;font-size:14px}#chart-a213a131-f10f-468a-838a-ad4b67ec22c4 text.no_data{font-family:Consolas,"Liberation Mono",Menlo,Courier,monospace;font-size:64px}
#chart-a213a131-f10f-468a-838a-ad4b67ec22c4{background-color:transparent}#chart-a213a131-f10f-468a-838a-ad4b67ec22c4 path,#chart-a213a131-f10f-468a-838a-ad4b67ec22c4 line,#chart-a213a131-f10f-468a-838a-ad4b67ec22c4 rect,#chart-a213a131-f10f-468a-838a-ad4b67ec22c4 circle{-webkit-transition:1s ease-out;-moz-transition:1s ease-out;transition:1s ease-out}#chart-a213a131-f10f-468a-838a-ad4b67ec22c4 .graph &gt; .background{fill:transparent}#chart-a213a131-f10f-468a-838a-ad4b67ec22c4 .plot &gt; .background{fill:transparent}#chart-a213a131-f10f-468a-838a-ad4b67ec22c4 .graph{fill:#999}#chart-a213a131-f10f-468a-838a-ad4b67ec22c4 text.no_data{fill:#eee}#chart-a213a131-f10f-468a-838a-ad4b67ec22c4 .title{fill:#eee}#chart-a213a131-f10f-468a-838a-ad4b67ec22c4 .legends .legend text{fill:#999}#chart-a213a131-f10f-468a-838a-ad4b67ec22c4 .legends .legend:hover text{fill:#eee}#chart-a213a131-f10f-468a-838a-ad4b67ec22c4 .axis .line{stroke:#eee}#chart-a213a131-f10f-468a-838a-ad4b67ec22c4 .axis .guide.line{stroke:#555}#chart-a213a131-f10f-468a-838a-ad4b67ec22c4 .axis .major.line{stroke:#999}#chart-a213a131-f10f-468a-838a-ad4b67ec22c4 .axis text.major{fill:#eee}#chart-a213a131-f10f-468a-838a-ad4b67ec22c4 .axis.y .guides:hover .guide.line,#chart-a213a131-f10f-468a-838a-ad4b67ec22c4 .line-graph .axis.x .guides:hover .guide.line,#chart-a213a131-f10f-468a-838a-ad4b67ec22c4 .stackedline-graph .axis.x .guides:hover .guide.line,#chart-a213a131-f10f-468a-838a-ad4b67ec22c4 .xy-graph .axis.x .guides:hover .guide.line{stroke:#eee}#chart-a213a131-f10f-468a-838a-ad4b67ec22c4 .axis .guides:hover text{fill:#eee}#chart-a213a131-f10f-468a-838a-ad4b67ec22c4 .reactive{fill-opacity:.1;stroke-opacity:.8}#chart-a213a131-f10f-468a-838a-ad4b67ec22c4 .ci{stroke:#999}#chart-a213a131-f10f-468a-838a-ad4b67ec22c4 .reactive.active,#chart-a213a131-f10f-468a-838a-ad4b67ec22c4 .active .reactive{fill-opacity:.75;stroke-opacity:.9;stroke-width:4}#chart-a213a131-f10f-468a-838a-ad4b67ec22c4 .ci .reactive.active{stroke-width:1.5}#chart-a213a131-f10f-468a-838a-ad4b67ec22c4 .series text{fill:#eee}#chart-a213a131-f10f-468a-838a-ad4b67ec22c4 .tooltip rect{fill:transparent;stroke:#eee;-webkit-transition:opacity 1s ease-out;-moz-transition:opacity 1s ease-out;transition:opacity 1s ease-out}#chart-a213a131-f10f-468a-838a-ad4b67ec22c4 .tooltip .label{fill:#999}#chart-a213a131-f10f-468a-838a-ad4b67ec22c4 .tooltip .label{fill:#999}#chart-a213a131-f10f-468a-838a-ad4b67ec22c4 .tooltip .legend{font-size:.8em;fill:#555}#chart-a213a131-f10f-468a-838a-ad4b67ec22c4 .tooltip .x_label{font-size:.6em;fill:#eee}#chart-a213a131-f10f-468a-838a-ad4b67ec22c4 .tooltip .xlink{font-size:.5em;text-decoration:underline}#chart-a213a131-f10f-468a-838a-ad4b67ec22c4 .tooltip .value{font-size:1.5em}#chart-a213a131-f10f-468a-838a-ad4b67ec22c4 .bound{font-size:.5em}#chart-a213a131-f10f-468a-838a-ad4b67ec22c4 .max-value{font-size:.75em;fill:#555}#chart-a213a131-f10f-468a-838a-ad4b67ec22c4 .map-element{fill:transparent;stroke:#555 !important}#chart-a213a131-f10f-468a-838a-ad4b67ec22c4 .map-element .reactive{fill-opacity:inherit;stroke-opacity:inherit}#chart-a213a131-f10f-468a-838a-ad4b67ec22c4 .color-0,#chart-a213a131-f10f-468a-838a-ad4b67ec22c4 .color-0 a:visited{stroke:#0000FF;fill:#0000FF}#chart-a213a131-f10f-468a-838a-ad4b67ec22c4 .text-overlay .color-0 text{fill:black}
#chart-a213a131-f10f-468a-838a-ad4b67ec22c4 text.no_data{text-anchor:middle}#chart-a213a131-f10f-468a-838a-ad4b67ec22c4 .guide.line{fill:none}#chart-a213a131-f10f-468a-838a-ad4b67ec22c4 .centered{text-anchor:middle}#chart-a213a131-f10f-468a-838a-ad4b67ec22c4 .title{text-anchor:middle}#chart-a213a131-f10f-468a-838a-ad4b67ec22c4 .legends .legend text{fill-opacity:1}#chart-a213a131-f10f-468a-838a-ad4b67ec22c4 .axis.x text{text-anchor:middle}#chart-a213a131-f10f-468a-838a-ad4b67ec22c4 .axis.x:not(.web) text[transform]{text-anchor:start}#chart-a213a131-f10f-468a-838a-ad4b67ec22c4 .axis.x:not(.web) text[transform].backwards{text-anchor:end}#chart-a213a131-f10f-468a-838a-ad4b67ec22c4 .axis.y text{text-anchor:end}#chart-a213a131-f10f-468a-838a-ad4b67ec22c4 .axis.y text[transform].backwards{text-anchor:start}#chart-a213a131-f10f-468a-838a-ad4b67ec22c4 .axis.y2 text{text-anchor:start}#chart-a213a131-f10f-468a-838a-ad4b67ec22c4 .axis.y2 text[transform].backwards{text-anchor:end}#chart-a213a131-f10f-468a-838a-ad4b67ec22c4 .axis .guide.line{stroke-dasharray:4,4}#chart-a213a131-f10f-468a-838a-ad4b67ec22c4 .axis .major.guide.line{stroke-dasharray:6,6}#chart-a213a131-f10f-468a-838a-ad4b67ec22c4 .horizontal .axis.y .guide.line,#chart-a213a131-f10f-468a-838a-ad4b67ec22c4 .horizontal .axis.y2 .guide.line,#chart-a213a131-f10f-468a-838a-ad4b67ec22c4 .vertical .axis.x .guide.line{opacity:0}#chart-a213a131-f10f-468a-838a-ad4b67ec22c4 .horizontal .axis.always_show .guide.line,#chart-a213a131-f10f-468a-838a-ad4b67ec22c4 .vertical .axis.always_show .guide.line{opacity:1 !important}#chart-a213a131-f10f-468a-838a-ad4b67ec22c4 .axis.y .guides:hover .guide.line,#chart-a213a131-f10f-468a-838a-ad4b67ec22c4 .axis.y2 .guides:hover .guide.line,#chart-a213a131-f10f-468a-838a-ad4b67ec22c4 .axis.x .guides:hover .guide.line{opacity:1}#chart-a213a131-f10f-468a-838a-ad4b67ec22c4 .axis .guides:hover text{opacity:1}#chart-a213a131-f10f-468a-838a-ad4b67ec22c4 .nofill{fill:none}#chart-a213a131-f10f-468a-838a-ad4b67ec22c4 .subtle-fill{fill-opacity:.2}#chart-a213a131-f10f-468a-838a-ad4b67ec22c4 .dot{stroke-width:1px;fill-opacity:1}#chart-a213a131-f10f-468a-838a-ad4b67ec22c4 .dot.active{stroke-width:5px}#chart-a213a131-f10f-468a-838a-ad4b67ec22c4 .dot.negative{fill:transparent}#chart-a213a131-f10f-468a-838a-ad4b67ec22c4 text,#chart-a213a131-f10f-468a-838a-ad4b67ec22c4 tspan{stroke:none !important}#chart-a213a131-f10f-468a-838a-ad4b67ec22c4 .series text.active{opacity:1}#chart-a213a131-f10f-468a-838a-ad4b67ec22c4 .tooltip rect{fill-opacity:.95;stroke-width:.5}#chart-a213a131-f10f-468a-838a-ad4b67ec22c4 .tooltip text{fill-opacity:1}#chart-a213a131-f10f-468a-838a-ad4b67ec22c4 .showable{visibility:hidden}#chart-a213a131-f10f-468a-838a-ad4b67ec22c4 .showable.shown{visibility:visible}#chart-a213a131-f10f-468a-838a-ad4b67ec22c4 .gauge-background{fill:rgba(229,229,229,1);stroke:none}#chart-a213a131-f10f-468a-838a-ad4b67ec22c4 .bg-lines{stroke:transparent;stroke-width:2px}</style><script type="text/javascript">window.pygal = window.pygal || {};window.pygal.config = window.pygal.config || {};window.pygal.config['a213a131-f10f-468a-838a-ad4b67ec22c4'] = {"allow_interruptions": false, "box_mode": "extremes", "classes": ["pygal-chart"], "css": ["file://style.css", "file://graph.css"], "defs": [], "disable_xml_declaration": false, "dots_size": 2.5, "dynamic_print_values": false, "explicit_size": false, "fill": true, "force_uri_protocol": "https", "formatter": null, "half_pie": false, "height": 600, "include_x_axis": false, "inner_radius": 0, "interpolate": "cubic", "interpolation_parameters": {}, "interpolation_precision": 250, "inverse_y_axis": false, "js": ["//kozea.github.io/pygal.js/2.0.x/pygal-tooltips.min.js"], "legend_at_bottom": false, "legend_at_bottom_columns": null, "legend_box_size": 12, "logarithmic": false, "margin": 20, "margin_bottom": null, "margin_left": null, "margin_right": null, "margin_top": null, "max_scale": 16, "min_scale": 4, "missing_value_fill_truncation": "x", "no_data_text": "No data", "no_prefix": false, "order_min": null, "pretty_print": false, "print_labels": false, "print_values": false, "print_values_position": "center", "print_zeroes": true, "range": null, "rounded_bars": null, "secondary_range": null, "show_dots": true, "show_legend": true, "show_minor_x_labels": true, "show_minor_y_labels": true, "show_only_major_dots": false, "show_x_guides": false, "show_x_labels": true, "show_y_guides": true, "show_y_labels": true, "spacing": 10, "stack_from_top": false, "strict": false, "stroke": true, "stroke_style": null, "style": {"background": "transparent", "ci_colors": [], "colors": ["#0000FF", "#FF0000"], "font_family": "Consolas, \"Liberation Mono\", Menlo, Courier, monospace", "foreground": "#999", "foreground_strong": "#eee", "foreground_subtle": "#555", "guide_stroke_dasharray": "4,4", "label_font_family": "Consolas, \"Liberation Mono\", Menlo, Courier, monospace", "label_font_size": 10, "legend_font_family": "Consolas, \"Liberation Mono\", Menlo, Courier, monospace", "legend_font_size": 14, "major_guide_stroke_dasharray": "6,6", "major_label_font_family": "Consolas, \"Liberation Mono\", Menlo, Courier, monospace", "major_label_font_size": 10, "no_data_font_family": "Consolas, \"Liberation Mono\", Menlo, Courier, monospace", "no_data_font_size": 64, "opacity": ".1", "opacity_hover": ".75", "plot_background": "transparent", "stroke_opacity": ".8", "stroke_opacity_hover": ".9", "title_font_family": "Consolas, \"Liberation Mono\", Menlo, Courier, monospace", "title_font_size": 16, "tooltip_font_family": "Consolas, \"Liberation Mono\", Menlo, Courier, monospace", "tooltip_font_size": 14, "transition": "1s ease-out", "value_background": "rgba(229, 229, 229, 1)", "value_colors": [], "value_font_family": "Consolas, \"Liberation Mono\", Menlo, Courier, monospace", "value_font_size": 16, "value_label_font_family": "Consolas, \"Liberation Mono\", Menlo, Courier, monospace", "value_label_font_size": 10}, "title": "China Year: 1960 - 2016 AD", "tooltip_border_radius": 0, "tooltip_fancy_mode": true, "truncate_label": null, "truncate_legend": null, "width": 800, "x_label_rotation": 90, "x_labels": ["1960", "1964", "1968", "1972", "1976", "1980", "1984", "1988", "1992", "1996", "2000", "2004", "2008", "2012", "2016"], "x_labels_major": null, "x_labels_major_count": null, "x_labels_major_every": null, "x_title": null, "xrange": null, "y_label_rotation": 0, "y_labels": null, "y_labels_major": null, "y_labels_major_count": null, "y_labels_major_every": null, "y_title": null, "zero": 0, "legends": ["Populations"]}</script><script type="text/javascript" xlink:href="https://kozea.github.io/pygal.js/2.0.x/pygal-tooltips.min.js" /></defs><title>China Year: 1960 - 2016 AD</title><g class="graph line-graph vertical"><rect class="background" height="600" width="800" x="0" y="0" /><g class="plot" transform="translate(276, 46)"><rect class="background" height="500.0" width="503.6" x="0" y="0" /><g class="axis y always_show"><path class="line" d="M0.000000 500.000000 h503.600000" /><g class="guides"><path class="guide line" d="M0.000000 468.136383 h503.600000" /><text class="" x="-5" y="471.636383217">700,000,000.0 People</text><title>700,000,000.0 People</title></g><g class="guides"><path class="guide line" d="M0.000000 400.574184 h503.600000" /><text class="" x="-5" y="404.074184105">800,000,000.0 People</text><title>800,000,000.0 People</title></g><g class="guides"><path class="guide line" d="M0.000000 333.011985 h503.600000" /><text class="" x="-5" y="336.511984994">900,000,000.0 People</text><title>900,000,000.0 People</title></g><g class="guides"><path class="major guide line" d="M0.000000 265.449786 h503.600000" /><text class="major" x="-5" y="268.949785882">1,000,000,000.0 People</text><title>1,000,000,000.0 People</title></g><g class="guides"><path class="guide line" d="M0.000000 197.887587 h503.600000" /><text class="" x="-5" y="201.38758677">1,100,000,000.0 People</text><title>1,100,000,000.0 People</title></g><g class="guides"><path class="guide line" d="M0.000000 130.325388 h503.600000" /><text class="" x="-5" y="133.825387658">1,200,000,000.0 People</text><title>1,200,000,000.0 People</title></g><g class="guides"><path class="guide line" d="M0.000000 62.763189 h503.600000" /><text class="" x="-5" y="66.2631885466">1,300,000,000.0 People</text><title>1,300,000,000.0 People</title></g></g><g class="axis x"><g class="guides"><path class="line" d="M9.684615 0.000000 v500.000000" /><text class="" transform="rotate(90 9.684615 515.000000)" x="9.684615384615386" y="515.0">1960</text></g><g class="guides"><path class="guide line" d="M44.272527 0.000000 v500.000000" /><text class="" transform="rotate(90 44.272527 515.000000)" x="44.27252747252747" y="515.0">1964</text></g><g class="guides"><path class="guide line" d="M78.860440 0.000000 v500.000000" /><text class="" transform="rotate(90 78.860440 515.000000)" x="78.86043956043956" y="515.0">1968</text></g><g class="guides"><path class="guide line" d="M113.448352 0.000000 v500.000000" /><text class="" transform="rotate(90 113.448352 515.000000)" x="113.44835164835165" y="515.0">1972</text></g><g class="guides"><path class="guide line" d="M148.036264 0.000000 v500.000000" /><text class="" transform="rotate(90 148.036264 515.000000)" x="148.03626373626375" y="515.0">1976</text></g><g class="guides"><path class="guide line" d="M182.624176 0.000000 v500.000000" /><text class="" transform="rotate(90 182.624176 515.000000)" x="182.62417582417586" y="515.0">1980</text></g><g class="guides"><path class="guide line" d="M217.212088 0.000000 v500.000000" /><text class="" transform="rotate(90 217.212088 515.000000)" x="217.2120879120879" y="515.0">1984</text></g><g class="guides"><path class="guide line" d="M251.800000 0.000000 v500.000000" /><text class="" transform="rotate(90 251.800000 515.000000)" x="251.8" y="515.0">1988</text></g><g class="guides"><path class="guide line" d="M286.387912 0.000000 v500.000000" /><text class="" transform="rotate(90 286.387912 515.000000)" x="286.3879120879121" y="515.0">1992</text></g><g class="guides"><path class="guide line" d="M320.975824 0.000000 v500.000000" /><text class="" transform="rotate(90 320.975824 515.000000)" x="320.9758241758242" y="515.0">1996</text></g><g class="guides"><path class="guide line" d="M355.563736 0.000000 v500.000000" /><text class="" transform="rotate(90 355.563736 515.000000)" x="355.56373626373625" y="515.0">2000</text></g><g class="guides"><path class="guide line" d="M390.151648 0.000000 v500.000000" /><text class="" transform="rotate(90 390.151648 515.000000)" x="390.15164835164836" y="515.0">2004</text></g><g class="guides"><path class="guide line" d="M424.739560 0.000000 v500.000000" /><text class="" transform="rotate(90 424.739560 515.000000)" x="424.7395604395604" y="515.0">2008</text></g><g class="guides"><path class="guide line" d="M459.327473 0.000000 v500.000000" /><text class="" transform="rotate(90 459.327473 515.000000)" x="459.3274725274726" y="515.0">2012</text></g><g class="guides"><path class="guide line" d="M493.915385 0.000000 v500.000000" /><text class="" transform="rotate(90 493.915385 515.000000)" x="493.9153846153846" y="515.0">2016</text></g></g><g class="series serie-0 color-0"><path class="line reactive" d="M9.684615 500.000000 L9.684615 490.384615 9.822967 490.329635 9.961319 490.274653 10.099670 490.219664 10.238022 490.164667 10.376374 490.109659 10.514725 490.054636 10.653077 489.999597 10.791429 489.944537 10.929780 489.889455 11.068132 489.834347 11.206484 489.779211 11.344835 489.724044 11.483187 489.668843 11.621538 489.613604 11.759890 489.558326 11.898242 489.503006 12.036593 489.447640 12.174945 489.392226 12.313297 489.336760 12.451648 489.281241 12.590000 489.225665 12.728352 489.170029 12.866703 489.114331 13.005055 489.058568 13.143407 489.002736 13.281758 488.946834 13.420110 488.890857 13.558462 488.834805 13.696813 488.778672 13.835165 488.722457 13.973516 488.666158 14.111868 488.609770 14.250220 488.553291 14.388571 488.496719 14.526923 488.440050 14.665275 488.383282 14.803626 488.326411 14.941978 488.269436 15.080330 488.212352 15.218681 488.155158 15.357033 488.097851 15.495385 488.040427 15.633736 487.982884 15.772088 487.925219 15.910440 487.867428 16.048791 487.809511 16.187143 487.751462 16.325495 487.693280 16.463846 487.634962 16.602198 487.576505 16.740549 487.517906 16.878901 487.459162 17.017253 487.400271 17.155604 487.341229 17.293956 487.282034 17.432308 487.222683 17.570659 487.163172 17.709011 487.103500 17.847363 487.043664 17.985714 486.983660 18.124066 486.923485 18.262418 486.863138 18.400769 486.802614 18.539121 486.741912 18.677473 486.681028 18.815824 486.619959 18.954176 486.558703 19.092527 486.497257 19.230879 486.435618 19.369231 486.373783 19.507582 486.311749 19.645934 486.249514 19.784286 486.187074 19.922637 486.124428 20.060989 486.061571 20.199341 485.998501 20.337692 485.935216 20.476044 485.871712 20.614396 485.807986 20.752747 485.744037 20.891099 485.679860 21.029451 485.615453 21.167802 485.550814 21.306154 485.485939 21.444505 485.420825 21.582857 485.355470 21.721209 485.289872 21.859560 485.224026 21.997912 485.157930 22.136264 485.091582 22.274615 485.024978 22.412967 484.958116 22.551319 484.890993 22.689670 484.823606 22.828022 484.755952 22.966374 484.688029 23.104725 484.619833 23.243077 484.551361 23.381429 484.482612 23.519780 484.413581 23.658132 484.344267 23.796484 484.274665 23.934835 484.204775 24.073187 484.134592 24.211538 484.064113 24.349890 483.993337 24.488242 483.922260 24.626593 483.850879 24.764945 483.779192 24.903297 483.707195 25.041648 483.634886 25.180000 483.562262 25.318352 483.489319 25.456703 483.416057 25.595055 483.342470 25.733407 483.268557 25.871758 483.194315 26.010110 483.119741 26.148462 483.044832 26.286813 482.969585 26.425165 482.893997 26.563516 482.818066 26.701868 482.741789 26.840220 482.665163 26.978571 482.588184 27.116923 482.510851 27.255275 482.433160 27.393626 482.355109 27.531978 482.276694 27.670330 482.197913 27.808681 482.118763 27.947033 482.039241 28.085385 481.959345 28.223736 481.879071 28.362088 481.798417 28.500440 481.717379 28.638791 481.635955 28.777143 481.554143 28.915495 481.471939 29.053846 481.389340 29.192198 481.306344 29.330549 481.222948 29.468901 481.139148 29.607253 481.054943 29.745604 480.970329 29.883956 480.885303 30.022308 480.799863 30.160659 480.714006 30.299011 480.627729 30.437363 480.541028 30.575714 480.453902 30.714066 480.366347 30.852418 480.278361 30.990769 480.189941 31.129121 480.101083 31.267473 480.011786 31.405824 479.922045 31.544176 479.831859 31.682527 479.741225 31.820879 479.650139 31.959231 479.558599 32.097582 479.466602 32.235934 479.374145 32.374286 479.281225 32.512637 479.187840 32.650989 479.093987 32.789341 478.999662 32.927692 478.904864 33.066044 478.809588 33.204396 478.713833 33.342747 478.617595 33.481099 478.520872 33.619451 478.423661 33.757802 478.325958 33.896154 478.227762 34.034505 478.129069 34.172857 478.029876 34.311209 477.930181 34.449560 477.829981 34.587912 477.729272 34.726264 477.628053 34.864615 477.526320 35.002967 477.424070 35.141319 477.321301 35.279670 477.218010 35.418022 477.114193 35.556374 477.009849 35.694725 476.904973 35.833077 476.799564 35.971429 476.693619 36.109780 476.587134 36.248132 476.480107 36.386484 476.372535 36.524835 476.264415 36.663187 476.155745 36.801538 476.046521 36.939890 475.936741 37.078242 475.826401 37.216593 475.715500 37.354945 475.604033 37.493297 475.491999 37.631648 475.379395 37.770000 475.266217 37.908352 475.152462 38.046703 475.038129 38.185055 474.923214 38.323407 474.807714 38.461758 474.691626 38.600110 474.574949 38.738462 474.457677 38.876813 474.339810 39.015165 474.221344 39.153516 474.102276 39.291868 473.982604 39.430220 473.862324 39.568571 473.741433 39.706923 473.619930 39.845275 473.497811 39.983626 473.375073 40.121978 473.251713 40.260330 473.127729 40.398681 473.003117 40.537033 472.877875 40.675385 472.752001 40.813736 472.625490 40.952088 472.498341 41.090440 472.370550 41.228791 472.242115 41.367143 472.113033 41.505495 471.983301 41.643846 471.852916 41.782198 471.721875 41.920549 471.590176 42.058901 471.457815 42.197253 471.324790 42.335604 471.191098 42.473956 471.056737 42.612308 470.921702 42.750659 470.785992 42.889011 470.649603 43.027363 470.512534 43.165714 470.374780 43.304066 470.236339 43.442418 470.097208 43.580769 469.957385 43.719121 469.816867 43.857473 469.675650 43.995824 469.533732 44.134176 469.391110 44.272527 469.247781 44.410879 469.103744 44.549231 468.958999 44.687582 468.813550 44.825934 468.667399 44.964286 468.520549 45.102637 468.373002 45.240989 468.224760 45.379341 468.075827 45.517692 467.926204 45.656044 467.775895 45.794396 467.624902 45.932747 467.473227 46.071099 467.320873 46.209451 467.167842 46.347802 467.014138 46.486154 466.859762 46.624505 466.704718 46.762857 466.549007 46.901209 466.392633 47.039560 466.235597 47.177912 466.077903 47.316264 465.919553 47.454615 465.760549 47.592967 465.600894 47.731319 465.440591 47.869670 465.279643 48.008022 465.118050 48.146374 464.955817 48.284725 464.792946 48.423077 464.629440 48.561429 464.465300 48.699780 464.300530 48.838132 464.135131 48.976484 463.969107 49.114835 463.802461 49.253187 463.635194 49.391538 463.467309 49.529890 463.298809 49.668242 463.129697 49.806593 462.959974 49.944945 462.789644 50.083297 462.618708 50.221648 462.447171 50.360000 462.275033 50.498352 462.102298 50.636703 461.928968 50.775055 461.755046 50.913407 461.580534 51.051758 461.405435 51.190110 461.229752 51.328462 461.053486 51.466813 460.876641 51.605165 460.699219 51.743516 460.521222 51.881868 460.342654 52.020220 460.163516 52.158571 459.983812 52.296923 459.803544 52.435275 459.622713 52.573626 459.441324 52.711978 459.259378 52.850330 459.076879 52.988681 458.893827 53.127033 458.710227 53.265385 458.526081 53.403736 458.341391 53.542088 458.156159 53.680440 457.970389 53.818791 457.784083 53.957143 457.597243 54.095495 457.409872 54.233846 457.221973 54.372198 457.033548 54.510549 456.844599 54.648901 456.655130 54.787253 456.465142 54.925604 456.274639 55.063956 456.083622 55.202308 455.892095 55.340659 455.700060 55.479011 455.507519 55.617363 455.314476 55.755714 455.120932 55.894066 454.926890 56.032418 454.732353 56.170769 454.537323 56.309121 454.341803 56.447473 454.145795 56.585824 453.949302 56.724176 453.752327 56.862527 453.554871 57.000879 453.356938 57.139231 453.158531 57.277582 452.959651 57.415934 452.760301 57.554286 452.560484 57.692637 452.360202 57.830989 452.159458 57.969341 451.958255 58.107692 451.756594 58.246044 451.554479 58.384396 451.351912 58.522747 451.148896 58.661099 450.945433 58.799451 450.741526 58.937802 450.537177 59.076154 450.332389 59.214505 450.127164 59.352857 449.921505 59.491209 449.715414 59.629560 449.508895 59.767912 449.301949 59.906264 449.094580 60.044615 448.886789 60.182967 448.678579 60.321319 448.469953 60.459670 448.260914 60.598022 448.051463 60.736374 447.841604 60.874725 447.631339 61.013077 447.420670 61.151429 447.209601 61.289780 446.998133 61.428132 446.786269 61.566484 446.574012 61.704835 446.361365 61.843187 446.148329 61.981538 445.934908 62.119890 445.721104 62.258242 445.506919 62.396593 445.292356 62.534945 445.077418 62.673297 444.862107 62.811648 444.646426 62.950000 444.430377 63.088352 444.213963 63.226703 443.997186 63.365055 443.780050 63.503407 443.562555 63.641758 443.344706 63.780110 443.126505 63.918462 442.907953 64.056813 442.689054 64.195165 442.469811 64.333516 442.250225 64.471868 442.030300 64.610220 441.810037 64.748571 441.589440 64.886923 441.368511 65.025275 441.147252 65.163626 440.925667 65.301978 440.703757 65.440330 440.481526 65.578681 440.258975 65.717033 440.036107 65.855385 439.812926 65.993736 439.589433 66.132088 439.365630 66.270440 439.141522 66.408791 438.917109 66.547143 438.692395 66.685495 438.467382 66.823846 438.242073 66.962198 438.016470 67.100549 437.790576 67.238901 437.564393 67.377253 437.337925 67.515604 437.111172 67.653956 436.884139 67.792308 436.656827 67.930659 436.429240 68.069011 436.201379 68.207363 435.973247 68.345714 435.744848 68.484066 435.516182 68.622418 435.287254 68.760769 435.058064 68.899121 434.828617 69.037473 434.598915 69.175824 434.368959 69.314176 434.138753 69.452527 433.908300 69.590879 433.677601 69.729231 433.446659 69.867582 433.215478 70.005934 432.984058 70.144286 432.752404 70.282637 432.520517 70.420989 432.288400 70.559341 432.056056 70.697692 431.823487 70.836044 431.590696 70.974396 431.357685 71.112747 431.124457 71.251099 430.891014 71.389451 430.657359 71.527802 430.423494 71.666154 430.189423 71.804505 429.955147 71.942857 429.720670 72.081209 429.485992 72.219560 429.251119 72.357912 429.016051 72.496264 428.780791 72.634615 428.545342 72.772967 428.309707 72.911319 428.073888 73.049670 427.837887 73.188022 427.601707 73.326374 427.365351 73.464725 427.128821 73.603077 426.892120 73.741429 426.655250 73.879780 426.418214 74.018132 426.181015 74.156484 425.943654 74.294835 425.706135 74.433187 425.468460 74.571538 425.230631 74.709890 424.992652 74.848242 424.754525 74.986593 424.516251 75.124945 424.277835 75.263297 424.039278 75.401648 423.800582 75.540000 423.561752 75.678352 423.322788 75.816703 423.083694 75.955055 422.844472 76.093407 422.605124 76.231758 422.365654 76.370110 422.126064 76.508462 421.886356 76.646813 421.646533 76.785165 421.406597 76.923516 421.166551 77.061868 420.926398 77.200220 420.686140 77.338571 420.445780 77.476923 420.205319 77.615275 419.964762 77.753626 419.724110 77.891978 419.483365 78.030330 419.242531 78.168681 419.001610 78.307033 418.760605 78.445385 418.519517 78.583736 418.278350 78.722088 418.037107 78.860440 417.795789 78.998791 417.554399 79.137143 417.312938 79.275495 417.071409 79.413846 416.829812 79.552198 416.588148 79.690549 416.346419 79.828901 416.104627 79.967253 415.862772 80.105604 415.620855 80.243956 415.378879 80.382308 415.136845 80.520659 414.894753 80.659011 414.652606 80.797363 414.410404 80.935714 414.168148 81.074066 413.925841 81.212418 413.683484 81.350769 413.441077 81.489121 413.198622 81.627473 412.956121 81.765824 412.713574 81.904176 412.470983 82.042527 412.228350 82.180879 411.985676 82.319231 411.742962 82.457582 411.500209 82.595934 411.257419 82.734286 411.014592 82.872637 410.771731 83.010989 410.528837 83.149341 410.285911 83.287692 410.042954 83.426044 409.799968 83.564396 409.556954 83.702747 409.313913 83.841099 409.070847 83.979451 408.827756 84.117802 408.584643 84.256154 408.341509 84.394505 408.098354 84.532857 407.855181 84.671209 407.611990 84.809560 407.368784 84.947912 407.125562 85.086264 406.882327 85.224615 406.639080 85.362967 406.395822 85.501319 406.152554 85.639670 405.909279 85.778022 405.665997 85.916374 405.422709 86.054725 405.179417 86.193077 404.936122 86.331429 404.692825 86.469780 404.449529 86.608132 404.206233 86.746484 403.962940 86.884835 403.719651 87.023187 403.476366 87.161538 403.233089 87.299890 402.989819 87.438242 402.746558 87.576593 402.503307 87.714945 402.260068 87.853297 402.016842 87.991648 401.773631 88.130000 401.530435 88.268352 401.287257 88.406703 401.044096 88.545055 400.800956 88.683407 400.557836 88.821758 400.314738 88.960110 400.071665 89.098462 399.828616 89.236813 399.585594 89.375165 399.342599 89.513516 399.099633 89.651868 398.856697 89.790220 398.613793 89.928571 398.370922 90.066923 398.128085 90.205275 397.885284 90.343626 397.642520 90.481978 397.399793 90.620330 397.157107 90.758681 396.914461 90.897033 396.671857 91.035385 396.429297 91.173736 396.186782 91.312088 395.944313 91.450440 395.701891 91.588791 395.459519 91.727143 395.217196 91.865495 394.974925 92.003846 394.732707 92.142198 394.490542 92.280549 394.248434 92.418901 394.006382 92.557253 393.764388 92.695604 393.522453 92.833956 393.280579 92.972308 393.038768 93.110659 392.797019 93.249011 392.555336 93.387363 392.313718 93.525714 392.072168 93.664066 391.830687 93.802418 391.589275 93.940769 391.347935 94.079121 391.106668 94.217473 390.865474 94.355824 390.624356 94.494176 390.383314 94.632527 390.142351 94.770879 389.901467 94.909231 389.660663 95.047582 389.419941 95.185934 389.179303 95.324286 388.938749 95.462637 388.698281 95.600989 388.457900 95.739341 388.217608 95.877692 387.977406 96.016044 387.737295 96.154396 387.497276 96.292747 387.257351 96.431099 387.017522 96.569451 386.777789 96.707802 386.538154 96.846154 386.298618 96.984505 386.059182 97.122857 385.819849 97.261209 385.580618 97.399560 385.341492 97.537912 385.102472 97.676264 384.863559 97.814615 384.624754 97.952967 384.386059 98.091319 384.147475 98.229670 383.909003 98.368022 383.670646 98.506374 383.432403 98.644725 383.194277 98.783077 382.956268 98.921429 382.718378 99.059780 382.480609 99.198132 382.242962 99.336484 382.005437 99.474835 381.768037 99.613187 381.530762 99.751538 381.293615 99.889890 381.056596 100.028242 380.819706 100.166593 380.582947 100.304945 380.346321 100.443297 380.109828 100.581648 379.873470 100.720000 379.637249 100.858352 379.401165 100.996703 379.165220 101.135055 378.929415 101.273407 378.693751 101.411758 378.458231 101.550110 378.222855 101.688462 377.987624 101.826813 377.752540 101.965165 377.517605 102.103516 377.282818 102.241868 377.048183 102.380220 376.813700 102.518571 376.579370 102.656923 376.345195 102.795275 376.111177 102.933626 375.877315 103.071978 375.643613 103.210330 375.410070 103.348681 375.176689 103.487033 374.943471 103.625385 374.710417 103.763736 374.477528 103.902088 374.244806 104.040440 374.012252 104.178791 373.779867 104.317143 373.547654 104.455495 373.315612 104.593846 373.083743 104.732198 372.852049 104.870549 372.620531 105.008901 372.389191 105.147253 372.158029 105.285604 371.927047 105.423956 371.696246 105.562308 371.465628 105.700659 371.235194 105.839011 371.004946 105.977363 370.774884 106.115714 370.545009 106.254066 370.315324 106.392418 370.085830 106.530769 369.856527 106.669121 369.627418 106.807473 369.398503 106.945824 369.169785 107.084176 368.941263 107.222527 368.712940 107.360879 368.484816 107.499231 368.256894 107.637582 368.029175 107.775934 367.801659 107.914286 367.574348 108.052637 367.347244 108.190989 367.120348 108.329341 366.893660 108.467692 366.667184 108.606044 366.440919 108.744396 366.214867 108.882747 365.989029 109.021099 365.763407 109.159451 365.538003 109.297802 365.312816 109.436154 365.087850 109.574505 364.863104 109.712857 364.638581 109.851209 364.414282 109.989560 364.190207 110.127912 363.966359 110.266264 363.742738 110.404615 363.519347 110.542967 363.296186 110.681319 363.073256 110.819670 362.850560 110.958022 362.628098 111.096374 362.405871 111.234725 362.183881 111.373077 361.962130 111.511429 361.740618 111.649780 361.519347 111.788132 361.298319 111.926484 361.077534 112.064835 360.856993 112.203187 360.636699 112.341538 360.416653 112.479890 360.196855 112.618242 359.977308 112.756593 359.758012 112.894945 359.538969 113.033297 359.320180 113.171648 359.101647 113.310000 358.883370 113.448352 358.665352 113.586703 358.447593 113.725055 358.230093 113.863407 358.012853 114.001758 357.795872 114.140110 357.579151 114.278462 357.362689 114.416813 357.146486 114.555165 356.930543 114.693516 356.714859 114.831868 356.499435 114.970220 356.284270 115.108571 356.069364 115.246923 355.854718 115.385275 355.640331 115.523626 355.426204 115.661978 355.212336 115.800330 354.998727 115.938681 354.785378 116.077033 354.572287 116.215385 354.359457 116.353736 354.146885 116.492088 353.934573 116.630440 353.722520 116.768791 353.510726 116.907143 353.299192 117.045495 353.087917 117.183846 352.876901 117.322198 352.666144 117.460549 352.455647 117.598901 352.245409 117.737253 352.035430 117.875604 351.825710 118.013956 351.616249 118.152308 351.407048 118.290659 351.198106 118.429011 350.989423 118.567363 350.780999 118.705714 350.572835 118.844066 350.364929 118.982418 350.157283 119.120769 349.949896 119.259121 349.742768 119.397473 349.535899 119.535824 349.329289 119.674176 349.122939 119.812527 348.916847 119.950879 348.711015 120.089231 348.505441 120.227582 348.300127 120.365934 348.095072 120.504286 347.890276 120.642637 347.685739 120.780989 347.481461 120.919341 347.277442 121.057692 347.073682 121.196044 346.870181 121.334396 346.666939 121.472747 346.463956 121.611099 346.261232 121.749451 346.058767 121.887802 345.856561 122.026154 345.654614 122.164505 345.452926 122.302857 345.251497 122.441209 345.050327 122.579560 344.849416 122.717912 344.648764 122.856264 344.448371 122.994615 344.248236 123.132967 344.048361 123.271319 343.848744 123.409670 343.649387 123.548022 343.450288 123.686374 343.251448 123.824725 343.052867 123.963077 342.854545 124.101429 342.656482 124.239780 342.458677 124.378132 342.261132 124.516484 342.063845 124.654835 341.866817 124.793187 341.670048 124.931538 341.473537 125.069890 341.277286 125.208242 341.081293 125.346593 340.885559 125.484945 340.690084 125.623297 340.494868 125.761648 340.299910 125.900000 340.105211 126.038352 339.910771 126.176703 339.716590 126.315055 339.522667 126.453407 339.329003 126.591758 339.135598 126.730110 338.942451 126.868462 338.749563 127.006813 338.556934 127.145165 338.364564 127.283516 338.172452 127.421868 337.980599 127.560220 337.789004 127.698571 337.597668 127.836923 337.406591 127.975275 337.215773 128.113626 337.025213 128.251978 336.834911 128.390330 336.644869 128.528681 336.455084 128.667033 336.265559 128.805385 336.076292 128.943736 335.887283 129.082088 335.698534 129.220440 335.510042 129.358791 335.321810 129.497143 335.133835 129.635495 334.946120 129.773846 334.758663 129.912198 334.571464 130.050549 334.384524 130.188901 334.197842 130.327253 334.011419 130.465604 333.825255 130.603956 333.639349 130.742308 333.453701 130.880659 333.268312 131.019011 333.083181 131.157363 332.898309 131.295714 332.713695 131.434066 332.529340 131.572418 332.345243 131.710769 332.161404 131.849121 331.977824 131.987473 331.794502 132.125824 331.611439 132.264176 331.428634 132.402527 331.246087 132.540879 331.063799 132.679231 330.881769 132.817582 330.699997 132.955934 330.518484 133.094286 330.337229 133.232637 330.156233 133.370989 329.975494 133.509341 329.795014 133.647692 329.614793 133.786044 329.434829 133.924396 329.255124 134.062747 329.075678 134.201099 328.896489 134.339451 328.717559 134.477802 328.538887 134.616154 328.360473 134.754505 328.182318 134.892857 328.004420 135.031209 327.826781 135.169560 327.649401 135.307912 327.472278 135.446264 327.295413 135.584615 327.118807 135.722967 326.942459 135.861319 326.766369 135.999670 326.590538 136.138022 326.414964 136.276374 326.239649 136.414725 326.064591 136.553077 325.889792 136.691429 325.715251 136.829780 325.540968 136.968132 325.366943 137.106484 325.193177 137.244835 325.019668 137.383187 324.846418 137.521538 324.673425 137.659890 324.500691 137.798242 324.328215 137.936593 324.155996 138.074945 323.984036 138.213297 323.812334 138.351648 323.640890 138.490000 323.469704 138.628352 323.298776 138.766703 323.128106 138.905055 322.957693 139.043407 322.787539 139.181758 322.617643 139.320110 322.448005 139.458462 322.278625 139.596813 322.109503 139.735165 321.940638 139.873516 321.772032 140.011868 321.603684 140.150220 321.435593 140.288571 321.267761 140.426923 321.100186 140.565275 320.932869 140.703626 320.765810 140.841978 320.599009 140.980330 320.432466 141.118681 320.266181 141.257033 320.100154 141.395385 319.934384 141.533736 319.768872 141.672088 319.603618 141.810440 319.438622 141.948791 319.273884 142.087143 319.109404 142.225495 318.945181 142.363846 318.781217 142.502198 318.617510 142.640549 318.454060 142.778901 318.290869 142.917253 318.127935 143.055604 317.965259 143.193956 317.802841 143.332308 317.640681 143.470659 317.478778 143.609011 317.317133 143.747363 317.155746 143.885714 316.994616 144.024066 316.833744 144.162418 316.673130 144.300769 316.512774 144.439121 316.352675 144.577473 316.192834 144.715824 316.033250 144.854176 315.873924 144.992527 315.714856 145.130879 315.556046 145.269231 315.397493 145.407582 315.239198 145.545934 315.081160 145.684286 314.923380 145.822637 314.765857 145.960989 314.608592 146.099341 314.451585 146.237692 314.294835 146.376044 314.138343 146.514396 313.982109 146.652747 313.826132 146.791099 313.670412 146.929451 313.514950 147.067802 313.359746 147.206154 313.204799 147.344505 313.050109 147.482857 312.895677 147.621209 312.741503 147.759560 312.587586 147.897912 312.433926 148.036264 312.280524 148.174615 312.127379 148.312967 311.974491 148.451319 311.821856 148.589670 311.669475 148.728022 311.517345 148.866374 311.365465 149.004725 311.213834 149.143077 311.062449 149.281429 310.911311 149.419780 310.760416 149.558132 310.609764 149.696484 310.459353 149.834835 310.309181 149.973187 310.159248 150.111538 310.009551 150.249890 309.860089 150.388242 309.710861 150.526593 309.561865 150.664945 309.413100 150.803297 309.264563 150.941648 309.116255 151.080000 308.968173 151.218352 308.820315 151.356703 308.672680 151.495055 308.525268 151.633407 308.378075 151.771758 308.231101 151.910110 308.084345 152.048462 307.937804 152.186813 307.791477 152.325165 307.645363 152.463516 307.499461 152.601868 307.353768 152.740220 307.208284 152.878571 307.063006 153.016923 306.917933 153.155275 306.773065 153.293626 306.628399 153.431978 306.483933 153.570330 306.339667 153.708681 306.195599 153.847033 306.051727 153.985385 305.908050 154.123736 305.764567 154.262088 305.621275 154.400440 305.478174 154.538791 305.335262 154.677143 305.192537 154.815495 305.049998 154.953846 304.907644 155.092198 304.765472 155.230549 304.623482 155.368901 304.481672 155.507253 304.340040 155.645604 304.198586 155.783956 304.057307 155.922308 303.916202 156.060659 303.775270 156.199011 303.634508 156.337363 303.493916 156.475714 303.353492 156.614066 303.213235 156.752418 303.073143 156.890769 302.933215 157.029121 302.793448 157.167473 302.653842 157.305824 302.514396 157.444176 302.375107 157.582527 302.235974 157.720879 302.096995 157.859231 301.958170 157.997582 301.819497 158.135934 301.680974 158.274286 301.542599 158.412637 301.404372 158.550989 301.266290 158.689341 301.128353 158.827692 300.990558 158.966044 300.852905 159.104396 300.715391 159.242747 300.578016 159.381099 300.440777 159.519451 300.303674 159.657802 300.166704 159.796154 300.029867 159.934505 299.893161 160.072857 299.756584 160.211209 299.620135 160.349560 299.483812 160.487912 299.347614 160.626264 299.211539 160.764615 299.075586 160.902967 298.939754 161.041319 298.804040 161.179670 298.668444 161.318022 298.532964 161.456374 298.397598 161.594725 298.262346 161.733077 298.127204 161.871429 297.992173 162.009780 297.857250 162.148132 297.722434 162.286484 297.587724 162.424835 297.453117 162.563187 297.318613 162.701538 297.184210 162.839890 297.049907 162.978242 296.915701 163.116593 296.781593 163.254945 296.647579 163.393297 296.513659 163.531648 296.379831 163.670000 296.246093 163.808352 296.112445 163.946703 295.978884 164.085055 295.845409 164.223407 295.712019 164.361758 295.578712 164.500110 295.445487 164.638462 295.312342 164.776813 295.179275 164.915165 295.046286 165.053516 294.913373 165.191868 294.780533 165.330220 294.647767 165.468571 294.515071 165.606923 294.382445 165.745275 294.249888 165.883626 294.117397 166.021978 293.984972 166.160330 293.852610 166.298681 293.720311 166.437033 293.588072 166.575385 293.455893 166.713736 293.323771 166.852088 293.191706 166.990440 293.059696 167.128791 292.927739 167.267143 292.795834 167.405495 292.663979 167.543846 292.532173 167.682198 292.400415 167.820549 292.268702 167.958901 292.137034 168.097253 292.005408 168.235604 291.873824 168.373956 291.742280 168.512308 291.610775 168.650659 291.479306 168.789011 291.347873 168.927363 291.216474 169.065714 291.085107 169.204066 290.953772 169.342418 290.822466 169.480769 290.691188 169.619121 290.559936 169.757473 290.428709 169.895824 290.297506 170.034176 290.166325 170.172527 290.035165 170.310879 289.904024 170.449231 289.772900 170.587582 289.641792 170.725934 289.510699 170.864286 289.379619 171.002637 289.248551 171.140989 289.117493 171.279341 288.986443 171.417692 288.855401 171.556044 288.724364 171.694396 288.593331 171.832747 288.462301 171.971099 288.331273 172.109451 288.200244 172.247802 288.069213 172.386154 287.938179 172.524505 287.807140 172.662857 287.676095 172.801209 287.545042 172.939560 287.413980 173.077912 287.282908 173.216264 287.151823 173.354615 287.020724 173.492967 286.889610 173.631319 286.758480 173.769670 286.627331 173.908022 286.496162 174.046374 286.364973 174.184725 286.233761 174.323077 286.102524 174.461429 285.971262 174.599780 285.839973 174.738132 285.708656 174.876484 285.577308 175.014835 285.445929 175.153187 285.314516 175.291538 285.183069 175.429890 285.051586 175.568242 284.920066 175.706593 284.788506 175.844945 284.656906 175.983297 284.525264 176.121648 284.393578 176.260000 284.261848 176.398352 284.130070 176.536703 283.998245 176.675055 283.866371 176.813407 283.734445 176.951758 283.602467 177.090110 283.470436 177.228462 283.338348 177.366813 283.206204 177.505165 283.074001 177.643516 282.941739 177.781868 282.809415 177.920220 282.677028 178.058571 282.544577 178.196923 282.412060 178.335275 282.279476 178.473626 282.146823 178.611978 282.014099 178.750330 281.881304 178.888681 281.748436 179.027033 281.615492 179.165385 281.482473 179.303736 281.349375 179.442088 281.216198 179.580440 281.082941 179.718791 280.949601 179.857143 280.816178 179.995495 280.682669 180.133846 280.549074 180.272198 280.415391 180.410549 280.281617 180.548901 280.147753 180.687253 280.013796 180.825604 279.879745 180.963956 279.745598 181.102308 279.611354 181.240659 279.477011 181.379011 279.342568 181.517363 279.208024 181.655714 279.073377 181.794066 278.938625 181.932418 278.803766 182.070769 278.668801 182.209121 278.533726 182.347473 278.398541 182.485824 278.263243 182.624176 278.127833 182.762527 277.992307 182.900879 277.856666 183.039231 277.720910 183.177582 277.585039 183.315934 277.449053 183.454286 277.312952 183.592637 277.176736 183.730989 277.040404 183.869341 276.903957 184.007692 276.767394 184.146044 276.630716 184.284396 276.493923 184.422747 276.357014 184.561099 276.219990 184.699451 276.082850 184.837802 275.945595 184.976154 275.808224 185.114505 275.670737 185.252857 275.533135 185.391209 275.395417 185.529560 275.257583 185.667912 275.119634 185.806264 274.981568 185.944615 274.843387 186.082967 274.705090 186.221319 274.566677 186.359670 274.428148 186.498022 274.289502 186.636374 274.150741 186.774725 274.011864 186.913077 273.872870 187.051429 273.733761 187.189780 273.594535 187.328132 273.455193 187.466484 273.315735 187.604835 273.176160 187.743187 273.036469 187.881538 272.896662 188.019890 272.756738 188.158242 272.616698 188.296593 272.476541 188.434945 272.336268 188.573297 272.195878 188.711648 272.055372 188.850000 271.914748 188.988352 271.774009 189.126703 271.633152 189.265055 271.492179 189.403407 271.351089 189.541758 271.209882 189.680110 271.068558 189.818462 270.927117 189.956813 270.785560 190.095165 270.643885 190.233516 270.502093 190.371868 270.360185 190.510220 270.218159 190.648571 270.076016 190.786923 269.933756 190.925275 269.791379 191.063626 269.648884 191.201978 269.506272 191.340330 269.363543 191.478681 269.220697 191.617033 269.077733 191.755385 268.934652 191.893736 268.791453 192.032088 268.648137 192.170440 268.504703 192.308791 268.361152 192.447143 268.217483 192.585495 268.073696 192.723846 267.929792 192.862198 267.785770 193.000549 267.641630 193.138901 267.497372 193.277253 267.352997 193.415604 267.208504 193.553956 267.063892 193.692308 266.919163 193.830659 266.774316 193.969011 266.629351 194.107363 266.484268 194.245714 266.339066 194.384066 266.193747 194.522418 266.048309 194.660769 265.902754 194.799121 265.757080 194.937473 265.611287 195.075824 265.465377 195.214176 265.319348 195.352527 265.173200 195.490879 265.026934 195.629231 264.880550 195.767582 264.734047 195.905934 264.587426 196.044286 264.440686 196.182637 264.293828 196.320989 264.146851 196.459341 263.999755 196.597692 263.852540 196.736044 263.705207 196.874396 263.557755 197.012747 263.410184 197.151099 263.262494 197.289451 263.114685 197.427802 262.966758 197.566154 262.818711 197.704505 262.670546 197.842857 262.522261 197.981209 262.373857 198.119560 262.225334 198.257912 262.076692 198.396264 261.927931 198.534615 261.779050 198.672967 261.630050 198.811319 261.480931 198.949670 261.331693 199.088022 261.182335 199.226374 261.032857 199.364725 260.883261 199.503077 260.733544 199.641429 260.583708 199.779780 260.433753 199.918132 260.283678 200.056484 260.133483 200.194835 259.983169 200.333187 259.832735 200.471538 259.682181 200.609890 259.531508 200.748242 259.380714 200.886593 259.229801 201.024945 259.078768 201.163297 258.927614 201.301648 258.776341 201.440000 258.624948 201.578352 258.473435 201.716703 258.321801 201.855055 258.170048 201.993407 258.018174 202.131758 257.866181 202.270110 257.714066 202.408462 257.561832 202.546813 257.409477 202.685165 257.257002 202.823516 257.104407 202.961868 256.951691 203.100220 256.798855 203.238571 256.645898 203.376923 256.492821 203.515275 256.339623 203.653626 256.186304 203.791978 256.032865 203.930330 255.879305 204.068681 255.725625 204.207033 255.571823 204.345385 255.417901 204.483736 255.263858 204.622088 255.109694 204.760440 254.955409 204.898791 254.801004 205.037143 254.646477 205.175495 254.491829 205.313846 254.337060 205.452198 254.182171 205.590549 254.027160 205.728901 253.872027 205.867253 253.716774 206.005604 253.561399 206.143956 253.405904 206.282308 253.250286 206.420659 253.094548 206.559011 252.938688 206.697363 252.782706 206.835714 252.626604 206.974066 252.470379 207.112418 252.314033 207.250769 252.157566 207.389121 252.000977 207.527473 251.844266 207.665824 251.687434 207.804176 251.530480 207.942527 251.373404 208.080879 251.216206 208.219231 251.058886 208.357582 250.901445 208.495934 250.743882 208.634286 250.586196 208.772637 250.428389 208.910989 250.270460 209.049341 250.112409 209.187692 249.954235 209.326044 249.795940 209.464396 249.637522 209.602747 249.478982 209.741099 249.320320 209.879451 249.161535 210.017802 249.002629 210.156154 248.843600 210.294505 248.684448 210.432857 248.525174 210.571209 248.365778 210.709560 248.206259 210.847912 248.046617 210.986264 247.886853 211.124615 247.726967 211.262967 247.566957 211.401319 247.406826 211.539670 247.246571 211.678022 247.086193 211.816374 246.925693 211.954725 246.765070 212.093077 246.604324 212.231429 246.443455 212.369780 246.282463 212.508132 246.121349 212.646484 245.960111 212.784835 245.798750 212.923187 245.637266 213.061538 245.475659 213.199890 245.313929 213.338242 245.152075 213.476593 244.990098 213.614945 244.827998 213.753297 244.665775 213.891648 244.503429 214.030000 244.340958 214.168352 244.178365 214.306703 244.015648 214.445055 243.852808 214.583407 243.689844 214.721758 243.526756 214.860110 243.363545 214.998462 243.200210 215.136813 243.036751 215.275165 242.873169 215.413516 242.709463 215.551868 242.545633 215.690220 242.381680 215.828571 242.217602 215.966923 242.053401 216.105275 241.889076 216.243626 241.724626 216.381978 241.560053 216.520330 241.395355 216.658681 241.230534 216.797033 241.065588 216.935385 240.900518 217.073736 240.735324 217.212088 240.570006 217.350440 240.404564 217.488791 240.238997 217.627143 240.073308 217.765495 239.907496 217.903846 239.741562 218.042198 239.575507 218.180549 239.409330 218.318901 239.243033 218.457253 239.076616 218.595604 238.910080 218.733956 238.743426 218.872308 238.576653 219.010659 238.409762 219.149011 238.242755 219.287363 238.075631 219.425714 237.908391 219.564066 237.741035 219.702418 237.573565 219.840769 237.405980 219.979121 237.238282 220.117473 237.070470 220.255824 236.902546 220.394176 236.734510 220.532527 236.566362 220.670879 236.398103 220.809231 236.229734 220.947582 236.061255 221.085934 235.892667 221.224286 235.723970 221.362637 235.555165 221.500989 235.386252 221.639341 235.217232 221.777692 235.048106 221.916044 234.878874 222.054396 234.709536 222.192747 234.540093 222.331099 234.370546 222.469451 234.200895 222.607802 234.031142 222.746154 233.861285 222.884505 233.691326 223.022857 233.521266 223.161209 233.351105 223.299560 233.180844 223.437912 233.010482 223.576264 232.840022 223.714615 232.669462 223.852967 232.498804 223.991319 232.328049 224.129670 232.157197 224.268022 231.986248 224.406374 231.815203 224.544725 231.644063 224.683077 231.472828 224.821429 231.301498 224.959780 231.130075 225.098132 230.958558 225.236484 230.786949 225.374835 230.615248 225.513187 230.443455 225.651538 230.271572 225.789890 230.099597 225.928242 229.927533 226.066593 229.755380 226.204945 229.583138 226.343297 229.410808 226.481648 229.238390 226.620000 229.065885 226.758352 228.893293 226.896703 228.720616 227.035055 228.547852 227.173407 228.375005 227.311758 228.202072 227.450110 228.029056 227.588462 227.855957 227.726813 227.682775 227.865165 227.509511 228.003516 227.336166 228.141868 227.162739 228.280220 226.989232 228.418571 226.815645 228.556923 226.641979 228.695275 226.468234 228.833626 226.294411 228.971978 226.120510 229.110330 225.946532 229.248681 225.772478 229.387033 225.598347 229.525385 225.424141 229.663736 225.249861 229.802088 225.075505 229.940440 224.901077 230.078791 224.726574 230.217143 224.552000 230.355495 224.377353 230.493846 224.202634 230.632198 224.027845 230.770549 223.852985 230.908901 223.678055 231.047253 223.503055 231.185604 223.327988 231.323956 223.152851 231.462308 222.977647 231.600659 222.802376 231.739011 222.627039 231.877363 222.451635 232.015714 222.276166 232.154066 222.100632 232.292418 221.925034 232.430769 221.749372 232.569121 221.573646 232.707473 221.397858 232.845824 221.222008 232.984176 221.046097 233.122527 220.870124 233.260879 220.694091 233.399231 220.517998 233.537582 220.341845 233.675934 220.165634 233.814286 219.989365 233.952637 219.813037 234.090989 219.636653 234.229341 219.460212 234.367692 219.283715 234.506044 219.107163 234.644396 218.930556 234.782747 218.753894 234.921099 218.577179 235.059451 218.400410 235.197802 218.223589 235.336154 218.046715 235.474505 217.869790 235.612857 217.692814 235.751209 217.515787 235.889560 217.338711 236.027912 217.161585 236.166264 216.984410 236.304615 216.807187 236.442967 216.629917 236.581319 216.452599 236.719670 216.275235 236.858022 216.097824 236.996374 215.920368 237.134725 215.742868 237.273077 215.565322 237.411429 215.387733 237.549780 215.210101 237.688132 215.032426 237.826484 214.854709 237.964835 214.676950 238.103187 214.499151 238.241538 214.321311 238.379890 214.143430 238.518242 213.965511 238.656593 213.787553 238.794945 213.609556 238.933297 213.431522 239.071648 213.253450 239.210000 213.075342 239.348352 212.897198 239.486703 212.719019 239.625055 212.540804 239.763407 212.362555 239.901758 212.184273 240.040110 212.005957 240.178462 211.827608 240.316813 211.649227 240.455165 211.470815 240.593516 211.292371 240.731868 211.113897 240.870220 210.935393 241.008571 210.756860 241.146923 210.578298 241.285275 210.399707 241.423626 210.221089 241.561978 210.042444 241.700330 209.863772 241.838681 209.685074 241.977033 209.506351 242.115385 209.327602 242.253736 209.148829 242.392088 208.970033 242.530440 208.791213 242.668791 208.612370 242.807143 208.433505 242.945495 208.254619 243.083846 208.075711 243.222198 207.896783 243.360549 207.717835 243.498901 207.538868 243.637253 207.359882 243.775604 207.180878 243.913956 207.001855 244.052308 206.822816 244.190659 206.643760 244.329011 206.464688 244.467363 206.285600 244.605714 206.106498 244.744066 205.927381 244.882418 205.748250 245.020769 205.569106 245.159121 205.389949 245.297473 205.210780 245.435824 205.031600 245.574176 204.852408 245.712527 204.673206 245.850879 204.493994 245.989231 204.314772 246.127582 204.135542 246.265934 203.956303 246.404286 203.777057 246.542637 203.597803 246.680989 203.418543 246.819341 203.239276 246.957692 203.060005 247.096044 202.880728 247.234396 202.701446 247.372747 202.522161 247.511099 202.342873 247.649451 202.163582 247.787802 201.984289 247.926154 201.804994 248.064505 201.625698 248.202857 201.446401 248.341209 201.267104 248.479560 201.087808 248.617912 200.908514 248.756264 200.729220 248.894615 200.549930 249.032967 200.370641 249.171319 200.191357 249.309670 200.012076 249.448022 199.832800 249.586374 199.653528 249.724725 199.474262 249.863077 199.295003 250.001429 199.115750 250.139780 198.936504 250.278132 198.757266 250.416484 198.578037 250.554835 198.398816 250.693187 198.219605 250.831538 198.040404 250.969890 197.861213 251.108242 197.682034 251.246593 197.502866 251.384945 197.323711 251.523297 197.144568 251.661648 196.965438 251.800000 196.786323 251.938352 196.607222 252.076703 196.428136 252.215055 196.249066 252.353407 196.070011 252.491758 195.890974 252.630110 195.711954 252.768462 195.532952 252.906813 195.353969 253.045165 195.175005 253.183516 194.996060 253.321868 194.817136 253.460220 194.638233 253.598571 194.459351 253.736923 194.280492 253.875275 194.101655 254.013626 193.922841 254.151978 193.744051 254.290330 193.565286 254.428681 193.386546 254.567033 193.207831 254.705385 193.029143 254.843736 192.850481 254.982088 192.671847 255.120440 192.493241 255.258791 192.314663 255.397143 192.136115 255.535495 191.957596 255.673846 191.779107 255.812198 191.600650 255.950549 191.422224 256.088901 191.243830 256.227253 191.065469 256.365604 190.887141 256.503956 190.708847 256.642308 190.530587 256.780659 190.352363 256.919011 190.174174 257.057363 189.996021 257.195714 189.817905 257.334066 189.639827 257.472418 189.461786 257.610769 189.283784 257.749121 189.105821 257.887473 188.927898 258.025824 188.750015 258.164176 188.572174 258.302527 188.394373 258.440879 188.216615 258.579231 188.038899 258.717582 187.861227 258.855934 187.683599 258.994286 187.506015 259.132637 187.328476 259.270989 187.150983 259.409341 186.973535 259.547692 186.796135 259.686044 186.618782 259.824396 186.441477 259.962747 186.264221 260.101099 186.087014 260.239451 185.909856 260.377802 185.732749 260.516154 185.555693 260.654505 185.378688 260.792857 185.201736 260.931209 185.024836 261.069560 184.847989 261.207912 184.671196 261.346264 184.494458 261.484615 184.317774 261.622967 184.141147 261.761319 183.964575 261.899670 183.788060 262.038022 183.611603 262.176374 183.435204 262.314725 183.258863 262.453077 183.082581 262.591429 182.906359 262.729780 182.730198 262.868132 182.554097 263.006484 182.378058 263.144835 182.202081 263.283187 182.026166 263.421538 181.850315 263.559890 181.674528 263.698242 181.498805 263.836593 181.323147 263.974945 181.147555 264.113297 180.972029 264.251648 180.796570 264.390000 180.621178 264.528352 180.445854 264.666703 180.270599 264.805055 180.095413 264.943407 179.920297 265.081758 179.745251 265.220110 179.570275 265.358462 179.395372 265.496813 179.220540 265.635165 179.045781 265.773516 178.871096 265.911868 178.696484 266.050220 178.521947 266.188571 178.347484 266.326923 178.173097 266.465275 177.998787 266.603626 177.824553 266.741978 177.650397 266.880330 177.476319 267.018681 177.302319 267.157033 177.128398 267.295385 176.954557 267.433736 176.780797 267.572088 176.607117 267.710440 176.433519 267.848791 176.260003 267.987143 176.086569 268.125495 175.913219 268.263846 175.739953 268.402198 175.566771 268.540549 175.393674 268.678901 175.220663 268.817253 175.047738 268.955604 174.874899 269.093956 174.702148 269.232308 174.529485 269.370659 174.356911 269.509011 174.184426 269.647363 174.012030 269.785714 173.839725 269.924066 173.667511 270.062418 173.495388 270.200769 173.323357 270.339121 173.151419 270.477473 172.979574 270.615824 172.807824 270.754176 172.636167 270.892527 172.464606 271.030879 172.293140 271.169231 172.121770 271.307582 171.950497 271.445934 171.779322 271.584286 171.608244 271.722637 171.437265 271.860989 171.266385 271.999341 171.095605 272.137692 170.924925 272.276044 170.754346 272.414396 170.583869 272.552747 170.413494 272.691099 170.243221 272.829451 170.073051 272.967802 169.902986 273.106154 169.733025 273.244505 169.563169 273.382857 169.393418 273.521209 169.223774 273.659560 169.054236 273.797912 168.884806 273.936264 168.715484 274.074615 168.546270 274.212967 168.377165 274.351319 168.208171 274.489670 168.039286 274.628022 167.870513 274.766374 167.701850 274.904725 167.533300 275.043077 167.364863 275.181429 167.196539 275.319780 167.028329 275.458132 166.860233 275.596484 166.692252 275.734835 166.524387 275.873187 166.356638 276.011538 166.189005 276.149890 166.021490 276.288242 165.854094 276.426593 165.686815 276.564945 165.519656 276.703297 165.352616 276.841648 165.185697 276.980000 165.018899 277.118352 164.852222 277.256703 164.685667 277.395055 164.519235 277.533407 164.352926 277.671758 164.186741 277.810110 164.020680 277.948462 163.854745 278.086813 163.688935 278.225165 163.523251 278.363516 163.357694 278.501868 163.192264 278.640220 163.026963 278.778571 162.861789 278.916923 162.696745 279.055275 162.531831 279.193626 162.367047 279.331978 162.202394 279.470330 162.037872 279.608681 161.873483 279.747033 161.709226 279.885385 161.545102 280.023736 161.381112 280.162088 161.217257 280.300440 161.053537 280.438791 160.889952 280.577143 160.726503 280.715495 160.563191 280.853846 160.400017 280.992198 160.236980 281.130549 160.074082 281.268901 159.911323 281.407253 159.748704 281.545604 159.586225 281.683956 159.423887 281.822308 159.261691 281.960659 159.099637 282.099011 158.937725 282.237363 158.775956 282.375714 158.614332 282.514066 158.452851 282.652418 158.291516 282.790769 158.130327 282.929121 157.969283 283.067473 157.808386 283.205824 157.647637 283.344176 157.487036 283.482527 157.326583 283.620879 157.166279 283.759231 157.006125 283.897582 156.846121 284.035934 156.686268 284.174286 156.526567 284.312637 156.367018 284.450989 156.207621 284.589341 156.048378 284.727692 155.889288 284.866044 155.730353 285.004396 155.571573 285.142747 155.412948 285.281099 155.254480 285.419451 155.096168 285.557802 154.938014 285.696154 154.780018 285.834505 154.622180 285.972857 154.464501 286.111209 154.306982 286.249560 154.149624 286.387912 153.992426 286.526264 153.835390 286.664615 153.678514 286.802967 153.521799 286.941319 153.365244 287.079670 153.208848 287.218022 153.052612 287.356374 152.896534 287.494725 152.740614 287.633077 152.584851 287.771429 152.429246 287.909780 152.273797 288.048132 152.118504 288.186484 151.963366 288.324835 151.808384 288.463187 151.653556 288.601538 151.498882 288.739890 151.344362 288.878242 151.189995 289.016593 151.035780 289.154945 150.881717 289.293297 150.727806 289.431648 150.574046 289.570000 150.420437 289.708352 150.266977 289.846703 150.113667 289.985055 149.960507 290.123407 149.807494 290.261758 149.654630 290.400110 149.501914 290.538462 149.349345 290.676813 149.196922 290.815165 149.044645 290.953516 148.892514 291.091868 148.740528 291.230220 148.588687 291.368571 148.436990 291.506923 148.285436 291.645275 148.134025 291.783626 147.982758 291.921978 147.831632 292.060330 147.680648 292.198681 147.529805 292.337033 147.379103 292.475385 147.228541 292.613736 147.078118 292.752088 146.927835 292.890440 146.777690 293.028791 146.627684 293.167143 146.477815 293.305495 146.328084 293.443846 146.178489 293.582198 146.029030 293.720549 145.879707 293.858901 145.730520 293.997253 145.581466 294.135604 145.432548 294.273956 145.283762 294.412308 145.135111 294.550659 144.986591 294.689011 144.838204 294.827363 144.689949 294.965714 144.541825 295.104066 144.393832 295.242418 144.245969 295.380769 144.098235 295.519121 143.950631 295.657473 143.803156 295.795824 143.655809 295.934176 143.508590 296.072527 143.361498 296.210879 143.214533 296.349231 143.067694 296.487582 142.920980 296.625934 142.774393 296.764286 142.627929 296.902637 142.481591 297.040989 142.335376 297.179341 142.189284 297.317692 142.043315 297.456044 141.897468 297.594396 141.751744 297.732747 141.606140 297.871099 141.460658 298.009451 141.315295 298.147802 141.170053 298.286154 141.024930 298.424505 140.879925 298.562857 140.735039 298.701209 140.590271 298.839560 140.445621 298.977912 140.301087 299.116264 140.156669 299.254615 140.012368 299.392967 139.868181 299.531319 139.724110 299.669670 139.580153 299.808022 139.436310 299.946374 139.292580 300.084725 139.148963 300.223077 139.005459 300.361429 138.862066 300.499780 138.718785 300.638132 138.575615 300.776484 138.432555 300.914835 138.289605 301.053187 138.146764 301.191538 138.004033 301.329890 137.861409 301.468242 137.718894 301.606593 137.576486 301.744945 137.434186 301.883297 137.291991 302.021648 137.149903 302.160000 137.007920 302.298352 136.866042 302.436703 136.724268 302.575055 136.582599 302.713407 136.441033 302.851758 136.299569 302.990110 136.158209 303.128462 136.016950 303.266813 135.875793 303.405165 135.734737 303.543516 135.593781 303.681868 135.452925 303.820220 135.312169 303.958571 135.171512 304.096923 135.030953 304.235275 134.890493 304.373626 134.750130 304.511978 134.609863 304.650330 134.469694 304.788681 134.329620 304.927033 134.189642 305.065385 134.049760 305.203736 133.909971 305.342088 133.770277 305.480440 133.630676 305.618791 133.491168 305.757143 133.351753 305.895495 133.212430 306.033846 133.073199 306.172198 132.934058 306.310549 132.795008 306.448901 132.656049 306.587253 132.517179 306.725604 132.378397 306.863956 132.239705 307.002308 132.101101 307.140659 131.962584 307.279011 131.824154 307.417363 131.685811 307.555714 131.547554 307.694066 131.409383 307.832418 131.271297 307.970769 131.133296 308.109121 130.995378 308.247473 130.857545 308.385824 130.719794 308.524176 130.582126 308.662527 130.444540 308.800879 130.307036 308.939231 130.169613 309.077582 130.032271 309.215934 129.895009 309.354286 129.757827 309.492637 129.620723 309.630989 129.483699 309.769341 129.346753 309.907692 129.209884 310.046044 129.073092 310.184396 128.936378 310.322747 128.799739 310.461099 128.663176 310.599451 128.526689 310.737802 128.390276 310.876154 128.253937 311.014505 128.117672 311.152857 127.981481 311.291209 127.845362 311.429560 127.709315 311.567912 127.573340 311.706264 127.437436 311.844615 127.301603 311.982967 127.165840 312.121319 127.030148 312.259670 126.894524 312.398022 126.758969 312.536374 126.623482 312.674725 126.488063 312.813077 126.352712 312.951429 126.217427 313.089780 126.082209 313.228132 125.947056 313.366484 125.811969 313.504835 125.676946 313.643187 125.541988 313.781538 125.407093 313.919890 125.272262 314.058242 125.137494 314.196593 125.002788 314.334945 124.868144 314.473297 124.733561 314.611648 124.599039 314.750000 124.464577 314.888352 124.330175 315.026703 124.195833 315.165055 124.061549 315.303407 123.927324 315.441758 123.793157 315.580110 123.659047 315.718462 123.524994 315.856813 123.390997 315.995165 123.257056 316.133516 123.123171 316.271868 122.989340 316.410220 122.855564 316.548571 122.721842 316.686923 122.588173 316.825275 122.454557 316.963626 122.320993 317.101978 122.187482 317.240330 122.054022 317.378681 121.920612 317.517033 121.787253 317.655385 121.653944 317.793736 121.520685 317.932088 121.387474 318.070440 121.254312 318.208791 121.121198 318.347143 120.988132 318.485495 120.855112 318.623846 120.722139 318.762198 120.589211 318.900549 120.456329 319.038901 120.323493 319.177253 120.190700 319.315604 120.057952 319.453956 119.925247 319.592308 119.792585 319.730659 119.659966 319.869011 119.527388 320.007363 119.394852 320.145714 119.262358 320.284066 119.129903 320.422418 118.997489 320.560769 118.865114 320.699121 118.732778 320.837473 118.600481 320.975824 118.468222 321.114176 118.336000 321.252527 118.203817 321.390879 118.071672 321.529231 117.939566 321.667582 117.807500 321.805934 117.675475 321.944286 117.543490 322.082637 117.411547 322.220989 117.279645 322.359341 117.147786 322.497692 117.015970 322.636044 116.884197 322.774396 116.752469 322.912747 116.620785 323.051099 116.489146 323.189451 116.357553 323.327802 116.226007 323.466154 116.094507 323.604505 115.963054 323.742857 115.831649 323.881209 115.700293 324.019560 115.568986 324.157912 115.437728 324.296264 115.306521 324.434615 115.175364 324.572967 115.044258 324.711319 114.913204 324.849670 114.782202 324.988022 114.651253 325.126374 114.520357 325.264725 114.389516 325.403077 114.258728 325.541429 114.127996 325.679780 113.997319 325.818132 113.866698 325.956484 113.736134 326.094835 113.605627 326.233187 113.475178 326.371538 113.344787 326.509890 113.214455 326.648242 113.084182 326.786593 112.953969 326.924945 112.823817 327.063297 112.693725 327.201648 112.563695 327.340000 112.433727 327.478352 112.303822 327.616703 112.173980 327.755055 112.044202 327.893407 111.914487 328.031758 111.784838 328.170110 111.655254 328.308462 111.525736 328.446813 111.396284 328.585165 111.266900 328.723516 111.137582 328.861868 111.008333 329.000220 110.879153 329.138571 110.750041 329.276923 110.621000 329.415275 110.492028 329.553626 110.363128 329.691978 110.234299 329.830330 110.105541 329.968681 109.976856 330.107033 109.848245 330.245385 109.719706 330.383736 109.591242 330.522088 109.462852 330.660440 109.334538 330.798791 109.206299 330.937143 109.078136 331.075495 108.950050 331.213846 108.822042 331.352198 108.694111 331.490549 108.566259 331.628901 108.438486 331.767253 108.310792 331.905604 108.183179 332.043956 108.055646 332.182308 107.928194 332.320659 107.800824 332.459011 107.673536 332.597363 107.546331 332.735714 107.419209 332.874066 107.292171 333.012418 107.165218 333.150769 107.038349 333.289121 106.911566 333.427473 106.784869 333.565824 106.658259 333.704176 106.531736 333.842527 106.405301 333.980879 106.278953 334.119231 106.152695 334.257582 106.026526 334.395934 105.900447 334.534286 105.774458 334.672637 105.648560 334.810989 105.522754 334.949341 105.397040 335.087692 105.271418 335.226044 105.145890 335.364396 105.020455 335.502747 104.895114 335.641099 104.769869 335.779451 104.644718 335.917802 104.519664 336.056154 104.394706 336.194505 104.269844 336.332857 104.145081 336.471209 104.020415 336.609560 103.895848 336.747912 103.771380 336.886264 103.647012 337.024615 103.522744 337.162967 103.398577 337.301319 103.274511 337.439670 103.150548 337.578022 103.026686 337.716374 102.902928 337.854725 102.779273 337.993077 102.655722 338.131429 102.532275 338.269780 102.408934 338.408132 102.285698 338.546484 102.162569 338.684835 102.039547 338.823187 101.916631 338.961538 101.793824 339.099890 101.671125 339.238242 101.548535 339.376593 101.426055 339.514945 101.303684 339.653297 101.181425 339.791648 101.059276 339.930000 100.937239 340.068352 100.815314 340.206703 100.693502 340.345055 100.571804 340.483407 100.450219 340.621758 100.328749 340.760110 100.207393 340.898462 100.086153 341.036813 99.965030 341.175165 99.844022 341.313516 99.723132 341.451868 99.602360 341.590220 99.481706 341.728571 99.361170 341.866923 99.240754 342.005275 99.120458 342.143626 99.000282 342.281978 98.880227 342.420330 98.760294 342.558681 98.640482 342.697033 98.520794 342.835385 98.401228 342.973736 98.281786 343.112088 98.162468 343.250440 98.043276 343.388791 97.924208 343.527143 97.805266 343.665495 97.686451 343.803846 97.567763 343.942198 97.449202 344.080549 97.330769 344.218901 97.212465 344.357253 97.094289 344.495604 96.976244 344.633956 96.858329 344.772308 96.740544 344.910659 96.622891 345.049011 96.505370 345.187363 96.387981 345.325714 96.270725 345.464066 96.153603 345.602418 96.036614 345.740769 95.919760 345.879121 95.803042 346.017473 95.686459 346.155824 95.570012 346.294176 95.453702 346.432527 95.337529 346.570879 95.221494 346.709231 95.105598 346.847582 94.989841 346.985934 94.874223 347.124286 94.758745 347.262637 94.643407 347.400989 94.528211 347.539341 94.413156 347.677692 94.298244 347.816044 94.183474 347.954396 94.068848 348.092747 93.954366 348.231099 93.840028 348.369451 93.725834 348.507802 93.611787 348.646154 93.497885 348.784505 93.384130 348.922857 93.270522 349.061209 93.157062 349.199560 93.043750 349.337912 92.930587 349.476264 92.817573 349.614615 92.704709 349.752967 92.591995 349.891319 92.479432 350.029670 92.367021 350.168022 92.254762 350.306374 92.142655 350.444725 92.030702 350.583077 91.918902 350.721429 91.807256 350.859780 91.695765 350.998132 91.584430 351.136484 91.473250 351.274835 91.362227 351.413187 91.251360 351.551538 91.140651 351.689890 91.030100 351.828242 90.919708 351.966593 90.809475 352.104945 90.699401 352.243297 90.589488 352.381648 90.479735 352.520000 90.370144 352.658352 90.260715 352.796703 90.151448 352.935055 90.042344 353.073407 89.933403 353.211758 89.824626 353.350110 89.716014 353.488462 89.607567 353.626813 89.499286 353.765165 89.391171 353.903516 89.283223 354.041868 89.175442 354.180220 89.067828 354.318571 88.960384 354.456923 88.853108 354.595275 88.746001 354.733626 88.639065 354.871978 88.532299 355.010330 88.425705 355.148681 88.319282 355.287033 88.213031 355.425385 88.106953 355.563736 88.001048 355.702088 87.895317 355.840440 87.789759 355.978791 87.684374 356.117143 87.579161 356.255495 87.474119 356.393846 87.369248 356.532198 87.264547 356.670549 87.160016 356.808901 87.055654 356.947253 86.951460 357.085604 86.847435 357.223956 86.743576 357.362308 86.639884 357.500659 86.536358 357.639011 86.432998 357.777363 86.329802 357.915714 86.226771 358.054066 86.123903 358.192418 86.021198 358.330769 85.918656 358.469121 85.816276 358.607473 85.714056 358.745824 85.611998 358.884176 85.510099 359.022527 85.408360 359.160879 85.306780 359.299231 85.205358 359.437582 85.104093 359.575934 85.002986 359.714286 84.902035 359.852637 84.801239 359.990989 84.700599 360.129341 84.600114 360.267692 84.499783 360.406044 84.399605 360.544396 84.299580 360.682747 84.199707 360.821099 84.099985 360.959451 84.000415 361.097802 83.900995 361.236154 83.801725 361.374505 83.702604 361.512857 83.603632 361.651209 83.504808 361.789560 83.406131 361.927912 83.307601 362.066264 83.209217 362.204615 83.110979 362.342967 83.012886 362.481319 82.914937 362.619670 82.817132 362.758022 82.719471 362.896374 82.621952 363.034725 82.524574 363.173077 82.427339 363.311429 82.330244 363.449780 82.233289 363.588132 82.136474 363.726484 82.039798 363.864835 81.943260 364.003187 81.846860 364.141538 81.750598 364.279890 81.654472 364.418242 81.558482 364.556593 81.462627 364.694945 81.366907 364.833297 81.271321 364.971648 81.175869 365.110000 81.080550 365.248352 80.985364 365.386703 80.890309 365.525055 80.795385 365.663407 80.700592 365.801758 80.605929 365.940110 80.511395 366.078462 80.416991 366.216813 80.322714 366.355165 80.228565 366.493516 80.134543 366.631868 80.040647 366.770220 79.946877 366.908571 79.853232 367.046923 79.759712 367.185275 79.666316 367.323626 79.573043 367.461978 79.479893 367.600330 79.386866 367.738681 79.293959 367.877033 79.201174 368.015385 79.108509 368.153736 79.015964 368.292088 78.923538 368.430440 78.831231 368.568791 78.739042 368.707143 78.646970 368.845495 78.555015 368.983846 78.463176 369.122198 78.371453 369.260549 78.279844 369.398901 78.188350 369.537253 78.096970 369.675604 78.005703 369.813956 77.914549 369.952308 77.823506 370.090659 77.732575 370.229011 77.641755 370.367363 77.551045 370.505714 77.460444 370.644066 77.369953 370.782418 77.279569 370.920769 77.189294 371.059121 77.099126 371.197473 77.009064 371.335824 76.919108 371.474176 76.829258 371.612527 76.739513 371.750879 76.649871 371.889231 76.560333 372.027582 76.470898 372.165934 76.381566 372.304286 76.292335 372.442637 76.203206 372.580989 76.114177 372.719341 76.025248 372.857692 75.936418 372.996044 75.847687 373.134396 75.759055 373.272747 75.670519 373.411099 75.582081 373.549451 75.493739 373.687802 75.405493 373.826154 75.317343 373.964505 75.229286 374.102857 75.141324 374.241209 75.053455 374.379560 74.965679 374.517912 74.877994 374.656264 74.790402 374.794615 74.702900 374.932967 74.615489 375.071319 74.528168 375.209670 74.440935 375.348022 74.353792 375.486374 74.266736 375.624725 74.179767 375.763077 74.092886 375.901429 74.006090 376.039780 73.919380 376.178132 73.832755 376.316484 73.746215 376.454835 73.659758 376.593187 73.573384 376.731538 73.487093 376.869890 73.400883 377.008242 73.314756 377.146593 73.228708 377.284945 73.142741 377.423297 73.056854 377.561648 72.971045 377.700000 72.885315 377.838352 72.799663 377.976703 72.714087 378.115055 72.628589 378.253407 72.543166 378.391758 72.457818 378.530110 72.372546 378.668462 72.287347 378.806813 72.202222 378.945165 72.117170 379.083516 72.032190 379.221868 71.947282 379.360220 71.862445 379.498571 71.777679 379.636923 71.692983 379.775275 71.608356 379.913626 71.523797 380.051978 71.439307 380.190330 71.354884 380.328681 71.270529 380.467033 71.186239 380.605385 71.102016 380.743736 71.017857 380.882088 70.933763 381.020440 70.849733 381.158791 70.765766 381.297143 70.681862 381.435495 70.598021 381.573846 70.514240 381.712198 70.430521 381.850549 70.346862 381.988901 70.263262 382.127253 70.179722 382.265604 70.096241 382.403956 70.012817 382.542308 69.929450 382.680659 69.846141 382.819011 69.762887 382.957363 69.679689 383.095714 69.596546 383.234066 69.513457 383.372418 69.430422 383.510769 69.347440 383.649121 69.264511 383.787473 69.181633 383.925824 69.098807 384.064176 69.016031 384.202527 68.933306 384.340879 68.850630 384.479231 68.768003 384.617582 68.685424 384.755934 68.602894 384.894286 68.520410 385.032637 68.437973 385.170989 68.355581 385.309341 68.273235 385.447692 68.190934 385.586044 68.108677 385.724396 68.026463 385.862747 67.944292 386.001099 67.862164 386.139451 67.780077 386.277802 67.698031 386.416154 67.616026 386.554505 67.534061 386.692857 67.452135 386.831209 67.370248 386.969560 67.288398 387.107912 67.206587 387.246264 67.124812 387.384615 67.043074 387.522967 66.961371 387.661319 66.879703 387.799670 66.798070 387.938022 66.716471 388.076374 66.634905 388.214725 66.553372 388.353077 66.471871 388.491429 66.390401 388.629780 66.308963 388.768132 66.227554 388.906484 66.146176 389.044835 66.064826 389.183187 65.983505 389.321538 65.902212 389.459890 65.820946 389.598242 65.739707 389.736593 65.658494 389.874945 65.577306 390.013297 65.496143 390.151648 65.415005 390.290000 65.333890 390.428352 65.252799 390.566703 65.171732 390.705055 65.090689 390.843407 65.009671 390.981758 64.928676 391.120110 64.847705 391.258462 64.766759 391.396813 64.685837 391.535165 64.604940 391.673516 64.524067 391.811868 64.443219 391.950220 64.362395 392.088571 64.281597 392.226923 64.200823 392.365275 64.120075 392.503626 64.039351 392.641978 63.958653 392.780330 63.877980 392.918681 63.797333 393.057033 63.716711 393.195385 63.636114 393.333736 63.555543 393.472088 63.474998 393.610440 63.394479 393.748791 63.313986 393.887143 63.233518 394.025495 63.153077 394.163846 63.072662 394.302198 62.992273 394.440549 62.911911 394.578901 62.831575 394.717253 62.751265 394.855604 62.670983 394.993956 62.590727 395.132308 62.510497 395.270659 62.430295 395.409011 62.350120 395.547363 62.269971 395.685714 62.189850 395.824066 62.109756 395.962418 62.029690 396.100769 61.949651 396.239121 61.869639 396.377473 61.789655 396.515824 61.709699 396.654176 61.629771 396.792527 61.549870 396.930879 61.469997 397.069231 61.390153 397.207582 61.310336 397.345934 61.230548 397.484286 61.150788 397.622637 61.071057 397.760989 60.991354 397.899341 60.911680 398.037692 60.832034 398.176044 60.752417 398.314396 60.672829 398.452747 60.593270 398.591099 60.513740 398.729451 60.434239 398.867802 60.354767 399.006154 60.275325 399.144505 60.195912 399.282857 60.116528 399.421209 60.037175 399.559560 59.957850 399.697912 59.878556 399.836264 59.799291 399.974615 59.720056 400.112967 59.640851 400.251319 59.561677 400.389670 59.482532 400.528022 59.403418 400.666374 59.324334 400.804725 59.245281 400.943077 59.166258 401.081429 59.087266 401.219780 59.008305 401.358132 58.929374 401.496484 58.850474 401.634835 58.771606 401.773187 58.692768 401.911538 58.613962 402.049890 58.535186 402.188242 58.456443 402.326593 58.377730 402.464945 58.299049 402.603297 58.220400 402.741648 58.141783 402.880000 58.063197 403.018352 57.984643 403.156703 57.906121 403.295055 57.827631 403.433407 57.749174 403.571758 57.670748 403.710110 57.592355 403.848462 57.513995 403.986813 57.435666 404.125165 57.357371 404.263516 57.279108 404.401868 57.200878 404.540220 57.122681 404.678571 57.044516 404.816923 56.966385 404.955275 56.888287 405.093626 56.810222 405.231978 56.732191 405.370330 56.654193 405.508681 56.576228 405.647033 56.498297 405.785385 56.420400 405.923736 56.342536 406.062088 56.264706 406.200440 56.186910 406.338791 56.109148 406.477143 56.031421 406.615495 55.953727 406.753846 55.876068 406.892198 55.798443 407.030549 55.720853 407.168901 55.643297 407.307253 55.565776 407.445604 55.488289 407.583956 55.410838 407.722308 55.333421 407.860659 55.256039 407.999011 55.178693 408.137363 55.101381 408.275714 55.024105 408.414066 54.946864 408.552418 54.869659 408.690769 54.792489 408.829121 54.715355 408.967473 54.638256 409.105824 54.561194 409.244176 54.484167 409.382527 54.407176 409.520879 54.330222 409.659231 54.253303 409.797582 54.176421 409.935934 54.099575 410.074286 54.022765 410.212637 53.945992 410.350989 53.869256 410.489341 53.792556 410.627692 53.715893 410.766044 53.639267 410.904396 53.562678 411.042747 53.486126 411.181099 53.409611 411.319451 53.333134 411.457802 53.256693 411.596154 53.180290 411.734505 53.103925 411.872857 53.027597 412.011209 52.951307 412.149560 52.875055 412.287912 52.798840 412.426264 52.722663 412.564615 52.646525 412.702967 52.570424 412.841319 52.494362 412.979670 52.418338 413.118022 52.342353 413.256374 52.266406 413.394725 52.190497 413.533077 52.114627 413.671429 52.038796 413.809780 51.963004 413.948132 51.887251 414.086484 51.811536 414.224835 51.735861 414.363187 51.660225 414.501538 51.584628 414.639890 51.509071 414.778242 51.433553 414.916593 51.358075 415.054945 51.282636 415.193297 51.207237 415.331648 51.131878 415.470000 51.056558 415.608352 50.981279 415.746703 50.906040 415.885055 50.830841 416.023407 50.755682 416.161758 50.680563 416.300110 50.605485 416.438462 50.530448 416.576813 50.455451 416.715165 50.380495 416.853516 50.305579 416.991868 50.230705 417.130220 50.155871 417.268571 50.081079 417.406923 50.006327 417.545275 49.931617 417.683626 49.856949 417.821978 49.782321 417.960330 49.707735 418.098681 49.633191 418.237033 49.558689 418.375385 49.484228 418.513736 49.409809 418.652088 49.335432 418.790440 49.261097 418.928791 49.186804 419.067143 49.112554 419.205495 49.038345 419.343846 48.964179 419.482198 48.890056 419.620549 48.815975 419.758901 48.741937 419.897253 48.667942 420.035604 48.593989 420.173956 48.520079 420.312308 48.446213 420.450659 48.372389 420.589011 48.298609 420.727363 48.224872 420.865714 48.151178 421.004066 48.077528 421.142418 48.003921 421.280769 47.930358 421.419121 47.856839 421.557473 47.783364 421.695824 47.709932 421.834176 47.636545 421.972527 47.563201 422.110879 47.489902 422.249231 47.416647 422.387582 47.343436 422.525934 47.270270 422.664286 47.197149 422.802637 47.124072 422.940989 47.051039 423.079341 46.978052 423.217692 46.905109 423.356044 46.832211 423.494396 46.759359 423.632747 46.686551 423.771099 46.613789 423.909451 46.541072 424.047802 46.468401 424.186154 46.395775 424.324505 46.323195 424.462857 46.250660 424.601209 46.178171 424.739560 46.105728 424.877912 46.033331 425.016264 45.960980 425.154615 45.888674 425.292967 45.816412 425.431319 45.744195 425.569670 45.672023 425.708022 45.599894 425.846374 45.527809 425.984725 45.455767 426.123077 45.383767 426.261429 45.311810 426.399780 45.239895 426.538132 45.168022 426.676484 45.096190 426.814835 45.024399 426.953187 44.952649 427.091538 44.880939 427.229890 44.809269 427.368242 44.737638 427.506593 44.666047 427.644945 44.594494 427.783297 44.522980 427.921648 44.451505 428.060000 44.380067 428.198352 44.308666 428.336703 44.237303 428.475055 44.165976 428.613407 44.094686 428.751758 44.023431 428.890110 43.952213 429.028462 43.881029 429.166813 43.809881 429.305165 43.738767 429.443516 43.667687 429.581868 43.596642 429.720220 43.525629 429.858571 43.454650 429.996923 43.383704 430.135275 43.312791 430.273626 43.241909 430.411978 43.171059 430.550330 43.100241 430.688681 43.029454 430.827033 42.958697 430.965385 42.887971 431.103736 42.817274 431.242088 42.746608 431.380440 42.675970 431.518791 42.605362 431.657143 42.534782 431.795495 42.464230 431.933846 42.393706 432.072198 42.323210 432.210549 42.252740 432.348901 42.182298 432.487253 42.111882 432.625604 42.041492 432.763956 41.971128 432.902308 41.900789 433.040659 41.830475 433.179011 41.760186 433.317363 41.689921 433.455714 41.619680 433.594066 41.549463 433.732418 41.479269 433.870769 41.409098 434.009121 41.338949 434.147473 41.268823 434.285824 41.198718 434.424176 41.128635 434.562527 41.058573 434.700879 40.988532 434.839231 40.918511 434.977582 40.848510 435.115934 40.778529 435.254286 40.708567 435.392637 40.638624 435.530989 40.568700 435.669341 40.498794 435.807692 40.428906 435.946044 40.359035 436.084396 40.289182 436.222747 40.219345 436.361099 40.149525 436.499451 40.079722 436.637802 40.009934 436.776154 39.940161 436.914505 39.870404 437.052857 39.800661 437.191209 39.730932 437.329560 39.661218 437.467912 39.591517 437.606264 39.521830 437.744615 39.452155 437.882967 39.382493 438.021319 39.312844 438.159670 39.243206 438.298022 39.173580 438.436374 39.103965 438.574725 39.034360 438.713077 38.964767 438.851429 38.895183 438.989780 38.825609 439.128132 38.756044 439.266484 38.686489 439.404835 38.616942 439.543187 38.547403 439.681538 38.477873 439.819890 38.408350 439.958242 38.338834 440.096593 38.269326 440.234945 38.199824 440.373297 38.130328 440.511648 38.060837 440.650000 37.991353 440.788352 37.921873 440.926703 37.852399 441.065055 37.782928 441.203407 37.713462 441.341758 37.644000 441.480110 37.574540 441.618462 37.505084 441.756813 37.435631 441.895165 37.366180 442.033516 37.296731 442.171868 37.227283 442.310220 37.157836 442.448571 37.088391 442.586923 37.018946 442.725275 36.949501 442.863626 36.880056 443.001978 36.810610 443.140330 36.741164 443.278681 36.671716 443.417033 36.602267 443.555385 36.532816 443.693736 36.463362 443.832088 36.393906 443.970440 36.324446 444.108791 36.254984 444.247143 36.185517 444.385495 36.116047 444.523846 36.046572 444.662198 35.977092 444.800549 35.907607 444.938901 35.838117 445.077253 35.768620 445.215604 35.699118 445.353956 35.629609 445.492308 35.560093 445.630659 35.490569 445.769011 35.421038 445.907363 35.351499 446.045714 35.281952 446.184066 35.212396 446.322418 35.142831 446.460769 35.073256 446.599121 35.003672 446.737473 34.934078 446.875824 34.864473 447.014176 34.794857 447.152527 34.725230 447.290879 34.655592 447.429231 34.585941 447.567582 34.516279 447.705934 34.446604 447.844286 34.376915 447.982637 34.307214 448.120989 34.237499 448.259341 34.167769 448.397692 34.098026 448.536044 34.028267 448.674396 33.958494 448.812747 33.888705 448.951099 33.818900 449.089451 33.749079 449.227802 33.679242 449.366154 33.609388 449.504505 33.539516 449.642857 33.469627 449.781209 33.399720 449.919560 33.329795 450.057912 33.259851 450.196264 33.189888 450.334615 33.119906 450.472967 33.049904 450.611319 32.979882 450.749670 32.909839 450.888022 32.839776 451.026374 32.769691 451.164725 32.699585 451.303077 32.629458 451.441429 32.559308 451.579780 32.489135 451.718132 32.418940 451.856484 32.348721 451.994835 32.278479 452.133187 32.208213 452.271538 32.137922 452.409890 32.067607 452.548242 31.997267 452.686593 31.926901 452.824945 31.856510 452.963297 31.786092 453.101648 31.715648 453.240000 31.645177 453.378352 31.574679 453.516703 31.504154 453.655055 31.433601 453.793407 31.363019 453.931758 31.292409 454.070110 31.221770 454.208462 31.151101 454.346813 31.080403 454.485165 31.009675 454.623516 30.938917 454.761868 30.868128 454.900220 30.797307 455.038571 30.726456 455.176923 30.655572 455.315275 30.584657 455.453626 30.513709 455.591978 30.442728 455.730330 30.371714 455.868681 30.300666 456.007033 30.229585 456.145385 30.158469 456.283736 30.087318 456.422088 30.016133 456.560440 29.944912 456.698791 29.873656 456.837143 29.802363 456.975495 29.731035 457.113846 29.659669 457.252198 29.588266 457.390549 29.516826 457.528901 29.445348 457.667253 29.373832 457.805604 29.302277 457.943956 29.230684 458.082308 29.159051 458.220659 29.087379 458.359011 29.015666 458.497363 28.943914 458.635714 28.872120 458.774066 28.800286 458.912418 28.728410 459.050769 28.656493 459.189121 28.584534 459.327473 28.512532 459.465824 28.440487 459.604176 28.368400 459.742527 28.296270 459.880879 28.224098 460.019231 28.151884 460.157582 28.079628 460.295934 28.007331 460.434286 27.934992 460.572637 27.862611 460.710989 27.790189 460.849341 27.717726 460.987692 27.645222 461.126044 27.572677 461.264396 27.500092 461.402747 27.427467 461.541099 27.354801 461.679451 27.282095 461.817802 27.209349 461.956154 27.136564 462.094505 27.063739 462.232857 26.990874 462.371209 26.917971 462.509560 26.845028 462.647912 26.772047 462.786264 26.699027 462.924615 26.625968 463.062967 26.552871 463.201319 26.479736 463.339670 26.406563 463.478022 26.333352 463.616374 26.260104 463.754725 26.186818 463.893077 26.113495 464.031429 26.040134 464.169780 25.966737 464.308132 25.893302 464.446484 25.819832 464.584835 25.746324 464.723187 25.672781 464.861538 25.599201 464.999890 25.525585 465.138242 25.451934 465.276593 25.378247 465.414945 25.304525 465.553297 25.230767 465.691648 25.156974 465.830000 25.083147 465.968352 25.009284 466.106703 24.935387 466.245055 24.861456 466.383407 24.787490 466.521758 24.713491 466.660110 24.639457 466.798462 24.565390 466.936813 24.491289 467.075165 24.417155 467.213516 24.342987 467.351868 24.268787 467.490220 24.194554 467.628571 24.120288 467.766923 24.045989 467.905275 23.971659 468.043626 23.897296 468.181978 23.822901 468.320330 23.748474 468.458681 23.674015 468.597033 23.599525 468.735385 23.525004 468.873736 23.450452 469.012088 23.375868 469.150440 23.301254 469.288791 23.226609 469.427143 23.151934 469.565495 23.077228 469.703846 23.002492 469.842198 22.927727 469.980549 22.852931 470.118901 22.778106 470.257253 22.703252 470.395604 22.628368 470.533956 22.553455 470.672308 22.478513 470.810659 22.403543 470.949011 22.328544 471.087363 22.253516 471.225714 22.178461 471.364066 22.103377 471.502418 22.028265 471.640769 21.953126 471.779121 21.877959 471.917473 21.802764 472.055824 21.727543 472.194176 21.652294 472.332527 21.577019 472.470879 21.501716 472.609231 21.426388 472.747582 21.351033 472.885934 21.275651 473.024286 21.200244 473.162637 21.124811 473.300989 21.049352 473.439341 20.973868 473.577692 20.898358 473.716044 20.822823 473.854396 20.747264 473.992747 20.671679 474.131099 20.596070 474.269451 20.520436 474.407802 20.444778 474.546154 20.369096 474.684505 20.293390 474.822857 20.217660 474.961209 20.141907 475.099560 20.066130 475.237912 19.990330 475.376264 19.914506 475.514615 19.838660 475.652967 19.762791 475.791319 19.686899 475.929670 19.610985 476.068022 19.535049 476.206374 19.459091 476.344725 19.383111 476.483077 19.307109 476.621429 19.231085 476.759780 19.155040 476.898132 19.078974 477.036484 19.002887 477.174835 18.926779 477.313187 18.850650 477.451538 18.774501 477.589890 18.698331 477.728242 18.622141 477.866593 18.545931 478.004945 18.469701 478.143297 18.393452 478.281648 18.317183 478.420000 18.240895 478.558352 18.164587 478.696703 18.088261 478.835055 18.011916 478.973407 17.935552 479.111758 17.859169 479.250110 17.782769 479.388462 17.706350 479.526813 17.629913 479.665165 17.553458 479.803516 17.476986 479.941868 17.400496 480.080220 17.323989 480.218571 17.247465 480.356923 17.170924 480.495275 17.094366 480.633626 17.017792 480.771978 16.941201 480.910330 16.864594 481.048681 16.787971 481.187033 16.711332 481.325385 16.634677 481.463736 16.558006 481.602088 16.481320 481.740440 16.404619 481.878791 16.327903 482.017143 16.251172 482.155495 16.174426 482.293846 16.097666 482.432198 16.020891 482.570549 15.944103 482.708901 15.867300 482.847253 15.790483 482.985604 15.713652 483.123956 15.636809 483.262308 15.559951 483.400659 15.483081 483.539011 15.406197 483.677363 15.329301 483.815714 15.252392 483.954066 15.175470 484.092418 15.098537 484.230769 15.021591 484.369121 14.944633 484.507473 14.867663 484.645824 14.790681 484.784176 14.713689 484.922527 14.636684 485.060879 14.559669 485.199231 14.482643 485.337582 14.405606 485.475934 14.328558 485.614286 14.251500 485.752637 14.174432 485.890989 14.097353 486.029341 14.020265 486.167692 13.943167 486.306044 13.866059 486.444396 13.788942 486.582747 13.711816 486.721099 13.634680 486.859451 13.557536 486.997802 13.480383 487.136154 13.403221 487.274505 13.326051 487.412857 13.248873 487.551209 13.171687 487.689560 13.094493 487.827912 13.017291 487.966264 12.940082 488.104615 12.862865 488.242967 12.785641 488.381319 12.708410 488.519670 12.631172 488.658022 12.553928 488.796374 12.476677 488.934725 12.399420 489.073077 12.322156 489.211429 12.244887 489.349780 12.167612 489.488132 12.090331 489.626484 12.013044 489.764835 11.935753 489.903187 11.858456 490.041538 11.781154 490.179890 11.703848 490.318242 11.626536 490.456593 11.549221 490.594945 11.471901 490.733297 11.394577 490.871648 11.317249 491.010000 11.239917 491.148352 11.162582 491.286703 11.085243 491.425055 11.007901 491.563407 10.930556 491.701758 10.853208 491.840110 10.775857 491.978462 10.698504 492.116813 10.621149 492.255165 10.543791 492.393516 10.466431 492.531868 10.389069 492.670220 10.311705 492.808571 10.234340 492.946923 10.156974 493.085275 10.079606 493.223626 10.002237 493.361978 9.924868 493.500330 9.847498 493.638681 9.770127 493.777033 9.692756 493.915385 9.615385 493.915385 500.000000" /></g></g><g class="titles"><text class="title plot_title" x="400.0" y="26">China Year: 1960 - 2016 AD</text></g><g class="plot overlay" transform="translate(276, 46)"><g class="series serie-0 color-0"><g class="dots"><circle class="dot reactive tooltip-trigger" cx="9.684615384615386" cy="490.384615385" r="2.5" /><desc class="value">667,070,000.0 People</desc><desc class="x top">9.684615384615386</desc><desc class="y top">490.384615385</desc><desc class="x_label">1960</desc></g><g class="dots"><circle class="dot reactive tooltip-trigger" cx="44.27252747252747" cy="469.247781393" r="2.5" /><desc class="value">698,355,000.0 People</desc><desc class="x top">44.27252747252747</desc><desc class="y top">469.247781393</desc><desc class="x_label">1964</desc></g><g class="dots"><circle class="dot reactive tooltip-trigger" cx="78.86043956043956" cy="417.795788659" r="2.5" /><desc class="value">774,510,000.0 People</desc><desc class="x top">78.86043956043956</desc><desc class="y top">417.795788659</desc><desc class="x_label">1968</desc></g><g class="dots"><circle class="dot reactive tooltip-trigger" cx="113.44835164835165" cy="358.665351996" r="2.5" /><desc class="value">862,030,000.0 People</desc><desc class="x top">113.44835164835165</desc><desc class="y top">358.665351996</desc><desc class="x_label">1972</desc></g><g class="dots"><circle class="dot reactive tooltip-trigger" cx="148.03626373626375" cy="312.280524196" r="2.5" /><desc class="value">930,685,000.0 People</desc><desc class="x top">148.03626373626375</desc><desc class="y top">312.280524196</desc><desc class="x_label">1976</desc></g><g class="dots"><circle class="dot reactive tooltip-trigger" cx="182.62417582417586" cy="278.127832545" r="2.5" /><desc class="value">981,235,000.0 People</desc><desc class="x top">182.62417582417586</desc><desc class="y top">278.127832545</desc><desc class="x_label">1980</desc></g><g class="dots"><circle class="dot reactive tooltip-trigger" cx="217.2120879120879" cy="240.570006059" r="2.5" /><desc class="value">1,036,825,000.0 People</desc><desc class="x ">217.2120879120879</desc><desc class="y ">240.570006059</desc><desc class="x_label">1984</desc></g><g class="dots"><circle class="dot reactive tooltip-trigger" cx="251.8" cy="196.786322925" r="2.5" /><desc class="value">1,101,630,000.0 People</desc><desc class="x ">251.8</desc><desc class="y ">196.786322925</desc><desc class="x_label">1988</desc></g><g class="dots"><circle class="dot reactive tooltip-trigger" cx="286.3879120879121" cy="153.992426007" r="2.5" /><desc class="value">1,164,970,000.0 People</desc><desc class="x left">286.3879120879121</desc><desc class="y left">153.992426007</desc><desc class="x_label">1992</desc></g><g class="dots"><circle class="dot reactive tooltip-trigger" cx="320.9758241758242" cy="118.468221714" r="2.5" /><desc class="value">1,217,550,000.0 People</desc><desc class="x left">320.9758241758242</desc><desc class="y left">118.468221714</desc><desc class="x_label">1996</desc></g><g class="dots"><circle class="dot reactive tooltip-trigger" cx="355.56373626373625" cy="88.0010480248" r="2.5" /><desc class="value">1,262,645,000.0 People</desc><desc class="x left">355.56373626373625</desc><desc class="y left">88.0010480248</desc><desc class="x_label">2000</desc></g><g class="dots"><circle class="dot reactive tooltip-trigger" cx="390.15164835164836" cy="65.4150048618" r="2.5" /><desc class="value">1,296,075,000.0 People</desc><desc class="x left">390.15164835164836</desc><desc class="y left">65.4150048618</desc><desc class="x_label">2004</desc></g><g class="dots"><circle class="dot reactive tooltip-trigger" cx="424.7395604395604" cy="46.1057283556" r="2.5" /><desc class="value">1,324,655,000.0 People</desc><desc class="x left">424.7395604395604</desc><desc class="y left">46.1057283556</desc><desc class="x_label">2008</desc></g><g class="dots"><circle class="dot reactive tooltip-trigger" cx="459.3274725274726" cy="28.5125317069" r="2.5" /><desc class="value">1,350,695,000.0 People</desc><desc class="x left">459.3274725274726</desc><desc class="y left">28.5125317069</desc><desc class="x_label">2012</desc></g><g class="dots"><circle class="dot reactive tooltip-trigger" cx="493.9153846153846" cy="9.61538461538" r="2.5" /><desc class="value">1,378,665,000.0 People</desc><desc class="x left">493.9153846153846</desc><desc class="y left">9.61538461538</desc><desc class="x_label">2016</desc></g></g></g><g class="plot text-overlay" transform="translate(276, 46)"><g class="series serie-0 color-0" /></g><g class="plot tooltip-overlay" transform="translate(276, 46)"><g class="tooltip" style="opacity: 0" transform="translate(0 0)"><rect class="tooltip-box" height="0" rx="0" ry="0" width="0" /><g class="text" /></g></g><g class="legends" transform="translate(10, 56)"><g class="legend reactive activate-serie" id="activate-serie-0"><rect class="color-0 reactive" height="12" width="12" x="0.0" y="1.0" /><text x="17.0" y="11.2">Populations</text></g></g><g class="legends" transform="translate(790, 56)" /></g></svg>