<?xml version='1.0' encoding='utf-8'?>
<svg xmlns:xlink="http://www.w3.org/1999/xlink" class="pygal-chart" id="chart-87d9e31b-27f8-4fe7-9e54-3b9560c17d5e" viewBox="0 0 1000 600" xmlns="http://www.w3.org/2000/svg"><!--Generated with pygal 2.4.0 (etree) ©Kozea 2012-2016 on 2017-11-18--><!--http://pygal.org--><!--http://github.com/Kozea/pygal--><defs><style type="text/css">#chart-87d9e31b-27f8-4fe7-9e54-3b9560c17d5e{-webkit-user-select:none;-webkit-font-smoothing:antialiased;font-family:Consolas,"Liberation Mono",Menlo,Courier,monospace}#chart-87d9e31b-27f8-4fe7-9e54-3b9560c17d5e .title{font-family:Consolas,"Liberation Mono",Menlo,Courier,monospace;font-size:16px}#chart-87d9e31b-27f8-4fe7-9e54-3b9560c17d5e .legends .legend text{font-family:Consolas,"Liberation Mono",Menlo,Courier,monospace;font-size:14px}#chart-87d9e31b-27f8-4fe7-9e54-3b9560c17d5e .axis text{font-family:Consolas,"Liberation Mono",Menlo,Courier,monospace;font-size:10px}#chart-87d9e31b-27f8-4fe7-9e54-3b9560c17d5e .axis text.major{font-family:Consolas,"Liberation Mono",Menlo,Courier,monospace;font-size:10px}#chart-87d9e31b-27f8-4fe7-9e54-3b9560c17d5e .text-overlay text.value{font-family:Consolas,"Liberation Mono",Menlo,Courier,monospace;font-size:16px}#chart-87d9e31b-27f8-4fe7-9e54-3b9560c17d5e .text-overlay text.label{font-family:Consolas,"Liberation Mono",Menlo,Courier,monospace;font-size:10px}#chart-87d9e31b-27f8-4fe7-9e54-3b9560c17d5e .tooltip{font-family:Consolas,"Liberation Mono",Menlo,Courier,monospace;font-size:14px}#chart-87d9e31b-27f8-4fe7-9e54-3b9560c17d5e text.no_data{font-family:Consolas,"Liberation Mono",Menlo,Courier,monospace;font-size:64px}
#chart-87d9e31b-27f8-4fe7-9e54-3b9560c17d5e{background-color:transparent}#chart-87d9e31b-27f8-4fe7-9e54-3b9560c17d5e path,#chart-87d9e31b-27f8-4fe7-9e54-3b9560c17d5e line,#chart-87d9e31b-27f8-4fe7-9e54-3b9560c17d5e rect,#chart-87d9e31b-27f8-4fe7-9e54-3b9560c17d5e circle{-webkit-transition:1s ease-out;-moz-transition:1s ease-out;transition:1s ease-out}#chart-87d9e31b-27f8-4fe7-9e54-3b9560c17d5e .graph &gt; .background{fill:transparent}#chart-87d9e31b-27f8-4fe7-9e54-3b9560c17d5e .plot &gt; .background{fill:#111}#chart-87d9e31b-27f8-4fe7-9e54-3b9560c17d5e .graph{fill:#999}#chart-87d9e31b-27f8-4fe7-9e54-3b9560c17d5e text.no_data{fill:#eee}#chart-87d9e31b-27f8-4fe7-9e54-3b9560c17d5e .title{fill:#eee}#chart-87d9e31b-27f8-4fe7-9e54-3b9560c17d5e .legends .legend text{fill:#999}#chart-87d9e31b-27f8-4fe7-9e54-3b9560c17d5e .legends .legend:hover text{fill:#eee}#chart-87d9e31b-27f8-4fe7-9e54-3b9560c17d5e .axis .line{stroke:#eee}#chart-87d9e31b-27f8-4fe7-9e54-3b9560c17d5e .axis .guide.line{stroke:#555}#chart-87d9e31b-27f8-4fe7-9e54-3b9560c17d5e .axis .major.line{stroke:#999}#chart-87d9e31b-27f8-4fe7-9e54-3b9560c17d5e .axis text.major{fill:#eee}#chart-87d9e31b-27f8-4fe7-9e54-3b9560c17d5e .axis.y .guides:hover .guide.line,#chart-87d9e31b-27f8-4fe7-9e54-3b9560c17d5e .line-graph .axis.x .guides:hover .guide.line,#chart-87d9e31b-27f8-4fe7-9e54-3b9560c17d5e .stackedline-graph .axis.x .guides:hover .guide.line,#chart-87d9e31b-27f8-4fe7-9e54-3b9560c17d5e .xy-graph .axis.x .guides:hover .guide.line{stroke:#eee}#chart-87d9e31b-27f8-4fe7-9e54-3b9560c17d5e .axis .guides:hover text{fill:#eee}#chart-87d9e31b-27f8-4fe7-9e54-3b9560c17d5e .reactive{fill-opacity:.1;stroke-opacity:.8}#chart-87d9e31b-27f8-4fe7-9e54-3b9560c17d5e .ci{stroke:#999}#chart-87d9e31b-27f8-4fe7-9e54-3b9560c17d5e .reactive.active,#chart-87d9e31b-27f8-4fe7-9e54-3b9560c17d5e .active .reactive{fill-opacity:.75;stroke-opacity:.9;stroke-width:4}#chart-87d9e31b-27f8-4fe7-9e54-3b9560c17d5e .ci .reactive.active{stroke-width:1.5}#chart-87d9e31b-27f8-4fe7-9e54-3b9560c17d5e .series text{fill:#eee}#chart-87d9e31b-27f8-4fe7-9e54-3b9560c17d5e .tooltip rect{fill:#111;stroke:#eee;-webkit-transition:opacity 1s ease-out;-moz-transition:opacity 1s ease-out;transition:opacity 1s ease-out}#chart-87d9e31b-27f8-4fe7-9e54-3b9560c17d5e .tooltip .label{fill:#999}#chart-87d9e31b-27f8-4fe7-9e54-3b9560c17d5e .tooltip .label{fill:#999}#chart-87d9e31b-27f8-4fe7-9e54-3b9560c17d5e .tooltip .legend{font-size:.8em;fill:#555}#chart-87d9e31b-27f8-4fe7-9e54-3b9560c17d5e .tooltip .x_label{font-size:.6em;fill:#eee}#chart-87d9e31b-27f8-4fe7-9e54-3b9560c17d5e .tooltip .xlink{font-size:.5em;text-decoration:underline}#chart-87d9e31b-27f8-4fe7-9e54-3b9560c17d5e .tooltip .value{font-size:1.5em}#chart-87d9e31b-27f8-4fe7-9e54-3b9560c17d5e .bound{font-size:.5em}#chart-87d9e31b-27f8-4fe7-9e54-3b9560c17d5e .max-value{font-size:.75em;fill:#555}#chart-87d9e31b-27f8-4fe7-9e54-3b9560c17d5e .map-element{fill:#111;stroke:#555 !important}#chart-87d9e31b-27f8-4fe7-9e54-3b9560c17d5e .map-element .reactive{fill-opacity:inherit;stroke-opacity:inherit}#chart-87d9e31b-27f8-4fe7-9e54-3b9560c17d5e .color-0,#chart-87d9e31b-27f8-4fe7-9e54-3b9560c17d5e .color-0 a:visited{stroke:#0000FF;fill:#0000FF}#chart-87d9e31b-27f8-4fe7-9e54-3b9560c17d5e .text-overlay .color-0 text{fill:black}
#chart-87d9e31b-27f8-4fe7-9e54-3b9560c17d5e text.no_data{text-anchor:middle}#chart-87d9e31b-27f8-4fe7-9e54-3b9560c17d5e .guide.line{fill:none}#chart-87d9e31b-27f8-4fe7-9e54-3b9560c17d5e .centered{text-anchor:middle}#chart-87d9e31b-27f8-4fe7-9e54-3b9560c17d5e .title{text-anchor:middle}#chart-87d9e31b-27f8-4fe7-9e54-3b9560c17d5e .legends .legend text{fill-opacity:1}#chart-87d9e31b-27f8-4fe7-9e54-3b9560c17d5e .axis.x text{text-anchor:middle}#chart-87d9e31b-27f8-4fe7-9e54-3b9560c17d5e .axis.x:not(.web) text[transform]{text-anchor:start}#chart-87d9e31b-27f8-4fe7-9e54-3b9560c17d5e .axis.x:not(.web) text[transform].backwards{text-anchor:end}#chart-87d9e31b-27f8-4fe7-9e54-3b9560c17d5e .axis.y text{text-anchor:end}#chart-87d9e31b-27f8-4fe7-9e54-3b9560c17d5e .axis.y text[transform].backwards{text-anchor:start}#chart-87d9e31b-27f8-4fe7-9e54-3b9560c17d5e .axis.y2 text{text-anchor:start}#chart-87d9e31b-27f8-4fe7-9e54-3b9560c17d5e .axis.y2 text[transform].backwards{text-anchor:end}#chart-87d9e31b-27f8-4fe7-9e54-3b9560c17d5e .axis .guide.line{stroke-dasharray:4,4}#chart-87d9e31b-27f8-4fe7-9e54-3b9560c17d5e .axis .major.guide.line{stroke-dasharray:6,6}#chart-87d9e31b-27f8-4fe7-9e54-3b9560c17d5e .horizontal .axis.y .guide.line,#chart-87d9e31b-27f8-4fe7-9e54-3b9560c17d5e .horizontal .axis.y2 .guide.line,#chart-87d9e31b-27f8-4fe7-9e54-3b9560c17d5e .vertical .axis.x .guide.line{opacity:0}#chart-87d9e31b-27f8-4fe7-9e54-3b9560c17d5e .horizontal .axis.always_show .guide.line,#chart-87d9e31b-27f8-4fe7-9e54-3b9560c17d5e .vertical .axis.always_show .guide.line{opacity:1 !important}#chart-87d9e31b-27f8-4fe7-9e54-3b9560c17d5e .axis.y .guides:hover .guide.line,#chart-87d9e31b-27f8-4fe7-9e54-3b9560c17d5e .axis.y2 .guides:hover .guide.line,#chart-87d9e31b-27f8-4fe7-9e54-3b9560c17d5e .axis.x .guides:hover .guide.line{opacity:1}#chart-87d9e31b-27f8-4fe7-9e54-3b9560c17d5e .axis .guides:hover text{opacity:1}#chart-87d9e31b-27f8-4fe7-9e54-3b9560c17d5e .nofill{fill:none}#chart-87d9e31b-27f8-4fe7-9e54-3b9560c17d5e .subtle-fill{fill-opacity:.2}#chart-87d9e31b-27f8-4fe7-9e54-3b9560c17d5e .dot{stroke-width:1px;fill-opacity:1}#chart-87d9e31b-27f8-4fe7-9e54-3b9560c17d5e .dot.active{stroke-width:5px}#chart-87d9e31b-27f8-4fe7-9e54-3b9560c17d5e .dot.negative{fill:transparent}#chart-87d9e31b-27f8-4fe7-9e54-3b9560c17d5e text,#chart-87d9e31b-27f8-4fe7-9e54-3b9560c17d5e tspan{stroke:none !important}#chart-87d9e31b-27f8-4fe7-9e54-3b9560c17d5e .series text.active{opacity:1}#chart-87d9e31b-27f8-4fe7-9e54-3b9560c17d5e .tooltip rect{fill-opacity:.95;stroke-width:.5}#chart-87d9e31b-27f8-4fe7-9e54-3b9560c17d5e .tooltip text{fill-opacity:1}#chart-87d9e31b-27f8-4fe7-9e54-3b9560c17d5e .showable{visibility:hidden}#chart-87d9e31b-27f8-4fe7-9e54-3b9560c17d5e .showable.shown{visibility:visible}#chart-87d9e31b-27f8-4fe7-9e54-3b9560c17d5e .gauge-background{fill:rgba(229,229,229,1);stroke:none}#chart-87d9e31b-27f8-4fe7-9e54-3b9560c17d5e .bg-lines{stroke:transparent;stroke-width:2px}</style><script type="text/javascript">window.pygal = window.pygal || {};window.pygal.config = window.pygal.config || {};window.pygal.config['87d9e31b-27f8-4fe7-9e54-3b9560c17d5e'] = {"allow_interruptions": false, "box_mode": "extremes", "classes": ["pygal-chart"], "css": ["file://style.css", "file://graph.css"], "defs": [], "disable_xml_declaration": false, "dots_size": 2.5, "dynamic_print_values": false, "explicit_size": false, "fill": true, "force_uri_protocol": "https", "formatter": null, "half_pie": false, "height": 600, "include_x_axis": false, "inner_radius": 0, "interpolate": "cubic", "interpolation_parameters": {}, "interpolation_precision": 250, "inverse_y_axis": false, "js": ["//kozea.github.io/pygal.js/2.0.x/pygal-tooltips.min.js"], "legend_at_bottom": false, "legend_at_bottom_columns": null, "legend_box_size": 12, "logarithmic": false, "margin": 20, "margin_bottom": null, "margin_left": null, "margin_right": null, "margin_top": null, "max_scale": 16, "min_scale": 4, "missing_value_fill_truncation": "x", "no_data_text": "No data", "no_prefix": false, "order_min": null, "pretty_print": false, "print_labels": false, "print_values": false, "print_values_position": "center", "print_zeroes": true, "range": null, "rounded_bars": null, "secondary_range": null, "show_dots": true, "show_legend": true, "show_minor_x_labels": true, "show_minor_y_labels": true, "show_only_major_dots": false, "show_x_guides": false, "show_x_labels": true, "show_y_guides": true, "show_y_labels": true, "spacing": 10, "stack_from_top": false, "strict": false, "stroke": true, "stroke_style": null, "style": {"background": "transparent", "ci_colors": [], "colors": ["#0000FF", "#FF0000"], "font_family": "Consolas, \"Liberation Mono\", Menlo, Courier, monospace", "foreground": "#999", "foreground_strong": "#eee", "foreground_subtle": "#555", "guide_stroke_dasharray": "4,4", "label_font_family": "Consolas, \"Liberation Mono\", Menlo, Courier, monospace", "label_font_size": 10, "legend_font_family": "Consolas, \"Liberation Mono\", Menlo, Courier, monospace", "legend_font_size": 14, "major_guide_stroke_dasharray": "6,6", "major_label_font_family": "Consolas, \"Liberation Mono\", Menlo, Courier, monospace", "major_label_font_size": 10, "no_data_font_family": "Consolas, \"Liberation Mono\", Menlo, Courier, monospace", "no_data_font_size": 64, "opacity": ".1", "opacity_hover": ".75", "plot_background": "#111", "stroke_opacity": ".8", "stroke_opacity_hover": ".9", "title_font_family": "Consolas, \"Liberation Mono\", Menlo, Courier, monospace", "title_font_size": 16, "tooltip_font_family": "Consolas, \"Liberation Mono\", Menlo, Courier, monospace", "tooltip_font_size": 14, "transition": "1s ease-out", "value_background": "rgba(229, 229, 229, 1)", "value_colors": [], "value_font_family": "Consolas, \"Liberation Mono\", Menlo, Courier, monospace", "value_font_size": 16, "value_label_font_family": "Consolas, \"Liberation Mono\", Menlo, Courier, monospace", "value_label_font_size": 10}, "title": "Thailand Year: 1960 - 2016 AD", "tooltip_border_radius": 0, "tooltip_fancy_mode": true, "truncate_label": null, "truncate_legend": null, "width": 1000, "x_label_rotation": 90, "x_labels": ["1960", "1964", "1968", "1972", "1976", "1980", "1984", "1988", "1992", "1996", "2000", "2004", "2008", "2012", "2016"], "x_labels_major": null, "x_labels_major_count": null, "x_labels_major_every": null, "x_title": null, "xrange": null, "y_label_rotation": 0, "y_labels": null, "y_labels_major": null, "y_labels_major_count": null, "y_labels_major_every": null, "y_title": null, "zero": 0, "legends": ["Populations"]}</script><script type="text/javascript" xlink:href="https://kozea.github.io/pygal.js/2.0.x/pygal-tooltips.min.js" /></defs><title>Thailand Year: 1960 - 2016 AD</title><g class="graph line-graph vertical"><rect class="background" height="600" width="1000" x="0" y="0" /><g class="plot" transform="translate(258, 46)"><rect class="background" height="500.0" width="721.6" x="0" y="0" /><g class="axis y always_show"><path class="line" d="M0.000000 500.000000 h721.600000" /><g class="guides"><path class="guide line" d="M0.000000 460.206929 h721.600000" /><text class="" x="-5" y="463.706929019">30,000,000.0 People</text><title>30,000,000.0 People</title></g><g class="guides"><path class="guide line" d="M0.000000 344.264880 h721.600000" /><text class="" x="-5" y="347.764880031">40,000,000.0 People</text><title>40,000,000.0 People</title></g><g class="guides"><path class="major guide line" d="M0.000000 228.322831 h721.600000" /><text class="major" x="-5" y="231.822831043">50,000,000.0 People</text><title>50,000,000.0 People</title></g><g class="guides"><path class="guide line" d="M0.000000 112.380782 h721.600000" /><text class="" x="-5" y="115.880782055">60,000,000.0 People</text><title>60,000,000.0 People</title></g></g><g class="axis x"><g class="guides"><path class="line" d="M13.876923 0.000000 v500.000000" /><text class="" transform="rotate(90 13.876923 515.000000)" x="13.876923076923077" y="515.0">1960</text></g><g class="guides"><path class="guide line" d="M63.437363 0.000000 v500.000000" /><text class="" transform="rotate(90 63.437363 515.000000)" x="63.43736263736264" y="515.0">1964</text></g><g class="guides"><path class="guide line" d="M112.997802 0.000000 v500.000000" /><text class="" transform="rotate(90 112.997802 515.000000)" x="112.99780219780219" y="515.0">1968</text></g><g class="guides"><path class="guide line" d="M162.558242 0.000000 v500.000000" /><text class="" transform="rotate(90 162.558242 515.000000)" x="162.55824175824173" y="515.0">1972</text></g><g class="guides"><path class="guide line" d="M212.118681 0.000000 v500.000000" /><text class="" transform="rotate(90 212.118681 515.000000)" x="212.1186813186813" y="515.0">1976</text></g><g class="guides"><path class="guide line" d="M261.679121 0.000000 v500.000000" /><text class="" transform="rotate(90 261.679121 515.000000)" x="261.6791208791209" y="515.0">1980</text></g><g class="guides"><path class="guide line" d="M311.239560 0.000000 v500.000000" /><text class="" transform="rotate(90 311.239560 515.000000)" x="311.2395604395605" y="515.0">1984</text></g><g class="guides"><path class="guide line" d="M360.800000 0.000000 v500.000000" /><text class="" transform="rotate(90 360.800000 515.000000)" x="360.8" y="515.0">1988</text></g><g class="guides"><path class="guide line" d="M410.360440 0.000000 v500.000000" /><text class="" transform="rotate(90 410.360440 515.000000)" x="410.3604395604396" y="515.0">1992</text></g><g class="guides"><path class="guide line" d="M459.920879 0.000000 v500.000000" /><text class="" transform="rotate(90 459.920879 515.000000)" x="459.9208791208792" y="515.0">1996</text></g><g class="guides"><path class="guide line" d="M509.481319 0.000000 v500.000000" /><text class="" transform="rotate(90 509.481319 515.000000)" x="509.48131868131867" y="515.0">2000</text></g><g class="guides"><path class="guide line" d="M559.041758 0.000000 v500.000000" /><text class="" transform="rotate(90 559.041758 515.000000)" x="559.0417582417582" y="515.0">2004</text></g><g class="guides"><path class="guide line" d="M608.602198 0.000000 v500.000000" /><text class="" transform="rotate(90 608.602198 515.000000)" x="608.6021978021978" y="515.0">2008</text></g><g class="guides"><path class="guide line" d="M658.162637 0.000000 v500.000000" /><text class="" transform="rotate(90 658.162637 515.000000)" x="658.1626373626374" y="515.0">2012</text></g><g class="guides"><path class="guide line" d="M707.723077 0.000000 v500.000000" /><text class="" transform="rotate(90 707.723077 515.000000)" x="707.723076923077" y="515.0">2016</text></g></g><g class="series serie-0 color-0"><path class="line reactive" d="M13.876923 500.000000 L13.876923 490.384615 14.075165 490.227219 14.273407 490.069821 14.471648 489.912423 14.669890 489.755024 14.868132 489.597623 15.066374 489.440221 15.264615 489.282815 15.462857 489.125407 15.661099 488.967996 15.859341 488.810581 16.057582 488.653162 16.255824 488.495739 16.454066 488.338311 16.652308 488.180877 16.850549 488.023438 17.048791 487.865993 17.247033 487.708542 17.445275 487.551084 17.643516 487.393618 17.841758 487.236145 18.040000 487.078664 18.238242 486.921174 18.436484 486.763676 18.634725 486.606168 18.832967 486.448651 19.031209 486.291123 19.229451 486.133585 19.427692 485.976036 19.625934 485.818476 19.824176 485.660905 20.022418 485.503321 20.220659 485.345725 20.418901 485.188116 20.617143 485.030494 20.815385 484.872858 21.013626 484.715208 21.211868 484.557543 21.410110 484.399864 21.608352 484.242169 21.806593 484.084459 22.004835 483.926732 22.203077 483.768989 22.401319 483.611230 22.599560 483.453453 22.797802 483.295658 22.996044 483.137845 23.194286 482.980014 23.392527 482.822163 23.590769 482.664294 23.789011 482.506405 23.987253 482.348495 24.185495 482.190565 24.383736 482.032615 24.581978 481.874643 24.780220 481.716649 24.978462 481.558633 25.176703 481.400595 25.374945 481.242533 25.573187 481.084449 25.771429 480.926341 25.969670 480.768208 26.167912 480.610051 26.366154 480.451869 26.564396 480.293662 26.762637 480.135429 26.960879 479.977170 27.159121 479.818885 27.357363 479.660572 27.555604 479.502232 27.753846 479.343865 27.952088 479.185469 28.150330 479.027045 28.348571 478.868591 28.546813 478.710109 28.745055 478.551596 28.943297 478.393054 29.141538 478.234481 29.339780 478.075877 29.538022 477.917242 29.736264 477.758575 29.934505 477.599875 30.132747 477.441144 30.330989 477.282379 30.529231 477.123581 30.727473 476.964749 30.925714 476.805883 31.123956 476.646982 31.322198 476.488046 31.520440 476.329076 31.718681 476.170069 31.916923 476.011026 32.115165 475.851946 32.313407 475.692830 32.511648 475.533676 32.709890 475.374484 32.908132 475.215254 33.106374 475.055986 33.304615 474.896678 33.502857 474.737332 33.701099 474.577945 33.899341 474.418518 34.097582 474.259051 34.295824 474.099542 34.494066 473.939992 34.692308 473.780401 34.890549 473.620767 35.088791 473.461090 35.287033 473.301371 35.485275 473.141608 35.683516 472.981801 35.881758 472.821950 36.080000 472.662055 36.278242 472.502114 36.476484 472.342128 36.674725 472.182096 36.872967 472.022018 37.071209 471.861894 37.269451 471.701722 37.467692 471.541503 37.665934 471.381236 37.864176 471.220921 38.062418 471.060557 38.260659 470.900144 38.458901 470.739681 38.657143 470.579169 38.855385 470.418607 39.053626 470.257994 39.251868 470.097329 39.450110 469.936614 39.648352 469.775846 39.846593 469.615027 40.044835 469.454154 40.243077 469.293229 40.441319 469.132250 40.639560 468.971217 40.837802 468.810130 41.036044 468.648988 41.234286 468.487791 41.432527 468.326539 41.630769 468.165231 41.829011 468.003867 42.027253 467.842445 42.225495 467.680967 42.423736 467.519432 42.621978 467.357838 42.820220 467.196186 43.018462 467.034476 43.216703 466.872706 43.414945 466.710877 43.613187 466.548988 43.811429 466.387038 44.009670 466.225028 44.207912 466.062957 44.406154 465.900825 44.604396 465.738630 44.802637 465.576373 45.000879 465.414054 45.199121 465.251671 45.397363 465.089225 45.595604 464.926715 45.793846 464.764140 45.992088 464.601501 46.190330 464.438797 46.388571 464.276027 46.586813 464.113191 46.785055 463.950289 46.983297 463.787321 47.181538 463.624285 47.379780 463.461181 47.578022 463.298010 47.776264 463.134770 47.974505 462.971462 48.172747 462.808084 48.370989 462.644637 48.569231 462.481120 48.767473 462.317532 48.965714 462.153874 49.163956 461.990145 49.362198 461.826344 49.560440 461.662471 49.758681 461.498526 49.956923 461.334508 50.155165 461.170417 50.353407 461.006252 50.551648 460.842013 50.749890 460.677700 50.948132 460.513313 51.146374 460.348850 51.344615 460.184311 51.542857 460.019696 51.741099 459.855006 51.939341 459.690238 52.137582 459.525393 52.335824 459.360471 52.534066 459.195470 52.732308 459.030391 52.930549 458.865234 53.128791 458.699997 53.327033 458.534681 53.525275 458.369284 53.723516 458.203807 53.921758 458.038250 54.120000 457.872611 54.318242 457.706891 54.516484 457.541088 54.714725 457.375203 54.912967 457.209236 55.111209 457.043185 55.309451 456.877050 55.507692 456.710832 55.705934 456.544529 55.904176 456.378141 56.102418 456.211668 56.300659 456.045110 56.498901 455.878465 56.697143 455.711734 56.895385 455.544916 57.093626 455.378011 57.291868 455.211019 57.490110 455.043938 57.688352 454.876769 57.886593 454.709511 58.084835 454.542163 58.283077 454.374727 58.481319 454.207200 58.679560 454.039582 58.877802 453.871874 59.076044 453.704074 59.274286 453.536183 59.472527 453.368200 59.670769 453.200124 59.869011 453.031956 60.067253 452.863694 60.265495 452.695339 60.463736 452.526889 60.661978 452.358345 60.860220 452.189706 61.058462 452.020972 61.256703 451.852142 61.454945 451.683217 61.653187 451.514194 61.851429 451.345075 62.049670 451.175858 62.247912 451.006544 62.446154 450.837132 62.644396 450.667621 62.842637 450.498012 63.040879 450.328303 63.239121 450.158494 63.437363 449.988585 63.635604 449.818576 63.833846 449.648467 64.032088 449.478257 64.230330 449.307947 64.428571 449.137537 64.626813 448.967027 64.825055 448.796417 65.023297 448.625708 65.221538 448.454899 65.419780 448.283990 65.618022 448.112983 65.816264 447.941876 66.014505 447.770670 66.212747 447.599364 66.410989 447.427961 66.609231 447.256458 66.807473 447.084856 67.005714 446.913157 67.203956 446.741358 67.402198 446.569462 67.600440 446.397467 67.798681 446.225374 67.996923 446.053183 68.195165 445.880894 68.393407 445.708508 68.591648 445.536024 68.789890 445.363443 68.988132 445.190764 69.186374 445.017988 69.384615 444.845115 69.582857 444.672144 69.781099 444.499077 69.979341 444.325913 70.177582 444.152652 70.375824 443.979295 70.574066 443.805842 70.772308 443.632292 70.970549 443.458645 71.168791 443.284903 71.367033 443.111065 71.565275 442.937131 71.763516 442.763101 71.961758 442.588975 72.160000 442.414754 72.358242 442.240438 72.556484 442.066026 72.754725 441.891519 72.952967 441.716917 73.151209 441.542220 73.349451 441.367429 73.547692 441.192542 73.745934 441.017561 73.944176 440.842485 74.142418 440.667316 74.340659 440.492051 74.538901 440.316693 74.737143 440.141241 74.935385 439.965695 75.133626 439.790055 75.331868 439.614321 75.530110 439.438494 75.728352 439.262573 75.926593 439.086559 76.124835 438.910452 76.323077 438.734252 76.521319 438.557959 76.719560 438.381573 76.917802 438.205094 77.116044 438.028522 77.314286 437.851858 77.512527 437.675102 77.710769 437.498253 77.909011 437.321313 78.107253 437.144280 78.305495 436.967155 78.503736 436.789938 78.701978 436.612630 78.900220 436.435230 79.098462 436.257739 79.296703 436.080156 79.494945 435.902482 79.693187 435.724717 79.891429 435.546861 80.089670 435.368914 80.287912 435.190876 80.486154 435.012748 80.684396 434.834529 80.882637 434.656220 81.080879 434.477820 81.279121 434.299330 81.477363 434.120750 81.675604 433.942080 81.873846 433.763321 82.072088 433.584471 82.270330 433.405532 82.468571 433.226503 82.666813 433.047385 82.865055 432.868178 83.063297 432.688882 83.261538 432.509496 83.459780 432.330022 83.658022 432.150459 83.856264 431.970807 84.054505 431.791066 84.252747 431.611237 84.450989 431.431320 84.649231 431.251315 84.847473 431.071221 85.045714 430.891039 85.243956 430.710770 85.442198 430.530413 85.640440 430.349968 85.838681 430.169435 86.036923 429.988816 86.235165 429.808108 86.433407 429.627314 86.631648 429.446433 86.829890 429.265464 87.028132 429.084409 87.226374 428.903267 87.424615 428.722039 87.622857 428.540724 87.821099 428.359322 88.019341 428.177834 88.217582 427.996261 88.415824 427.814601 88.614066 427.632855 88.812308 427.451024 89.010549 427.269106 89.208791 427.087104 89.407033 426.905015 89.605275 426.722842 89.803516 426.540583 90.001758 426.358239 90.200000 426.175810 90.398242 425.993296 90.596484 425.810698 90.794725 425.628015 90.992967 425.445247 91.191209 425.262395 91.389451 425.079458 91.587692 424.896438 91.785934 424.713333 91.984176 424.530145 92.182418 424.346872 92.380659 424.163516 92.578901 423.980076 92.777143 423.796553 92.975385 423.612947 93.173626 423.429257 93.371868 423.245484 93.570110 423.061628 93.768352 422.877689 93.966593 422.693667 94.164835 422.509563 94.363077 422.325376 94.561319 422.141107 94.759560 421.956755 94.957802 421.772321 95.156044 421.587805 95.354286 421.403207 95.552527 421.218528 95.750769 421.033766 95.949011 420.848923 96.147253 420.663998 96.345495 420.478992 96.543736 420.293905 96.741978 420.108736 96.940220 419.923487 97.138462 419.738156 97.336703 419.552745 97.534945 419.367253 97.733187 419.181680 97.931429 418.996027 98.129670 418.810294 98.327912 418.624480 98.526154 418.438586 98.724396 418.252612 98.922637 418.066558 99.120879 417.880425 99.319121 417.694212 99.517363 417.507919 99.715604 417.321547 99.913846 417.135095 100.112088 416.948565 100.310330 416.761955 100.508571 416.575266 100.706813 416.388498 100.905055 416.201652 101.103297 416.014727 101.301538 415.827724 101.499780 415.640642 101.698022 415.453482 101.896264 415.266244 102.094505 415.078927 102.292747 414.891533 102.490989 414.704061 102.689231 414.516511 102.887473 414.328884 103.085714 414.141179 103.283956 413.953397 103.482198 413.765538 103.680440 413.577601 103.878681 413.389588 104.076923 413.201497 104.275165 413.013330 104.473407 412.825086 104.671648 412.636766 104.869890 412.448369 105.068132 412.259896 105.266374 412.071347 105.464615 411.882721 105.662857 411.694020 105.861099 411.505243 106.059341 411.316390 106.257582 411.127462 106.455824 410.938458 106.654066 410.749378 106.852308 410.560224 107.050549 410.370994 107.248791 410.181689 107.447033 409.992309 107.645275 409.802855 107.843516 409.613326 108.041758 409.423722 108.240000 409.234044 108.438242 409.044291 108.636484 408.854464 108.834725 408.664564 109.032967 408.474589 109.231209 408.284540 109.429451 408.094417 109.627692 407.904221 109.825934 407.713952 110.024176 407.523608 110.222418 407.333192 110.420659 407.142702 110.618901 406.952140 110.817143 406.761504 111.015385 406.570796 111.213626 406.380015 111.411868 406.189161 111.610110 405.998235 111.808352 405.807236 112.006593 405.616165 112.204835 405.425022 112.403077 405.233807 112.601319 405.042520 112.799560 404.851161 112.997802 404.659731 113.196044 404.468229 113.394286 404.276656 113.592527 404.085011 113.790769 403.893296 113.989011 403.701510 114.187253 403.509654 114.385495 403.317727 114.583736 403.125731 114.781978 402.933664 114.980220 402.741528 115.178462 402.549323 115.376703 402.357049 115.574945 402.164706 115.773187 401.972294 115.971429 401.779813 116.169670 401.587265 116.367912 401.394648 116.566154 401.201964 116.764396 401.009213 116.962637 400.816394 117.160879 400.623507 117.359121 400.430554 117.557363 400.237535 117.755604 400.044449 117.953846 399.851297 118.152088 399.658078 118.350330 399.464795 118.548571 399.271445 118.746813 399.078030 118.945055 398.884551 119.143297 398.691006 119.341538 398.497397 119.539780 398.303723 119.738022 398.109986 119.936264 397.916184 120.134505 397.722318 120.332747 397.528390 120.530989 397.334397 120.729231 397.140342 120.927473 396.946224 121.125714 396.752043 121.323956 396.557800 121.522198 396.363495 121.720440 396.169128 121.918681 395.974699 122.116923 395.780209 122.315165 395.585657 122.513407 395.391045 122.711648 395.196371 122.909890 395.001637 123.108132 394.806843 123.306374 394.611988 123.504615 394.417074 123.702857 394.222100 123.901099 394.027066 124.099341 393.831974 124.297582 393.636822 124.495824 393.441611 124.694066 393.246342 124.892308 393.051015 125.090549 392.855629 125.288791 392.660185 125.487033 392.464684 125.685275 392.269126 125.883516 392.073510 126.081758 391.877837 126.280000 391.682107 126.478242 391.486321 126.676484 391.290479 126.874725 391.094580 127.072967 390.898626 127.271209 390.702615 127.469451 390.506550 127.667692 390.310429 127.865934 390.114253 128.064176 389.918023 128.262418 389.721738 128.460659 389.525398 128.658901 389.329005 128.857143 389.132558 129.055385 388.936057 129.253626 388.739502 129.451868 388.542895 129.650110 388.346234 129.848352 388.149521 130.046593 387.952755 130.244835 387.755937 130.443077 387.559067 130.641319 387.362145 130.839560 387.165171 131.037802 386.968146 131.236044 386.771070 131.434286 386.573943 131.632527 386.376765 131.830769 386.179537 132.029011 385.982258 132.227253 385.784929 132.425495 385.587551 132.623736 385.390123 132.821978 385.192645 133.020220 384.995119 133.218462 384.797543 133.416703 384.599919 133.614945 384.402246 133.813187 384.204525 134.011429 384.006756 134.209670 383.808939 134.407912 383.611074 134.606154 383.413162 134.804396 383.215203 135.002637 383.017197 135.200879 382.819145 135.399121 382.621046 135.597363 382.422900 135.795604 382.224709 135.993846 382.026472 136.192088 381.828189 136.390330 381.629861 136.588571 381.431488 136.786813 381.233070 136.985055 381.034607 137.183297 380.836100 137.381538 380.637548 137.579780 380.438953 137.778022 380.240314 137.976264 380.041631 138.174505 379.842905 138.372747 379.644135 138.570989 379.445323 138.769231 379.246468 138.967473 379.047571 139.165714 378.848632 139.363956 378.649650 139.562198 378.450627 139.760440 378.251562 139.958681 378.052456 140.156923 377.853309 140.355165 377.654121 140.553407 377.454892 140.751648 377.255623 140.949890 377.056314 141.148132 376.856965 141.346374 376.657576 141.544615 376.458147 141.742857 376.258679 141.941099 376.059172 142.139341 375.859627 142.337582 375.660042 142.535824 375.460419 142.734066 375.260758 142.932308 375.061060 143.130549 374.861323 143.328791 374.661549 143.527033 374.461737 143.725275 374.261889 143.923516 374.062003 144.121758 373.862081 144.320000 373.662123 144.518242 373.462128 144.716484 373.262098 144.914725 373.062032 145.112967 372.861930 145.311209 372.661793 145.509451 372.461621 145.707692 372.261414 145.905934 372.061173 146.104176 371.860897 146.302418 371.660587 146.500659 371.460243 146.698901 371.259866 146.897143 371.059455 147.095385 370.859011 147.293626 370.658533 147.491868 370.458023 147.690110 370.257481 147.888352 370.056905 148.086593 369.856298 148.284835 369.655659 148.483077 369.454988 148.681319 369.254286 148.879560 369.053553 149.077802 368.852788 149.276044 368.651993 149.474286 368.451167 149.672527 368.250311 149.870769 368.049425 150.069011 367.848509 150.267253 367.647563 150.465495 367.446587 150.663736 367.245583 150.861978 367.044549 151.060220 366.843487 151.258462 366.642396 151.456703 366.441277 151.654945 366.240130 151.853187 366.038955 152.051429 365.837752 152.249670 365.636522 152.447912 365.435265 152.646154 365.233980 152.844396 365.032669 153.042637 364.831331 153.240879 364.629967 153.439121 364.428577 153.637363 364.227161 153.835604 364.025720 154.033846 363.824253 154.232088 363.622761 154.430330 363.421244 154.628571 363.219702 154.826813 363.018135 155.025055 362.816545 155.223297 362.614930 155.421538 362.413292 155.619780 362.211629 155.818022 362.009944 156.016264 361.808235 156.214505 361.606503 156.412747 361.404749 156.610989 361.202972 156.809231 361.001173 157.007473 360.799352 157.205714 360.597508 157.403956 360.395644 157.602198 360.193758 157.800440 359.991851 157.998681 359.789922 158.196923 359.587974 158.395165 359.386004 158.593407 359.184015 158.791648 358.982005 158.989890 358.779976 159.188132 358.577927 159.386374 358.375858 159.584615 358.173771 159.782857 357.971664 159.981099 357.769539 160.179341 357.567396 160.377582 357.365234 160.575824 357.163054 160.774066 356.960856 160.972308 356.758641 161.170549 356.556409 161.368791 356.354159 161.567033 356.151892 161.765275 355.949609 161.963516 355.747309 162.161758 355.544993 162.360000 355.342661 162.558242 355.140314 162.756484 354.937951 162.954725 354.735572 163.152967 354.533179 163.351209 354.330771 163.549451 354.128349 163.747692 353.925914 163.945934 353.723465 164.144176 353.521002 164.342418 353.318528 164.540659 353.116041 164.738901 352.913541 164.937143 352.711031 165.135385 352.508509 165.333626 352.305976 165.531868 352.103432 165.730110 351.900879 165.928352 351.698315 166.126593 351.495742 166.324835 351.293160 166.523077 351.090570 166.721319 350.887971 166.919560 350.685363 167.117802 350.482748 167.316044 350.280126 167.514286 350.077497 167.712527 349.874861 167.910769 349.672219 168.109011 349.469571 168.307253 349.266918 168.505495 349.064259 168.703736 348.861596 168.901978 348.658928 169.100220 348.456256 169.298462 348.253580 169.496703 348.050901 169.694945 347.848218 169.893187 347.645534 170.091429 347.442846 170.289670 347.240157 170.487912 347.037466 170.686154 346.834774 170.884396 346.632082 171.082637 346.429388 171.280879 346.226695 171.479121 346.024001 171.677363 345.821308 171.875604 345.618616 172.073846 345.415926 172.272088 345.213237 172.470330 345.010550 172.668571 344.807865 172.866813 344.605183 173.065055 344.402504 173.263297 344.199828 173.461538 343.997157 173.659780 343.794489 173.858022 343.591826 174.056264 343.389167 174.254505 343.186514 174.452747 342.983867 174.650989 342.781225 174.849231 342.578589 175.047473 342.375961 175.245714 342.173339 175.443956 341.970724 175.642198 341.768118 175.840440 341.565519 176.038681 341.362929 176.236923 341.160347 176.435165 340.957775 176.633407 340.755212 176.831648 340.552659 177.029890 340.350116 177.228132 340.147584 177.426374 339.945063 177.624615 339.742552 177.822857 339.540054 178.021099 339.337568 178.219341 339.135094 178.417582 338.932632 178.615824 338.730184 178.814066 338.527749 179.012308 338.325328 179.210549 338.122921 179.408791 337.920529 179.607033 337.718151 179.805275 337.515789 180.003516 337.313442 180.201758 337.111111 180.400000 336.908797 180.598242 336.706499 180.796484 336.504218 180.994725 336.301955 181.192967 336.099709 181.391209 335.897481 181.589451 335.695272 181.787692 335.493081 181.985934 335.290910 182.184176 335.088758 182.382418 334.886626 182.580659 334.684514 182.778901 334.482423 182.977143 334.280353 183.175385 334.078304 183.373626 333.876277 183.571868 333.674272 183.770110 333.472289 183.968352 333.270329 184.166593 333.068392 184.364835 332.866478 184.563077 332.664588 184.761319 332.462723 184.959560 332.260882 185.157802 332.059065 185.356044 331.857274 185.554286 331.655509 185.752527 331.453770 185.950769 331.252056 186.149011 331.050370 186.347253 330.848711 186.545495 330.647078 186.743736 330.445474 186.941978 330.243898 187.140220 330.042350 187.338462 329.840831 187.536703 329.639341 187.734945 329.437881 187.933187 329.236451 188.131429 329.035051 188.329670 328.833681 188.527912 328.632343 188.726154 328.431035 188.924396 328.229760 189.122637 328.028516 189.320879 327.827305 189.519121 327.626127 189.717363 327.424981 189.915604 327.223870 190.113846 327.022792 190.312088 326.821748 190.510330 326.620739 190.708571 326.419764 190.906813 326.218825 191.105055 326.017922 191.303297 325.817054 191.501538 325.616223 191.699780 325.415428 191.898022 325.214671 192.096264 325.013951 192.294505 324.813268 192.492747 324.612624 192.690989 324.412018 192.889231 324.211452 193.087473 324.010924 193.285714 323.810436 193.483956 323.609987 193.682198 323.409579 193.880440 323.209212 194.078681 323.008886 194.276923 322.808601 194.475165 322.608357 194.673407 322.408156 194.871648 322.207997 195.069890 322.007881 195.268132 321.807808 195.466374 321.607778 195.664615 321.407793 195.862857 321.207851 196.061099 321.007954 196.259341 320.808102 196.457582 320.608295 196.655824 320.408534 196.854066 320.208819 197.052308 320.009150 197.250549 319.809528 197.448791 319.609953 197.647033 319.410426 197.845275 319.210946 198.043516 319.011514 198.241758 318.812131 198.440000 318.612797 198.638242 318.413512 198.836484 318.214276 199.034725 318.015090 199.232967 317.815955 199.431209 317.616870 199.629451 317.417837 199.827692 317.218854 200.025934 317.019924 200.224176 316.821045 200.422418 316.622219 200.620659 316.423445 200.818901 316.224725 201.017143 316.026059 201.215385 315.827446 201.413626 315.628887 201.611868 315.430383 201.810110 315.231934 202.008352 315.033540 202.206593 314.835202 202.404835 314.636920 202.603077 314.438694 202.801319 314.240525 202.999560 314.042413 203.197802 313.844358 203.396044 313.646361 203.594286 313.448423 203.792527 313.250542 203.990769 313.052721 204.189011 312.854959 204.387253 312.657257 204.585495 312.459614 204.783736 312.262032 204.981978 312.064511 205.180220 311.867050 205.378462 311.669651 205.576703 311.472313 205.774945 311.275038 205.973187 311.077825 206.171429 310.880675 206.369670 310.683588 206.567912 310.486565 206.766154 310.289605 206.964396 310.092710 207.162637 309.895879 207.360879 309.699114 207.559121 309.502413 207.757363 309.305778 207.955604 309.109210 208.153846 308.912707 208.352088 308.716272 208.550330 308.519903 208.748571 308.323602 208.946813 308.127369 209.145055 307.931204 209.343297 307.735107 209.541538 307.539080 209.739780 307.343121 209.938022 307.147232 210.136264 306.951413 210.334505 306.755665 210.532747 306.559987 210.730989 306.364380 210.929231 306.168845 211.127473 305.973381 211.325714 305.777990 211.523956 305.582670 211.722198 305.387424 211.920440 305.192251 212.118681 304.997152 212.316923 304.802126 212.515165 304.607174 212.713407 304.412296 212.911648 304.217492 213.109890 304.022763 213.308132 303.828107 213.506374 303.633525 213.704615 303.439018 213.902857 303.244585 214.101099 303.050226 214.299341 302.855941 214.497582 302.661731 214.695824 302.467595 214.894066 302.273533 215.092308 302.079546 215.290549 301.885633 215.488791 301.691795 215.687033 301.498031 215.885275 301.304342 216.083516 301.110727 216.281758 300.917187 216.480000 300.723722 216.678242 300.530331 216.876484 300.337016 217.074725 300.143775 217.272967 299.950608 217.471209 299.757517 217.669451 299.564501 217.867692 299.371559 218.065934 299.178693 218.264176 298.985901 218.462418 298.793185 218.660659 298.600544 218.858901 298.407977 219.057143 298.215486 219.255385 298.023070 219.453626 297.830730 219.651868 297.638465 219.850110 297.446275 220.048352 297.254160 220.246593 297.062121 220.444835 296.870157 220.643077 296.678269 220.841319 296.486456 221.039560 296.294718 221.237802 296.103057 221.436044 295.911470 221.634286 295.719960 221.832527 295.528525 222.030769 295.337166 222.229011 295.145883 222.427253 294.954675 222.625495 294.763544 222.823736 294.572488 223.021978 294.381508 223.220220 294.190604 223.418462 293.999776 223.616703 293.809024 223.814945 293.618348 224.013187 293.427748 224.211429 293.237225 224.409670 293.046777 224.607912 292.856406 224.806154 292.666111 225.004396 292.475892 225.202637 292.285750 225.400879 292.095684 225.599121 291.905694 225.797363 291.715781 225.995604 291.525944 226.193846 291.336184 226.392088 291.146501 226.590330 290.956893 226.788571 290.767363 226.986813 290.577909 227.185055 290.388532 227.383297 290.199232 227.581538 290.010008 227.779780 289.820861 227.978022 289.631791 228.176264 289.442798 228.374505 289.253882 228.572747 289.065043 228.770989 288.876281 228.969231 288.687595 229.167473 288.498987 229.365714 288.310456 229.563956 288.122002 229.762198 287.933626 229.960440 287.745326 230.158681 287.557104 230.356923 287.368959 230.555165 287.180892 230.753407 286.992901 230.951648 286.804989 231.149890 286.617153 231.348132 286.429395 231.546374 286.241715 231.744615 286.054112 231.942857 285.866587 232.141099 285.679139 232.339341 285.491769 232.537582 285.304477 232.735824 285.117263 232.934066 284.930126 233.132308 284.743067 233.330549 284.556086 233.528791 284.369183 233.727033 284.182358 233.925275 283.995610 234.123516 283.808941 234.321758 283.622350 234.520000 283.435837 234.718242 283.249402 234.916484 283.063045 235.114725 282.876766 235.312967 282.690565 235.511209 282.504443 235.709451 282.318399 235.907692 282.132434 236.105934 281.946547 236.304176 281.760738 236.502418 281.575007 236.700659 281.389356 236.898901 281.203782 237.097143 281.018287 237.295385 280.832871 237.493626 280.647534 237.691868 280.462275 237.890110 280.277095 238.088352 280.091993 238.286593 279.906971 238.484835 279.722027 238.683077 279.537162 238.881319 279.352376 239.079560 279.167669 239.277802 278.983041 239.476044 278.798492 239.674286 278.614022 239.872527 278.429631 240.070769 278.245319 240.269011 278.061086 240.467253 277.876932 240.665495 277.692858 240.863736 277.508863 241.061978 277.324947 241.260220 277.141111 241.458462 276.957354 241.656703 276.773677 241.854945 276.590078 242.053187 276.406560 242.251429 276.223121 242.449670 276.039761 242.647912 275.856481 242.846154 275.673281 243.044396 275.490160 243.242637 275.307120 243.440879 275.124158 243.639121 274.941277 243.837363 274.758476 244.035604 274.575754 244.233846 274.393112 244.432088 274.210551 244.630330 274.028069 244.828571 273.845667 245.026813 273.663345 245.225055 273.481104 245.423297 273.298942 245.621538 273.116861 245.819780 272.934860 246.018022 272.752939 246.216264 272.571098 246.414505 272.389338 246.612747 272.207658 246.810989 272.026058 247.009231 271.844539 247.207473 271.663101 247.405714 271.481742 247.603956 271.300465 247.802198 271.119268 248.000440 270.938151 248.198681 270.757116 248.396923 270.576160 248.595165 270.395286 248.793407 270.214492 248.991648 270.033780 249.189890 269.853148 249.388132 269.672597 249.586374 269.492126 249.784615 269.311737 249.982857 269.131429 250.181099 268.951202 250.379341 268.771056 250.577582 268.590990 250.775824 268.411007 250.974066 268.231104 251.172308 268.051282 251.370549 267.871542 251.568791 267.691883 251.767033 267.512305 251.965275 267.332809 252.163516 267.153394 252.361758 266.974060 252.560000 266.794808 252.758242 266.615638 252.956484 266.436549 253.154725 266.257542 253.352967 266.078616 253.551209 265.899772 253.749451 265.721009 253.947692 265.542329 254.145934 265.363730 254.344176 265.185213 254.542418 265.006777 254.740659 264.828424 254.938901 264.650153 255.137143 264.471963 255.335385 264.293856 255.533626 264.115830 255.731868 263.937887 255.930110 263.760025 256.128352 263.582246 256.326593 263.404549 256.524835 263.226935 256.723077 263.049402 256.921319 262.871952 257.119560 262.694584 257.317802 262.517298 257.516044 262.340095 257.714286 262.162975 257.912527 261.985937 258.110769 261.808981 258.309011 261.632108 258.507253 261.455317 258.705495 261.278609 258.903736 261.101984 259.101978 260.925442 259.300220 260.748982 259.498462 260.572605 259.696703 260.396311 259.894945 260.220099 260.093187 260.043971 260.291429 259.867925 260.489670 259.691963 260.687912 259.516083 260.886154 259.340287 261.084396 259.164573 261.282637 258.988943 261.480879 258.813396 261.679121 258.637932 261.877363 258.462551 262.075604 258.287253 262.273846 258.112036 262.472088 257.936900 262.670330 257.761845 262.868571 257.586869 263.066813 257.411972 263.265055 257.237154 263.463297 257.062412 263.661538 256.887747 263.859780 256.713159 264.058022 256.538645 264.256264 256.364205 264.454505 256.189840 264.652747 256.015547 264.850989 255.841327 265.049231 255.667178 265.247473 255.493100 265.445714 255.319092 265.643956 255.145153 265.842198 254.971283 266.040440 254.797480 266.238681 254.623745 266.436923 254.450076 266.635165 254.276473 266.833407 254.102935 267.031648 253.929461 267.229890 253.756050 267.428132 253.582702 267.626374 253.409416 267.824615 253.236191 268.022857 253.063027 268.221099 252.889923 268.419341 252.716877 268.617582 252.543890 268.815824 252.370961 269.014066 252.198088 269.212308 252.025272 269.410549 251.852510 269.608791 251.679804 269.807033 251.507151 270.005275 251.334552 270.203516 251.162005 270.401758 250.989510 270.600000 250.817066 270.798242 250.644672 270.996484 250.472328 271.194725 250.300032 271.392967 250.127785 271.591209 249.955584 271.789451 249.783431 271.987692 249.611323 272.185934 249.439261 272.384176 249.267242 272.582418 249.095268 272.780659 248.923336 272.978901 248.751447 273.177143 248.579599 273.375385 248.407792 273.573626 248.236025 273.771868 248.064297 273.970110 247.892608 274.168352 247.720956 274.366593 247.549342 274.564835 247.377764 274.763077 247.206221 274.961319 247.034713 275.159560 246.863240 275.357802 246.691800 275.556044 246.520393 275.754286 246.349017 275.952527 246.177673 276.150769 246.006359 276.349011 245.835075 276.547253 245.663820 276.745495 245.492594 276.943736 245.321394 277.141978 245.150222 277.340220 244.979076 277.538462 244.807955 277.736703 244.636859 277.934945 244.465787 278.133187 244.294737 278.331429 244.123711 278.529670 243.952706 278.727912 243.781721 278.926154 243.610758 279.124396 243.439813 279.322637 243.268888 279.520879 243.097980 279.719121 242.927090 279.917363 242.756216 280.115604 242.585358 280.313846 242.414515 280.512088 242.243687 280.710330 242.072872 280.908571 241.902070 281.106813 241.731280 281.305055 241.560502 281.503297 241.389735 281.701538 241.218977 281.899780 241.048229 282.098022 240.877489 282.296264 240.706757 282.494505 240.536032 282.692747 240.365313 282.890989 240.194600 283.089231 240.023891 283.287473 239.853187 283.485714 239.682486 283.683956 239.511788 283.882198 239.341092 284.080440 239.170397 284.278681 238.999702 284.476923 238.829007 284.675165 238.658311 284.873407 238.487614 285.071648 238.316914 285.269890 238.146210 285.468132 237.975503 285.666374 237.804791 285.864615 237.634074 286.062857 237.463350 286.261099 237.292620 286.459341 237.121882 286.657582 236.951135 286.855824 236.780380 287.054066 236.609614 287.252308 236.438839 287.450549 236.268052 287.648791 236.097253 287.847033 235.926441 288.045275 235.755615 288.243516 235.584776 288.441758 235.413922 288.640000 235.243052 288.838242 235.072165 289.036484 234.901261 289.234725 234.730340 289.432967 234.559400 289.631209 234.388441 289.829451 234.217461 290.027692 234.046461 290.225934 233.875439 290.424176 233.704395 290.622418 233.533328 290.820659 233.362237 291.018901 233.191122 291.217143 233.019982 291.415385 232.848815 291.613626 232.677622 291.811868 232.506402 292.010110 232.335153 292.208352 232.163876 292.406593 231.992569 292.604835 231.821232 292.803077 231.649864 293.001319 231.478464 293.199560 231.307031 293.397802 231.135565 293.596044 230.964065 293.794286 230.792531 293.992527 230.620961 294.190769 230.449355 294.389011 230.277712 294.587253 230.106031 294.785495 229.934312 294.983736 229.762554 295.181978 229.590756 295.380220 229.418917 295.578462 229.247037 295.776703 229.075115 295.974945 228.903151 296.173187 228.731142 296.371429 228.559090 296.569670 228.386993 296.767912 228.214850 296.966154 228.042660 297.164396 227.870423 297.362637 227.698139 297.560879 227.525805 297.759121 227.353423 297.957363 227.180990 298.155604 227.008507 298.353846 226.835972 298.552088 226.663384 298.750330 226.490744 298.948571 226.318050 299.146813 226.145301 299.345055 225.972497 299.543297 225.799637 299.741538 225.626721 299.939780 225.453747 300.138022 225.280715 300.336264 225.107624 300.534505 224.934473 300.732747 224.761262 300.930989 224.587990 301.129231 224.414656 301.327473 224.241260 301.525714 224.067800 301.723956 223.894276 301.922198 223.720688 302.120440 223.547034 302.318681 223.373314 302.516923 223.199527 302.715165 223.025672 302.913407 222.851749 303.111648 222.677757 303.309890 222.503695 303.508132 222.329562 303.706374 222.155358 303.904615 221.981081 304.102857 221.806732 304.301099 221.632310 304.499341 221.457813 304.697582 221.283241 304.895824 221.108594 305.094066 220.933870 305.292308 220.759069 305.490549 220.584189 305.688791 220.409232 305.887033 220.234194 306.085275 220.059077 306.283516 219.883879 306.481758 219.708599 306.680000 219.533237 306.878242 219.357792 307.076484 219.182263 307.274725 219.006649 307.472967 218.830951 307.671209 218.655166 307.869451 218.479294 308.067692 218.303336 308.265934 218.127288 308.464176 217.951152 308.662418 217.774927 308.860659 217.598611 309.058901 217.422203 309.257143 217.245704 309.455385 217.069113 309.653626 216.892428 309.851868 216.715649 310.050110 216.538775 310.248352 216.361806 310.446593 216.184740 310.644835 216.007578 310.843077 215.830318 311.041319 215.652959 311.239560 215.475501 311.437802 215.297944 311.636044 215.120288 311.834286 214.942535 312.032527 214.764685 312.230769 214.586741 312.429011 214.408704 312.627253 214.230574 312.825495 214.052354 313.023736 213.874044 313.221978 213.695646 313.420220 213.517162 313.618462 213.338591 313.816703 213.159937 314.014945 212.981199 314.213187 212.802380 314.411429 212.623480 314.609670 212.444501 314.807912 212.265445 315.006154 212.086311 315.204396 211.907103 315.402637 211.727821 315.600879 211.548467 315.799121 211.369041 315.997363 211.189545 316.195604 211.009981 316.393846 210.830349 316.592088 210.650651 316.790330 210.470888 316.988571 210.291062 317.186813 210.111174 317.385055 209.931225 317.583297 209.751217 317.781538 209.571150 317.979780 209.391026 318.178022 209.210847 318.376264 209.030613 318.574505 208.850327 318.772747 208.669988 318.970989 208.489600 319.169231 208.309162 319.367473 208.128676 319.565714 207.948144 319.763956 207.767566 319.962198 207.586945 320.160440 207.406281 320.358681 207.225576 320.556923 207.044831 320.755165 206.864047 320.953407 206.683225 321.151648 206.502368 321.349890 206.321476 321.548132 206.140550 321.746374 205.959592 321.944615 205.778604 322.142857 205.597585 322.341099 205.416539 322.539341 205.235465 322.737582 205.054366 322.935824 204.873242 323.134066 204.692096 323.332308 204.510927 323.530549 204.329738 323.728791 204.148530 323.927033 203.967305 324.125275 203.786062 324.323516 203.604804 324.521758 203.423533 324.720000 203.242249 324.918242 203.060953 325.116484 202.879647 325.314725 202.698333 325.512967 202.517011 325.711209 202.335683 325.909451 202.154350 326.107692 201.973014 326.305934 201.791675 326.504176 201.610336 326.702418 201.428997 326.900659 201.247660 327.098901 201.066325 327.297143 200.884995 327.495385 200.703670 327.693626 200.522353 327.891868 200.341043 328.090110 200.159743 328.288352 199.978454 328.486593 199.797177 328.684835 199.615913 328.883077 199.434665 329.081319 199.253432 329.279560 199.072216 329.477802 198.891019 329.676044 198.709842 329.874286 198.528686 330.072527 198.347553 330.270769 198.166443 330.469011 197.985359 330.667253 197.804301 330.865495 197.623270 331.063736 197.442269 331.261978 197.261298 331.460220 197.080359 331.658462 196.899453 331.856703 196.718581 332.054945 196.537744 332.253187 196.356945 332.451429 196.176183 332.649670 195.995461 332.847912 195.814780 333.046154 195.634140 333.244396 195.453544 333.442637 195.272993 333.640879 195.092488 333.839121 194.912030 334.037363 194.731621 334.235604 194.551261 334.433846 194.370953 334.632088 194.190697 334.830330 194.010495 335.028571 193.830348 335.226813 193.650257 335.425055 193.470224 335.623297 193.290250 335.821538 193.110336 336.019780 192.930484 336.218022 192.750695 336.416264 192.570970 336.614505 192.391310 336.812747 192.211718 337.010989 192.032193 337.209231 191.852738 337.407473 191.673353 337.605714 191.494041 337.803956 191.314802 338.002198 191.135637 338.200440 190.956549 338.398681 190.777537 338.596923 190.598604 338.795165 190.419751 338.993407 190.240980 339.191648 190.062290 339.389890 189.883684 339.588132 189.705164 339.786374 189.526729 339.984615 189.348383 340.182857 189.170125 340.381099 188.991957 340.579341 188.813881 340.777582 188.635898 340.975824 188.458009 341.174066 188.280216 341.372308 188.102519 341.570549 187.924920 341.768791 187.747421 341.967033 187.570022 342.165275 187.392726 342.363516 187.215532 342.561758 187.038444 342.760000 186.861461 342.958242 186.684585 343.156484 186.507818 343.354725 186.331160 343.552967 186.154614 343.751209 185.978180 343.949451 185.801859 344.147692 185.625654 344.345934 185.449565 344.544176 185.273593 344.742418 185.097741 344.940659 184.922008 345.138901 184.746398 345.337143 184.570910 345.535385 184.395546 345.733626 184.220307 345.931868 184.045195 346.130110 183.870212 346.328352 183.695357 346.526593 183.520633 346.724835 183.346041 346.923077 183.171583 347.121319 182.997259 347.319560 182.823070 347.517802 182.649019 347.716044 182.475106 347.914286 182.301333 348.112527 182.127701 348.310769 181.954212 348.509011 181.780866 348.707253 181.607665 348.905495 181.434610 349.103736 181.261703 349.301978 181.088944 349.500220 180.916336 349.698462 180.743880 349.896703 180.571576 350.094945 180.399426 350.293187 180.227431 350.491429 180.055593 350.689670 179.883913 350.887912 179.712393 351.086154 179.541033 351.284396 179.369835 351.482637 179.198800 351.680879 179.027929 351.879121 178.857225 352.077363 178.686687 352.275604 178.516318 352.473846 178.346118 352.672088 178.176090 352.870330 178.006233 353.068571 177.836551 353.266813 177.667043 353.465055 177.497712 353.663297 177.328558 353.861538 177.159583 354.059780 176.990788 354.258022 176.822174 354.456264 176.653743 354.654505 176.485496 354.852747 176.317435 355.050989 176.149560 355.249231 175.981873 355.447473 175.814375 355.645714 175.647068 355.843956 175.479952 356.042198 175.313030 356.240440 175.146302 356.438681 174.979770 356.636923 174.813435 356.835165 174.647298 357.033407 174.481361 357.231648 174.315625 357.429890 174.150091 357.628132 173.984761 357.826374 173.819636 358.024615 173.654717 358.222857 173.490005 358.421099 173.325502 358.619341 173.161209 358.817582 172.997127 359.015824 172.833259 359.214066 172.669604 359.412308 172.506164 359.610549 172.342941 359.808791 172.179936 360.007033 172.017150 360.205275 171.854585 360.403516 171.692241 360.601758 171.530120 360.800000 171.368224 360.998242 171.206553 361.196484 171.045108 361.394725 170.883888 361.592967 170.722893 361.791209 170.562124 361.989451 170.401578 362.187692 170.241257 362.385934 170.081161 362.584176 169.921289 362.782418 169.761640 362.980659 169.602215 363.178901 169.443014 363.377143 169.284036 363.575385 169.125281 363.773626 168.966749 363.971868 168.808439 364.170110 168.650352 364.368352 168.492488 364.566593 168.334845 364.764835 168.177424 364.963077 168.020225 365.161319 167.863247 365.359560 167.706491 365.557802 167.549955 365.756044 167.393641 365.954286 167.237547 366.152527 167.081673 366.350769 166.926020 366.549011 166.770587 366.747253 166.615374 366.945495 166.460380 367.143736 166.305606 367.341978 166.151050 367.540220 165.996714 367.738462 165.842597 367.936703 165.688699 368.134945 165.535018 368.333187 165.381557 368.531429 165.228313 368.729670 165.075286 368.927912 164.922478 369.126154 164.769887 369.324396 164.617513 369.522637 164.465356 369.720879 164.313416 369.919121 164.161693 370.117363 164.010185 370.315604 163.858895 370.513846 163.707820 370.712088 163.556961 370.910330 163.406317 371.108571 163.255889 371.306813 163.105676 371.505055 162.955678 371.703297 162.805895 371.901538 162.656326 372.099780 162.506972 372.298022 162.357832 372.496264 162.208906 372.694505 162.060194 372.892747 161.911695 373.090989 161.763410 373.289231 161.615337 373.487473 161.467478 373.685714 161.319832 373.883956 161.172398 374.082198 161.025176 374.280440 160.878167 374.478681 160.731369 374.676923 160.584784 374.875165 160.438409 375.073407 160.292247 375.271648 160.146295 375.469890 160.000554 375.668132 159.855024 375.866374 159.709705 376.064615 159.564595 376.262857 159.419696 376.461099 159.275007 376.659341 159.130528 376.857582 158.986258 377.055824 158.842198 377.254066 158.698346 377.452308 158.554704 377.650549 158.411270 377.848791 158.268045 378.047033 158.125028 378.245275 157.982219 378.443516 157.839618 378.641758 157.697225 378.840000 157.555039 379.038242 157.413060 379.236484 157.271289 379.434725 157.129725 379.632967 156.988367 379.831209 156.847216 380.029451 156.706271 380.227692 156.565532 380.425934 156.424999 380.624176 156.284671 380.822418 156.144549 381.020659 156.004633 381.218901 155.864921 381.417143 155.725415 381.615385 155.586113 381.813626 155.447015 382.011868 155.308122 382.210110 155.169433 382.408352 155.030947 382.606593 154.892666 382.804835 154.754588 383.003077 154.616713 383.201319 154.479041 383.399560 154.341572 383.597802 154.204305 383.796044 154.067241 383.994286 153.930380 384.192527 153.793720 384.390769 153.657262 384.589011 153.521006 384.787253 153.384951 384.985495 153.249098 385.183736 153.113445 385.381978 152.977994 385.580220 152.842743 385.778462 152.707692 385.976703 152.572842 386.174945 152.438191 386.373187 152.303741 386.571429 152.169490 386.769670 152.035438 386.967912 151.901586 387.166154 151.767932 387.364396 151.634478 387.562637 151.501222 387.760879 151.368164 387.959121 151.235305 388.157363 151.102644 388.355604 150.970180 388.553846 150.837914 388.752088 150.705846 388.950330 150.573974 389.148571 150.442300 389.346813 150.310822 389.545055 150.179541 389.743297 150.048457 389.941538 149.917568 390.139780 149.786876 390.338022 149.656379 390.536264 149.526078 390.734505 149.395972 390.932747 149.266062 391.130989 149.136346 391.329231 149.006825 391.527473 148.877499 391.725714 148.748367 391.923956 148.619429 392.122198 148.490685 392.320440 148.362135 392.518681 148.233778 392.716923 148.105615 392.915165 147.977645 393.113407 147.849868 393.311648 147.722284 393.509890 147.594892 393.708132 147.467692 393.906374 147.340685 394.104615 147.213869 394.302857 147.087246 394.501099 146.960813 394.699341 146.834572 394.897582 146.708523 395.095824 146.582664 395.294066 146.456996 395.492308 146.331518 395.690549 146.206231 395.888791 146.081134 396.087033 145.956226 396.285275 145.831509 396.483516 145.706981 396.681758 145.582642 396.880000 145.458492 397.078242 145.334531 397.276484 145.210759 397.474725 145.087176 397.672967 144.963780 397.871209 144.840573 398.069451 144.717554 398.267692 144.594722 398.465934 144.472078 398.664176 144.349621 398.862418 144.227351 399.060659 144.105268 399.258901 143.983372 399.457143 143.861662 399.655385 143.740138 399.853626 143.618801 400.051868 143.497649 400.250110 143.376683 400.448352 143.255903 400.646593 143.135308 400.844835 143.014897 401.043077 142.894672 401.241319 142.774631 401.439560 142.654775 401.637802 142.535103 401.836044 142.415615 402.034286 142.296311 402.232527 142.177191 402.430769 142.058253 402.629011 141.939500 402.827253 141.820929 403.025495 141.702541 403.223736 141.584336 403.421978 141.466313 403.620220 141.348472 403.818462 141.230813 404.016703 141.113337 404.214945 140.996041 404.413187 140.878927 404.611429 140.761995 404.809670 140.645243 405.007912 140.528673 405.206154 140.412282 405.404396 140.296073 405.602637 140.180043 405.800879 140.064193 405.999121 139.948524 406.197363 139.833033 406.395604 139.717723 406.593846 139.602591 406.792088 139.487638 406.990330 139.372865 407.188571 139.258269 407.386813 139.143852 407.585055 139.029614 407.783297 138.915553 407.981538 138.801670 408.179780 138.687965 408.378022 138.574437 408.576264 138.461086 408.774505 138.347912 408.972747 138.234915 409.170989 138.122094 409.369231 138.009450 409.567473 137.896982 409.765714 137.784690 409.963956 137.672574 410.162198 137.560633 410.360440 137.448868 410.558681 137.337277 410.756923 137.225860 410.955165 137.114615 411.153407 137.003539 411.351648 136.892633 411.549890 136.781893 411.748132 136.671318 411.946374 136.560906 412.144615 136.450656 412.342857 136.340566 412.541099 136.230635 412.739341 136.120860 412.937582 136.011240 413.135824 135.901773 413.334066 135.792458 413.532308 135.683293 413.730549 135.574276 413.928791 135.465406 414.127033 135.356681 414.325275 135.248098 414.523516 135.139658 414.721758 135.031357 414.920000 134.923194 415.118242 134.815168 415.316484 134.707276 415.514725 134.599518 415.712967 134.491891 415.911209 134.384394 416.109451 134.277025 416.307692 134.169783 416.505934 134.062665 416.704176 133.955670 416.902418 133.848796 417.100659 133.742042 417.298901 133.635406 417.497143 133.528887 417.695385 133.422482 417.893626 133.316190 418.091868 133.210009 418.290110 133.103938 418.488352 132.997974 418.686593 132.892117 418.884835 132.786365 419.083077 132.680715 419.281319 132.575166 419.479560 132.469717 419.677802 132.364366 419.876044 132.259111 420.074286 132.153950 420.272527 132.048882 420.470769 131.943905 420.669011 131.839018 420.867253 131.734218 421.065495 131.629505 421.263736 131.524875 421.461978 131.420329 421.660220 131.315863 421.858462 131.211477 422.056703 131.107168 422.254945 131.002936 422.453187 130.898777 422.651429 130.794691 422.849670 130.690676 423.047912 130.586731 423.246154 130.482853 423.444396 130.379040 423.642637 130.275292 423.840879 130.171607 424.039121 130.067982 424.237363 129.964416 424.435604 129.860908 424.633846 129.757456 424.832088 129.654057 425.030330 129.550712 425.228571 129.447416 425.426813 129.344170 425.625055 129.240972 425.823297 129.137819 426.021538 129.034710 426.219780 128.931643 426.418022 128.828617 426.616264 128.725630 426.814505 128.622680 427.012747 128.519766 427.210989 128.416886 427.409231 128.314038 427.607473 128.211220 427.805714 128.108432 428.003956 128.005671 428.202198 127.902935 428.400440 127.800223 428.598681 127.697533 428.796923 127.594864 428.995165 127.492213 429.193407 127.389580 429.391648 127.286962 429.589890 127.184357 429.788132 127.081765 429.986374 126.979183 430.184615 126.876610 430.382857 126.774044 430.581099 126.671483 430.779341 126.568926 430.977582 126.466371 431.175824 126.363816 431.374066 126.261260 431.572308 126.158701 431.770549 126.056137 431.968791 125.953567 432.167033 125.850988 432.365275 125.748400 432.563516 125.645800 432.761758 125.543187 432.960000 125.440560 433.158242 125.337915 433.356484 125.235253 433.554725 125.132571 433.752967 125.029867 433.951209 124.927140 434.149451 124.824388 434.347692 124.721609 434.545934 124.618802 434.744176 124.515965 434.942418 124.413097 435.140659 124.310195 435.338901 124.207258 435.537143 124.104285 435.735385 124.001273 435.933626 123.898221 436.131868 123.795127 436.330110 123.691990 436.528352 123.588808 436.726593 123.485579 436.924835 123.382302 437.123077 123.278974 437.321319 123.175595 437.519560 123.072162 437.717802 122.968674 437.916044 122.865129 438.114286 122.761526 438.312527 122.657862 438.510769 122.554137 438.709011 122.450348 438.907253 122.346493 439.105495 122.242572 439.303736 122.138582 439.501978 122.034522 439.700220 121.930390 439.898462 121.826184 440.096703 121.721902 440.294945 121.617544 440.493187 121.513107 440.691429 121.408590 440.889670 121.303990 441.087912 121.199307 441.286154 121.094538 441.484396 120.989682 441.682637 120.884738 441.880879 120.779703 442.079121 120.674575 442.277363 120.569354 442.475604 120.464038 442.673846 120.358624 442.872088 120.253111 443.070330 120.147498 443.268571 120.041782 443.466813 119.935963 443.665055 119.830038 443.863297 119.724005 444.061538 119.617864 444.259780 119.511612 444.458022 119.405248 444.656264 119.298769 444.854505 119.192175 445.052747 119.085464 445.250989 118.978633 445.449231 118.871682 445.647473 118.764608 445.845714 118.657410 446.043956 118.550087 446.242198 118.442636 446.440440 118.335055 446.638681 118.227344 446.836923 118.119501 447.035165 118.011523 447.233407 117.903409 447.431648 117.795158 447.629890 117.686768 447.828132 117.578236 448.026374 117.469562 448.224615 117.360744 448.422857 117.251780 448.621099 117.142668 448.819341 117.033407 449.017582 116.923995 449.215824 116.814430 449.414066 116.704711 449.612308 116.594836 449.810549 116.484803 450.008791 116.374610 450.207033 116.264257 450.405275 116.153740 450.603516 116.043060 450.801758 115.932213 451.000000 115.821198 451.198242 115.710014 451.396484 115.598658 451.594725 115.487130 451.792967 115.375427 451.991209 115.263548 452.189451 115.151492 452.387692 115.039255 452.585934 114.926837 452.784176 114.814237 452.982418 114.701451 453.180659 114.588480 453.378901 114.475320 453.577143 114.361971 453.775385 114.248430 453.973626 114.134696 454.171868 114.020768 454.370110 113.906643 454.568352 113.792320 454.766593 113.677797 454.964835 113.563073 455.163077 113.448146 455.361319 113.333014 455.559560 113.217676 455.757802 113.102129 455.956044 112.986372 456.154286 112.870404 456.352527 112.754223 456.550769 112.637827 456.749011 112.521214 456.947253 112.404383 457.145495 112.287332 457.343736 112.170060 457.541978 112.052564 457.740220 111.934843 457.938462 111.816896 458.136703 111.698720 458.334945 111.580314 458.533187 111.461676 458.731429 111.342805 458.929670 111.223699 459.127912 111.104357 459.326154 110.984776 459.524396 110.864954 459.722637 110.744891 459.920879 110.624585 460.119121 110.504034 460.317363 110.383239 460.515604 110.262204 460.713846 110.140930 460.912088 110.019418 461.110330 109.897671 461.308571 109.775691 461.506813 109.653480 461.705055 109.531040 461.903297 109.408373 462.101538 109.285481 462.299780 109.162366 462.498022 109.039030 462.696264 108.915474 462.894505 108.791702 463.092747 108.667714 463.290989 108.543514 463.489231 108.419102 463.687473 108.294482 463.885714 108.169654 464.083956 108.044622 464.282198 107.919386 464.480440 107.793950 464.678681 107.668315 464.876923 107.542482 465.075165 107.416455 465.273407 107.290234 465.471648 107.163823 465.669890 107.037223 465.868132 106.910436 466.066374 106.783464 466.264615 106.656309 466.462857 106.528973 466.661099 106.401458 466.859341 106.273767 467.057582 106.145900 467.255824 106.017861 467.454066 105.889650 467.652308 105.761271 467.850549 105.632725 468.048791 105.504014 468.247033 105.375141 468.445275 105.246106 468.643516 105.116913 468.841758 104.987563 469.040000 104.858058 469.238242 104.728400 469.436484 104.598592 469.634725 104.468634 469.832967 104.338530 470.031209 104.208281 470.229451 104.077890 470.427692 103.947358 470.625934 103.816686 470.824176 103.685879 471.022418 103.554936 471.220659 103.423861 471.418901 103.292655 471.617143 103.161320 471.815385 103.029859 472.013626 102.898273 472.211868 102.766564 472.410110 102.634735 472.608352 102.502787 472.806593 102.370722 473.004835 102.238543 473.203077 102.106251 473.401319 101.973848 473.599560 101.841337 473.797802 101.708719 473.996044 101.575996 474.194286 101.443171 474.392527 101.310245 474.590769 101.177221 474.789011 101.044100 474.987253 100.910885 475.185495 100.777577 475.383736 100.644178 475.581978 100.510691 475.780220 100.377118 475.978462 100.243459 476.176703 100.109719 476.374945 99.975897 476.573187 99.841998 476.771429 99.708022 476.969670 99.573971 477.167912 99.439848 477.366154 99.305654 477.564396 99.171392 477.762637 99.037063 477.960879 98.902670 478.159121 98.768215 478.357363 98.633699 478.555604 98.499124 478.753846 98.364493 478.952088 98.229808 479.150330 98.095071 479.348571 97.960283 479.546813 97.825446 479.745055 97.690563 479.943297 97.555636 480.141538 97.420667 480.339780 97.285657 480.538022 97.150608 480.736264 97.015524 480.934505 96.880405 481.132747 96.745253 481.330989 96.610072 481.529231 96.474862 481.727473 96.339626 481.925714 96.204365 482.123956 96.069082 482.322198 95.933779 482.520440 95.798458 482.718681 95.663120 482.916923 95.527768 483.115165 95.392404 483.313407 95.257030 483.511648 95.121647 483.709890 94.986258 483.908132 94.850865 484.106374 94.715470 484.304615 94.580074 484.502857 94.444680 484.701099 94.309291 484.899341 94.173906 485.097582 94.038530 485.295824 93.903164 485.494066 93.767809 485.692308 93.632468 485.890549 93.497143 486.088791 93.361836 486.287033 93.226549 486.485275 93.091284 486.683516 92.956043 486.881758 92.820827 487.080000 92.685639 487.278242 92.550482 487.476484 92.415356 487.674725 92.280264 487.872967 92.145208 488.071209 92.010190 488.269451 91.875212 488.467692 91.740276 488.665934 91.605384 488.864176 91.470538 489.062418 91.335740 489.260659 91.200991 489.458901 91.066295 489.657143 90.931653 489.855385 90.797067 490.053626 90.662539 490.251868 90.528071 490.450110 90.393665 490.648352 90.259323 490.846593 90.125047 491.044835 89.990839 491.243077 89.856701 491.441319 89.722635 491.639560 89.588643 491.837802 89.454728 492.036044 89.320890 492.234286 89.187133 492.432527 89.053457 492.630769 88.919866 492.829011 88.786361 493.027253 88.652944 493.225495 88.519617 493.423736 88.386383 493.621978 88.253242 493.820220 88.120198 494.018462 87.987252 494.216703 87.854406 494.414945 87.721662 494.613187 87.589022 494.811429 87.456489 495.009670 87.324064 495.207912 87.191749 495.406154 87.059546 495.604396 86.927457 495.802637 86.795485 496.000879 86.663631 496.199121 86.531897 496.397363 86.400286 496.595604 86.268799 496.793846 86.137438 496.992088 86.006205 497.190330 85.875103 497.388571 85.744133 497.586813 85.613297 497.785055 85.482598 497.983297 85.352037 498.181538 85.221616 498.379780 85.091338 498.578022 84.961204 498.776264 84.831216 498.974505 84.701377 499.172747 84.571688 499.370989 84.442151 499.569231 84.312769 499.767473 84.183543 499.965714 84.054476 500.163956 83.925569 500.362198 83.796824 500.560440 83.668244 500.758681 83.539831 500.956923 83.411586 501.155165 83.283511 501.353407 83.155608 501.551648 83.027881 501.749890 82.900329 501.948132 82.772956 502.146374 82.645764 502.344615 82.518754 502.542857 82.391929 502.741099 82.265290 502.939341 82.138840 503.137582 82.012580 503.335824 81.886513 503.534066 81.760640 503.732308 81.634964 503.930549 81.509486 504.128791 81.384209 504.327033 81.259135 504.525275 81.134265 504.723516 81.009601 504.921758 80.885147 505.120000 80.760903 505.318242 80.636871 505.516484 80.513054 505.714725 80.389454 505.912967 80.266073 506.111209 80.142912 506.309451 80.019973 506.507692 79.897260 506.705934 79.774773 506.904176 79.652515 507.102418 79.530487 507.300659 79.408692 507.498901 79.287132 507.697143 79.165809 507.895385 79.044724 508.093626 78.923880 508.291868 78.803278 508.490110 78.682922 508.688352 78.562812 508.886593 78.442951 509.084835 78.323341 509.283077 78.203983 509.481319 78.084880 509.679560 77.966034 509.877802 77.847444 510.076044 77.729109 510.274286 77.611028 510.472527 77.493201 510.670769 77.375627 510.869011 77.258305 511.067253 77.141235 511.265495 77.024416 511.463736 76.907846 511.661978 76.791526 511.860220 76.675454 512.058462 76.559629 512.256703 76.444052 512.454945 76.328721 512.653187 76.213635 512.851429 76.098793 513.049670 75.984196 513.247912 75.869841 513.446154 75.755729 513.644396 75.641859 513.842637 75.528229 514.040879 75.414839 514.239121 75.301689 514.437363 75.188777 514.635604 75.076103 514.833846 74.963666 515.032088 74.851465 515.230330 74.739500 515.428571 74.627769 515.626813 74.516272 515.825055 74.405009 516.023297 74.293978 516.221538 74.183178 516.419780 74.072610 516.618022 73.962271 516.816264 73.852162 517.014505 73.742282 517.212747 73.632629 517.410989 73.523204 517.609231 73.414005 517.807473 73.305032 518.005714 73.196283 518.203956 73.087758 518.402198 72.979457 518.600440 72.871378 518.798681 72.763521 518.996923 72.655885 519.195165 72.548470 519.393407 72.441274 519.591648 72.334296 519.789890 72.227537 519.988132 72.120994 520.186374 72.014669 520.384615 71.908558 520.582857 71.802663 520.781099 71.696982 520.979341 71.591515 521.177582 71.486260 521.375824 71.381216 521.574066 71.276385 521.772308 71.171763 521.970549 71.067351 522.168791 70.963148 522.367033 70.859153 522.565275 70.755365 522.763516 70.651784 522.961758 70.548408 523.160000 70.445238 523.358242 70.342272 523.556484 70.239509 523.754725 70.136949 523.952967 70.034592 524.151209 69.932435 524.349451 69.830479 524.547692 69.728722 524.745934 69.627165 524.944176 69.525805 525.142418 69.424644 525.340659 69.323678 525.538901 69.222909 525.737143 69.122335 525.935385 69.021955 526.133626 68.921769 526.331868 68.821776 526.530110 68.721974 526.728352 68.622364 526.926593 68.522945 527.124835 68.423716 527.323077 68.324675 527.521319 68.225823 527.719560 68.127158 527.917802 68.028681 528.116044 67.930389 528.314286 67.832282 528.512527 67.734360 528.710769 67.636622 528.909011 67.539066 529.107253 67.441693 529.305495 67.344501 529.503736 67.247490 529.701978 67.150659 529.900220 67.054007 530.098462 66.957533 530.296703 66.861237 530.494945 66.765118 530.693187 66.669175 530.891429 66.573408 531.089670 66.477815 531.287912 66.382396 531.486154 66.287149 531.684396 66.192076 531.882637 66.097173 532.080879 66.002442 532.279121 65.907880 532.477363 65.813488 532.675604 65.719265 532.873846 65.625209 533.072088 65.531320 533.270330 65.437597 533.468571 65.344040 533.666813 65.250647 533.865055 65.157419 534.063297 65.064353 534.261538 64.971450 534.459780 64.878709 534.658022 64.786128 534.856264 64.693708 535.054505 64.601447 535.252747 64.509344 535.450989 64.417400 535.649231 64.325613 535.847473 64.233981 536.045714 64.142506 536.243956 64.051185 536.442198 63.960018 536.640440 63.869005 536.838681 63.778144 537.036923 63.687435 537.235165 63.596877 537.433407 63.506469 537.631648 63.416211 537.829890 63.326101 538.028132 63.236139 538.226374 63.146325 538.424615 63.056657 538.622857 62.967134 538.821099 62.877757 539.019341 62.788524 539.217582 62.699434 539.415824 62.610486 539.614066 62.521681 539.812308 62.433016 540.010549 62.344492 540.208791 62.256108 540.407033 62.167862 540.605275 62.079755 540.803516 61.991785 541.001758 61.903951 541.200000 61.816253 541.398242 61.728690 541.596484 61.641262 541.794725 61.553966 541.992967 61.466804 542.191209 61.379774 542.389451 61.292874 542.587692 61.206106 542.785934 61.119467 542.984176 61.032957 543.182418 60.946575 543.380659 60.860320 543.578901 60.774192 543.777143 60.688190 543.975385 60.602313 544.173626 60.516561 544.371868 60.430932 544.570110 60.345426 544.768352 60.260042 544.966593 60.174779 545.164835 60.089637 545.363077 60.004615 545.561319 59.919711 545.759560 59.834926 545.957802 59.750259 546.156044 59.665708 546.354286 59.581273 546.552527 59.496954 546.750769 59.412749 546.949011 59.328658 547.147253 59.244679 547.345495 59.160813 547.543736 59.077058 547.741978 58.993414 547.940220 58.909880 548.138462 58.826455 548.336703 58.743138 548.534945 58.659929 548.733187 58.576827 548.931429 58.493831 549.129670 58.410940 549.327912 58.328154 549.526154 58.245472 549.724396 58.162892 549.922637 58.080415 550.120879 57.998040 550.319121 57.915765 550.517363 57.833591 550.715604 57.751515 550.913846 57.669538 551.112088 57.587659 551.310330 57.505877 551.508571 57.424191 551.706813 57.342600 551.905055 57.261104 552.103297 57.179702 552.301538 57.098393 552.499780 57.017177 552.698022 56.936052 552.896264 56.855018 553.094505 56.774074 553.292747 56.693220 553.490989 56.612454 553.689231 56.531776 553.887473 56.451185 554.085714 56.370681 554.283956 56.290262 554.482198 56.209927 554.680440 56.129677 554.878681 56.049510 555.076923 55.969426 555.275165 55.889423 555.473407 55.809501 555.671648 55.729660 555.869890 55.649898 556.068132 55.570214 556.266374 55.490609 556.464615 55.411081 556.662857 55.331629 556.861099 55.252253 557.059341 55.172951 557.257582 55.093724 557.455824 55.014571 557.654066 54.935489 557.852308 54.856480 558.050549 54.777542 558.248791 54.698674 558.447033 54.619876 558.645275 54.541146 558.843516 54.462485 559.041758 54.383891 559.240000 54.305363 559.438242 54.226902 559.636484 54.148507 559.834725 54.070179 560.032967 53.991916 560.231209 53.913719 560.429451 53.835588 560.627692 53.757523 560.825934 53.679523 561.024176 53.601588 561.222418 53.523719 561.420659 53.445915 561.618901 53.368176 561.817143 53.290501 562.015385 53.212892 562.213626 53.135346 562.411868 53.057866 562.610110 52.980450 562.808352 52.903098 563.006593 52.825810 563.204835 52.748586 563.403077 52.671426 563.601319 52.594329 563.799560 52.517296 563.997802 52.440327 564.196044 52.363421 564.394286 52.286578 564.592527 52.209798 564.790769 52.133081 564.989011 52.056427 565.187253 51.979835 565.385495 51.903306 565.583736 51.826840 565.781978 51.750435 565.980220 51.674093 566.178462 51.597813 566.376703 51.521595 566.574945 51.445439 566.773187 51.369344 566.971429 51.293310 567.169670 51.217339 567.367912 51.141428 567.566154 51.065578 567.764396 50.989790 567.962637 50.914062 568.160879 50.838395 568.359121 50.762789 568.557363 50.687243 568.755604 50.611758 568.953846 50.536333 569.152088 50.460968 569.350330 50.385663 569.548571 50.310417 569.746813 50.235232 569.945055 50.160106 570.143297 50.085039 570.341538 50.010032 570.539780 49.935084 570.738022 49.860195 570.936264 49.785365 571.134505 49.710594 571.332747 49.635881 571.530989 49.561227 571.729231 49.486632 571.927473 49.412095 572.125714 49.337615 572.323956 49.263194 572.522198 49.188831 572.720440 49.114526 572.918681 49.040278 573.116923 48.966088 573.315165 48.891956 573.513407 48.817880 573.711648 48.743862 573.909890 48.669900 574.108132 48.595996 574.306374 48.522148 574.504615 48.448357 574.702857 48.374623 574.901099 48.300945 575.099341 48.227323 575.297582 48.153757 575.495824 48.080247 575.694066 48.006793 575.892308 47.933395 576.090549 47.860052 576.288791 47.786765 576.487033 47.713533 576.685275 47.640357 576.883516 47.567235 577.081758 47.494169 577.280000 47.421157 577.478242 47.348200 577.676484 47.275297 577.874725 47.202449 578.072967 47.129656 578.271209 47.056916 578.469451 46.984231 578.667692 46.911599 578.865934 46.839022 579.064176 46.766498 579.262418 46.694027 579.460659 46.621610 579.658901 46.549246 579.857143 46.476935 580.055385 46.404678 580.253626 46.332473 580.451868 46.260321 580.650110 46.188222 580.848352 46.116175 581.046593 46.044181 581.244835 45.972239 581.443077 45.900348 581.641319 45.828510 581.839560 45.756724 582.037802 45.684990 582.236044 45.613307 582.434286 45.541676 582.632527 45.470096 582.830769 45.398567 583.029011 45.327090 583.227253 45.255663 583.425495 45.184287 583.623736 45.112962 583.821978 45.041688 584.020220 44.970464 584.218462 44.899290 584.416703 44.828166 584.614945 44.757093 584.813187 44.686069 585.011429 44.615096 585.209670 44.544172 585.407912 44.473297 585.606154 44.402472 585.804396 44.331697 586.002637 44.260970 586.200879 44.190293 586.399121 44.119664 586.597363 44.049084 586.795604 43.978553 586.993846 43.908071 587.192088 43.837637 587.390330 43.767251 587.588571 43.696913 587.786813 43.626623 587.985055 43.556381 588.183297 43.486187 588.381538 43.416041 588.579780 43.345942 588.778022 43.275890 588.976264 43.205886 589.174505 43.135929 589.372747 43.066018 589.570989 42.996155 589.769231 42.926338 589.967473 42.856568 590.165714 42.786845 590.363956 42.717168 590.562198 42.647537 590.760440 42.577952 590.958681 42.508413 591.156923 42.438920 591.355165 42.369472 591.553407 42.300070 591.751648 42.230714 591.949890 42.161403 592.148132 42.092137 592.346374 42.022916 592.544615 41.953740 592.742857 41.884609 592.941099 41.815523 593.139341 41.746481 593.337582 41.677483 593.535824 41.608530 593.734066 41.539621 593.932308 41.470756 594.130549 41.401935 594.328791 41.333158 594.527033 41.264424 594.725275 41.195734 594.923516 41.127087 595.121758 41.058484 595.320000 40.989923 595.518242 40.921406 595.716484 40.852932 595.914725 40.784500 596.112967 40.716111 596.311209 40.647764 596.509451 40.579460 596.707692 40.511198 596.905934 40.442978 597.104176 40.374800 597.302418 40.306664 597.500659 40.238569 597.698901 40.170517 597.897143 40.102505 598.095385 40.034535 598.293626 39.966606 598.491868 39.898719 598.690110 39.830872 598.888352 39.763066 599.086593 39.695301 599.284835 39.627576 599.483077 39.559892 599.681319 39.492248 599.879560 39.424644 600.077802 39.357080 600.276044 39.289556 600.474286 39.222072 600.672527 39.154628 600.870769 39.087223 601.069011 39.019858 601.267253 38.952531 601.465495 38.885244 601.663736 38.817996 601.861978 38.750787 602.060220 38.683617 602.258462 38.616485 602.456703 38.549392 602.654945 38.482337 602.853187 38.415321 603.051429 38.348342 603.249670 38.281402 603.447912 38.214499 603.646154 38.147634 603.844396 38.080807 604.042637 38.014017 604.240879 37.947265 604.439121 37.880549 604.637363 37.813871 604.835604 37.747230 605.033846 37.680626 605.232088 37.614058 605.430330 37.547527 605.628571 37.481032 605.826813 37.414574 606.025055 37.348152 606.223297 37.281766 606.421538 37.215416 606.619780 37.149101 606.818022 37.082823 607.016264 37.016580 607.214505 36.950372 607.412747 36.884200 607.610989 36.818062 607.809231 36.751960 608.007473 36.685893 608.205714 36.619861 608.403956 36.553863 608.602198 36.487899 608.800440 36.421971 608.998681 36.356076 609.196923 36.290216 609.395165 36.224392 609.593407 36.158602 609.791648 36.092847 609.989890 36.027127 610.188132 35.961443 610.386374 35.895794 610.584615 35.830181 610.782857 35.764604 610.981099 35.699062 611.179341 35.633557 611.377582 35.568088 611.575824 35.502655 611.774066 35.437258 611.972308 35.371898 612.170549 35.306575 612.368791 35.241289 612.567033 35.176040 612.765275 35.110828 612.963516 35.045653 613.161758 34.980516 613.360000 34.915416 613.558242 34.850354 613.756484 34.785330 613.954725 34.720344 614.152967 34.655396 614.351209 34.590486 614.549451 34.525614 614.747692 34.460782 614.945934 34.395987 615.144176 34.331232 615.342418 34.266516 615.540659 34.201838 615.738901 34.137200 615.937143 34.072601 616.135385 34.008042 616.333626 33.943523 616.531868 33.879043 616.730110 33.814603 616.928352 33.750203 617.126593 33.685844 617.324835 33.621524 617.523077 33.557245 617.721319 33.493007 617.919560 33.428810 618.117802 33.364653 618.316044 33.300538 618.514286 33.236463 618.712527 33.172430 618.910769 33.108439 619.109011 33.044489 619.307253 32.980580 619.505495 32.916714 619.703736 32.852889 619.901978 32.789107 620.100220 32.725367 620.298462 32.661669 620.496703 32.598014 620.694945 32.534402 620.893187 32.470832 621.091429 32.407305 621.289670 32.343822 621.487912 32.280382 621.686154 32.216985 621.884396 32.153631 622.082637 32.090322 622.280879 32.027056 622.479121 31.963833 622.677363 31.900656 622.875604 31.837522 623.073846 31.774432 623.272088 31.711387 623.470330 31.648387 623.668571 31.585431 623.866813 31.522521 624.065055 31.459655 624.263297 31.396835 624.461538 31.334060 624.659780 31.271330 624.858022 31.208646 625.056264 31.146007 625.254505 31.083415 625.452747 31.020868 625.650989 30.958368 625.849231 30.895914 626.047473 30.833506 626.245714 30.771145 626.443956 30.708831 626.642198 30.646563 626.840440 30.584342 627.038681 30.522169 627.236923 30.460043 627.435165 30.397964 627.633407 30.335932 627.831648 30.273949 628.029890 30.212013 628.228132 30.150125 628.426374 30.088285 628.624615 30.026493 628.822857 29.964750 629.021099 29.903055 629.219341 29.841409 629.417582 29.779812 629.615824 29.718263 629.814066 29.656763 630.012308 29.595313 630.210549 29.533912 630.408791 29.472561 630.607033 29.411259 630.805275 29.350007 631.003516 29.288804 631.201758 29.227652 631.400000 29.166550 631.598242 29.105498 631.796484 29.044497 631.994725 28.983546 632.192967 28.922645 632.391209 28.861796 632.589451 28.800998 632.787692 28.740251 632.985934 28.679555 633.184176 28.618910 633.382418 28.558317 633.580659 28.497776 633.778901 28.437286 633.977143 28.376848 634.175385 28.316463 634.373626 28.256129 634.571868 28.195849 634.770110 28.135620 634.968352 28.075444 635.166593 28.015321 635.364835 27.955251 635.563077 27.895234 635.761319 27.835270 635.959560 27.775360 636.157802 27.715502 636.356044 27.655699 636.554286 27.595949 636.752527 27.536253 636.950769 27.476612 637.149011 27.417024 637.347253 27.357490 637.545495 27.298012 637.743736 27.238587 637.941978 27.179217 638.140220 27.119903 638.338462 27.060643 638.536703 27.001438 638.734945 26.942289 638.933187 26.883195 639.131429 26.824156 639.329670 26.765173 639.527912 26.706246 639.726154 26.647375 639.924396 26.588560 640.122637 26.529802 640.320879 26.471099 640.519121 26.412453 640.717363 26.353864 640.915604 26.295332 641.113846 26.236856 641.312088 26.178438 641.510330 26.120077 641.708571 26.061773 641.906813 26.003526 642.105055 25.945338 642.303297 25.887207 642.501538 25.829133 642.699780 25.771118 642.898022 25.713161 643.096264 25.655263 643.294505 25.597422 643.492747 25.539641 643.690989 25.481918 643.889231 25.424254 644.087473 25.366649 644.285714 25.309103 644.483956 25.251616 644.682198 25.194189 644.880440 25.136821 645.078681 25.079513 645.276923 25.022265 645.475165 24.965077 645.673407 24.907949 645.871648 24.850881 646.069890 24.793874 646.268132 24.736927 646.466374 24.680040 646.664615 24.623215 646.862857 24.566450 647.061099 24.509747 647.259341 24.453104 647.457582 24.396523 647.655824 24.340004 647.854066 24.283546 648.052308 24.227150 648.250549 24.170816 648.448791 24.114544 648.647033 24.058334 648.845275 24.002186 649.043516 23.946101 649.241758 23.890078 649.440000 23.834118 649.638242 23.778221 649.836484 23.722387 650.034725 23.666616 650.232967 23.610909 650.431209 23.555264 650.629451 23.499684 650.827692 23.444167 651.025934 23.388714 651.224176 23.333325 651.422418 23.278000 651.620659 23.222739 651.818901 23.167543 652.017143 23.112411 652.215385 23.057343 652.413626 23.002341 652.611868 22.947404 652.810110 22.892531 653.008352 22.837724 653.206593 22.782982 653.404835 22.728306 653.603077 22.673695 653.801319 22.619151 653.999560 22.564672 654.197802 22.510259 654.396044 22.455912 654.594286 22.401631 654.792527 22.347417 654.990769 22.293270 655.189011 22.239189 655.387253 22.185176 655.585495 22.131229 655.783736 22.077349 655.981978 22.023537 656.180220 21.969792 656.378462 21.916115 656.576703 21.862505 656.774945 21.808963 656.973187 21.755490 657.171429 21.702084 657.369670 21.648747 657.567912 21.595478 657.766154 21.542277 657.964396 21.489145 658.162637 21.436082 658.360879 21.383088 658.559121 21.330163 658.757363 21.277306 658.955604 21.224517 659.153846 21.171796 659.352088 21.119142 659.550330 21.066556 659.748571 21.014037 659.946813 20.961584 660.145055 20.909198 660.343297 20.856879 660.541538 20.804625 660.739780 20.752437 660.938022 20.700314 661.136264 20.648256 661.334505 20.596263 661.532747 20.544334 661.730989 20.492470 661.929231 20.440670 662.127473 20.388934 662.325714 20.337261 662.523956 20.285651 662.722198 20.234104 662.920440 20.182619 663.118681 20.131197 663.316923 20.079837 663.515165 20.028539 663.713407 19.977302 663.911648 19.926127 664.109890 19.875012 664.308132 19.823958 664.506374 19.772965 664.704615 19.722031 664.902857 19.671158 665.101099 19.620344 665.299341 19.569589 665.497582 19.518894 665.695824 19.468257 665.894066 19.417678 666.092308 19.367158 666.290549 19.316696 666.488791 19.266291 666.687033 19.215944 666.885275 19.165654 667.083516 19.115420 667.281758 19.065243 667.480000 19.015123 667.678242 18.965058 667.876484 18.915049 668.074725 18.865096 668.272967 18.815198 668.471209 18.765354 668.669451 18.715565 668.867692 18.665831 669.065934 18.616150 669.264176 18.566524 669.462418 18.516951 669.660659 18.467431 669.858901 18.417964 670.057143 18.368549 670.255385 18.319188 670.453626 18.269878 670.651868 18.220620 670.850110 18.171414 671.048352 18.122259 671.246593 18.073155 671.444835 18.024101 671.643077 17.975099 671.841319 17.926146 672.039560 17.877243 672.237802 17.828390 672.436044 17.779587 672.634286 17.730832 672.832527 17.682126 673.030769 17.633469 673.229011 17.584860 673.427253 17.536299 673.625495 17.487786 673.823736 17.439320 674.021978 17.390901 674.220220 17.342530 674.418462 17.294204 674.616703 17.245926 674.814945 17.197693 675.013187 17.149506 675.211429 17.101364 675.409670 17.053268 675.607912 17.005217 675.806154 16.957210 676.004396 16.909248 676.202637 16.861330 676.400879 16.813456 676.599121 16.765625 676.797363 16.717838 676.995604 16.670093 677.193846 16.622392 677.392088 16.574733 677.590330 16.527116 677.788571 16.479541 677.986813 16.432007 678.185055 16.384515 678.383297 16.337064 678.581538 16.289654 678.779780 16.242285 678.978022 16.194956 679.176264 16.147666 679.374505 16.100417 679.572747 16.053207 679.770989 16.006036 679.969231 15.958904 680.167473 15.911810 680.365714 15.864755 680.563956 15.817738 680.762198 15.770759 680.960440 15.723817 681.158681 15.676912 681.356923 15.630045 681.555165 15.583214 681.753407 15.536419 681.951648 15.489661 682.149890 15.442939 682.348132 15.396252 682.546374 15.349600 682.744615 15.302983 682.942857 15.256402 683.141099 15.209854 683.339341 15.163341 683.537582 15.116862 683.735824 15.070416 683.934066 15.024004 684.132308 14.977625 684.330549 14.931278 684.528791 14.884965 684.727033 14.838683 684.925275 14.792434 685.123516 14.746216 685.321758 14.700029 685.520000 14.653874 685.718242 14.607750 685.916484 14.561656 686.114725 14.515593 686.312967 14.469560 686.511209 14.423556 686.709451 14.377582 686.907692 14.331637 687.105934 14.285721 687.304176 14.239834 687.502418 14.193976 687.700659 14.148145 687.898901 14.102342 688.097143 14.056567 688.295385 14.010819 688.493626 13.965098 688.691868 13.919404 688.890110 13.873737 689.088352 13.828095 689.286593 13.782480 689.484835 13.736890 689.683077 13.691326 689.881319 13.645786 690.079560 13.600272 690.277802 13.554782 690.476044 13.509316 690.674286 13.463874 690.872527 13.418456 691.070769 13.373062 691.269011 13.327690 691.467253 13.282342 691.665495 13.237016 691.863736 13.191713 692.061978 13.146431 692.260220 13.101171 692.458462 13.055933 692.656703 13.010716 692.854945 12.965520 693.053187 12.920345 693.251429 12.875190 693.449670 12.830055 693.647912 12.784940 693.846154 12.739845 694.044396 12.694769 694.242637 12.649712 694.440879 12.604674 694.639121 12.559654 694.837363 12.514653 695.035604 12.469669 695.233846 12.424703 695.432088 12.379754 695.630330 12.334823 695.828571 12.289908 696.026813 12.245010 696.225055 12.200128 696.423297 12.155262 696.621538 12.110412 696.819780 12.065578 697.018022 12.020758 697.216264 11.975953 697.414505 11.931163 697.612747 11.886388 697.810989 11.841626 698.009231 11.796878 698.207473 11.752144 698.405714 11.707423 698.603956 11.662715 698.802198 11.618020 699.000440 11.573337 699.198681 11.528666 699.396923 11.484007 699.595165 11.439359 699.793407 11.394723 699.991648 11.350098 700.189890 11.305484 700.388132 11.260880 700.586374 11.216286 700.784615 11.171702 700.982857 11.127128 701.181099 11.082564 701.379341 11.038008 701.577582 10.993461 701.775824 10.948923 701.974066 10.904393 702.172308 10.859871 702.370549 10.815357 702.568791 10.770850 702.767033 10.726351 702.965275 10.681858 703.163516 10.637372 703.361758 10.592892 703.560000 10.548419 703.758242 10.503951 703.956484 10.459488 704.154725 10.415031 704.352967 10.370579 704.551209 10.326132 704.749451 10.281689 704.947692 10.237250 705.145934 10.192815 705.344176 10.148383 705.542418 10.103955 705.740659 10.059530 705.938901 10.015107 706.137143 9.970687 706.335385 9.926270 706.533626 9.881854 706.731868 9.837440 706.930110 9.793027 707.128352 9.748616 707.326593 9.704205 707.524835 9.659795 707.723077 9.615385 707.723077 500.000000" /></g></g><g class="titles"><text class="title plot_title" x="500.0" y="26">Thailand Year: 1960 - 2016 AD</text></g><g class="plot overlay" transform="translate(258, 46)"><g class="series serie-0 color-0"><g class="dots"><circle class="dot reactive tooltip-trigger" cx="13.876923076923077" cy="490.384615385" r="2.5" /><desc class="value">27,397,175.0 People</desc><desc class="x top">13.876923076923077</desc><desc class="y top">490.384615385</desc><desc class="x_label">1960</desc></g><g class="dots"><circle class="dot reactive tooltip-trigger" cx="63.43736263736264" cy="449.988585227" r="2.5" /><desc class="value">30,881,332.0 People</desc><desc class="x top">63.43736263736264</desc><desc class="y top">449.988585227</desc><desc class="x_label">1964</desc></g><g class="dots"><circle class="dot reactive tooltip-trigger" cx="112.99780219780219" cy="404.65973103" r="2.5" /><desc class="value">34,790,945.0 People</desc><desc class="x top">112.99780219780219</desc><desc class="y top">404.65973103</desc><desc class="x_label">1968</desc></g><g class="dots"><circle class="dot reactive tooltip-trigger" cx="162.55824175824173" cy="355.140313791" r="2.5" /><desc class="value">39,061,994.0 People</desc><desc class="x top">162.55824175824173</desc><desc class="y top">355.140313791</desc><desc class="x_label">1972</desc></g><g class="dots"><circle class="dot reactive tooltip-trigger" cx="212.1186813186813" cy="304.997151517" r="2.5" /><desc class="value">43,386,841.0 People</desc><desc class="x top">212.1186813186813</desc><desc class="y top">304.997151517</desc><desc class="x_label">1976</desc></g><g class="dots"><circle class="dot reactive tooltip-trigger" cx="261.6791208791209" cy="258.637931925" r="2.5" /><desc class="value">47,385,323.0 People</desc><desc class="x top">261.6791208791209</desc><desc class="y top">258.637931925</desc><desc class="x_label">1980</desc></g><g class="dots"><circle class="dot reactive tooltip-trigger" cx="311.2395604395605" cy="215.47550129" r="2.5" /><desc class="value">51,108,082.0 People</desc><desc class="x ">311.2395604395605</desc><desc class="y ">215.47550129</desc><desc class="x_label">1984</desc></g><g class="dots"><circle class="dot reactive tooltip-trigger" cx="360.8" cy="171.368224115" r="2.5" /><desc class="value">54,912,334.0 People</desc><desc class="x ">360.8</desc><desc class="y ">171.368224115</desc><desc class="x_label">1988</desc></g><g class="dots"><circle class="dot reactive tooltip-trigger" cx="410.3604395604396" cy="137.448867539" r="2.5" /><desc class="value">57,837,878.0 People</desc><desc class="x left">410.3604395604396</desc><desc class="y left">137.448867539</desc><desc class="x_label">1992</desc></g><g class="dots"><circle class="dot reactive tooltip-trigger" cx="459.9208791208792" cy="110.62458465" r="2.5" /><desc class="value">60,151,472.0 People</desc><desc class="x left">459.9208791208792</desc><desc class="y left">110.62458465</desc><desc class="x_label">1996</desc></g><g class="dots"><circle class="dot reactive tooltip-trigger" cx="509.48131868131867" cy="78.0848804858" r="2.5" /><desc class="value">62,958,021.0 People</desc><desc class="x left">509.48131868131867</desc><desc class="y left">78.0848804858</desc><desc class="x_label">2000</desc></g><g class="dots"><circle class="dot reactive tooltip-trigger" cx="559.0417582417582" cy="54.3838908896" r="2.5" /><desc class="value">65,002,231.0 People</desc><desc class="x left">559.0417582417582</desc><desc class="y left">54.3838908896</desc><desc class="x_label">2004</desc></g><g class="dots"><circle class="dot reactive tooltip-trigger" cx="608.6021978021978" cy="36.4878993964" r="2.5" /><desc class="value">66,545,760.0 People</desc><desc class="x left">608.6021978021978</desc><desc class="y left">36.4878993964</desc><desc class="x_label">2008</desc></g><g class="dots"><circle class="dot reactive tooltip-trigger" cx="658.1626373626374" cy="21.4360823069" r="2.5" /><desc class="value">67,843,979.0 People</desc><desc class="x left">658.1626373626374</desc><desc class="y left">21.4360823069</desc><desc class="x_label">2012</desc></g><g class="dots"><circle class="dot reactive tooltip-trigger" cx="707.723076923077" cy="9.61538461538" r="2.5" /><desc class="value">68,863,514.0 People</desc><desc class="x left">707.723076923077</desc><desc class="y left">9.61538461538</desc><desc class="x_label">2016</desc></g></g></g><g class="plot text-overlay" transform="translate(258, 46)"><g class="series serie-0 color-0" /></g><g class="plot tooltip-overlay" transform="translate(258, 46)"><g class="tooltip" style="opacity: 0" transform="translate(0 0)"><rect class="tooltip-box" height="0" rx="0" ry="0" width="0" /><g class="text" /></g></g><g class="legends" transform="translate(10, 56)"><g class="legend reactive activate-serie" id="activate-serie-0"><rect class="color-0 reactive" height="12" width="12" x="0.0" y="1.0" /><text x="17.0" y="11.2">Populations</text></g></g><g class="legends" transform="translate(990, 56)" /></g></svg>