<?xml version='1.0' encoding='utf-8'?>
<svg xmlns:xlink="http://www.w3.org/1999/xlink" class="pygal-chart" id="chart-58e585a6-cb9c-43e9-a950-0a01dc47c841" viewBox="0 0 1000 600" xmlns="http://www.w3.org/2000/svg"><!--Generated with pygal 2.4.0 (etree) ©Kozea 2012-2016 on 2017-11-18--><!--http://pygal.org--><!--http://github.com/Kozea/pygal--><defs><style type="text/css">#chart-58e585a6-cb9c-43e9-a950-0a01dc47c841{-webkit-user-select:none;-webkit-font-smoothing:antialiased;font-family:Consolas,"Liberation Mono",Menlo,Courier,monospace}#chart-58e585a6-cb9c-43e9-a950-0a01dc47c841 .title{font-family:Consolas,"Liberation Mono",Menlo,Courier,monospace;font-size:16px}#chart-58e585a6-cb9c-43e9-a950-0a01dc47c841 .legends .legend text{font-family:Consolas,"Liberation Mono",Menlo,Courier,monospace;font-size:14px}#chart-58e585a6-cb9c-43e9-a950-0a01dc47c841 .axis text{font-family:Consolas,"Liberation Mono",Menlo,Courier,monospace;font-size:10px}#chart-58e585a6-cb9c-43e9-a950-0a01dc47c841 .axis text.major{font-family:Consolas,"Liberation Mono",Menlo,Courier,monospace;font-size:10px}#chart-58e585a6-cb9c-43e9-a950-0a01dc47c841 .text-overlay text.value{font-family:Consolas,"Liberation Mono",Menlo,Courier,monospace;font-size:16px}#chart-58e585a6-cb9c-43e9-a950-0a01dc47c841 .text-overlay text.label{font-family:Consolas,"Liberation Mono",Menlo,Courier,monospace;font-size:10px}#chart-58e585a6-cb9c-43e9-a950-0a01dc47c841 .tooltip{font-family:Consolas,"Liberation Mono",Menlo,Courier,monospace;font-size:14px}#chart-58e585a6-cb9c-43e9-a950-0a01dc47c841 text.no_data{font-family:Consolas,"Liberation Mono",Menlo,Courier,monospace;font-size:64px}
#chart-58e585a6-cb9c-43e9-a950-0a01dc47c841{background-color:transparent}#chart-58e585a6-cb9c-43e9-a950-0a01dc47c841 path,#chart-58e585a6-cb9c-43e9-a950-0a01dc47c841 line,#chart-58e585a6-cb9c-43e9-a950-0a01dc47c841 rect,#chart-58e585a6-cb9c-43e9-a950-0a01dc47c841 circle{-webkit-transition:1s ease-out;-moz-transition:1s ease-out;transition:1s ease-out}#chart-58e585a6-cb9c-43e9-a950-0a01dc47c841 .graph &gt; .background{fill:transparent}#chart-58e585a6-cb9c-43e9-a950-0a01dc47c841 .plot &gt; .background{fill:#111}#chart-58e585a6-cb9c-43e9-a950-0a01dc47c841 .graph{fill:#999}#chart-58e585a6-cb9c-43e9-a950-0a01dc47c841 text.no_data{fill:#eee}#chart-58e585a6-cb9c-43e9-a950-0a01dc47c841 .title{fill:#eee}#chart-58e585a6-cb9c-43e9-a950-0a01dc47c841 .legends .legend text{fill:#999}#chart-58e585a6-cb9c-43e9-a950-0a01dc47c841 .legends .legend:hover text{fill:#eee}#chart-58e585a6-cb9c-43e9-a950-0a01dc47c841 .axis .line{stroke:#eee}#chart-58e585a6-cb9c-43e9-a950-0a01dc47c841 .axis .guide.line{stroke:#555}#chart-58e585a6-cb9c-43e9-a950-0a01dc47c841 .axis .major.line{stroke:#999}#chart-58e585a6-cb9c-43e9-a950-0a01dc47c841 .axis text.major{fill:#eee}#chart-58e585a6-cb9c-43e9-a950-0a01dc47c841 .axis.y .guides:hover .guide.line,#chart-58e585a6-cb9c-43e9-a950-0a01dc47c841 .line-graph .axis.x .guides:hover .guide.line,#chart-58e585a6-cb9c-43e9-a950-0a01dc47c841 .stackedline-graph .axis.x .guides:hover .guide.line,#chart-58e585a6-cb9c-43e9-a950-0a01dc47c841 .xy-graph .axis.x .guides:hover .guide.line{stroke:#eee}#chart-58e585a6-cb9c-43e9-a950-0a01dc47c841 .axis .guides:hover text{fill:#eee}#chart-58e585a6-cb9c-43e9-a950-0a01dc47c841 .reactive{fill-opacity:.1;stroke-opacity:.8}#chart-58e585a6-cb9c-43e9-a950-0a01dc47c841 .ci{stroke:#999}#chart-58e585a6-cb9c-43e9-a950-0a01dc47c841 .reactive.active,#chart-58e585a6-cb9c-43e9-a950-0a01dc47c841 .active .reactive{fill-opacity:.75;stroke-opacity:.9;stroke-width:4}#chart-58e585a6-cb9c-43e9-a950-0a01dc47c841 .ci .reactive.active{stroke-width:1.5}#chart-58e585a6-cb9c-43e9-a950-0a01dc47c841 .series text{fill:#eee}#chart-58e585a6-cb9c-43e9-a950-0a01dc47c841 .tooltip rect{fill:#111;stroke:#eee;-webkit-transition:opacity 1s ease-out;-moz-transition:opacity 1s ease-out;transition:opacity 1s ease-out}#chart-58e585a6-cb9c-43e9-a950-0a01dc47c841 .tooltip .label{fill:#999}#chart-58e585a6-cb9c-43e9-a950-0a01dc47c841 .tooltip .label{fill:#999}#chart-58e585a6-cb9c-43e9-a950-0a01dc47c841 .tooltip .legend{font-size:.8em;fill:#555}#chart-58e585a6-cb9c-43e9-a950-0a01dc47c841 .tooltip .x_label{font-size:.6em;fill:#eee}#chart-58e585a6-cb9c-43e9-a950-0a01dc47c841 .tooltip .xlink{font-size:.5em;text-decoration:underline}#chart-58e585a6-cb9c-43e9-a950-0a01dc47c841 .tooltip .value{font-size:1.5em}#chart-58e585a6-cb9c-43e9-a950-0a01dc47c841 .bound{font-size:.5em}#chart-58e585a6-cb9c-43e9-a950-0a01dc47c841 .max-value{font-size:.75em;fill:#555}#chart-58e585a6-cb9c-43e9-a950-0a01dc47c841 .map-element{fill:#111;stroke:#555 !important}#chart-58e585a6-cb9c-43e9-a950-0a01dc47c841 .map-element .reactive{fill-opacity:inherit;stroke-opacity:inherit}#chart-58e585a6-cb9c-43e9-a950-0a01dc47c841 .color-0,#chart-58e585a6-cb9c-43e9-a950-0a01dc47c841 .color-0 a:visited{stroke:#0000FF;fill:#0000FF}#chart-58e585a6-cb9c-43e9-a950-0a01dc47c841 .text-overlay .color-0 text{fill:black}
#chart-58e585a6-cb9c-43e9-a950-0a01dc47c841 text.no_data{text-anchor:middle}#chart-58e585a6-cb9c-43e9-a950-0a01dc47c841 .guide.line{fill:none}#chart-58e585a6-cb9c-43e9-a950-0a01dc47c841 .centered{text-anchor:middle}#chart-58e585a6-cb9c-43e9-a950-0a01dc47c841 .title{text-anchor:middle}#chart-58e585a6-cb9c-43e9-a950-0a01dc47c841 .legends .legend text{fill-opacity:1}#chart-58e585a6-cb9c-43e9-a950-0a01dc47c841 .axis.x text{text-anchor:middle}#chart-58e585a6-cb9c-43e9-a950-0a01dc47c841 .axis.x:not(.web) text[transform]{text-anchor:start}#chart-58e585a6-cb9c-43e9-a950-0a01dc47c841 .axis.x:not(.web) text[transform].backwards{text-anchor:end}#chart-58e585a6-cb9c-43e9-a950-0a01dc47c841 .axis.y text{text-anchor:end}#chart-58e585a6-cb9c-43e9-a950-0a01dc47c841 .axis.y text[transform].backwards{text-anchor:start}#chart-58e585a6-cb9c-43e9-a950-0a01dc47c841 .axis.y2 text{text-anchor:start}#chart-58e585a6-cb9c-43e9-a950-0a01dc47c841 .axis.y2 text[transform].backwards{text-anchor:end}#chart-58e585a6-cb9c-43e9-a950-0a01dc47c841 .axis .guide.line{stroke-dasharray:4,4}#chart-58e585a6-cb9c-43e9-a950-0a01dc47c841 .axis .major.guide.line{stroke-dasharray:6,6}#chart-58e585a6-cb9c-43e9-a950-0a01dc47c841 .horizontal .axis.y .guide.line,#chart-58e585a6-cb9c-43e9-a950-0a01dc47c841 .horizontal .axis.y2 .guide.line,#chart-58e585a6-cb9c-43e9-a950-0a01dc47c841 .vertical .axis.x .guide.line{opacity:0}#chart-58e585a6-cb9c-43e9-a950-0a01dc47c841 .horizontal .axis.always_show .guide.line,#chart-58e585a6-cb9c-43e9-a950-0a01dc47c841 .vertical .axis.always_show .guide.line{opacity:1 !important}#chart-58e585a6-cb9c-43e9-a950-0a01dc47c841 .axis.y .guides:hover .guide.line,#chart-58e585a6-cb9c-43e9-a950-0a01dc47c841 .axis.y2 .guides:hover .guide.line,#chart-58e585a6-cb9c-43e9-a950-0a01dc47c841 .axis.x .guides:hover .guide.line{opacity:1}#chart-58e585a6-cb9c-43e9-a950-0a01dc47c841 .axis .guides:hover text{opacity:1}#chart-58e585a6-cb9c-43e9-a950-0a01dc47c841 .nofill{fill:none}#chart-58e585a6-cb9c-43e9-a950-0a01dc47c841 .subtle-fill{fill-opacity:.2}#chart-58e585a6-cb9c-43e9-a950-0a01dc47c841 .dot{stroke-width:1px;fill-opacity:1}#chart-58e585a6-cb9c-43e9-a950-0a01dc47c841 .dot.active{stroke-width:5px}#chart-58e585a6-cb9c-43e9-a950-0a01dc47c841 .dot.negative{fill:transparent}#chart-58e585a6-cb9c-43e9-a950-0a01dc47c841 text,#chart-58e585a6-cb9c-43e9-a950-0a01dc47c841 tspan{stroke:none !important}#chart-58e585a6-cb9c-43e9-a950-0a01dc47c841 .series text.active{opacity:1}#chart-58e585a6-cb9c-43e9-a950-0a01dc47c841 .tooltip rect{fill-opacity:.95;stroke-width:.5}#chart-58e585a6-cb9c-43e9-a950-0a01dc47c841 .tooltip text{fill-opacity:1}#chart-58e585a6-cb9c-43e9-a950-0a01dc47c841 .showable{visibility:hidden}#chart-58e585a6-cb9c-43e9-a950-0a01dc47c841 .showable.shown{visibility:visible}#chart-58e585a6-cb9c-43e9-a950-0a01dc47c841 .gauge-background{fill:rgba(229,229,229,1);stroke:none}#chart-58e585a6-cb9c-43e9-a950-0a01dc47c841 .bg-lines{stroke:transparent;stroke-width:2px}</style><script type="text/javascript">window.pygal = window.pygal || {};window.pygal.config = window.pygal.config || {};window.pygal.config['58e585a6-cb9c-43e9-a950-0a01dc47c841'] = {"allow_interruptions": false, "box_mode": "extremes", "classes": ["pygal-chart"], "css": ["file://style.css", "file://graph.css"], "defs": [], "disable_xml_declaration": false, "dots_size": 2.5, "dynamic_print_values": false, "explicit_size": false, "fill": true, "force_uri_protocol": "https", "formatter": null, "half_pie": false, "height": 600, "include_x_axis": false, "inner_radius": 0, "interpolate": "cubic", "interpolation_parameters": {}, "interpolation_precision": 250, "inverse_y_axis": false, "js": ["//kozea.github.io/pygal.js/2.0.x/pygal-tooltips.min.js"], "legend_at_bottom": false, "legend_at_bottom_columns": null, "legend_box_size": 12, "logarithmic": false, "margin": 20, "margin_bottom": null, "margin_left": null, "margin_right": null, "margin_top": null, "max_scale": 16, "min_scale": 4, "missing_value_fill_truncation": "x", "no_data_text": "No data", "no_prefix": false, "order_min": null, "pretty_print": false, "print_labels": false, "print_values": false, "print_values_position": "center", "print_zeroes": true, "range": null, "rounded_bars": null, "secondary_range": null, "show_dots": true, "show_legend": true, "show_minor_x_labels": true, "show_minor_y_labels": true, "show_only_major_dots": false, "show_x_guides": false, "show_x_labels": true, "show_y_guides": true, "show_y_labels": true, "spacing": 10, "stack_from_top": false, "strict": false, "stroke": true, "stroke_style": null, "style": {"background": "transparent", "ci_colors": [], "colors": ["#0000FF", "#FF0000"], "font_family": "Consolas, \"Liberation Mono\", Menlo, Courier, monospace", "foreground": "#999", "foreground_strong": "#eee", "foreground_subtle": "#555", "guide_stroke_dasharray": "4,4", "label_font_family": "Consolas, \"Liberation Mono\", Menlo, Courier, monospace", "label_font_size": 10, "legend_font_family": "Consolas, \"Liberation Mono\", Menlo, Courier, monospace", "legend_font_size": 14, "major_guide_stroke_dasharray": "6,6", "major_label_font_family": "Consolas, \"Liberation Mono\", Menlo, Courier, monospace", "major_label_font_size": 10, "no_data_font_family": "Consolas, \"Liberation Mono\", Menlo, Courier, monospace", "no_data_font_size": 64, "opacity": ".1", "opacity_hover": ".75", "plot_background": "#111", "stroke_opacity": ".8", "stroke_opacity_hover": ".9", "title_font_family": "Consolas, \"Liberation Mono\", Menlo, Courier, monospace", "title_font_size": 16, "tooltip_font_family": "Consolas, \"Liberation Mono\", Menlo, Courier, monospace", "tooltip_font_size": 14, "transition": "1s ease-out", "value_background": "rgba(229, 229, 229, 1)", "value_colors": [], "value_font_family": "Consolas, \"Liberation Mono\", Menlo, Courier, monospace", "value_font_size": 16, "value_label_font_family": "Consolas, \"Liberation Mono\", Menlo, Courier, monospace", "value_label_font_size": 10}, "title": "United States Year: 1960 - 2016 AD", "tooltip_border_radius": 0, "tooltip_fancy_mode": true, "truncate_label": null, "truncate_legend": null, "width": 1000, "x_label_rotation": 90, "x_labels": ["1960", "1964", "1968", "1972", "1976", "1980", "1984", "1988", "1992", "1996", "2000", "2004", "2008", "2012", "2016"], "x_labels_major": null, "x_labels_major_count": null, "x_labels_major_every": null, "x_title": null, "xrange": null, "y_label_rotation": 0, "y_labels": null, "y_labels_major": null, "y_labels_major_count": null, "y_labels_major_every": null, "y_title": null, "zero": 0, "legends": ["Populations"]}</script><script type="text/javascript" xlink:href="https://kozea.github.io/pygal.js/2.0.x/pygal-tooltips.min.js" /></defs><title>United States Year: 1960 - 2016 AD</title><g class="graph line-graph vertical"><rect class="background" height="600" width="1000" x="0" y="0" /><g class="plot" transform="translate(264, 46)"><rect class="background" height="500.0" width="715.6" x="0" y="0" /><g class="axis y always_show"><path class="line" d="M0.000000 500.000000 h715.600000" /><g class="guides"><path class="guide line" d="M0.000000 458.900648 h715.600000" /><text class="" x="-5" y="462.400648387">190,000,000.0 People</text><title>190,000,000.0 People</title></g><g class="guides"><path class="major guide line" d="M0.000000 425.152158 h715.600000" /><text class="major" x="-5" y="428.652157662">200,000,000.0 People</text><title>200,000,000.0 People</title></g><g class="guides"><path class="guide line" d="M0.000000 391.403667 h715.600000" /><text class="" x="-5" y="394.903666937">210,000,000.0 People</text><title>210,000,000.0 People</title></g><g class="guides"><path class="guide line" d="M0.000000 357.655176 h715.600000" /><text class="" x="-5" y="361.155176212">220,000,000.0 People</text><title>220,000,000.0 People</title></g><g class="guides"><path class="guide line" d="M0.000000 323.906685 h715.600000" /><text class="" x="-5" y="327.406685487">230,000,000.0 People</text><title>230,000,000.0 People</title></g><g class="guides"><path class="guide line" d="M0.000000 290.158195 h715.600000" /><text class="" x="-5" y="293.658194762">240,000,000.0 People</text><title>240,000,000.0 People</title></g><g class="guides"><path class="major guide line" d="M0.000000 256.409704 h715.600000" /><text class="major" x="-5" y="259.909704037">250,000,000.0 People</text><title>250,000,000.0 People</title></g><g class="guides"><path class="guide line" d="M0.000000 222.661213 h715.600000" /><text class="" x="-5" y="226.161213312">260,000,000.0 People</text><title>260,000,000.0 People</title></g><g class="guides"><path class="guide line" d="M0.000000 188.912723 h715.600000" /><text class="" x="-5" y="192.412722588">270,000,000.0 People</text><title>270,000,000.0 People</title></g><g class="guides"><path class="guide line" d="M0.000000 155.164232 h715.600000" /><text class="" x="-5" y="158.664231863">280,000,000.0 People</text><title>280,000,000.0 People</title></g><g class="guides"><path class="guide line" d="M0.000000 121.415741 h715.600000" /><text class="" x="-5" y="124.915741138">290,000,000.0 People</text><title>290,000,000.0 People</title></g><g class="guides"><path class="major guide line" d="M0.000000 87.667250 h715.600000" /><text class="major" x="-5" y="91.1672504126">300,000,000.0 People</text><title>300,000,000.0 People</title></g><g class="guides"><path class="guide line" d="M0.000000 53.918760 h715.600000" /><text class="" x="-5" y="57.4187596876">310,000,000.0 People</text><title>310,000,000.0 People</title></g><g class="guides"><path class="guide line" d="M0.000000 20.170269 h715.600000" /><text class="" x="-5" y="23.6702689627">320,000,000.0 People</text><title>320,000,000.0 People</title></g></g><g class="axis x"><g class="guides"><path class="line" d="M13.761538 0.000000 v500.000000" /><text class="" transform="rotate(90 13.761538 515.000000)" x="13.761538461538462" y="515.0">1960</text></g><g class="guides"><path class="guide line" d="M62.909890 0.000000 v500.000000" /><text class="" transform="rotate(90 62.909890 515.000000)" x="62.90989010989011" y="515.0">1964</text></g><g class="guides"><path class="guide line" d="M112.058242 0.000000 v500.000000" /><text class="" transform="rotate(90 112.058242 515.000000)" x="112.05824175824175" y="515.0">1968</text></g><g class="guides"><path class="guide line" d="M161.206593 0.000000 v500.000000" /><text class="" transform="rotate(90 161.206593 515.000000)" x="161.20659340659338" y="515.0">1972</text></g><g class="guides"><path class="guide line" d="M210.354945 0.000000 v500.000000" /><text class="" transform="rotate(90 210.354945 515.000000)" x="210.35494505494506" y="515.0">1976</text></g><g class="guides"><path class="guide line" d="M259.503297 0.000000 v500.000000" /><text class="" transform="rotate(90 259.503297 515.000000)" x="259.50329670329677" y="515.0">1980</text></g><g class="guides"><path class="guide line" d="M308.651648 0.000000 v500.000000" /><text class="" transform="rotate(90 308.651648 515.000000)" x="308.6516483516483" y="515.0">1984</text></g><g class="guides"><path class="guide line" d="M357.800000 0.000000 v500.000000" /><text class="" transform="rotate(90 357.800000 515.000000)" x="357.8" y="515.0">1988</text></g><g class="guides"><path class="guide line" d="M406.948352 0.000000 v500.000000" /><text class="" transform="rotate(90 406.948352 515.000000)" x="406.94835164835166" y="515.0">1992</text></g><g class="guides"><path class="guide line" d="M456.096703 0.000000 v500.000000" /><text class="" transform="rotate(90 456.096703 515.000000)" x="456.0967032967033" y="515.0">1996</text></g><g class="guides"><path class="guide line" d="M505.245055 0.000000 v500.000000" /><text class="" transform="rotate(90 505.245055 515.000000)" x="505.245054945055" y="515.0">2000</text></g><g class="guides"><path class="guide line" d="M554.393407 0.000000 v500.000000" /><text class="" transform="rotate(90 554.393407 515.000000)" x="554.3934065934066" y="515.0">2004</text></g><g class="guides"><path class="guide line" d="M603.541758 0.000000 v500.000000" /><text class="" transform="rotate(90 603.541758 515.000000)" x="603.5417582417582" y="515.0">2008</text></g><g class="guides"><path class="guide line" d="M652.690110 0.000000 v500.000000" /><text class="" transform="rotate(90 652.690110 515.000000)" x="652.69010989011" y="515.0">2012</text></g><g class="guides"><path class="guide line" d="M701.838462 0.000000 v500.000000" /><text class="" transform="rotate(90 701.838462 515.000000)" x="701.8384615384615" y="515.0">2016</text></g></g><g class="series serie-0 color-0"><path class="line reactive" d="M13.761538 500.000000 L13.761538 490.384615 13.958132 490.223780 14.154725 490.062945 14.351319 489.902112 14.547912 489.741282 14.744505 489.580455 14.941099 489.419633 15.137692 489.258817 15.334286 489.098006 15.530879 488.937203 15.727473 488.776408 15.924066 488.615622 16.120659 488.454846 16.317253 488.294081 16.513846 488.133327 16.710440 487.972586 16.907033 487.811859 17.103626 487.651146 17.300220 487.490449 17.496813 487.329767 17.693407 487.169103 17.890000 487.008457 18.086593 486.847830 18.283187 486.687223 18.479780 486.526636 18.676374 486.366071 18.872967 486.205529 19.069560 486.045010 19.266154 485.884515 19.462747 485.724046 19.659341 485.563603 19.855934 485.403187 20.052527 485.242799 20.249121 485.082440 20.445714 484.922110 20.642308 484.761812 20.838901 484.601545 21.035495 484.441310 21.232088 484.281109 21.428681 484.120942 21.625275 483.960810 21.821868 483.800714 22.018462 483.640656 22.215055 483.480635 22.411648 483.320653 22.608242 483.160711 22.804835 483.000809 23.001429 482.840949 23.198022 482.681131 23.394615 482.521356 23.591209 482.361626 23.787802 482.201941 23.984396 482.042302 24.180989 481.882710 24.377582 481.723166 24.574176 481.563670 24.770769 481.404224 24.967363 481.244828 25.163956 481.085484 25.360549 480.926193 25.557143 480.766954 25.753736 480.607770 25.950330 480.448641 26.146923 480.289567 26.343516 480.130551 26.540110 479.971592 26.736703 479.812692 26.933297 479.653852 27.129890 479.495072 27.326484 479.336353 27.523077 479.177697 27.719670 479.019103 27.916264 478.860574 28.112857 478.702110 28.309451 478.543712 28.506044 478.385380 28.702637 478.227116 28.899231 478.068921 29.095824 477.910795 29.292418 477.752739 29.489011 477.594755 29.685604 477.436843 29.882198 477.279004 30.078791 477.121239 30.275385 476.963549 30.471978 476.805935 30.668571 476.648398 30.865165 476.490938 31.061758 476.333556 31.258352 476.176254 31.454945 476.019033 31.651538 475.861892 31.848132 475.704834 32.044725 475.547859 32.241319 475.390967 32.437912 475.234161 32.634505 475.077440 32.831099 474.920806 33.027692 474.764259 33.224286 474.607800 33.420879 474.451432 33.617473 474.295153 33.814066 474.138965 34.010659 473.982870 34.207253 473.826867 34.403846 473.670958 34.600440 473.515144 34.797033 473.359426 34.993626 473.203804 35.190220 473.048280 35.386813 472.892854 35.583407 472.737527 35.780000 472.582301 35.976593 472.427175 36.173187 472.272151 36.369780 472.117231 36.566374 471.962414 36.762967 471.807702 36.959560 471.653095 37.156154 471.498595 37.352747 471.344202 37.549341 471.189918 37.745934 471.035742 37.942527 470.881677 38.139121 470.727723 38.335714 470.573880 38.532308 470.420151 38.728901 470.266535 38.925495 470.113034 39.122088 469.959648 39.318681 469.806379 39.515275 469.653226 39.711868 469.500193 39.908462 469.347278 40.105055 469.194483 40.301648 469.041809 40.498242 468.889257 40.694835 468.736828 40.891429 468.584522 41.088022 468.432341 41.284615 468.280286 41.481209 468.128356 41.677802 467.976554 41.874396 467.824880 42.070989 467.673335 42.267582 467.521920 42.464176 467.370636 42.660769 467.219484 42.857363 467.068464 43.053956 466.917578 43.250549 466.766826 43.447143 466.616209 43.643736 466.465729 43.840330 466.315386 44.036923 466.165181 44.233516 466.015115 44.430110 465.865189 44.626703 465.715404 44.823297 465.565760 45.019890 465.416259 45.216484 465.266901 45.413077 465.117688 45.609670 464.968620 45.806264 464.819698 46.002857 464.670923 46.199451 464.522297 46.396044 464.373819 46.592637 464.225491 46.789231 464.077313 46.985824 463.929288 47.182418 463.781414 47.379011 463.633694 47.575604 463.486129 47.772198 463.338718 47.968791 463.191464 48.165385 463.044367 48.361978 462.897428 48.558571 462.750647 48.755165 462.604026 48.951758 462.457566 49.148352 462.311267 49.344945 462.165131 49.541538 462.019158 49.738132 461.873350 49.934725 461.727706 50.131319 461.582228 50.327912 461.436918 50.524505 461.291775 50.721099 461.146801 50.917692 461.001997 51.114286 460.857363 51.310879 460.712901 51.507473 460.568611 51.704066 460.424494 51.900659 460.280551 52.097253 460.136784 52.293846 459.993192 52.490440 459.849777 52.687033 459.706540 52.883626 459.563482 53.080220 459.420603 53.276813 459.277905 53.473407 459.135388 53.670000 458.993053 53.866593 458.850902 54.063187 458.708935 54.259780 458.567152 54.456374 458.425556 54.652967 458.284146 54.849560 458.142924 55.046154 458.001891 55.242747 457.861047 55.439341 457.720393 55.635934 457.579931 55.832527 457.439661 56.029121 457.299584 56.225714 457.159701 56.422308 457.020013 56.618901 456.880521 56.815495 456.741225 57.012088 456.602128 57.208681 456.463228 57.405275 456.324528 57.601868 456.186029 57.798462 456.047730 57.995055 455.909634 58.191648 455.771741 58.388242 455.634051 58.584835 455.496567 58.781429 455.359288 58.978022 455.222216 59.174615 455.085352 59.371209 454.948696 59.567802 454.812249 59.764396 454.676012 59.960989 454.539987 60.157582 454.404174 60.354176 454.268573 60.550769 454.133187 60.747363 453.998015 60.943956 453.863059 61.140549 453.728320 61.337143 453.593798 61.533736 453.459494 61.730330 453.325410 61.926923 453.191545 62.123516 453.057902 62.320110 452.924481 62.516703 452.791283 62.713297 452.658308 62.909890 452.525558 63.106484 452.393034 63.303077 452.260733 63.499670 452.128656 63.696264 451.996800 63.892857 451.865163 64.089451 451.733746 64.286044 451.602545 64.482637 451.471561 64.679231 451.340790 64.875824 451.210233 65.072418 451.079887 65.269011 450.949752 65.465604 450.819825 65.662198 450.690106 65.858791 450.560592 66.055385 450.431284 66.251978 450.302178 66.448571 450.173274 66.645165 450.044571 66.841758 449.916066 67.038352 449.787759 67.234945 449.659649 67.431538 449.531733 67.628132 449.404010 67.824725 449.276480 68.021319 449.149140 68.217912 449.021989 68.414505 448.895026 68.611099 448.768249 68.807692 448.641658 69.004286 448.515250 69.200879 448.389024 69.397473 448.262979 69.594066 448.137113 69.790659 448.011426 69.987253 447.885914 70.183846 447.760578 70.380440 447.635416 70.577033 447.510427 70.773626 447.385608 70.970220 447.260959 71.166813 447.136477 71.363407 447.012163 71.560000 446.888014 71.756593 446.764029 71.953187 446.640207 72.149780 446.516546 72.346374 446.393045 72.542967 446.269702 72.739560 446.146516 72.936154 446.023485 73.132747 445.900609 73.329341 445.777885 73.525934 445.655313 73.722527 445.532891 73.919121 445.410618 74.115714 445.288491 74.312308 445.166511 74.508901 445.044675 74.705495 444.922981 74.902088 444.801430 75.098681 444.680018 75.295275 444.558745 75.491868 444.437610 75.688462 444.316611 75.885055 444.195746 76.081648 444.075014 76.278242 443.954414 76.474835 443.833945 76.671429 443.713605 76.868022 443.593392 77.064615 443.473305 77.261209 443.353343 77.457802 443.233504 77.654396 443.113788 77.850989 442.994192 78.047582 442.874715 78.244176 442.755356 78.440769 442.636113 78.637363 442.516985 78.833956 442.397971 79.030549 442.279069 79.227143 442.160278 79.423736 442.041596 79.620330 441.923022 79.816923 441.804554 80.013516 441.686192 80.210110 441.567934 80.406703 441.449778 80.603297 441.331723 80.799890 441.213767 80.996484 441.095910 81.193077 440.978149 81.389670 440.860484 81.586264 440.742913 81.782857 440.625434 81.979451 440.508047 82.176044 440.390749 82.372637 440.273540 82.569231 440.156417 82.765824 440.039381 82.962418 439.922428 83.159011 439.805558 83.355604 439.688769 83.552198 439.572061 83.748791 439.455431 83.945385 439.338878 84.141978 439.222401 84.338571 439.105998 84.535165 438.989669 84.731758 438.873410 84.928352 438.757222 85.124945 438.641103 85.321538 438.525051 85.518132 438.409065 85.714725 438.293144 85.911319 438.177286 86.107912 438.061489 86.304505 437.945753 86.501099 437.830076 86.697692 437.714457 86.894286 437.598893 87.090879 437.483385 87.287473 437.367930 87.484066 437.252526 87.680659 437.137174 87.877253 437.021870 88.073846 436.906614 88.270440 436.791405 88.467033 436.676240 88.663626 436.561119 88.860220 436.446041 89.056813 436.331003 89.253407 436.216004 89.450000 436.101043 89.646593 435.986119 89.843187 435.871230 90.039780 435.756375 90.236374 435.641552 90.432967 435.526760 90.629560 435.411998 90.826154 435.297264 91.022747 435.182556 91.219341 435.067874 91.415934 434.953216 91.612527 434.838581 91.809121 434.723966 92.005714 434.609372 92.202308 434.494795 92.398901 434.380236 92.595495 434.265692 92.792088 434.151163 92.988681 434.036646 93.185275 433.922140 93.381868 433.807645 93.578462 433.693158 93.775055 433.578678 93.971648 433.464204 94.168242 433.349734 94.364835 433.235267 94.561429 433.120802 94.758022 433.006337 94.954615 432.891871 95.151209 432.777402 95.347802 432.662929 95.544396 432.548450 95.740989 432.433965 95.937582 432.319472 96.134176 432.204968 96.330769 432.090454 96.527363 431.975927 96.723956 431.861387 96.920549 431.746831 97.117143 431.632259 97.313736 431.517668 97.510330 431.403058 97.706923 431.288427 97.903516 431.173774 98.100110 431.059098 98.296703 430.944396 98.493297 430.829668 98.689890 430.714912 98.886484 430.600126 99.083077 430.485311 99.279670 430.370463 99.476264 430.255581 99.672857 430.140665 99.869451 430.025712 100.066044 429.910722 100.262637 429.795693 100.459231 429.680623 100.655824 429.565512 100.852418 429.450357 101.049011 429.335157 101.245604 429.219912 101.442198 429.104619 101.638791 428.989277 101.835385 428.873885 102.031978 428.758441 102.228571 428.642944 102.425165 428.527393 102.621758 428.411786 102.818352 428.296122 103.014945 428.180398 103.211538 428.064615 103.408132 427.948771 103.604725 427.832863 103.801319 427.716892 103.997912 427.600855 104.194505 427.484750 104.391099 427.368577 104.587692 427.252335 104.784286 427.136021 104.980879 427.019634 105.177473 426.903174 105.374066 426.786637 105.570659 426.670024 105.767253 426.553333 105.963846 426.436562 106.160440 426.319710 106.357033 426.202776 106.553626 426.085758 106.750220 425.968654 106.946813 425.851464 107.143407 425.734186 107.340000 425.616818 107.536593 425.499359 107.733187 425.381809 107.929780 425.264164 108.126374 425.146425 108.322967 425.028589 108.519560 424.910655 108.716154 424.792622 108.912747 424.674488 109.109341 424.556252 109.305934 424.437913 109.502527 424.319468 109.699121 424.200918 109.895714 424.082260 110.092308 423.963493 110.288901 423.844615 110.485495 423.725625 110.682088 423.606523 110.878681 423.487305 111.075275 423.367972 111.271868 423.248521 111.468462 423.128951 111.665055 423.009261 111.861648 422.889449 112.058242 422.769514 112.254835 422.649455 112.451429 422.529273 112.648022 422.408969 112.844615 422.288543 113.041209 422.167997 113.237802 422.047333 113.434396 421.926550 113.630989 421.805651 113.827582 421.684636 114.024176 421.563507 114.220769 421.442264 114.417363 421.320908 114.613956 421.199442 114.810549 421.077866 115.007143 420.956180 115.203736 420.834387 115.400330 420.712486 115.596923 420.590480 115.793516 420.468370 115.990110 420.346156 116.186703 420.223839 116.383297 420.101422 116.579890 419.978904 116.776484 419.856287 116.973077 419.733572 117.169670 419.610760 117.366264 419.487852 117.562857 419.364850 117.759451 419.241754 117.956044 419.118566 118.152637 418.995286 118.349231 418.871916 118.545824 418.748457 118.742418 418.624910 118.939011 418.501275 119.135604 418.377556 119.332198 418.253751 119.528791 418.129863 119.725385 418.005892 119.921978 417.881839 120.118571 417.757707 120.315165 417.633495 120.511758 417.509205 120.708352 417.384838 120.904945 417.260395 121.101538 417.135878 121.298132 417.011286 121.494725 416.886622 121.691319 416.761887 121.887912 416.637081 122.084505 416.512206 122.281099 416.387263 122.477692 416.262252 122.674286 416.137176 122.870879 416.012035 123.067473 415.886830 123.264066 415.761562 123.460659 415.636233 123.657253 415.510843 123.853846 415.385394 124.050440 415.259887 124.247033 415.134322 124.443626 415.008702 124.640220 414.883026 124.836813 414.757297 125.033407 414.631515 125.230000 414.505681 125.426593 414.379797 125.623187 414.253864 125.819780 414.127882 126.016374 414.001853 126.212967 413.875777 126.409560 413.749657 126.606154 413.623493 126.802747 413.497286 126.999341 413.371037 127.195934 413.244748 127.392527 413.118419 127.589121 412.992052 127.785714 412.865648 127.982308 412.739207 128.178901 412.612732 128.375495 412.486222 128.572088 412.359680 128.768681 412.233105 128.965275 412.106500 129.161868 411.979866 129.358462 411.853203 129.555055 411.726513 129.751648 411.599796 129.948242 411.473055 130.144835 411.346289 130.341429 411.219500 130.538022 411.092690 130.734615 410.965858 130.931209 410.839008 131.127802 410.712138 131.324396 410.585251 131.520989 410.458348 131.717582 410.331430 131.914176 410.204498 132.110769 410.077552 132.307363 409.950595 132.503956 409.823627 132.700549 409.696649 132.897143 409.569663 133.093736 409.442669 133.290330 409.315668 133.486923 409.188663 133.683516 409.061653 133.880110 408.934640 134.076703 408.807626 134.273297 408.680610 134.469890 408.553595 134.666484 408.426581 134.863077 408.299569 135.059670 408.172561 135.256264 408.045558 135.452857 407.918560 135.649451 407.791569 135.846044 407.664586 136.042637 407.537613 136.239231 407.410649 136.435824 407.283697 136.632418 407.156757 136.829011 407.029830 137.025604 406.902918 137.222198 406.776022 137.418791 406.649143 137.615385 406.522281 137.811978 406.395439 138.008571 406.268617 138.205165 406.141815 138.401758 406.015036 138.598352 405.888281 138.794945 405.761550 138.991538 405.634845 139.188132 405.508166 139.384725 405.381515 139.581319 405.254894 139.777912 405.128302 139.974505 405.001741 140.171099 404.875213 140.367692 404.748718 140.564286 404.622257 140.760879 404.495832 140.957473 404.369444 141.154066 404.243093 141.350659 404.116781 141.547253 403.990509 141.743846 403.864279 141.940440 403.738090 142.137033 403.611945 142.333626 403.485844 142.530220 403.359789 142.726813 403.233780 142.923407 403.107819 143.120000 402.981906 143.316593 402.856044 143.513187 402.730232 143.709780 402.604473 143.906374 402.478767 144.102967 402.353115 144.299560 402.227519 144.496154 402.101979 144.692747 401.976497 144.889341 401.851073 145.085934 401.725709 145.282527 401.600407 145.479121 401.475166 145.675714 401.349988 145.872308 401.224875 146.068901 401.099827 146.265495 400.974846 146.462088 400.849932 146.658681 400.725086 146.855275 400.600311 147.051868 400.475606 147.248462 400.350974 147.445055 400.226414 147.641648 400.101929 147.838242 399.977518 148.034835 399.853185 148.231429 399.728928 148.428022 399.604751 148.624615 399.480653 148.821209 399.356636 149.017802 399.232700 149.214396 399.108848 149.410989 398.985080 149.607582 398.861397 149.804176 398.737800 150.000769 398.614291 150.197363 398.490870 150.393956 398.367539 150.590549 398.244299 150.787143 398.121151 150.983736 397.998095 151.180330 397.875134 151.376923 397.752267 151.573516 397.629497 151.770110 397.506824 151.966703 397.384250 152.163297 397.261775 152.359890 397.139401 152.556484 397.017129 152.753077 396.894960 152.949670 396.772894 153.146264 396.650934 153.342857 396.529080 153.539451 396.407333 153.736044 396.285694 153.932637 396.164165 154.129231 396.042747 154.325824 395.921440 154.522418 395.800246 154.719011 395.679166 154.915604 395.558201 155.112198 395.437352 155.308791 395.316621 155.505385 395.196007 155.701978 395.075513 155.898571 394.955140 156.095165 394.834888 156.291758 394.714759 156.488352 394.594754 156.684945 394.474874 156.881538 394.355120 157.078132 394.235493 157.274725 394.115994 157.471319 393.996624 157.667912 393.877385 157.864505 393.758278 158.061099 393.639303 158.257692 393.520462 158.454286 393.401756 158.650879 393.283186 158.847473 393.164753 159.044066 393.046458 159.240659 392.928303 159.437253 392.810288 159.633846 392.692414 159.830440 392.574683 160.027033 392.457096 160.223626 392.339653 160.420220 392.222357 160.616813 392.105207 160.813407 391.988205 161.010000 391.871353 161.206593 391.754651 161.403187 391.638100 161.599780 391.521700 161.796374 391.405448 161.992967 391.289345 162.189560 391.173388 162.386154 391.057576 162.582747 390.941910 162.779341 390.826386 162.975934 390.711005 163.172527 390.595764 163.369121 390.480663 163.565714 390.365701 163.762308 390.250876 163.958901 390.136187 164.155495 390.021634 164.352088 389.907214 164.548681 389.792927 164.745275 389.678772 164.941868 389.564747 165.138462 389.450851 165.335055 389.337083 165.531648 389.223442 165.728242 389.109927 165.924835 388.996537 166.121429 388.883270 166.318022 388.770125 166.514615 388.657101 166.711209 388.544197 166.907802 388.431411 167.104396 388.318743 167.300989 388.206192 167.497582 388.093756 167.694176 387.981434 167.890769 387.869224 168.087363 387.757127 168.283956 387.645140 168.480549 387.533262 168.677143 387.421492 168.873736 387.309830 169.070330 387.198273 169.266923 387.086821 169.463516 386.975472 169.660110 386.864226 169.856703 386.753081 170.053297 386.642036 170.249890 386.531090 170.446484 386.420242 170.643077 386.309490 170.839670 386.198833 171.036264 386.088271 171.232857 385.977801 171.429451 385.867423 171.626044 385.757136 171.822637 385.646939 172.019231 385.536830 172.215824 385.426808 172.412418 385.316872 172.609011 385.207020 172.805604 385.097253 173.002198 384.987568 173.198791 384.877964 173.395385 384.768440 173.591978 384.658996 173.788571 384.549629 173.985165 384.440338 174.181758 384.331124 174.378352 384.221983 174.574945 384.112916 174.771538 384.003920 174.968132 383.894996 175.164725 383.786141 175.361319 383.677354 175.557912 383.568635 175.754505 383.459982 175.951099 383.351394 176.147692 383.242869 176.344286 383.134407 176.540879 383.026007 176.737473 382.917667 176.934066 382.809386 177.130659 382.701163 177.327253 382.592996 177.523846 382.484886 177.720440 382.376829 177.917033 382.268826 178.113626 382.160875 178.310220 382.052975 178.506813 381.945125 178.703407 381.837324 178.900000 381.729569 179.096593 381.621861 179.293187 381.514198 179.489780 381.406579 179.686374 381.299003 179.882967 381.191468 180.079560 381.083974 180.276154 380.976519 180.472747 380.869102 180.669341 380.761722 180.865934 380.654377 181.062527 380.547068 181.259121 380.439791 181.455714 380.332547 181.652308 380.225334 181.848901 380.118151 182.045495 380.010996 182.242088 379.903869 182.438681 379.796768 182.635275 379.689693 182.831868 379.582642 183.028462 379.475613 183.225055 379.368606 183.421648 379.261620 183.618242 379.154653 183.814835 379.047705 184.011429 378.940773 184.208022 378.833857 184.404615 378.726956 184.601209 378.620069 184.797802 378.513193 184.994396 378.406329 185.190989 378.299475 185.387582 378.192630 185.584176 378.085793 185.780769 377.978962 185.977363 377.872136 186.173956 377.765315 186.370549 377.658496 186.567143 377.551679 186.763736 377.444864 186.960330 377.338047 187.156923 377.231229 187.353516 377.124408 187.550110 377.017583 187.746703 376.910753 187.943297 376.803916 188.139890 376.697072 188.336484 376.590220 188.533077 376.483357 188.729670 376.376484 188.926264 376.269598 189.122857 376.162699 189.319451 376.055785 189.516044 375.948856 189.712637 375.841910 189.909231 375.734946 190.105824 375.627962 190.302418 375.520958 190.499011 375.413933 190.695604 375.306885 190.892198 375.199813 191.088791 375.092716 191.285385 374.985593 191.481978 374.878443 191.678571 374.771264 191.875165 374.664055 192.071758 374.556815 192.268352 374.449543 192.464945 374.342238 192.661538 374.234899 192.858132 374.127524 193.054725 374.020112 193.251319 373.912663 193.447912 373.805174 193.644505 373.697645 193.841099 373.590075 194.037692 373.482462 194.234286 373.374806 194.430879 373.267104 194.627473 373.159357 194.824066 373.051562 195.020659 372.943719 195.217253 372.835826 195.413846 372.727882 195.610440 372.619887 195.807033 372.511838 196.003626 372.403736 196.200220 372.295577 196.396813 372.187362 196.593407 372.079090 196.790000 371.970758 196.986593 371.862367 197.183187 371.753914 197.379780 371.645398 197.576374 371.536819 197.772967 371.428175 197.969560 371.319466 198.166154 371.210689 198.362747 371.101844 198.559341 370.992929 198.755934 370.883944 198.952527 370.774887 199.149121 370.665757 199.345714 370.556553 199.542308 370.447274 199.738901 370.337918 199.935495 370.228484 200.132088 370.118972 200.328681 370.009380 200.525275 369.899706 200.721868 369.789951 200.918462 369.680112 201.115055 369.570188 201.311648 369.460178 201.508242 369.350081 201.704835 369.239897 201.901429 369.129623 202.098022 369.019258 202.294615 368.908802 202.491209 368.798253 202.687802 368.687610 202.884396 368.576871 203.080989 368.466037 203.277582 368.355105 203.474176 368.244074 203.670769 368.132943 203.867363 368.021712 204.063956 367.910378 204.260549 367.798941 204.457143 367.687399 204.653736 367.575752 204.850330 367.463998 205.046923 367.352136 205.243516 367.240164 205.440110 367.128083 205.636703 367.015889 205.833297 366.903583 206.029890 366.791164 206.226484 366.678629 206.423077 366.565978 206.619670 366.453209 206.816264 366.340322 207.012857 366.227316 207.209451 366.114188 207.406044 366.000939 207.602637 365.887566 207.799231 365.774069 207.995824 365.660446 208.192418 365.546696 208.389011 365.432819 208.585604 365.318813 208.782198 365.204676 208.978791 365.090408 209.175385 364.976007 209.371978 364.861473 209.568571 364.746804 209.765165 364.631999 209.961758 364.517056 210.158352 364.401975 210.354945 364.286755 210.551538 364.171394 210.748132 364.055893 210.944725 363.940253 211.141319 363.824475 211.337912 363.708560 211.534505 363.592508 211.731099 363.476320 211.927692 363.359998 212.124286 363.243541 212.320879 363.126952 212.517473 363.010230 212.714066 362.893377 212.910659 362.776393 213.107253 362.659280 213.303846 362.542037 213.500440 362.424667 213.697033 362.307169 213.893626 362.189545 214.090220 362.071796 214.286813 361.953922 214.483407 361.835924 214.680000 361.717803 214.876593 361.599560 215.073187 361.481196 215.269780 361.362711 215.466374 361.244107 215.662967 361.125384 215.859560 361.006543 216.056154 360.887586 216.252747 360.768512 216.449341 360.649322 216.645934 360.530018 216.842527 360.410601 217.039121 360.291071 217.235714 360.171429 217.432308 360.051675 217.628901 359.931812 217.825495 359.811839 218.022088 359.691757 218.218681 359.571568 218.415275 359.451272 218.611868 359.330870 218.808462 359.210363 219.005055 359.089752 219.201648 358.969037 219.398242 358.848219 219.594835 358.727300 219.791429 358.606279 219.988022 358.485159 220.184615 358.363939 220.381209 358.242621 220.577802 358.121206 220.774396 357.999693 220.970989 357.878085 221.167582 357.756382 221.364176 357.634585 221.560769 357.512694 221.757363 357.390711 221.953956 357.268637 222.150549 357.146471 222.347143 357.024216 222.543736 356.901872 222.740330 356.779439 222.936923 356.656919 223.133516 356.534312 223.330110 356.411620 223.526703 356.288843 223.723297 356.165982 223.919890 356.043038 224.116484 355.920012 224.313077 355.796904 224.509670 355.673715 224.706264 355.550447 224.902857 355.427100 225.099451 355.303675 225.296044 355.180172 225.492637 355.056594 225.689231 354.932939 225.885824 354.809210 226.082418 354.685408 226.279011 354.561532 226.475604 354.437584 226.672198 354.313565 226.868791 354.189475 227.065385 354.065316 227.261978 353.941088 227.458571 353.816792 227.655165 353.692430 227.851758 353.568001 228.048352 353.443506 228.244945 353.318947 228.441538 353.194325 228.638132 353.069639 228.834725 352.944892 229.031319 352.820084 229.227912 352.695215 229.424505 352.570287 229.621099 352.445300 229.817692 352.320256 230.014286 352.195154 230.210879 352.069997 230.407473 351.944785 230.604066 351.819518 230.800659 351.694197 230.997253 351.568824 231.193846 351.443400 231.390440 351.317924 231.587033 351.192398 231.783626 351.066823 231.980220 350.941200 232.176813 350.815529 232.373407 350.689811 232.570000 350.564047 232.766593 350.438238 232.963187 350.312386 233.159780 350.186490 233.356374 350.060551 233.552967 349.934571 233.749560 349.808550 233.946154 349.682489 234.142747 349.556389 234.339341 349.430250 234.535934 349.304075 234.732527 349.177862 234.929121 349.051614 235.125714 348.925332 235.322308 348.799015 235.518901 348.672665 235.715495 348.546283 235.912088 348.419869 236.108681 348.293425 236.305275 348.166950 236.501868 348.040447 236.698462 347.913916 236.895055 347.787358 237.091648 347.660773 237.288242 347.534163 237.484835 347.407528 237.681429 347.280869 237.878022 347.154187 238.074615 347.027483 238.271209 346.900758 238.467802 346.774012 238.664396 346.647247 238.860989 346.520463 239.057582 346.393661 239.254176 346.266842 239.450769 346.140007 239.647363 346.013156 239.843956 345.886291 240.040549 345.759412 240.237143 345.632521 240.433736 345.505617 240.630330 345.378702 240.826923 345.251777 241.023516 345.124843 241.220110 344.997900 241.416703 344.870949 241.613297 344.743991 241.809890 344.617027 242.006484 344.490058 242.203077 344.363085 242.399670 344.236108 242.596264 344.109129 242.792857 343.982147 242.989451 343.855165 243.186044 343.728183 243.382637 343.601201 243.579231 343.474221 243.775824 343.347243 243.972418 343.220269 244.169011 343.093299 244.365604 342.966333 244.562198 342.839374 244.758791 342.712421 244.955385 342.585475 245.151978 342.458538 245.348571 342.331611 245.545165 342.204693 245.741758 342.077786 245.938352 341.950891 246.134945 341.824008 246.331538 341.697139 246.528132 341.570284 246.724725 341.443445 246.921319 341.316621 247.117912 341.189814 247.314505 341.063025 247.511099 340.936254 247.707692 340.809502 247.904286 340.682771 248.100879 340.556061 248.297473 340.429373 248.494066 340.302708 248.690659 340.176066 248.887253 340.049448 249.083846 339.922856 249.280440 339.796290 249.477033 339.669751 249.673626 339.543240 249.870220 339.416757 250.066813 339.290305 250.263407 339.163882 250.460000 339.037491 250.656593 338.911131 250.853187 338.784805 251.049780 338.658512 251.246374 338.532254 251.442967 338.406032 251.639560 338.279846 251.836154 338.153697 252.032747 338.027585 252.229341 337.901513 252.425934 337.775481 252.622527 337.649489 252.819121 337.523538 253.015714 337.397630 253.212308 337.271764 253.408901 337.145943 253.605495 337.020166 253.802088 336.894435 253.998681 336.768751 254.195275 336.643114 254.391868 336.517525 254.588462 336.391985 254.785055 336.266495 254.981648 336.141055 255.178242 336.015667 255.374835 335.890332 255.571429 335.765050 255.768022 335.639822 255.964615 335.514648 256.161209 335.389531 256.357802 335.264470 256.554396 335.139467 256.750989 335.014522 256.947582 334.889636 257.144176 334.764810 257.340769 334.640046 257.537363 334.515342 257.733956 334.390702 257.930549 334.266125 258.127143 334.141612 258.323736 334.017164 258.520330 333.892782 258.716923 333.768467 258.913516 333.644220 259.110110 333.520041 259.306703 333.395931 259.503297 333.271892 259.699890 333.147923 259.896484 333.024026 260.093077 332.900199 260.289670 332.776443 260.486264 332.652758 260.682857 332.529143 260.879451 332.405599 261.076044 332.282125 261.272637 332.158721 261.469231 332.035388 261.665824 331.912125 261.862418 331.788932 262.059011 331.665808 262.255604 331.542755 262.452198 331.419771 262.648791 331.296857 262.845385 331.174012 263.041978 331.051237 263.238571 330.928531 263.435165 330.805895 263.631758 330.683328 263.828352 330.560829 264.024945 330.438400 264.221538 330.316040 264.418132 330.193748 264.614725 330.071525 264.811319 329.949371 265.007912 329.827285 265.204505 329.705268 265.401099 329.583319 265.597692 329.461439 265.794286 329.339626 265.990879 329.217882 266.187473 329.096205 266.384066 328.974596 266.580659 328.853055 266.777253 328.731582 266.973846 328.610177 267.170440 328.488839 267.367033 328.367568 267.563626 328.246364 267.760220 328.125228 267.956813 328.004159 268.153407 327.883157 268.350000 327.762222 268.546593 327.641354 268.743187 327.520552 268.939780 327.399818 269.136374 327.279149 269.332967 327.158547 269.529560 327.038012 269.726154 326.917543 269.922747 326.797140 270.119341 326.676803 270.315934 326.556532 270.512527 326.436327 270.709121 326.316188 270.905714 326.196115 271.102308 326.076107 271.298901 325.956165 271.495495 325.836288 271.692088 325.716477 271.888681 325.596731 272.085275 325.477050 272.281868 325.357434 272.478462 325.237883 272.675055 325.118397 272.871648 324.998976 273.068242 324.879619 273.264835 324.760327 273.461429 324.641100 273.658022 324.521937 273.854615 324.402838 274.051209 324.283804 274.247802 324.164834 274.444396 324.045927 274.640989 323.927085 274.837582 323.808307 275.034176 323.689592 275.230769 323.570941 275.427363 323.452354 275.623956 323.333830 275.820549 323.215370 276.017143 323.096972 276.213736 322.978638 276.410330 322.860368 276.606923 322.742160 276.803516 322.624015 277.000110 322.505933 277.196703 322.387913 277.393297 322.269957 277.589890 322.152063 277.786484 322.034231 277.983077 321.916462 278.179670 321.798755 278.376264 321.681110 278.572857 321.563527 278.769451 321.446007 278.966044 321.328548 279.162637 321.211151 279.359231 321.093816 279.555824 320.976542 279.752418 320.859330 279.949011 320.742179 280.145604 320.625090 280.342198 320.508062 280.538791 320.391095 280.735385 320.274189 280.931978 320.157345 281.128571 320.040561 281.325165 319.923837 281.521758 319.807175 281.718352 319.690573 281.914945 319.574032 282.111538 319.457551 282.308132 319.341130 282.504725 319.224770 282.701319 319.108470 282.897912 318.992229 283.094505 318.876049 283.291099 318.759929 283.487692 318.643868 283.684286 318.527867 283.880879 318.411926 284.077473 318.296044 284.274066 318.180221 284.470659 318.064458 284.667253 317.948754 284.863846 317.833109 285.060440 317.717523 285.257033 317.601996 285.453626 317.486528 285.650220 317.371119 285.846813 317.255768 286.043407 317.140476 286.240000 317.025242 286.436593 316.910067 286.633187 316.794950 286.829780 316.679891 287.026374 316.564890 287.222967 316.449947 287.419560 316.335062 287.616154 316.220235 287.812747 316.105466 288.009341 315.990754 288.205934 315.876100 288.402527 315.761503 288.599121 315.646964 288.795714 315.532482 288.992308 315.418056 289.188901 315.303688 289.385495 315.189377 289.582088 315.075123 289.778681 314.960926 289.975275 314.846785 290.171868 314.732701 290.368462 314.618674 290.565055 314.504702 290.761648 314.390788 290.958242 314.276929 291.154835 314.163126 291.351429 314.049380 291.548022 313.935689 291.744615 313.822055 291.941209 313.708476 292.137802 313.594953 292.334396 313.481485 292.530989 313.368073 292.727582 313.254716 292.924176 313.141414 293.120769 313.028168 293.317363 312.914977 293.513956 312.801841 293.710549 312.688759 293.907143 312.575733 294.103736 312.462761 294.300330 312.349844 294.496923 312.236982 294.693516 312.124174 294.890110 312.011420 295.086703 311.898721 295.283297 311.786075 295.479890 311.673484 295.676484 311.560947 295.873077 311.448464 296.069670 311.336034 296.266264 311.223658 296.462857 311.111336 296.659451 310.999067 296.856044 310.886852 297.052637 310.774690 297.249231 310.662582 297.445824 310.550526 297.642418 310.438524 297.839011 310.326574 298.035604 310.214678 298.232198 310.102834 298.428791 309.991043 298.625385 309.879304 298.821978 309.767618 299.018571 309.655984 299.215165 309.544403 299.411758 309.432874 299.608352 309.321397 299.804945 309.209972 300.001538 309.098599 300.198132 308.987278 300.394725 308.876008 300.591319 308.764790 300.787912 308.653624 300.984505 308.542509 301.181099 308.431446 301.377692 308.320434 301.574286 308.209473 301.770879 308.098563 301.967473 307.987704 302.164066 307.876897 302.360659 307.766140 302.557253 307.655433 302.753846 307.544778 302.950440 307.434172 303.147033 307.323618 303.343626 307.213113 303.540220 307.102659 303.736813 306.992255 303.933407 306.881902 304.130000 306.771598 304.326593 306.661344 304.523187 306.551140 304.719780 306.440985 304.916374 306.330880 305.112967 306.220825 305.309560 306.110819 305.506154 306.000862 305.702747 305.890955 305.899341 305.781097 306.095934 305.671288 306.292527 305.561527 306.489121 305.451816 306.685714 305.342153 306.882308 305.232540 307.078901 305.122974 307.275495 305.013457 307.472088 304.903989 307.668681 304.794569 307.865275 304.685197 308.061868 304.575873 308.258462 304.466597 308.455055 304.357370 308.651648 304.248190 308.848242 304.139057 309.044835 304.029971 309.241429 303.920930 309.438022 303.811933 309.634615 303.702978 309.831209 303.594064 310.027802 303.485190 310.224396 303.376355 310.420989 303.267556 310.617582 303.158793 310.814176 303.050065 311.010769 302.941370 311.207363 302.832706 311.403956 302.724073 311.600549 302.615469 311.797143 302.506892 311.993736 302.398342 312.190330 302.289817 312.386923 302.181316 312.583516 302.072837 312.780110 301.964379 312.976703 301.855941 313.173297 301.747521 313.369890 301.639118 313.566484 301.530731 313.763077 301.422358 313.959670 301.313999 314.156264 301.205651 314.352857 301.097313 314.549451 300.988985 314.746044 300.880664 314.942637 300.772349 315.139231 300.664040 315.335824 300.555734 315.532418 300.447431 315.729011 300.339129 315.925604 300.230826 316.122198 300.122521 316.318791 300.014214 316.515385 299.905903 316.711978 299.797585 316.908571 299.689261 317.105165 299.580928 317.301758 299.472586 317.498352 299.364233 317.694945 299.255867 317.891538 299.147488 318.088132 299.039094 318.284725 298.930683 318.481319 298.822255 318.677912 298.713808 318.874505 298.605340 319.071099 298.496851 319.267692 298.388339 319.464286 298.279802 319.660879 298.171240 319.857473 298.062650 320.054066 297.954033 320.250659 297.845385 320.447253 297.736707 320.643846 297.627996 320.840440 297.519252 321.037033 297.410473 321.233626 297.301657 321.430220 297.192803 321.626813 297.083911 321.823407 296.974978 322.020000 296.866004 322.216593 296.756986 322.413187 296.647924 322.609780 296.538816 322.806374 296.429662 323.002967 296.320459 323.199560 296.211206 323.396154 296.101902 323.592747 295.992546 323.789341 295.883136 323.985934 295.773671 324.182527 295.664150 324.379121 295.554571 324.575714 295.444933 324.772308 295.335234 324.968901 295.225474 325.165495 295.115651 325.362088 295.005763 325.558681 294.895810 325.755275 294.785790 325.951868 294.675701 326.148462 294.565542 326.345055 294.455313 326.541648 294.345011 326.738242 294.234635 326.934835 294.124184 327.131429 294.013657 327.328022 293.903052 327.524615 293.792368 327.721209 293.681603 327.917802 293.570757 328.114396 293.459828 328.310989 293.348814 328.507582 293.237715 328.704176 293.126528 328.900769 293.015253 329.097363 292.903888 329.293956 292.792433 329.490549 292.680884 329.687143 292.569242 329.883736 292.457505 330.080330 292.345672 330.276923 292.233741 330.473516 292.121710 330.670110 292.009579 330.866703 291.897347 331.063297 291.785011 331.259890 291.672571 331.456484 291.560025 331.653077 291.447372 331.849670 291.334611 332.046264 291.221739 332.242857 291.108757 332.439451 290.995662 332.636044 290.882454 332.832637 290.769130 333.029231 290.655690 333.225824 290.542132 333.422418 290.428455 333.619011 290.314657 333.815604 290.200738 334.012198 290.086695 334.208791 289.972528 334.405385 289.858236 334.601978 289.743816 334.798571 289.629268 334.995165 289.514589 335.191758 289.399780 335.388352 289.284838 335.584945 289.169763 335.781538 289.054552 335.978132 288.939205 336.174725 288.823720 336.371319 288.708096 336.567912 288.592331 336.764505 288.476425 336.961099 288.360375 337.157692 288.244181 337.354286 288.127841 337.550879 288.011354 337.747473 287.894718 337.944066 287.777933 338.140659 287.660996 338.337253 287.543907 338.533846 287.426665 338.730440 287.309266 338.927033 287.191712 339.123626 287.073999 339.320220 286.956128 339.516813 286.838096 339.713407 286.719902 339.910000 286.601545 340.106593 286.483023 340.303187 286.364336 340.499780 286.245481 340.696374 286.126458 340.892967 286.007265 341.089560 285.887901 341.286154 285.768364 341.482747 285.648653 341.679341 285.528767 341.875934 285.408705 342.072527 285.288465 342.269121 285.168046 342.465714 285.047446 342.662308 284.926664 342.858901 284.805699 343.055495 284.684549 343.252088 284.563214 343.448681 284.441691 343.645275 284.319980 343.841868 284.198079 344.038462 284.075987 344.235055 283.953702 344.431648 283.831223 344.628242 283.708550 344.824835 283.585679 345.021429 283.462611 345.218022 283.339343 345.414615 283.215875 345.611209 283.092205 345.807802 282.968332 346.004396 282.844254 346.200989 282.719970 346.397582 282.595480 346.594176 282.470780 346.790769 282.345871 346.987363 282.220750 347.183956 282.095417 347.380549 281.969870 347.577143 281.844107 347.773736 281.718128 347.970330 281.591932 348.166923 281.465515 348.363516 281.338879 348.560110 281.212020 348.756703 281.084938 348.953297 280.957632 349.149890 280.830100 349.346484 280.702340 349.543077 280.574352 349.739670 280.446134 349.936264 280.317684 350.132857 280.189002 350.329451 280.060086 350.526044 279.930935 350.722637 279.801547 350.919231 279.671922 351.115824 279.542057 351.312418 279.411951 351.509011 279.281604 351.705604 279.151013 351.902198 279.020177 352.098791 278.889096 352.295385 278.757767 352.491978 278.626190 352.688571 278.494363 352.885165 278.362284 353.081758 278.229953 353.278352 278.097368 353.474945 277.964528 353.671538 277.831431 353.868132 277.698076 354.064725 277.564461 354.261319 277.430587 354.457912 277.296450 354.654505 277.162050 354.851099 277.027385 355.047692 276.892454 355.244286 276.757256 355.440879 276.621789 355.637473 276.486053 355.834066 276.350045 356.030659 276.213764 356.227253 276.077209 356.423846 275.940379 356.620440 275.803273 356.817033 275.665888 357.013626 275.528224 357.210220 275.390280 357.406813 275.252053 357.603407 275.113543 357.800000 274.974749 357.996593 274.835669 358.193187 274.696304 358.389780 274.556655 358.586374 274.416724 358.782967 274.276512 358.979560 274.136020 359.176154 273.995249 359.372747 273.854201 359.569341 273.712876 359.765934 273.571276 359.962527 273.429402 360.159121 273.287255 360.355714 273.144836 360.552308 273.002147 360.748901 272.859189 360.945495 272.715963 361.142088 272.572470 361.338681 272.428712 361.535275 272.284689 361.731868 272.140403 361.928462 271.995854 362.125055 271.851045 362.321648 271.705977 362.518242 271.560650 362.714835 271.415065 362.911429 271.269225 363.108022 271.123130 363.304615 270.976781 363.501209 270.830180 363.697802 270.683328 363.894396 270.536226 364.090989 270.388875 364.287582 270.241276 364.484176 270.093431 364.680769 269.945340 364.877363 269.797006 365.073956 269.648428 365.270549 269.499609 365.467143 269.350550 365.663736 269.201252 365.860330 269.051715 366.056923 268.901942 366.253516 268.751933 366.450110 268.601689 366.646703 268.451212 366.843297 268.300504 367.039890 268.149564 367.236484 267.998395 367.433077 267.846997 367.629670 267.695372 367.826264 267.543521 368.022857 267.391446 368.219451 267.239146 368.416044 267.086624 368.612637 266.933881 368.809231 266.780918 369.005824 266.627736 369.202418 266.474337 369.399011 266.320721 369.595604 266.166889 369.792198 266.012844 369.988791 265.858586 370.185385 265.704116 370.381978 265.549436 370.578571 265.394546 370.775165 265.239449 370.971758 265.084144 371.168352 264.928634 371.364945 264.772920 371.561538 264.617002 371.758132 264.460882 371.954725 264.304562 372.151319 264.148041 372.347912 263.991322 372.544505 263.834406 372.741099 263.677294 372.937692 263.519987 373.134286 263.362487 373.330879 263.204794 373.527473 263.046909 373.724066 262.888835 373.920659 262.730572 374.117253 262.572121 374.313846 262.413484 374.510440 262.254661 374.707033 262.095654 374.903626 261.936465 375.100220 261.777093 375.296813 261.617542 375.493407 261.457811 375.690000 261.297902 375.886593 261.137816 376.083187 260.977554 376.279780 260.817118 376.476374 260.656509 376.672967 260.495727 376.869560 260.334775 377.066154 260.173653 377.262747 260.012363 377.459341 259.850905 377.655934 259.689281 377.852527 259.527493 378.049121 259.365540 378.245714 259.203426 378.442308 259.041149 378.638901 258.878713 378.835495 258.716118 379.032088 258.553366 379.228681 258.390456 379.425275 258.227392 379.621868 258.064173 379.818462 257.900802 380.015055 257.737279 380.211648 257.573605 380.408242 257.409782 380.604835 257.245811 380.801429 257.081693 380.998022 256.917429 381.194615 256.753021 381.391209 256.588470 381.587802 256.423776 381.784396 256.258942 381.980989 256.093968 382.177582 255.928855 382.374176 255.763606 382.570769 255.598220 382.767363 255.432699 382.963956 255.267044 383.160549 255.101257 383.357143 254.935339 383.553736 254.769290 383.750330 254.603113 383.946923 254.436808 384.143516 254.270376 384.340110 254.103819 384.536703 253.937138 384.733297 253.770335 384.929890 253.603409 385.126484 253.436363 385.323077 253.269197 385.519670 253.101914 385.716264 252.934513 385.912857 252.766997 386.109451 252.599367 386.306044 252.431623 386.502637 252.263767 386.699231 252.095800 386.895824 251.927723 387.092418 251.759538 387.289011 251.591245 387.485604 251.422846 387.682198 251.254343 387.878791 251.085735 388.075385 250.917026 388.271978 250.748214 388.468571 250.579303 388.665165 250.410293 388.861758 250.241185 389.058352 250.071981 389.254945 249.902681 389.451538 249.733287 389.648132 249.563800 389.844725 249.394222 390.041319 249.224553 390.237912 249.054794 390.434505 248.884948 390.631099 248.715014 390.827692 248.544995 391.024286 248.374891 391.220879 248.204704 391.417473 248.034435 391.614066 247.864085 391.810659 247.693655 392.007253 247.523146 392.203846 247.352561 392.400440 247.181899 392.597033 247.011162 392.793626 246.840351 392.990220 246.669468 393.186813 246.498514 393.383407 246.327489 393.580000 246.156396 393.776593 245.985234 393.973187 245.814007 394.169780 245.642713 394.366374 245.471356 394.562967 245.299936 394.759560 245.128454 394.956154 244.956911 395.152747 244.785309 395.349341 244.613649 395.545934 244.441932 395.742527 244.270160 395.939121 244.098332 396.135714 243.926452 396.332308 243.754519 396.528901 243.582535 396.725495 243.410501 396.922088 243.238419 397.118681 243.066290 397.315275 242.894114 397.511868 242.721894 397.708462 242.549629 397.905055 242.377322 398.101648 242.204974 398.298242 242.032586 398.494835 241.860158 398.691429 241.687693 398.888022 241.515191 399.084615 241.342654 399.281209 241.170083 399.477802 240.997479 399.674396 240.824843 399.870989 240.652176 400.067582 240.479480 400.264176 240.306756 400.460769 240.134005 400.657363 239.961228 400.853956 239.788427 401.050549 239.615602 401.247143 239.442755 401.443736 239.269887 401.640330 239.097000 401.836923 238.924093 402.033516 238.751170 402.230110 238.578230 402.426703 238.405275 402.623297 238.232306 402.819890 238.059325 403.016484 237.886332 403.213077 237.713330 403.409670 237.540318 403.606264 237.367298 403.802857 237.194272 403.999451 237.021241 404.196044 236.848205 404.392637 236.675166 404.589231 236.502126 404.785824 236.329085 404.982418 236.156044 405.179011 235.983006 405.375604 235.809970 405.572198 235.636939 405.768791 235.463913 405.965385 235.290893 406.161978 235.117882 406.358571 234.944879 406.555165 234.771887 406.751758 234.598906 406.948352 234.425937 407.144945 234.252982 407.341538 234.080041 407.538132 233.907113 407.734725 233.734198 407.931319 233.561296 408.127912 233.388406 408.324505 233.215529 408.521099 233.042664 408.717692 232.869810 408.914286 232.696968 409.110879 232.524137 409.307473 232.351317 409.504066 232.178508 409.700659 232.005710 409.897253 231.832922 410.093846 231.660144 410.290440 231.487375 410.487033 231.314616 410.683626 231.141866 410.880220 230.969126 411.076813 230.796394 411.273407 230.623670 411.470000 230.450955 411.666593 230.278248 411.863187 230.105548 412.059780 229.932856 412.256374 229.760171 412.452967 229.587493 412.649560 229.414822 412.846154 229.242157 413.042747 229.069499 413.239341 228.896846 413.435934 228.724200 413.632527 228.551558 413.829121 228.378922 414.025714 228.206291 414.222308 228.033664 414.418901 227.861042 414.615495 227.688424 414.812088 227.515810 415.008681 227.343200 415.205275 227.170593 415.401868 226.997989 415.598462 226.825388 415.795055 226.652790 415.991648 226.480195 416.188242 226.307601 416.384835 226.135009 416.581429 225.962419 416.778022 225.789831 416.974615 225.617243 417.171209 225.444657 417.367802 225.272071 417.564396 225.099486 417.760989 224.926900 417.957582 224.754315 418.154176 224.581729 418.350769 224.409142 418.547363 224.236555 418.743956 224.063967 418.940549 223.891377 419.137143 223.718785 419.333736 223.546192 419.530330 223.373596 419.726923 223.200998 419.923516 223.028398 420.120110 222.855794 420.316703 222.683188 420.513297 222.510578 420.709890 222.337964 420.906484 222.165347 421.103077 221.992725 421.299670 221.820099 421.496264 221.647468 421.692857 221.474832 421.889451 221.302191 422.086044 221.129545 422.282637 220.956893 422.479231 220.784235 422.675824 220.611571 422.872418 220.438900 423.069011 220.266223 423.265604 220.093539 423.462198 219.920847 423.658791 219.748148 423.855385 219.575442 424.051978 219.402727 424.248571 219.230004 424.445165 219.057273 424.641758 218.884533 424.838352 218.711784 425.034945 218.539026 425.231538 218.366258 425.428132 218.193481 425.624725 218.020694 425.821319 217.847896 426.017912 217.675088 426.214505 217.502269 426.411099 217.329440 426.607692 217.156599 426.804286 216.983746 427.000879 216.810882 427.197473 216.638005 427.394066 216.465117 427.590659 216.292216 427.787253 216.119302 427.983846 215.946375 428.180440 215.773435 428.377033 215.600481 428.573626 215.427514 428.770220 215.254532 428.966813 215.081537 429.163407 214.908526 429.360000 214.735501 429.556593 214.562461 429.753187 214.389406 429.949780 214.216335 430.146374 214.043248 430.342967 213.870145 430.539560 213.697026 430.736154 213.523890 430.932747 213.350738 431.129341 213.177568 431.325934 213.004381 431.522527 212.831177 431.719121 212.657955 431.915714 212.484714 432.112308 212.311455 432.308901 212.138178 432.505495 211.964882 432.702088 211.791567 432.898681 211.618232 433.095275 211.444878 433.291868 211.271504 433.488462 211.098110 433.685055 210.924695 433.881648 210.751260 434.078242 210.577804 434.274835 210.404327 434.471429 210.230829 434.668022 210.057309 434.864615 209.883767 435.061209 209.710203 435.257802 209.536616 435.454396 209.363007 435.650989 209.189375 435.847582 209.015720 436.044176 208.842042 436.240769 208.668340 436.437363 208.494614 436.633956 208.320864 436.830549 208.147089 437.027143 207.973290 437.223736 207.799466 437.420330 207.625616 437.616923 207.451741 437.813516 207.277841 438.010110 207.103915 438.206703 206.929962 438.403297 206.755983 438.599890 206.581978 438.796484 206.407945 438.993077 206.233885 439.189670 206.059798 439.386264 205.885683 439.582857 205.711541 439.779451 205.537370 439.976044 205.363170 440.172637 205.188942 440.369231 205.014685 440.565824 204.840398 440.762418 204.666083 440.959011 204.491737 441.155604 204.317362 441.352198 204.142956 441.548791 203.968520 441.745385 203.794053 441.941978 203.619555 442.138571 203.445026 442.335165 203.270465 442.531758 203.095873 442.728352 202.921248 442.924945 202.746592 443.121538 202.571903 443.318132 202.397181 443.514725 202.222426 443.711319 202.047638 443.907912 201.872816 444.104505 201.697961 444.301099 201.523071 444.497692 201.348147 444.694286 201.173189 444.890879 200.998196 445.087473 200.823168 445.284066 200.648105 445.480659 200.473006 445.677253 200.297871 445.873846 200.122701 446.070440 199.947494 446.267033 199.772250 446.463626 199.596970 446.660220 199.421652 446.856813 199.246298 447.053407 199.070905 447.250000 198.895475 447.446593 198.720007 447.643187 198.544501 447.839780 198.368956 448.036374 198.193372 448.232967 198.017749 448.429560 197.842086 448.626154 197.666385 448.822747 197.490643 449.019341 197.314861 449.215934 197.139039 449.412527 196.963176 449.609121 196.787273 449.805714 196.611328 450.002308 196.435342 450.198901 196.259314 450.395495 196.083245 450.592088 195.907133 450.788681 195.730979 450.985275 195.554782 451.181868 195.378543 451.378462 195.202260 451.575055 195.025934 451.771648 194.849565 451.968242 194.673151 452.164835 194.496693 452.361429 194.320191 452.558022 194.143645 452.754615 193.967053 452.951209 193.790416 453.147802 193.613734 453.344396 193.437006 453.540989 193.260233 453.737582 193.083413 453.934176 192.906546 454.130769 192.729633 454.327363 192.552673 454.523956 192.375666 454.720549 192.198612 454.917143 192.021510 455.113736 191.844360 455.310330 191.667161 455.506923 191.489915 455.703516 191.312619 455.900110 191.135275 456.096703 190.957881 456.293297 190.780438 456.489890 190.602947 456.686484 190.425409 456.883077 190.247824 457.079670 190.070194 457.276264 189.892520 457.472857 189.714803 457.669451 189.537044 457.866044 189.359245 458.062637 189.181405 458.259231 189.003527 458.455824 188.825612 458.652418 188.647660 458.849011 188.469672 459.045604 188.291650 459.242198 188.113595 459.438791 187.935508 459.635385 187.757389 459.831978 187.579241 460.028571 187.401063 460.225165 187.222858 460.421758 187.044625 460.618352 186.866368 460.814945 186.688085 461.011538 186.509779 461.208132 186.331450 461.404725 186.153100 461.601319 185.974730 461.797912 185.796340 461.994505 185.617932 462.191099 185.439507 462.387692 185.261066 462.584286 185.082611 462.780879 184.904141 462.977473 184.725658 463.174066 184.547164 463.370659 184.368659 463.567253 184.190145 463.763846 184.011622 463.960440 183.833092 464.157033 183.654555 464.353626 183.476013 464.550220 183.297467 464.746813 183.118918 464.943407 182.940367 465.140000 182.761815 465.336593 182.583263 465.533187 182.404713 465.729780 182.226165 465.926374 182.047620 466.122967 181.869079 466.319560 181.690544 466.516154 181.512016 466.712747 181.333496 466.909341 181.154984 467.105934 180.976482 467.302527 180.797991 467.499121 180.619512 467.695714 180.441046 467.892308 180.262595 468.088901 180.084158 468.285495 179.905738 468.482088 179.727336 468.678681 179.548951 468.875275 179.370587 469.071868 179.192243 469.268462 179.013921 469.465055 178.835621 469.661648 178.657346 469.858242 178.479095 470.054835 178.300871 470.251429 178.122673 470.448022 177.944504 470.644615 177.766364 470.841209 177.588255 471.037802 177.410176 471.234396 177.232131 471.430989 177.054119 471.627582 176.876141 471.824176 176.698200 472.020769 176.520295 472.217363 176.342428 472.413956 176.164600 472.610549 175.986812 472.807143 175.809066 473.003736 175.631361 473.200330 175.453700 473.396923 175.276083 473.593516 175.098512 473.790110 174.920987 473.986703 174.743510 474.183297 174.566081 474.379890 174.388702 474.576484 174.211374 474.773077 174.034098 474.969670 173.856875 475.166264 173.679706 475.362857 173.502592 475.559451 173.325535 475.756044 173.148535 475.952637 172.971593 476.149231 172.794710 476.345824 172.617889 476.542418 172.441128 476.739011 172.264431 476.935604 172.087797 477.132198 171.911228 477.328791 171.734726 477.525385 171.558290 477.721978 171.381922 477.918571 171.205623 478.115165 171.029395 478.311758 170.853238 478.508352 170.677154 478.704945 170.501142 478.901538 170.325206 479.098132 170.149345 479.294725 169.973561 479.491319 169.797855 479.687912 169.622227 479.884505 169.446680 480.081099 169.271213 480.277692 169.095829 480.474286 168.920528 480.670879 168.745311 480.867473 168.570179 481.064066 168.395134 481.260659 168.220177 481.457253 168.045308 481.653846 167.870529 481.850440 167.695840 482.047033 167.521243 482.243626 167.346740 482.440220 167.172330 482.636813 166.998015 482.833407 166.823796 483.030000 166.649675 483.226593 166.475652 483.423187 166.301728 483.619780 166.127905 483.816374 165.954183 484.012967 165.780564 484.209560 165.607049 484.406154 165.433638 484.602747 165.260333 484.799341 165.087135 484.995934 164.914045 485.192527 164.741065 485.389121 164.568194 485.585714 164.395434 485.782308 164.222787 485.978901 164.050254 486.175495 163.877834 486.372088 163.705531 486.568681 163.533344 486.765275 163.361274 486.961868 163.189324 487.158462 163.017493 487.355055 162.845783 487.551648 162.674196 487.748242 162.502731 487.944835 162.331391 488.141429 162.160176 488.338022 161.989087 488.534615 161.818125 488.731209 161.647292 488.927802 161.476589 489.124396 161.306016 489.320989 161.135575 489.517582 160.965267 489.714176 160.795093 489.910769 160.625054 490.107363 160.455150 490.303956 160.285384 490.500549 160.115756 490.697143 159.946268 490.893736 159.776919 491.090330 159.607712 491.286923 159.438648 491.483516 159.269727 491.680110 159.100951 491.876703 158.932321 492.073297 158.763837 492.269890 158.595502 492.466484 158.427315 492.663077 158.259278 492.859670 158.091393 493.056264 157.923660 493.252857 157.756080 493.449451 157.588654 493.646044 157.421384 493.842637 157.254271 494.039231 157.087315 494.235824 156.920518 494.432418 156.753880 494.629011 156.587404 494.825604 156.421089 495.022198 156.254937 495.218791 156.088950 495.415385 155.923127 495.611978 155.757471 495.808571 155.591982 496.005165 155.426662 496.201758 155.261511 496.398352 155.096530 496.594945 154.931721 496.791538 154.767085 496.988132 154.602623 497.184725 154.438336 497.381319 154.274224 497.577912 154.110290 497.774505 153.946533 497.971099 153.782956 498.167692 153.619559 498.364286 153.456343 498.560879 153.293310 498.757473 153.130461 498.954066 152.967796 499.150659 152.805316 499.347253 152.643023 499.543846 152.480918 499.740440 152.319002 499.937033 152.157276 500.133626 151.995741 500.330220 151.834399 500.526813 151.673249 500.723407 151.512293 500.920000 151.351533 501.116593 151.190970 501.313187 151.030604 501.509780 150.870436 501.706374 150.710468 501.902967 150.550701 502.099560 150.391136 502.296154 150.231774 502.492747 150.072615 502.689341 149.913662 502.885934 149.754915 503.082527 149.596375 503.279121 149.438043 503.475714 149.279921 503.672308 149.122009 503.868901 148.964309 504.065495 148.806822 504.262088 148.649548 504.458681 148.492488 504.655275 148.335645 504.851868 148.179019 505.048462 148.022610 505.245055 147.866421 505.441648 147.710452 505.638242 147.554701 505.834835 147.399167 506.031429 147.243849 506.228022 147.088746 506.424615 146.933855 506.621209 146.779176 506.817802 146.624707 507.014396 146.470447 507.210989 146.316394 507.407582 146.162546 507.604176 146.008902 507.800769 145.855462 507.997363 145.702222 508.193956 145.549183 508.390549 145.396341 508.587143 145.243697 508.783736 145.091248 508.980330 144.938994 509.176923 144.786932 509.373516 144.635061 509.570110 144.483379 509.766703 144.331886 509.963297 144.180580 510.159890 144.029459 510.356484 143.878522 510.553077 143.727768 510.749670 143.577194 510.946264 143.426800 511.142857 143.276584 511.339451 143.126545 511.536044 142.976681 511.732637 142.826990 511.929231 142.677472 512.125824 142.528125 512.322418 142.378947 512.519011 142.229937 512.715604 142.081093 512.912198 141.932415 513.108791 141.783900 513.305385 141.635547 513.501978 141.487355 513.698571 141.339323 513.895165 141.191447 514.091758 141.043729 514.288352 140.896165 514.484945 140.748754 514.681538 140.601496 514.878132 140.454388 515.074725 140.307429 515.271319 140.160618 515.467912 140.013953 515.664505 139.867432 515.861099 139.721055 516.057692 139.574820 516.254286 139.428725 516.450879 139.282769 516.647473 139.136950 516.844066 138.991268 517.040659 138.845720 517.237253 138.700305 517.433846 138.555022 517.630440 138.409869 517.827033 138.264844 518.023626 138.119947 518.220220 137.975176 518.416813 137.830530 518.613407 137.686006 518.810000 137.541604 519.006593 137.397321 519.203187 137.253158 519.399780 137.109111 519.596374 136.965181 519.792967 136.821364 519.989560 136.677660 520.186154 136.534068 520.382747 136.390586 520.579341 136.247212 520.775934 136.103945 520.972527 135.960783 521.169121 135.817726 521.365714 135.674771 521.562308 135.531917 521.758901 135.389164 521.955495 135.246508 522.152088 135.103949 522.348681 134.961486 522.545275 134.819117 522.741868 134.676840 522.938462 134.534654 523.135055 134.392558 523.331648 134.250549 523.528242 134.108628 523.724835 133.966792 523.921429 133.825039 524.118022 133.683369 524.314615 133.541780 524.511209 133.400270 524.707802 133.258838 524.904396 133.117483 525.100989 132.976203 525.297582 132.834996 525.494176 132.693861 525.690769 132.552798 525.887363 132.411803 526.083956 132.270877 526.280549 132.130016 526.477143 131.989221 526.673736 131.848489 526.870330 131.707819 527.066923 131.567210 527.263516 131.426660 527.460110 131.286167 527.656703 131.145731 527.853297 131.005349 528.049890 130.865021 528.246484 130.724744 528.443077 130.584518 528.639670 130.444341 528.836264 130.304212 529.032857 130.164128 529.229451 130.024089 529.426044 129.884094 529.622637 129.744140 529.819231 129.604226 530.015824 129.464351 530.212418 129.324513 530.409011 129.184711 530.605604 129.044944 530.802198 128.905210 530.998791 128.765507 531.195385 128.625834 531.391978 128.486190 531.588571 128.346574 531.785165 128.206983 531.981758 128.067416 532.178352 127.927872 532.374945 127.788349 532.571538 127.648847 532.768132 127.509363 532.964725 127.369895 533.161319 127.230444 533.357912 127.091007 533.554505 126.951582 533.751099 126.812168 533.947692 126.672765 534.144286 126.533369 534.340879 126.393981 534.537473 126.254598 534.734066 126.115219 534.930659 125.975842 535.127253 125.836467 535.323846 125.697091 535.520440 125.557713 535.717033 125.418333 535.913626 125.278947 536.110220 125.139555 536.306813 125.000156 536.503407 124.860747 536.700000 124.721328 536.896593 124.581897 537.093187 124.442453 537.289780 124.302993 537.486374 124.163517 537.682967 124.024024 537.879560 123.884511 538.076154 123.744978 538.272747 123.605422 538.469341 123.465843 538.665934 123.326239 538.862527 123.186608 539.059121 123.046950 539.255714 122.907262 539.452308 122.767543 539.648901 122.627792 539.845495 122.488007 540.042088 122.348187 540.238681 122.208330 540.435275 122.068435 540.631868 121.928501 540.828462 121.788525 541.025055 121.648508 541.221648 121.508446 541.418242 121.368339 541.614835 121.228185 541.811429 121.087983 542.008022 120.947731 542.204615 120.807428 542.401209 120.667072 542.597802 120.526663 542.794396 120.386198 542.990989 120.245675 543.187582 120.105095 543.384176 119.964455 543.580769 119.823753 543.777363 119.682988 543.973956 119.542160 544.170549 119.401265 544.367143 119.260304 544.563736 119.119274 544.760330 118.978174 544.956923 118.837002 545.153516 118.695758 545.350110 118.554439 545.546703 118.413044 545.743297 118.271572 545.939890 118.130022 546.136484 117.988391 546.333077 117.846678 546.529670 117.704883 546.726264 117.563003 546.922857 117.421037 547.119451 117.278983 547.316044 117.136841 547.512637 116.994609 547.709231 116.852284 547.905824 116.709866 548.102418 116.567354 548.299011 116.424746 548.495604 116.282039 548.692198 116.139234 548.888791 115.996329 549.085385 115.853321 549.281978 115.710210 549.478571 115.566995 549.675165 115.423673 549.871758 115.280243 550.068352 115.136704 550.264945 114.993054 550.461538 114.849292 550.658132 114.705417 550.854725 114.561427 551.051319 114.417320 551.247912 114.273096 551.444505 114.128752 551.641099 113.984287 551.837692 113.839700 552.034286 113.694989 552.230879 113.550153 552.427473 113.405191 552.624066 113.260100 552.820659 113.114880 553.017253 112.969529 553.213846 112.824046 553.410440 112.678429 553.607033 112.532676 553.803626 112.386787 554.000220 112.240759 554.196813 112.094592 554.393407 111.948284 554.590000 111.801833 554.786593 111.655241 554.983187 111.508509 555.179780 111.361638 555.376374 111.214629 555.572967 111.067482 555.769560 110.920200 555.966154 110.772784 556.162747 110.625234 556.359341 110.477551 556.555934 110.329737 556.752527 110.181794 556.949121 110.033721 557.145714 109.885520 557.342308 109.737193 557.538901 109.588740 557.735495 109.440163 557.932088 109.291462 558.128681 109.142640 558.325275 108.993696 558.521868 108.844632 558.718462 108.695450 558.915055 108.546150 559.111648 108.396734 559.308242 108.247202 559.504835 108.097556 559.701429 107.947796 559.898022 107.797925 560.094615 107.647943 560.291209 107.497852 560.487802 107.347652 560.684396 107.197344 560.880989 107.046930 561.077582 106.896411 561.274176 106.745788 561.470769 106.595062 561.667363 106.444235 561.863956 106.293306 562.060549 106.142279 562.257143 105.991153 562.453736 105.839929 562.650330 105.688610 562.846923 105.537196 563.043516 105.385687 563.240110 105.234087 563.436703 105.082394 563.633297 104.930611 563.829890 104.778739 564.026484 104.626779 564.223077 104.474732 564.419670 104.322599 564.616264 104.170381 564.812857 104.018079 565.009451 103.865695 565.206044 103.713230 565.402637 103.560685 565.599231 103.408060 565.795824 103.255358 565.992418 103.102578 566.189011 102.949723 566.385604 102.796794 566.582198 102.643791 566.778791 102.490716 566.975385 102.337569 567.171978 102.184353 567.368571 102.031068 567.565165 101.877715 567.761758 101.724295 567.958352 101.570810 568.154945 101.417261 568.351538 101.263648 568.548132 101.109974 568.744725 100.956238 568.941319 100.802443 569.137912 100.648589 569.334505 100.494677 569.531099 100.340709 569.727692 100.186686 569.924286 100.032608 570.120879 99.878478 570.317473 99.724296 570.514066 99.570063 570.710659 99.415780 570.907253 99.261449 571.103846 99.107071 571.300440 98.952646 571.497033 98.798176 571.693626 98.643663 571.890220 98.489107 572.086813 98.334509 572.283407 98.179870 572.480000 98.025192 572.676593 97.870476 572.873187 97.715722 573.069780 97.560933 573.266374 97.406109 573.462967 97.251251 573.659560 97.096360 573.856154 96.941438 574.052747 96.786486 574.249341 96.631505 574.445934 96.476495 574.642527 96.321459 574.839121 96.166396 575.035714 96.011309 575.232308 95.856199 575.428901 95.701066 575.625495 95.545912 575.822088 95.390738 576.018681 95.235545 576.215275 95.080334 576.411868 94.925106 576.608462 94.769863 576.805055 94.614605 577.001648 94.459334 577.198242 94.304050 577.394835 94.148756 577.591429 93.993452 577.788022 93.838138 577.984615 93.682818 578.181209 93.527491 578.377802 93.372158 578.574396 93.216821 578.770989 93.061481 578.967582 92.906139 579.164176 92.750796 579.360769 92.595454 579.557363 92.440113 579.753956 92.284774 579.950549 92.129439 580.147143 91.974109 580.343736 91.818785 580.540330 91.663468 580.736923 91.508159 580.933516 91.352860 581.130110 91.197571 581.326703 91.042293 581.523297 90.887029 581.719890 90.731778 581.916484 90.576542 582.113077 90.421323 582.309670 90.266121 582.506264 90.110937 582.702857 89.955773 582.899451 89.800629 583.096044 89.645507 583.292637 89.490409 583.489231 89.335334 583.685824 89.180285 583.882418 89.025261 584.079011 88.870266 584.275604 88.715299 584.472198 88.560362 584.668791 88.405455 584.865385 88.250581 585.061978 88.095740 585.258571 87.940933 585.455165 87.786162 585.651758 87.631427 585.848352 87.476730 586.044945 87.322072 586.241538 87.167453 586.438132 87.012876 586.634725 86.858341 586.831319 86.703849 587.027912 86.549402 587.224505 86.395001 587.421099 86.240646 587.617692 86.086339 587.814286 85.932081 588.010879 85.777874 588.207473 85.623718 588.404066 85.469614 588.600659 85.315563 588.797253 85.161568 588.993846 85.007628 589.190440 84.853745 589.387033 84.699920 589.583626 84.546155 589.780220 84.392450 589.976813 84.238806 590.173407 84.085225 590.370000 83.931708 590.566593 83.778256 590.763187 83.624870 590.959780 83.471551 591.156374 83.318300 591.352967 83.165119 591.549560 83.012008 591.746154 82.858969 591.942747 82.706003 592.139341 82.553111 592.335934 82.400293 592.532527 82.247553 592.729121 82.094889 592.925714 81.942304 593.122308 81.789799 593.318901 81.637374 593.515495 81.485032 593.712088 81.332772 593.908681 81.180597 594.105275 81.028507 594.301868 80.876503 594.498462 80.724587 594.695055 80.572760 594.891648 80.421022 595.088242 80.269376 595.284835 80.117821 595.481429 79.966360 595.678022 79.814993 595.874615 79.663722 596.071209 79.512548 596.267802 79.361471 596.464396 79.210493 596.660989 79.059615 596.857582 78.908839 597.054176 78.758164 597.250769 78.607593 597.447363 78.457127 597.643956 78.306766 597.840549 78.156513 598.037143 78.006367 598.233736 77.856330 598.430330 77.706404 598.626923 77.556589 598.823516 77.406887 599.020110 77.257298 599.216703 77.107824 599.413297 76.958466 599.609890 76.809225 599.806484 76.660102 600.003077 76.511099 600.199670 76.362216 600.396264 76.213454 600.592857 76.064816 600.789451 75.916301 600.986044 75.767911 601.182637 75.619647 601.379231 75.471511 601.575824 75.323503 601.772418 75.175624 601.969011 75.027876 602.165604 74.880260 602.362198 74.732777 602.558791 74.585428 602.755385 74.438214 602.951978 74.291136 603.148571 74.144196 603.345165 73.997395 603.541758 73.850733 603.738352 73.704212 603.934945 73.557831 604.131538 73.411590 604.328132 73.265489 604.524725 73.119527 604.721319 72.973703 604.917912 72.828018 605.114505 72.682470 605.311099 72.537059 605.507692 72.391786 605.704286 72.246648 605.900879 72.101647 606.097473 71.956781 606.294066 71.812049 606.490659 71.667453 606.687253 71.522990 606.883846 71.378661 607.080440 71.234466 607.277033 71.090402 607.473626 70.946472 607.670220 70.802673 607.866813 70.659005 608.063407 70.515468 608.260000 70.372062 608.456593 70.228786 608.653187 70.085639 608.849780 69.942621 609.046374 69.799732 609.242967 69.656971 609.439560 69.514338 609.636154 69.371832 609.832747 69.229453 610.029341 69.087200 610.225934 68.945074 610.422527 68.803072 610.619121 68.661196 610.815714 68.519444 611.012308 68.377816 611.208901 68.236312 611.405495 68.094931 611.602088 67.953673 611.798681 67.812538 611.995275 67.671524 612.191868 67.530631 612.388462 67.389859 612.585055 67.249208 612.781648 67.108677 612.978242 66.968265 613.174835 66.827973 613.371429 66.687799 613.568022 66.547743 613.764615 66.407805 613.961209 66.267985 614.157802 66.128281 614.354396 65.988694 614.550989 65.849222 614.747582 65.709867 614.944176 65.570626 615.140769 65.431499 615.337363 65.292487 615.533956 65.153589 615.730549 65.014804 615.927143 64.876131 616.123736 64.737571 616.320330 64.599123 616.516923 64.460786 616.713516 64.322560 616.910110 64.184444 617.106703 64.046439 617.303297 63.908543 617.499890 63.770757 617.696484 63.633079 617.893077 63.495509 618.089670 63.358047 618.286264 63.220692 618.482857 63.083445 618.679451 62.946303 618.876044 62.809268 619.072637 62.672338 619.269231 62.535514 619.465824 62.398794 619.662418 62.262178 619.859011 62.125665 620.055604 61.989256 620.252198 61.852950 620.448791 61.716746 620.645385 61.580645 620.841978 61.444644 621.038571 61.308745 621.235165 61.172946 621.431758 61.037247 621.628352 60.901647 621.824945 60.766147 622.021538 60.630746 622.218132 60.495443 622.414725 60.360238 622.611319 60.225130 622.807912 60.090119 623.004505 59.955204 623.201099 59.820386 623.397692 59.685663 623.594286 59.551035 623.790879 59.416502 623.987473 59.282063 624.184066 59.147717 624.380659 59.013465 624.577253 58.879306 624.773846 58.745239 624.970440 58.611264 625.167033 58.477381 625.363626 58.343589 625.560220 58.209887 625.756813 58.076275 625.953407 57.942753 626.150000 57.809320 626.346593 57.675976 626.543187 57.542720 626.739780 57.409552 626.936374 57.276472 627.132967 57.143478 627.329560 57.010571 627.526154 56.877750 627.722747 56.745014 627.919341 56.612364 628.115934 56.479798 628.312527 56.347317 628.509121 56.214919 628.705714 56.082605 628.902308 55.950373 629.098901 55.818224 629.295495 55.686157 629.492088 55.554171 629.688681 55.422267 629.885275 55.290443 630.081868 55.158699 630.278462 55.027035 630.475055 54.895450 630.671648 54.763943 630.868242 54.632516 631.064835 54.501166 631.261429 54.369893 631.458022 54.238698 631.654615 54.107579 631.851209 53.976536 632.047802 53.845568 632.244396 53.714676 632.440989 53.583859 632.637582 53.453115 632.834176 53.322446 633.030769 53.191850 633.227363 53.061327 633.423956 52.930876 633.620549 52.800497 633.817143 52.670190 634.013736 52.539954 634.210330 52.409788 634.406923 52.279693 634.603516 52.149667 634.800110 52.019711 634.996703 51.889823 635.193297 51.760004 635.389890 51.630253 635.586484 51.500569 635.783077 51.370952 635.979670 51.241402 636.176264 51.111918 636.372857 50.982499 636.569451 50.853146 636.766044 50.723857 636.962637 50.594633 637.159231 50.465472 637.355824 50.336375 637.552418 50.207341 637.749011 50.078369 637.945604 49.949459 638.142198 49.820611 638.338791 49.691824 638.535385 49.563098 638.731978 49.434432 638.928571 49.305825 639.125165 49.177278 639.321758 49.048790 639.518352 48.920360 639.714945 48.791988 639.911538 48.663674 640.108132 48.535416 640.304725 48.407215 640.501319 48.279071 640.697912 48.150982 640.894505 48.022948 641.091099 47.894969 641.287692 47.767044 641.484286 47.639173 641.680879 47.511356 641.877473 47.383591 642.074066 47.255879 642.270659 47.128219 642.467253 47.000611 642.663846 46.873054 642.860440 46.745547 643.057033 46.618091 643.253626 46.490684 643.450220 46.363327 643.646813 46.236019 643.843407 46.108759 644.040000 45.981547 644.236593 45.854383 644.433187 45.727265 644.629780 45.600194 644.826374 45.473170 645.022967 45.346191 645.219560 45.219257 645.416154 45.092369 645.612747 44.965524 645.809341 44.838724 646.005934 44.711966 646.202527 44.585252 646.399121 44.458581 646.595714 44.331951 646.792308 44.205363 646.988901 44.078816 647.185495 43.952310 647.382088 43.825845 647.578681 43.699419 647.775275 43.573032 647.971868 43.446684 648.168462 43.320375 648.365055 43.194104 648.561648 43.067870 648.758242 42.941674 648.954835 42.815514 649.151429 42.689390 649.348022 42.563302 649.544615 42.437249 649.741209 42.311231 649.937802 42.185248 650.134396 42.059298 650.330989 41.933382 650.527582 41.807499 650.724176 41.681648 650.920769 41.555830 651.117363 41.430043 651.313956 41.304288 651.510549 41.178563 651.707143 41.052868 651.903736 40.927203 652.100330 40.801568 652.296923 40.675962 652.493516 40.550384 652.690110 40.424834 652.886703 40.299312 653.083297 40.173817 653.279890 40.048350 653.476484 39.922910 653.673077 39.797497 653.869670 39.672111 654.066264 39.546751 654.262857 39.421419 654.459451 39.296114 654.656044 39.170835 654.852637 39.045582 655.049231 38.920356 655.245824 38.795156 655.442418 38.669982 655.639011 38.544835 655.835604 38.419713 656.032198 38.294617 656.228791 38.169547 656.425385 38.044502 656.621978 37.919483 656.818571 37.794489 657.015165 37.669520 657.211758 37.544577 657.408352 37.419659 657.604945 37.294765 657.801538 37.169897 657.998132 37.045053 658.194725 36.920233 658.391319 36.795439 658.587912 36.670668 658.784505 36.545922 658.981099 36.421200 659.177692 36.296502 659.374286 36.171828 659.570879 36.047178 659.767473 35.922551 659.964066 35.797948 660.160659 35.673369 660.357253 35.548813 660.553846 35.424280 660.750440 35.299771 660.947033 35.175284 661.143626 35.050821 661.340220 34.926380 661.536813 34.801962 661.733407 34.677567 661.930000 34.553194 662.126593 34.428843 662.323187 34.304515 662.519780 34.180209 662.716374 34.055925 662.912967 33.931663 663.109560 33.807423 663.306154 33.683205 663.502747 33.559008 663.699341 33.434833 663.895934 33.310679 664.092527 33.186546 664.289121 33.062435 664.485714 32.938344 664.682308 32.814275 664.878901 32.690226 665.075495 32.566199 665.272088 32.442191 665.468681 32.318205 665.665275 32.194238 665.861868 32.070292 666.058462 31.946367 666.255055 31.822461 666.451648 31.698575 666.648242 31.574709 666.844835 31.450863 667.041429 31.327037 667.238022 31.203230 667.434615 31.079442 667.631209 30.955674 667.827802 30.831925 668.024396 30.708195 668.220989 30.584484 668.417582 30.460792 668.614176 30.337119 668.810769 30.213464 669.007363 30.089828 669.203956 29.966210 669.400549 29.842610 669.597143 29.719029 669.793736 29.595466 669.990330 29.471921 670.186923 29.348394 670.383516 29.224884 670.580110 29.101392 670.776703 28.977918 670.973297 28.854461 671.169890 28.731021 671.366484 28.607599 671.563077 28.484193 671.759670 28.360805 671.956264 28.237434 672.152857 28.114079 672.349451 27.990741 672.546044 27.867420 672.742637 27.744114 672.939231 27.620826 673.135824 27.497553 673.332418 27.374297 673.529011 27.251057 673.725604 27.127832 673.922198 27.004623 674.118791 26.881430 674.315385 26.758253 674.511978 26.635091 674.708571 26.511944 674.905165 26.388812 675.101758 26.265696 675.298352 26.142595 675.494945 26.019508 675.691538 25.896436 675.888132 25.773379 676.084725 25.650337 676.281319 25.527309 676.477912 25.404295 676.674505 25.281296 676.871099 25.158310 677.067692 25.035339 677.264286 24.912382 677.460879 24.789438 677.657473 24.666508 677.854066 24.543592 678.050659 24.420689 678.247253 24.297799 678.443846 24.174923 678.640440 24.052059 678.837033 23.929209 679.033626 23.806372 679.230220 23.683547 679.426813 23.560736 679.623407 23.437936 679.820000 23.315150 680.016593 23.192375 680.213187 23.069613 680.409780 22.946863 680.606374 22.824125 680.802967 22.701399 680.999560 22.578684 681.196154 22.455982 681.392747 22.333291 681.589341 22.210611 681.785934 22.087943 681.982527 21.965286 682.179121 21.842640 682.375714 21.720006 682.572308 21.597382 682.768901 21.474769 682.965495 21.352166 683.162088 21.229575 683.358681 21.106993 683.555275 20.984422 683.751868 20.861862 683.948462 20.739311 684.145055 20.616771 684.341648 20.494240 684.538242 20.371720 684.734835 20.249209 684.931429 20.126707 685.128022 20.004215 685.324615 19.881733 685.521209 19.759259 685.717802 19.636795 685.914396 19.514340 686.110989 19.391894 686.307582 19.269457 686.504176 19.147028 686.700769 19.024608 686.897363 18.902197 687.093956 18.779794 687.290549 18.657399 687.487143 18.535012 687.683736 18.412633 687.880330 18.290263 688.076923 18.167900 688.273516 18.045545 688.470110 17.923197 688.666703 17.800857 688.863297 17.678525 689.059890 17.556199 689.256484 17.433881 689.453077 17.311570 689.649670 17.189266 689.846264 17.066969 690.042857 16.944678 690.239451 16.822394 690.436044 16.700117 690.632637 16.577845 690.829231 16.455581 691.025824 16.333322 691.222418 16.211070 691.419011 16.088823 691.615604 15.966582 691.812198 15.844347 692.008791 15.722118 692.205385 15.599894 692.401978 15.477676 692.598571 15.355462 692.795165 15.233254 692.991758 15.111052 693.188352 14.988854 693.384945 14.866661 693.581538 14.744472 693.778132 14.622289 693.974725 14.500109 694.171319 14.377935 694.367912 14.255764 694.564505 14.133598 694.761099 14.011436 694.957692 13.889277 695.154286 13.767123 695.350879 13.644972 695.547473 13.522826 695.744066 13.400682 695.940659 13.278542 696.137253 13.156405 696.333846 13.034272 696.530440 12.912141 696.727033 12.790014 696.923626 12.667889 697.120220 12.545768 697.316813 12.423648 697.513407 12.301532 697.710000 12.179418 697.906593 12.057306 698.103187 11.935196 698.299780 11.813088 698.496374 11.690983 698.692967 11.568879 698.889560 11.446777 699.086154 11.324677 699.282747 11.202578 699.479341 11.080481 699.675934 10.958385 699.872527 10.836290 700.069121 10.714196 700.265714 10.592104 700.462308 10.470012 700.658901 10.347921 700.855495 10.225830 701.052088 10.103741 701.248681 9.981651 701.445275 9.859562 701.641868 9.737473 701.838462 9.615385 701.838462 500.000000" /></g></g><g class="titles"><text class="title plot_title" x="500.0" y="26">United States Year: 1960 - 2016 AD</text></g><g class="plot overlay" transform="translate(264, 46)"><g class="series serie-0 color-0"><g class="dots"><circle class="dot reactive tooltip-trigger" cx="13.761538461538462" cy="490.384615385" r="2.5" /><desc class="value">180,671,000.0 People</desc><desc class="x top">13.761538461538462</desc><desc class="y top">490.384615385</desc><desc class="x_label">1960</desc></g><g class="dots"><circle class="dot reactive tooltip-trigger" cx="62.90989010989011" cy="452.525558489" r="2.5" /><desc class="value">191,889,000.0 People</desc><desc class="x top">62.90989010989011</desc><desc class="y top">452.525558489</desc><desc class="x_label">1964</desc></g><g class="dots"><circle class="dot reactive tooltip-trigger" cx="112.05824175824175" cy="422.769514217" r="2.5" /><desc class="value">200,706,000.0 People</desc><desc class="x top">112.05824175824175</desc><desc class="y top">422.769514217</desc><desc class="x_label">1968</desc></g><g class="dots"><circle class="dot reactive tooltip-trigger" cx="161.20659340659338" cy="391.754651241" r="2.5" /><desc class="value">209,896,000.0 People</desc><desc class="x top">161.20659340659338</desc><desc class="y top">391.754651241</desc><desc class="x_label">1972</desc></g><g class="dots"><circle class="dot reactive tooltip-trigger" cx="210.35494505494506" cy="364.28675464" r="2.5" /><desc class="value">218,035,000.0 People</desc><desc class="x top">210.35494505494506</desc><desc class="y top">364.28675464</desc><desc class="x_label">1976</desc></g><g class="dots"><circle class="dot reactive tooltip-trigger" cx="259.50329670329677" cy="333.271891664" r="2.5" /><desc class="value">227,225,000.0 People</desc><desc class="x top">259.50329670329677</desc><desc class="y top">333.271891664</desc><desc class="x_label">1980</desc></g><g class="dots"><circle class="dot reactive tooltip-trigger" cx="308.6516483516483" cy="304.24818964" r="2.5" /><desc class="value">235,825,000.0 People</desc><desc class="x top">308.6516483516483</desc><desc class="y top">304.24818964</desc><desc class="x_label">1984</desc></g><g class="dots"><circle class="dot reactive tooltip-trigger" cx="357.8" cy="274.974748785" r="2.5" /><desc class="value">244,499,000.0 People</desc><desc class="x top">357.8</desc><desc class="y top">274.974748785</desc><desc class="x_label">1988</desc></g><g class="dots"><circle class="dot reactive tooltip-trigger" cx="406.94835164835166" cy="234.425937179" r="2.5" /><desc class="value">256,514,000.0 People</desc><desc class="x left">406.94835164835166</desc><desc class="y left">234.425937179</desc><desc class="x_label">1992</desc></g><g class="dots"><circle class="dot reactive tooltip-trigger" cx="456.0967032967033" cy="190.957881125" r="2.5" /><desc class="value">269,394,000.0 People</desc><desc class="x left">456.0967032967033</desc><desc class="y left">190.957881125</desc><desc class="x_label">1996</desc></g><g class="dots"><circle class="dot reactive tooltip-trigger" cx="505.245054945055" cy="147.866421105" r="2.5" /><desc class="value">282,162,411.0 People</desc><desc class="x left">505.245054945055</desc><desc class="y left">147.866421105</desc><desc class="x_label">2000</desc></g><g class="dots"><circle class="dot reactive tooltip-trigger" cx="554.3934065934066" cy="111.948283784" r="2.5" /><desc class="value">292,805,298.0 People</desc><desc class="x left">554.3934065934066</desc><desc class="y left">111.948283784</desc><desc class="x_label">2004</desc></g><g class="dots"><circle class="dot reactive tooltip-trigger" cx="603.5417582417582" cy="73.8507330547" r="2.5" /><desc class="value">304,093,966.0 People</desc><desc class="x left">603.5417582417582</desc><desc class="y left">73.8507330547</desc><desc class="x_label">2008</desc></g><g class="dots"><circle class="dot reactive tooltip-trigger" cx="652.69010989011" cy="40.424834028" r="2.5" /><desc class="value">313,998,379.0 People</desc><desc class="x left">652.69010989011</desc><desc class="y left">40.424834028</desc><desc class="x_label">2012</desc></g><g class="dots"><circle class="dot reactive tooltip-trigger" cx="701.8384615384615" cy="9.61538461538" r="2.5" /><desc class="value">323,127,513.0 People</desc><desc class="x left">701.8384615384615</desc><desc class="y left">9.61538461538</desc><desc class="x_label">2016</desc></g></g></g><g class="plot text-overlay" transform="translate(264, 46)"><g class="series serie-0 color-0" /></g><g class="plot tooltip-overlay" transform="translate(264, 46)"><g class="tooltip" style="opacity: 0" transform="translate(0 0)"><rect class="tooltip-box" height="0" rx="0" ry="0" width="0" /><g class="text" /></g></g><g class="legends" transform="translate(10, 56)"><g class="legend reactive activate-serie" id="activate-serie-0"><rect class="color-0 reactive" height="12" width="12" x="0.0" y="1.0" /><text x="17.0" y="11.2">Populations</text></g></g><g class="legends" transform="translate(990, 56)" /></g></svg>