<?xml version='1.0' encoding='utf-8'?>
<svg xmlns:xlink="http://www.w3.org/1999/xlink" class="pygal-chart" id="chart-bff0213e-70fc-4948-8b3c-b5f3ac6b3b46" viewBox="0 0 1000 600" xmlns="http://www.w3.org/2000/svg"><!--Generated with pygal 2.4.0 (etree) ©Kozea 2012-2016 on 2017-11-18--><!--http://pygal.org--><!--http://github.com/Kozea/pygal--><defs><style type="text/css">#chart-bff0213e-70fc-4948-8b3c-b5f3ac6b3b46{-webkit-user-select:none;-webkit-font-smoothing:antialiased;font-family:Consolas,"Liberation Mono",Menlo,Courier,monospace}#chart-bff0213e-70fc-4948-8b3c-b5f3ac6b3b46 .title{font-family:Consolas,"Liberation Mono",Menlo,Courier,monospace;font-size:16px}#chart-bff0213e-70fc-4948-8b3c-b5f3ac6b3b46 .legends .legend text{font-family:Consolas,"Liberation Mono",Menlo,Courier,monospace;font-size:14px}#chart-bff0213e-70fc-4948-8b3c-b5f3ac6b3b46 .axis text{font-family:Consolas,"Liberation Mono",Menlo,Courier,monospace;font-size:10px}#chart-bff0213e-70fc-4948-8b3c-b5f3ac6b3b46 .axis text.major{font-family:Consolas,"Liberation Mono",Menlo,Courier,monospace;font-size:10px}#chart-bff0213e-70fc-4948-8b3c-b5f3ac6b3b46 .text-overlay text.value{font-family:Consolas,"Liberation Mono",Menlo,Courier,monospace;font-size:16px}#chart-bff0213e-70fc-4948-8b3c-b5f3ac6b3b46 .text-overlay text.label{font-family:Consolas,"Liberation Mono",Menlo,Courier,monospace;font-size:10px}#chart-bff0213e-70fc-4948-8b3c-b5f3ac6b3b46 .tooltip{font-family:Consolas,"Liberation Mono",Menlo,Courier,monospace;font-size:14px}#chart-bff0213e-70fc-4948-8b3c-b5f3ac6b3b46 text.no_data{font-family:Consolas,"Liberation Mono",Menlo,Courier,monospace;font-size:64px}
#chart-bff0213e-70fc-4948-8b3c-b5f3ac6b3b46{background-color:transparent}#chart-bff0213e-70fc-4948-8b3c-b5f3ac6b3b46 path,#chart-bff0213e-70fc-4948-8b3c-b5f3ac6b3b46 line,#chart-bff0213e-70fc-4948-8b3c-b5f3ac6b3b46 rect,#chart-bff0213e-70fc-4948-8b3c-b5f3ac6b3b46 circle{-webkit-transition:1s ease-out;-moz-transition:1s ease-out;transition:1s ease-out}#chart-bff0213e-70fc-4948-8b3c-b5f3ac6b3b46 .graph &gt; .background{fill:transparent}#chart-bff0213e-70fc-4948-8b3c-b5f3ac6b3b46 .plot &gt; .background{fill:#111}#chart-bff0213e-70fc-4948-8b3c-b5f3ac6b3b46 .graph{fill:#999}#chart-bff0213e-70fc-4948-8b3c-b5f3ac6b3b46 text.no_data{fill:#eee}#chart-bff0213e-70fc-4948-8b3c-b5f3ac6b3b46 .title{fill:#eee}#chart-bff0213e-70fc-4948-8b3c-b5f3ac6b3b46 .legends .legend text{fill:#999}#chart-bff0213e-70fc-4948-8b3c-b5f3ac6b3b46 .legends .legend:hover text{fill:#eee}#chart-bff0213e-70fc-4948-8b3c-b5f3ac6b3b46 .axis .line{stroke:#eee}#chart-bff0213e-70fc-4948-8b3c-b5f3ac6b3b46 .axis .guide.line{stroke:#555}#chart-bff0213e-70fc-4948-8b3c-b5f3ac6b3b46 .axis .major.line{stroke:#999}#chart-bff0213e-70fc-4948-8b3c-b5f3ac6b3b46 .axis text.major{fill:#eee}#chart-bff0213e-70fc-4948-8b3c-b5f3ac6b3b46 .axis.y .guides:hover .guide.line,#chart-bff0213e-70fc-4948-8b3c-b5f3ac6b3b46 .line-graph .axis.x .guides:hover .guide.line,#chart-bff0213e-70fc-4948-8b3c-b5f3ac6b3b46 .stackedline-graph .axis.x .guides:hover .guide.line,#chart-bff0213e-70fc-4948-8b3c-b5f3ac6b3b46 .xy-graph .axis.x .guides:hover .guide.line{stroke:#eee}#chart-bff0213e-70fc-4948-8b3c-b5f3ac6b3b46 .axis .guides:hover text{fill:#eee}#chart-bff0213e-70fc-4948-8b3c-b5f3ac6b3b46 .reactive{fill-opacity:.1;stroke-opacity:.8}#chart-bff0213e-70fc-4948-8b3c-b5f3ac6b3b46 .ci{stroke:#999}#chart-bff0213e-70fc-4948-8b3c-b5f3ac6b3b46 .reactive.active,#chart-bff0213e-70fc-4948-8b3c-b5f3ac6b3b46 .active .reactive{fill-opacity:.75;stroke-opacity:.9;stroke-width:4}#chart-bff0213e-70fc-4948-8b3c-b5f3ac6b3b46 .ci .reactive.active{stroke-width:1.5}#chart-bff0213e-70fc-4948-8b3c-b5f3ac6b3b46 .series text{fill:#eee}#chart-bff0213e-70fc-4948-8b3c-b5f3ac6b3b46 .tooltip rect{fill:#111;stroke:#eee;-webkit-transition:opacity 1s ease-out;-moz-transition:opacity 1s ease-out;transition:opacity 1s ease-out}#chart-bff0213e-70fc-4948-8b3c-b5f3ac6b3b46 .tooltip .label{fill:#999}#chart-bff0213e-70fc-4948-8b3c-b5f3ac6b3b46 .tooltip .label{fill:#999}#chart-bff0213e-70fc-4948-8b3c-b5f3ac6b3b46 .tooltip .legend{font-size:.8em;fill:#555}#chart-bff0213e-70fc-4948-8b3c-b5f3ac6b3b46 .tooltip .x_label{font-size:.6em;fill:#eee}#chart-bff0213e-70fc-4948-8b3c-b5f3ac6b3b46 .tooltip .xlink{font-size:.5em;text-decoration:underline}#chart-bff0213e-70fc-4948-8b3c-b5f3ac6b3b46 .tooltip .value{font-size:1.5em}#chart-bff0213e-70fc-4948-8b3c-b5f3ac6b3b46 .bound{font-size:.5em}#chart-bff0213e-70fc-4948-8b3c-b5f3ac6b3b46 .max-value{font-size:.75em;fill:#555}#chart-bff0213e-70fc-4948-8b3c-b5f3ac6b3b46 .map-element{fill:#111;stroke:#555 !important}#chart-bff0213e-70fc-4948-8b3c-b5f3ac6b3b46 .map-element .reactive{fill-opacity:inherit;stroke-opacity:inherit}#chart-bff0213e-70fc-4948-8b3c-b5f3ac6b3b46 .color-0,#chart-bff0213e-70fc-4948-8b3c-b5f3ac6b3b46 .color-0 a:visited{stroke:#0000FF;fill:#0000FF}#chart-bff0213e-70fc-4948-8b3c-b5f3ac6b3b46 .text-overlay .color-0 text{fill:black}
#chart-bff0213e-70fc-4948-8b3c-b5f3ac6b3b46 text.no_data{text-anchor:middle}#chart-bff0213e-70fc-4948-8b3c-b5f3ac6b3b46 .guide.line{fill:none}#chart-bff0213e-70fc-4948-8b3c-b5f3ac6b3b46 .centered{text-anchor:middle}#chart-bff0213e-70fc-4948-8b3c-b5f3ac6b3b46 .title{text-anchor:middle}#chart-bff0213e-70fc-4948-8b3c-b5f3ac6b3b46 .legends .legend text{fill-opacity:1}#chart-bff0213e-70fc-4948-8b3c-b5f3ac6b3b46 .axis.x text{text-anchor:middle}#chart-bff0213e-70fc-4948-8b3c-b5f3ac6b3b46 .axis.x:not(.web) text[transform]{text-anchor:start}#chart-bff0213e-70fc-4948-8b3c-b5f3ac6b3b46 .axis.x:not(.web) text[transform].backwards{text-anchor:end}#chart-bff0213e-70fc-4948-8b3c-b5f3ac6b3b46 .axis.y text{text-anchor:end}#chart-bff0213e-70fc-4948-8b3c-b5f3ac6b3b46 .axis.y text[transform].backwards{text-anchor:start}#chart-bff0213e-70fc-4948-8b3c-b5f3ac6b3b46 .axis.y2 text{text-anchor:start}#chart-bff0213e-70fc-4948-8b3c-b5f3ac6b3b46 .axis.y2 text[transform].backwards{text-anchor:end}#chart-bff0213e-70fc-4948-8b3c-b5f3ac6b3b46 .axis .guide.line{stroke-dasharray:4,4}#chart-bff0213e-70fc-4948-8b3c-b5f3ac6b3b46 .axis .major.guide.line{stroke-dasharray:6,6}#chart-bff0213e-70fc-4948-8b3c-b5f3ac6b3b46 .horizontal .axis.y .guide.line,#chart-bff0213e-70fc-4948-8b3c-b5f3ac6b3b46 .horizontal .axis.y2 .guide.line,#chart-bff0213e-70fc-4948-8b3c-b5f3ac6b3b46 .vertical .axis.x .guide.line{opacity:0}#chart-bff0213e-70fc-4948-8b3c-b5f3ac6b3b46 .horizontal .axis.always_show .guide.line,#chart-bff0213e-70fc-4948-8b3c-b5f3ac6b3b46 .vertical .axis.always_show .guide.line{opacity:1 !important}#chart-bff0213e-70fc-4948-8b3c-b5f3ac6b3b46 .axis.y .guides:hover .guide.line,#chart-bff0213e-70fc-4948-8b3c-b5f3ac6b3b46 .axis.y2 .guides:hover .guide.line,#chart-bff0213e-70fc-4948-8b3c-b5f3ac6b3b46 .axis.x .guides:hover .guide.line{opacity:1}#chart-bff0213e-70fc-4948-8b3c-b5f3ac6b3b46 .axis .guides:hover text{opacity:1}#chart-bff0213e-70fc-4948-8b3c-b5f3ac6b3b46 .nofill{fill:none}#chart-bff0213e-70fc-4948-8b3c-b5f3ac6b3b46 .subtle-fill{fill-opacity:.2}#chart-bff0213e-70fc-4948-8b3c-b5f3ac6b3b46 .dot{stroke-width:1px;fill-opacity:1}#chart-bff0213e-70fc-4948-8b3c-b5f3ac6b3b46 .dot.active{stroke-width:5px}#chart-bff0213e-70fc-4948-8b3c-b5f3ac6b3b46 .dot.negative{fill:transparent}#chart-bff0213e-70fc-4948-8b3c-b5f3ac6b3b46 text,#chart-bff0213e-70fc-4948-8b3c-b5f3ac6b3b46 tspan{stroke:none !important}#chart-bff0213e-70fc-4948-8b3c-b5f3ac6b3b46 .series text.active{opacity:1}#chart-bff0213e-70fc-4948-8b3c-b5f3ac6b3b46 .tooltip rect{fill-opacity:.95;stroke-width:.5}#chart-bff0213e-70fc-4948-8b3c-b5f3ac6b3b46 .tooltip text{fill-opacity:1}#chart-bff0213e-70fc-4948-8b3c-b5f3ac6b3b46 .showable{visibility:hidden}#chart-bff0213e-70fc-4948-8b3c-b5f3ac6b3b46 .showable.shown{visibility:visible}#chart-bff0213e-70fc-4948-8b3c-b5f3ac6b3b46 .gauge-background{fill:rgba(229,229,229,1);stroke:none}#chart-bff0213e-70fc-4948-8b3c-b5f3ac6b3b46 .bg-lines{stroke:transparent;stroke-width:2px}</style><script type="text/javascript">window.pygal = window.pygal || {};window.pygal.config = window.pygal.config || {};window.pygal.config['bff0213e-70fc-4948-8b3c-b5f3ac6b3b46'] = {"allow_interruptions": false, "box_mode": "extremes", "classes": ["pygal-chart"], "css": ["file://style.css", "file://graph.css"], "defs": [], "disable_xml_declaration": false, "dots_size": 2.5, "dynamic_print_values": false, "explicit_size": false, "fill": true, "force_uri_protocol": "https", "formatter": null, "half_pie": false, "height": 600, "include_x_axis": false, "inner_radius": 0, "interpolate": "cubic", "interpolation_parameters": {}, "interpolation_precision": 250, "inverse_y_axis": false, "js": ["//kozea.github.io/pygal.js/2.0.x/pygal-tooltips.min.js"], "legend_at_bottom": false, "legend_at_bottom_columns": null, "legend_box_size": 12, "logarithmic": false, "margin": 20, "margin_bottom": null, "margin_left": null, "margin_right": null, "margin_top": null, "max_scale": 16, "min_scale": 4, "missing_value_fill_truncation": "x", "no_data_text": "No data", "no_prefix": false, "order_min": null, "pretty_print": false, "print_labels": false, "print_values": false, "print_values_position": "center", "print_zeroes": true, "range": null, "rounded_bars": null, "secondary_range": null, "show_dots": true, "show_legend": true, "show_minor_x_labels": true, "show_minor_y_labels": true, "show_only_major_dots": false, "show_x_guides": false, "show_x_labels": true, "show_y_guides": true, "show_y_labels": true, "spacing": 10, "stack_from_top": false, "strict": false, "stroke": true, "stroke_style": null, "style": {"background": "transparent", "ci_colors": [], "colors": ["#0000FF", "#FF0000"], "font_family": "Consolas, \"Liberation Mono\", Menlo, Courier, monospace", "foreground": "#999", "foreground_strong": "#eee", "foreground_subtle": "#555", "guide_stroke_dasharray": "4,4", "label_font_family": "Consolas, \"Liberation Mono\", Menlo, Courier, monospace", "label_font_size": 10, "legend_font_family": "Consolas, \"Liberation Mono\", Menlo, Courier, monospace", "legend_font_size": 14, "major_guide_stroke_dasharray": "6,6", "major_label_font_family": "Consolas, \"Liberation Mono\", Menlo, Courier, monospace", "major_label_font_size": 10, "no_data_font_family": "Consolas, \"Liberation Mono\", Menlo, Courier, monospace", "no_data_font_size": 64, "opacity": ".1", "opacity_hover": ".75", "plot_background": "#111", "stroke_opacity": ".8", "stroke_opacity_hover": ".9", "title_font_family": "Consolas, \"Liberation Mono\", Menlo, Courier, monospace", "title_font_size": 16, "tooltip_font_family": "Consolas, \"Liberation Mono\", Menlo, Courier, monospace", "tooltip_font_size": 14, "transition": "1s ease-out", "value_background": "rgba(229, 229, 229, 1)", "value_colors": [], "value_font_family": "Consolas, \"Liberation Mono\", Menlo, Courier, monospace", "value_font_size": 16, "value_label_font_family": "Consolas, \"Liberation Mono\", Menlo, Courier, monospace", "value_label_font_size": 10}, "title": "China Year: 1960 - 2016 AD", "tooltip_border_radius": 0, "tooltip_fancy_mode": true, "truncate_label": null, "truncate_legend": null, "width": 1000, "x_label_rotation": 90, "x_labels": ["1960", "1964", "1968", "1972", "1976", "1980", "1984", "1988", "1992", "1996", "2000", "2004", "2008", "2012", "2016"], "x_labels_major": null, "x_labels_major_count": null, "x_labels_major_every": null, "x_title": null, "xrange": null, "y_label_rotation": 0, "y_labels": null, "y_labels_major": null, "y_labels_major_count": null, "y_labels_major_every": null, "y_title": null, "zero": 0, "legends": ["Populations"]}</script><script type="text/javascript" xlink:href="https://kozea.github.io/pygal.js/2.0.x/pygal-tooltips.min.js" /></defs><title>China Year: 1960 - 2016 AD</title><g class="graph line-graph vertical"><rect class="background" height="600" width="1000" x="0" y="0" /><g class="plot" transform="translate(276, 46)"><rect class="background" height="500.0" width="703.6" x="0" y="0" /><g class="axis y always_show"><path class="line" d="M0.000000 500.000000 h703.600000" /><g class="guides"><path class="guide line" d="M0.000000 468.136383 h703.600000" /><text class="" x="-5" y="471.636383217">700,000,000.0 People</text><title>700,000,000.0 People</title></g><g class="guides"><path class="guide line" d="M0.000000 400.574184 h703.600000" /><text class="" x="-5" y="404.074184105">800,000,000.0 People</text><title>800,000,000.0 People</title></g><g class="guides"><path class="guide line" d="M0.000000 333.011985 h703.600000" /><text class="" x="-5" y="336.511984994">900,000,000.0 People</text><title>900,000,000.0 People</title></g><g class="guides"><path class="major guide line" d="M0.000000 265.449786 h703.600000" /><text class="major" x="-5" y="268.949785882">1,000,000,000.0 People</text><title>1,000,000,000.0 People</title></g><g class="guides"><path class="guide line" d="M0.000000 197.887587 h703.600000" /><text class="" x="-5" y="201.38758677">1,100,000,000.0 People</text><title>1,100,000,000.0 People</title></g><g class="guides"><path class="guide line" d="M0.000000 130.325388 h703.600000" /><text class="" x="-5" y="133.825387658">1,200,000,000.0 People</text><title>1,200,000,000.0 People</title></g><g class="guides"><path class="guide line" d="M0.000000 62.763189 h703.600000" /><text class="" x="-5" y="66.2631885466">1,300,000,000.0 People</text><title>1,300,000,000.0 People</title></g></g><g class="axis x"><g class="guides"><path class="line" d="M13.530769 0.000000 v500.000000" /><text class="" transform="rotate(90 13.530769 515.000000)" x="13.53076923076923" y="515.0">1960</text></g><g class="guides"><path class="guide line" d="M61.854945 0.000000 v500.000000" /><text class="" transform="rotate(90 61.854945 515.000000)" x="61.85494505494505" y="515.0">1964</text></g><g class="guides"><path class="guide line" d="M110.179121 0.000000 v500.000000" /><text class="" transform="rotate(90 110.179121 515.000000)" x="110.17912087912087" y="515.0">1968</text></g><g class="guides"><path class="guide line" d="M158.503297 0.000000 v500.000000" /><text class="" transform="rotate(90 158.503297 515.000000)" x="158.5032967032967" y="515.0">1972</text></g><g class="guides"><path class="guide line" d="M206.827473 0.000000 v500.000000" /><text class="" transform="rotate(90 206.827473 515.000000)" x="206.82747252747254" y="515.0">1976</text></g><g class="guides"><path class="guide line" d="M255.151648 0.000000 v500.000000" /><text class="" transform="rotate(90 255.151648 515.000000)" x="255.1516483516484" y="515.0">1980</text></g><g class="guides"><path class="guide line" d="M303.475824 0.000000 v500.000000" /><text class="" transform="rotate(90 303.475824 515.000000)" x="303.4758241758242" y="515.0">1984</text></g><g class="guides"><path class="guide line" d="M351.800000 0.000000 v500.000000" /><text class="" transform="rotate(90 351.800000 515.000000)" x="351.8" y="515.0">1988</text></g><g class="guides"><path class="guide line" d="M400.124176 0.000000 v500.000000" /><text class="" transform="rotate(90 400.124176 515.000000)" x="400.12417582417584" y="515.0">1992</text></g><g class="guides"><path class="guide line" d="M448.448352 0.000000 v500.000000" /><text class="" transform="rotate(90 448.448352 515.000000)" x="448.44835164835166" y="515.0">1996</text></g><g class="guides"><path class="guide line" d="M496.772527 0.000000 v500.000000" /><text class="" transform="rotate(90 496.772527 515.000000)" x="496.77252747252743" y="515.0">2000</text></g><g class="guides"><path class="guide line" d="M545.096703 0.000000 v500.000000" /><text class="" transform="rotate(90 545.096703 515.000000)" x="545.0967032967033" y="515.0">2004</text></g><g class="guides"><path class="guide line" d="M593.420879 0.000000 v500.000000" /><text class="" transform="rotate(90 593.420879 515.000000)" x="593.4208791208791" y="515.0">2008</text></g><g class="guides"><path class="guide line" d="M641.745055 0.000000 v500.000000" /><text class="" transform="rotate(90 641.745055 515.000000)" x="641.7450549450549" y="515.0">2012</text></g><g class="guides"><path class="guide line" d="M690.069231 0.000000 v500.000000" /><text class="" transform="rotate(90 690.069231 515.000000)" x="690.0692307692308" y="515.0">2016</text></g></g><g class="series serie-0 color-0"><path class="line reactive" d="M13.530769 500.000000 L13.530769 490.384615 13.724066 490.329635 13.917363 490.274653 14.110659 490.219664 14.303956 490.164667 14.497253 490.109659 14.690549 490.054636 14.883846 489.999597 15.077143 489.944537 15.270440 489.889455 15.463736 489.834347 15.657033 489.779211 15.850330 489.724044 16.043626 489.668843 16.236923 489.613604 16.430220 489.558326 16.623516 489.503006 16.816813 489.447640 17.010110 489.392226 17.203407 489.336760 17.396703 489.281241 17.590000 489.225665 17.783297 489.170029 17.976593 489.114331 18.169890 489.058568 18.363187 489.002736 18.556484 488.946834 18.749780 488.890857 18.943077 488.834805 19.136374 488.778672 19.329670 488.722457 19.522967 488.666158 19.716264 488.609770 19.909560 488.553291 20.102857 488.496719 20.296154 488.440050 20.489451 488.383282 20.682747 488.326411 20.876044 488.269436 21.069341 488.212352 21.262637 488.155158 21.455934 488.097851 21.649231 488.040427 21.842527 487.982884 22.035824 487.925219 22.229121 487.867428 22.422418 487.809511 22.615714 487.751462 22.809011 487.693280 23.002308 487.634962 23.195604 487.576505 23.388901 487.517906 23.582198 487.459162 23.775495 487.400271 23.968791 487.341229 24.162088 487.282034 24.355385 487.222683 24.548681 487.163172 24.741978 487.103500 24.935275 487.043664 25.128571 486.983660 25.321868 486.923485 25.515165 486.863138 25.708462 486.802614 25.901758 486.741912 26.095055 486.681028 26.288352 486.619959 26.481648 486.558703 26.674945 486.497257 26.868242 486.435618 27.061538 486.373783 27.254835 486.311749 27.448132 486.249514 27.641429 486.187074 27.834725 486.124428 28.028022 486.061571 28.221319 485.998501 28.414615 485.935216 28.607912 485.871712 28.801209 485.807986 28.994505 485.744037 29.187802 485.679860 29.381099 485.615453 29.574396 485.550814 29.767692 485.485939 29.960989 485.420825 30.154286 485.355470 30.347582 485.289872 30.540879 485.224026 30.734176 485.157930 30.927473 485.091582 31.120769 485.024978 31.314066 484.958116 31.507363 484.890993 31.700659 484.823606 31.893956 484.755952 32.087253 484.688029 32.280549 484.619833 32.473846 484.551361 32.667143 484.482612 32.860440 484.413581 33.053736 484.344267 33.247033 484.274665 33.440330 484.204775 33.633626 484.134592 33.826923 484.064113 34.020220 483.993337 34.213516 483.922260 34.406813 483.850879 34.600110 483.779192 34.793407 483.707195 34.986703 483.634886 35.180000 483.562262 35.373297 483.489319 35.566593 483.416057 35.759890 483.342470 35.953187 483.268557 36.146484 483.194315 36.339780 483.119741 36.533077 483.044832 36.726374 482.969585 36.919670 482.893997 37.112967 482.818066 37.306264 482.741789 37.499560 482.665163 37.692857 482.588184 37.886154 482.510851 38.079451 482.433160 38.272747 482.355109 38.466044 482.276694 38.659341 482.197913 38.852637 482.118763 39.045934 482.039241 39.239231 481.959345 39.432527 481.879071 39.625824 481.798417 39.819121 481.717379 40.012418 481.635955 40.205714 481.554143 40.399011 481.471939 40.592308 481.389340 40.785604 481.306344 40.978901 481.222948 41.172198 481.139148 41.365495 481.054943 41.558791 480.970329 41.752088 480.885303 41.945385 480.799863 42.138681 480.714006 42.331978 480.627729 42.525275 480.541028 42.718571 480.453902 42.911868 480.366347 43.105165 480.278361 43.298462 480.189941 43.491758 480.101083 43.685055 480.011786 43.878352 479.922045 44.071648 479.831859 44.264945 479.741225 44.458242 479.650139 44.651538 479.558599 44.844835 479.466602 45.038132 479.374145 45.231429 479.281225 45.424725 479.187840 45.618022 479.093987 45.811319 478.999662 46.004615 478.904864 46.197912 478.809588 46.391209 478.713833 46.584505 478.617595 46.777802 478.520872 46.971099 478.423661 47.164396 478.325958 47.357692 478.227762 47.550989 478.129069 47.744286 478.029876 47.937582 477.930181 48.130879 477.829981 48.324176 477.729272 48.517473 477.628053 48.710769 477.526320 48.904066 477.424070 49.097363 477.321301 49.290659 477.218010 49.483956 477.114193 49.677253 477.009849 49.870549 476.904973 50.063846 476.799564 50.257143 476.693619 50.450440 476.587134 50.643736 476.480107 50.837033 476.372535 51.030330 476.264415 51.223626 476.155745 51.416923 476.046521 51.610220 475.936741 51.803516 475.826401 51.996813 475.715500 52.190110 475.604033 52.383407 475.491999 52.576703 475.379395 52.770000 475.266217 52.963297 475.152462 53.156593 475.038129 53.349890 474.923214 53.543187 474.807714 53.736484 474.691626 53.929780 474.574949 54.123077 474.457677 54.316374 474.339810 54.509670 474.221344 54.702967 474.102276 54.896264 473.982604 55.089560 473.862324 55.282857 473.741433 55.476154 473.619930 55.669451 473.497811 55.862747 473.375073 56.056044 473.251713 56.249341 473.127729 56.442637 473.003117 56.635934 472.877875 56.829231 472.752001 57.022527 472.625490 57.215824 472.498341 57.409121 472.370550 57.602418 472.242115 57.795714 472.113033 57.989011 471.983301 58.182308 471.852916 58.375604 471.721875 58.568901 471.590176 58.762198 471.457815 58.955495 471.324790 59.148791 471.191098 59.342088 471.056737 59.535385 470.921702 59.728681 470.785992 59.921978 470.649603 60.115275 470.512534 60.308571 470.374780 60.501868 470.236339 60.695165 470.097208 60.888462 469.957385 61.081758 469.816867 61.275055 469.675650 61.468352 469.533732 61.661648 469.391110 61.854945 469.247781 62.048242 469.103744 62.241538 468.958999 62.434835 468.813550 62.628132 468.667399 62.821429 468.520549 63.014725 468.373002 63.208022 468.224760 63.401319 468.075827 63.594615 467.926204 63.787912 467.775895 63.981209 467.624902 64.174505 467.473227 64.367802 467.320873 64.561099 467.167842 64.754396 467.014138 64.947692 466.859762 65.140989 466.704718 65.334286 466.549007 65.527582 466.392633 65.720879 466.235597 65.914176 466.077903 66.107473 465.919553 66.300769 465.760549 66.494066 465.600894 66.687363 465.440591 66.880659 465.279643 67.073956 465.118050 67.267253 464.955817 67.460549 464.792946 67.653846 464.629440 67.847143 464.465300 68.040440 464.300530 68.233736 464.135131 68.427033 463.969107 68.620330 463.802461 68.813626 463.635194 69.006923 463.467309 69.200220 463.298809 69.393516 463.129697 69.586813 462.959974 69.780110 462.789644 69.973407 462.618708 70.166703 462.447171 70.360000 462.275033 70.553297 462.102298 70.746593 461.928968 70.939890 461.755046 71.133187 461.580534 71.326484 461.405435 71.519780 461.229752 71.713077 461.053486 71.906374 460.876641 72.099670 460.699219 72.292967 460.521222 72.486264 460.342654 72.679560 460.163516 72.872857 459.983812 73.066154 459.803544 73.259451 459.622713 73.452747 459.441324 73.646044 459.259378 73.839341 459.076879 74.032637 458.893827 74.225934 458.710227 74.419231 458.526081 74.612527 458.341391 74.805824 458.156159 74.999121 457.970389 75.192418 457.784083 75.385714 457.597243 75.579011 457.409872 75.772308 457.221973 75.965604 457.033548 76.158901 456.844599 76.352198 456.655130 76.545495 456.465142 76.738791 456.274639 76.932088 456.083622 77.125385 455.892095 77.318681 455.700060 77.511978 455.507519 77.705275 455.314476 77.898571 455.120932 78.091868 454.926890 78.285165 454.732353 78.478462 454.537323 78.671758 454.341803 78.865055 454.145795 79.058352 453.949302 79.251648 453.752327 79.444945 453.554871 79.638242 453.356938 79.831538 453.158531 80.024835 452.959651 80.218132 452.760301 80.411429 452.560484 80.604725 452.360202 80.798022 452.159458 80.991319 451.958255 81.184615 451.756594 81.377912 451.554479 81.571209 451.351912 81.764505 451.148896 81.957802 450.945433 82.151099 450.741526 82.344396 450.537177 82.537692 450.332389 82.730989 450.127164 82.924286 449.921505 83.117582 449.715414 83.310879 449.508895 83.504176 449.301949 83.697473 449.094580 83.890769 448.886789 84.084066 448.678579 84.277363 448.469953 84.470659 448.260914 84.663956 448.051463 84.857253 447.841604 85.050549 447.631339 85.243846 447.420670 85.437143 447.209601 85.630440 446.998133 85.823736 446.786269 86.017033 446.574012 86.210330 446.361365 86.403626 446.148329 86.596923 445.934908 86.790220 445.721104 86.983516 445.506919 87.176813 445.292356 87.370110 445.077418 87.563407 444.862107 87.756703 444.646426 87.950000 444.430377 88.143297 444.213963 88.336593 443.997186 88.529890 443.780050 88.723187 443.562555 88.916484 443.344706 89.109780 443.126505 89.303077 442.907953 89.496374 442.689054 89.689670 442.469811 89.882967 442.250225 90.076264 442.030300 90.269560 441.810037 90.462857 441.589440 90.656154 441.368511 90.849451 441.147252 91.042747 440.925667 91.236044 440.703757 91.429341 440.481526 91.622637 440.258975 91.815934 440.036107 92.009231 439.812926 92.202527 439.589433 92.395824 439.365630 92.589121 439.141522 92.782418 438.917109 92.975714 438.692395 93.169011 438.467382 93.362308 438.242073 93.555604 438.016470 93.748901 437.790576 93.942198 437.564393 94.135495 437.337925 94.328791 437.111172 94.522088 436.884139 94.715385 436.656827 94.908681 436.429240 95.101978 436.201379 95.295275 435.973247 95.488571 435.744848 95.681868 435.516182 95.875165 435.287254 96.068462 435.058064 96.261758 434.828617 96.455055 434.598915 96.648352 434.368959 96.841648 434.138753 97.034945 433.908300 97.228242 433.677601 97.421538 433.446659 97.614835 433.215478 97.808132 432.984058 98.001429 432.752404 98.194725 432.520517 98.388022 432.288400 98.581319 432.056056 98.774615 431.823487 98.967912 431.590696 99.161209 431.357685 99.354505 431.124457 99.547802 430.891014 99.741099 430.657359 99.934396 430.423494 100.127692 430.189423 100.320989 429.955147 100.514286 429.720670 100.707582 429.485992 100.900879 429.251119 101.094176 429.016051 101.287473 428.780791 101.480769 428.545342 101.674066 428.309707 101.867363 428.073888 102.060659 427.837887 102.253956 427.601707 102.447253 427.365351 102.640549 427.128821 102.833846 426.892120 103.027143 426.655250 103.220440 426.418214 103.413736 426.181015 103.607033 425.943654 103.800330 425.706135 103.993626 425.468460 104.186923 425.230631 104.380220 424.992652 104.573516 424.754525 104.766813 424.516251 104.960110 424.277835 105.153407 424.039278 105.346703 423.800582 105.540000 423.561752 105.733297 423.322788 105.926593 423.083694 106.119890 422.844472 106.313187 422.605124 106.506484 422.365654 106.699780 422.126064 106.893077 421.886356 107.086374 421.646533 107.279670 421.406597 107.472967 421.166551 107.666264 420.926398 107.859560 420.686140 108.052857 420.445780 108.246154 420.205319 108.439451 419.964762 108.632747 419.724110 108.826044 419.483365 109.019341 419.242531 109.212637 419.001610 109.405934 418.760605 109.599231 418.519517 109.792527 418.278350 109.985824 418.037107 110.179121 417.795789 110.372418 417.554399 110.565714 417.312938 110.759011 417.071409 110.952308 416.829812 111.145604 416.588148 111.338901 416.346419 111.532198 416.104627 111.725495 415.862772 111.918791 415.620855 112.112088 415.378879 112.305385 415.136845 112.498681 414.894753 112.691978 414.652606 112.885275 414.410404 113.078571 414.168148 113.271868 413.925841 113.465165 413.683484 113.658462 413.441077 113.851758 413.198622 114.045055 412.956121 114.238352 412.713574 114.431648 412.470983 114.624945 412.228350 114.818242 411.985676 115.011538 411.742962 115.204835 411.500209 115.398132 411.257419 115.591429 411.014592 115.784725 410.771731 115.978022 410.528837 116.171319 410.285911 116.364615 410.042954 116.557912 409.799968 116.751209 409.556954 116.944505 409.313913 117.137802 409.070847 117.331099 408.827756 117.524396 408.584643 117.717692 408.341509 117.910989 408.098354 118.104286 407.855181 118.297582 407.611990 118.490879 407.368784 118.684176 407.125562 118.877473 406.882327 119.070769 406.639080 119.264066 406.395822 119.457363 406.152554 119.650659 405.909279 119.843956 405.665997 120.037253 405.422709 120.230549 405.179417 120.423846 404.936122 120.617143 404.692825 120.810440 404.449529 121.003736 404.206233 121.197033 403.962940 121.390330 403.719651 121.583626 403.476366 121.776923 403.233089 121.970220 402.989819 122.163516 402.746558 122.356813 402.503307 122.550110 402.260068 122.743407 402.016842 122.936703 401.773631 123.130000 401.530435 123.323297 401.287257 123.516593 401.044096 123.709890 400.800956 123.903187 400.557836 124.096484 400.314738 124.289780 400.071665 124.483077 399.828616 124.676374 399.585594 124.869670 399.342599 125.062967 399.099633 125.256264 398.856697 125.449560 398.613793 125.642857 398.370922 125.836154 398.128085 126.029451 397.885284 126.222747 397.642520 126.416044 397.399793 126.609341 397.157107 126.802637 396.914461 126.995934 396.671857 127.189231 396.429297 127.382527 396.186782 127.575824 395.944313 127.769121 395.701891 127.962418 395.459519 128.155714 395.217196 128.349011 394.974925 128.542308 394.732707 128.735604 394.490542 128.928901 394.248434 129.122198 394.006382 129.315495 393.764388 129.508791 393.522453 129.702088 393.280579 129.895385 393.038768 130.088681 392.797019 130.281978 392.555336 130.475275 392.313718 130.668571 392.072168 130.861868 391.830687 131.055165 391.589275 131.248462 391.347935 131.441758 391.106668 131.635055 390.865474 131.828352 390.624356 132.021648 390.383314 132.214945 390.142351 132.408242 389.901467 132.601538 389.660663 132.794835 389.419941 132.988132 389.179303 133.181429 388.938749 133.374725 388.698281 133.568022 388.457900 133.761319 388.217608 133.954615 387.977406 134.147912 387.737295 134.341209 387.497276 134.534505 387.257351 134.727802 387.017522 134.921099 386.777789 135.114396 386.538154 135.307692 386.298618 135.500989 386.059182 135.694286 385.819849 135.887582 385.580618 136.080879 385.341492 136.274176 385.102472 136.467473 384.863559 136.660769 384.624754 136.854066 384.386059 137.047363 384.147475 137.240659 383.909003 137.433956 383.670646 137.627253 383.432403 137.820549 383.194277 138.013846 382.956268 138.207143 382.718378 138.400440 382.480609 138.593736 382.242962 138.787033 382.005437 138.980330 381.768037 139.173626 381.530762 139.366923 381.293615 139.560220 381.056596 139.753516 380.819706 139.946813 380.582947 140.140110 380.346321 140.333407 380.109828 140.526703 379.873470 140.720000 379.637249 140.913297 379.401165 141.106593 379.165220 141.299890 378.929415 141.493187 378.693751 141.686484 378.458231 141.879780 378.222855 142.073077 377.987624 142.266374 377.752540 142.459670 377.517605 142.652967 377.282818 142.846264 377.048183 143.039560 376.813700 143.232857 376.579370 143.426154 376.345195 143.619451 376.111177 143.812747 375.877315 144.006044 375.643613 144.199341 375.410070 144.392637 375.176689 144.585934 374.943471 144.779231 374.710417 144.972527 374.477528 145.165824 374.244806 145.359121 374.012252 145.552418 373.779867 145.745714 373.547654 145.939011 373.315612 146.132308 373.083743 146.325604 372.852049 146.518901 372.620531 146.712198 372.389191 146.905495 372.158029 147.098791 371.927047 147.292088 371.696246 147.485385 371.465628 147.678681 371.235194 147.871978 371.004946 148.065275 370.774884 148.258571 370.545009 148.451868 370.315324 148.645165 370.085830 148.838462 369.856527 149.031758 369.627418 149.225055 369.398503 149.418352 369.169785 149.611648 368.941263 149.804945 368.712940 149.998242 368.484816 150.191538 368.256894 150.384835 368.029175 150.578132 367.801659 150.771429 367.574348 150.964725 367.347244 151.158022 367.120348 151.351319 366.893660 151.544615 366.667184 151.737912 366.440919 151.931209 366.214867 152.124505 365.989029 152.317802 365.763407 152.511099 365.538003 152.704396 365.312816 152.897692 365.087850 153.090989 364.863104 153.284286 364.638581 153.477582 364.414282 153.670879 364.190207 153.864176 363.966359 154.057473 363.742738 154.250769 363.519347 154.444066 363.296186 154.637363 363.073256 154.830659 362.850560 155.023956 362.628098 155.217253 362.405871 155.410549 362.183881 155.603846 361.962130 155.797143 361.740618 155.990440 361.519347 156.183736 361.298319 156.377033 361.077534 156.570330 360.856993 156.763626 360.636699 156.956923 360.416653 157.150220 360.196855 157.343516 359.977308 157.536813 359.758012 157.730110 359.538969 157.923407 359.320180 158.116703 359.101647 158.310000 358.883370 158.503297 358.665352 158.696593 358.447593 158.889890 358.230093 159.083187 358.012853 159.276484 357.795872 159.469780 357.579151 159.663077 357.362689 159.856374 357.146486 160.049670 356.930543 160.242967 356.714859 160.436264 356.499435 160.629560 356.284270 160.822857 356.069364 161.016154 355.854718 161.209451 355.640331 161.402747 355.426204 161.596044 355.212336 161.789341 354.998727 161.982637 354.785378 162.175934 354.572287 162.369231 354.359457 162.562527 354.146885 162.755824 353.934573 162.949121 353.722520 163.142418 353.510726 163.335714 353.299192 163.529011 353.087917 163.722308 352.876901 163.915604 352.666144 164.108901 352.455647 164.302198 352.245409 164.495495 352.035430 164.688791 351.825710 164.882088 351.616249 165.075385 351.407048 165.268681 351.198106 165.461978 350.989423 165.655275 350.780999 165.848571 350.572835 166.041868 350.364929 166.235165 350.157283 166.428462 349.949896 166.621758 349.742768 166.815055 349.535899 167.008352 349.329289 167.201648 349.122939 167.394945 348.916847 167.588242 348.711015 167.781538 348.505441 167.974835 348.300127 168.168132 348.095072 168.361429 347.890276 168.554725 347.685739 168.748022 347.481461 168.941319 347.277442 169.134615 347.073682 169.327912 346.870181 169.521209 346.666939 169.714505 346.463956 169.907802 346.261232 170.101099 346.058767 170.294396 345.856561 170.487692 345.654614 170.680989 345.452926 170.874286 345.251497 171.067582 345.050327 171.260879 344.849416 171.454176 344.648764 171.647473 344.448371 171.840769 344.248236 172.034066 344.048361 172.227363 343.848744 172.420659 343.649387 172.613956 343.450288 172.807253 343.251448 173.000549 343.052867 173.193846 342.854545 173.387143 342.656482 173.580440 342.458677 173.773736 342.261132 173.967033 342.063845 174.160330 341.866817 174.353626 341.670048 174.546923 341.473537 174.740220 341.277286 174.933516 341.081293 175.126813 340.885559 175.320110 340.690084 175.513407 340.494868 175.706703 340.299910 175.900000 340.105211 176.093297 339.910771 176.286593 339.716590 176.479890 339.522667 176.673187 339.329003 176.866484 339.135598 177.059780 338.942451 177.253077 338.749563 177.446374 338.556934 177.639670 338.364564 177.832967 338.172452 178.026264 337.980599 178.219560 337.789004 178.412857 337.597668 178.606154 337.406591 178.799451 337.215773 178.992747 337.025213 179.186044 336.834911 179.379341 336.644869 179.572637 336.455084 179.765934 336.265559 179.959231 336.076292 180.152527 335.887283 180.345824 335.698534 180.539121 335.510042 180.732418 335.321810 180.925714 335.133835 181.119011 334.946120 181.312308 334.758663 181.505604 334.571464 181.698901 334.384524 181.892198 334.197842 182.085495 334.011419 182.278791 333.825255 182.472088 333.639349 182.665385 333.453701 182.858681 333.268312 183.051978 333.083181 183.245275 332.898309 183.438571 332.713695 183.631868 332.529340 183.825165 332.345243 184.018462 332.161404 184.211758 331.977824 184.405055 331.794502 184.598352 331.611439 184.791648 331.428634 184.984945 331.246087 185.178242 331.063799 185.371538 330.881769 185.564835 330.699997 185.758132 330.518484 185.951429 330.337229 186.144725 330.156233 186.338022 329.975494 186.531319 329.795014 186.724615 329.614793 186.917912 329.434829 187.111209 329.255124 187.304505 329.075678 187.497802 328.896489 187.691099 328.717559 187.884396 328.538887 188.077692 328.360473 188.270989 328.182318 188.464286 328.004420 188.657582 327.826781 188.850879 327.649401 189.044176 327.472278 189.237473 327.295413 189.430769 327.118807 189.624066 326.942459 189.817363 326.766369 190.010659 326.590538 190.203956 326.414964 190.397253 326.239649 190.590549 326.064591 190.783846 325.889792 190.977143 325.715251 191.170440 325.540968 191.363736 325.366943 191.557033 325.193177 191.750330 325.019668 191.943626 324.846418 192.136923 324.673425 192.330220 324.500691 192.523516 324.328215 192.716813 324.155996 192.910110 323.984036 193.103407 323.812334 193.296703 323.640890 193.490000 323.469704 193.683297 323.298776 193.876593 323.128106 194.069890 322.957693 194.263187 322.787539 194.456484 322.617643 194.649780 322.448005 194.843077 322.278625 195.036374 322.109503 195.229670 321.940638 195.422967 321.772032 195.616264 321.603684 195.809560 321.435593 196.002857 321.267761 196.196154 321.100186 196.389451 320.932869 196.582747 320.765810 196.776044 320.599009 196.969341 320.432466 197.162637 320.266181 197.355934 320.100154 197.549231 319.934384 197.742527 319.768872 197.935824 319.603618 198.129121 319.438622 198.322418 319.273884 198.515714 319.109404 198.709011 318.945181 198.902308 318.781217 199.095604 318.617510 199.288901 318.454060 199.482198 318.290869 199.675495 318.127935 199.868791 317.965259 200.062088 317.802841 200.255385 317.640681 200.448681 317.478778 200.641978 317.317133 200.835275 317.155746 201.028571 316.994616 201.221868 316.833744 201.415165 316.673130 201.608462 316.512774 201.801758 316.352675 201.995055 316.192834 202.188352 316.033250 202.381648 315.873924 202.574945 315.714856 202.768242 315.556046 202.961538 315.397493 203.154835 315.239198 203.348132 315.081160 203.541429 314.923380 203.734725 314.765857 203.928022 314.608592 204.121319 314.451585 204.314615 314.294835 204.507912 314.138343 204.701209 313.982109 204.894505 313.826132 205.087802 313.670412 205.281099 313.514950 205.474396 313.359746 205.667692 313.204799 205.860989 313.050109 206.054286 312.895677 206.247582 312.741503 206.440879 312.587586 206.634176 312.433926 206.827473 312.280524 207.020769 312.127379 207.214066 311.974491 207.407363 311.821856 207.600659 311.669475 207.793956 311.517345 207.987253 311.365465 208.180549 311.213834 208.373846 311.062449 208.567143 310.911311 208.760440 310.760416 208.953736 310.609764 209.147033 310.459353 209.340330 310.309181 209.533626 310.159248 209.726923 310.009551 209.920220 309.860089 210.113516 309.710861 210.306813 309.561865 210.500110 309.413100 210.693407 309.264563 210.886703 309.116255 211.080000 308.968173 211.273297 308.820315 211.466593 308.672680 211.659890 308.525268 211.853187 308.378075 212.046484 308.231101 212.239780 308.084345 212.433077 307.937804 212.626374 307.791477 212.819670 307.645363 213.012967 307.499461 213.206264 307.353768 213.399560 307.208284 213.592857 307.063006 213.786154 306.917933 213.979451 306.773065 214.172747 306.628399 214.366044 306.483933 214.559341 306.339667 214.752637 306.195599 214.945934 306.051727 215.139231 305.908050 215.332527 305.764567 215.525824 305.621275 215.719121 305.478174 215.912418 305.335262 216.105714 305.192537 216.299011 305.049998 216.492308 304.907644 216.685604 304.765472 216.878901 304.623482 217.072198 304.481672 217.265495 304.340040 217.458791 304.198586 217.652088 304.057307 217.845385 303.916202 218.038681 303.775270 218.231978 303.634508 218.425275 303.493916 218.618571 303.353492 218.811868 303.213235 219.005165 303.073143 219.198462 302.933215 219.391758 302.793448 219.585055 302.653842 219.778352 302.514396 219.971648 302.375107 220.164945 302.235974 220.358242 302.096995 220.551538 301.958170 220.744835 301.819497 220.938132 301.680974 221.131429 301.542599 221.324725 301.404372 221.518022 301.266290 221.711319 301.128353 221.904615 300.990558 222.097912 300.852905 222.291209 300.715391 222.484505 300.578016 222.677802 300.440777 222.871099 300.303674 223.064396 300.166704 223.257692 300.029867 223.450989 299.893161 223.644286 299.756584 223.837582 299.620135 224.030879 299.483812 224.224176 299.347614 224.417473 299.211539 224.610769 299.075586 224.804066 298.939754 224.997363 298.804040 225.190659 298.668444 225.383956 298.532964 225.577253 298.397598 225.770549 298.262346 225.963846 298.127204 226.157143 297.992173 226.350440 297.857250 226.543736 297.722434 226.737033 297.587724 226.930330 297.453117 227.123626 297.318613 227.316923 297.184210 227.510220 297.049907 227.703516 296.915701 227.896813 296.781593 228.090110 296.647579 228.283407 296.513659 228.476703 296.379831 228.670000 296.246093 228.863297 296.112445 229.056593 295.978884 229.249890 295.845409 229.443187 295.712019 229.636484 295.578712 229.829780 295.445487 230.023077 295.312342 230.216374 295.179275 230.409670 295.046286 230.602967 294.913373 230.796264 294.780533 230.989560 294.647767 231.182857 294.515071 231.376154 294.382445 231.569451 294.249888 231.762747 294.117397 231.956044 293.984972 232.149341 293.852610 232.342637 293.720311 232.535934 293.588072 232.729231 293.455893 232.922527 293.323771 233.115824 293.191706 233.309121 293.059696 233.502418 292.927739 233.695714 292.795834 233.889011 292.663979 234.082308 292.532173 234.275604 292.400415 234.468901 292.268702 234.662198 292.137034 234.855495 292.005408 235.048791 291.873824 235.242088 291.742280 235.435385 291.610775 235.628681 291.479306 235.821978 291.347873 236.015275 291.216474 236.208571 291.085107 236.401868 290.953772 236.595165 290.822466 236.788462 290.691188 236.981758 290.559936 237.175055 290.428709 237.368352 290.297506 237.561648 290.166325 237.754945 290.035165 237.948242 289.904024 238.141538 289.772900 238.334835 289.641792 238.528132 289.510699 238.721429 289.379619 238.914725 289.248551 239.108022 289.117493 239.301319 288.986443 239.494615 288.855401 239.687912 288.724364 239.881209 288.593331 240.074505 288.462301 240.267802 288.331273 240.461099 288.200244 240.654396 288.069213 240.847692 287.938179 241.040989 287.807140 241.234286 287.676095 241.427582 287.545042 241.620879 287.413980 241.814176 287.282908 242.007473 287.151823 242.200769 287.020724 242.394066 286.889610 242.587363 286.758480 242.780659 286.627331 242.973956 286.496162 243.167253 286.364973 243.360549 286.233761 243.553846 286.102524 243.747143 285.971262 243.940440 285.839973 244.133736 285.708656 244.327033 285.577308 244.520330 285.445929 244.713626 285.314516 244.906923 285.183069 245.100220 285.051586 245.293516 284.920066 245.486813 284.788506 245.680110 284.656906 245.873407 284.525264 246.066703 284.393578 246.260000 284.261848 246.453297 284.130070 246.646593 283.998245 246.839890 283.866371 247.033187 283.734445 247.226484 283.602467 247.419780 283.470436 247.613077 283.338348 247.806374 283.206204 247.999670 283.074001 248.192967 282.941739 248.386264 282.809415 248.579560 282.677028 248.772857 282.544577 248.966154 282.412060 249.159451 282.279476 249.352747 282.146823 249.546044 282.014099 249.739341 281.881304 249.932637 281.748436 250.125934 281.615492 250.319231 281.482473 250.512527 281.349375 250.705824 281.216198 250.899121 281.082941 251.092418 280.949601 251.285714 280.816178 251.479011 280.682669 251.672308 280.549074 251.865604 280.415391 252.058901 280.281617 252.252198 280.147753 252.445495 280.013796 252.638791 279.879745 252.832088 279.745598 253.025385 279.611354 253.218681 279.477011 253.411978 279.342568 253.605275 279.208024 253.798571 279.073377 253.991868 278.938625 254.185165 278.803766 254.378462 278.668801 254.571758 278.533726 254.765055 278.398541 254.958352 278.263243 255.151648 278.127833 255.344945 277.992307 255.538242 277.856666 255.731538 277.720910 255.924835 277.585039 256.118132 277.449053 256.311429 277.312952 256.504725 277.176736 256.698022 277.040404 256.891319 276.903957 257.084615 276.767394 257.277912 276.630716 257.471209 276.493923 257.664505 276.357014 257.857802 276.219990 258.051099 276.082850 258.244396 275.945595 258.437692 275.808224 258.630989 275.670737 258.824286 275.533135 259.017582 275.395417 259.210879 275.257583 259.404176 275.119634 259.597473 274.981568 259.790769 274.843387 259.984066 274.705090 260.177363 274.566677 260.370659 274.428148 260.563956 274.289502 260.757253 274.150741 260.950549 274.011864 261.143846 273.872870 261.337143 273.733761 261.530440 273.594535 261.723736 273.455193 261.917033 273.315735 262.110330 273.176160 262.303626 273.036469 262.496923 272.896662 262.690220 272.756738 262.883516 272.616698 263.076813 272.476541 263.270110 272.336268 263.463407 272.195878 263.656703 272.055372 263.850000 271.914748 264.043297 271.774009 264.236593 271.633152 264.429890 271.492179 264.623187 271.351089 264.816484 271.209882 265.009780 271.068558 265.203077 270.927117 265.396374 270.785560 265.589670 270.643885 265.782967 270.502093 265.976264 270.360185 266.169560 270.218159 266.362857 270.076016 266.556154 269.933756 266.749451 269.791379 266.942747 269.648884 267.136044 269.506272 267.329341 269.363543 267.522637 269.220697 267.715934 269.077733 267.909231 268.934652 268.102527 268.791453 268.295824 268.648137 268.489121 268.504703 268.682418 268.361152 268.875714 268.217483 269.069011 268.073696 269.262308 267.929792 269.455604 267.785770 269.648901 267.641630 269.842198 267.497372 270.035495 267.352997 270.228791 267.208504 270.422088 267.063892 270.615385 266.919163 270.808681 266.774316 271.001978 266.629351 271.195275 266.484268 271.388571 266.339066 271.581868 266.193747 271.775165 266.048309 271.968462 265.902754 272.161758 265.757080 272.355055 265.611287 272.548352 265.465377 272.741648 265.319348 272.934945 265.173200 273.128242 265.026934 273.321538 264.880550 273.514835 264.734047 273.708132 264.587426 273.901429 264.440686 274.094725 264.293828 274.288022 264.146851 274.481319 263.999755 274.674615 263.852540 274.867912 263.705207 275.061209 263.557755 275.254505 263.410184 275.447802 263.262494 275.641099 263.114685 275.834396 262.966758 276.027692 262.818711 276.220989 262.670546 276.414286 262.522261 276.607582 262.373857 276.800879 262.225334 276.994176 262.076692 277.187473 261.927931 277.380769 261.779050 277.574066 261.630050 277.767363 261.480931 277.960659 261.331693 278.153956 261.182335 278.347253 261.032857 278.540549 260.883261 278.733846 260.733544 278.927143 260.583708 279.120440 260.433753 279.313736 260.283678 279.507033 260.133483 279.700330 259.983169 279.893626 259.832735 280.086923 259.682181 280.280220 259.531508 280.473516 259.380714 280.666813 259.229801 280.860110 259.078768 281.053407 258.927614 281.246703 258.776341 281.440000 258.624948 281.633297 258.473435 281.826593 258.321801 282.019890 258.170048 282.213187 258.018174 282.406484 257.866181 282.599780 257.714066 282.793077 257.561832 282.986374 257.409477 283.179670 257.257002 283.372967 257.104407 283.566264 256.951691 283.759560 256.798855 283.952857 256.645898 284.146154 256.492821 284.339451 256.339623 284.532747 256.186304 284.726044 256.032865 284.919341 255.879305 285.112637 255.725625 285.305934 255.571823 285.499231 255.417901 285.692527 255.263858 285.885824 255.109694 286.079121 254.955409 286.272418 254.801004 286.465714 254.646477 286.659011 254.491829 286.852308 254.337060 287.045604 254.182171 287.238901 254.027160 287.432198 253.872027 287.625495 253.716774 287.818791 253.561399 288.012088 253.405904 288.205385 253.250286 288.398681 253.094548 288.591978 252.938688 288.785275 252.782706 288.978571 252.626604 289.171868 252.470379 289.365165 252.314033 289.558462 252.157566 289.751758 252.000977 289.945055 251.844266 290.138352 251.687434 290.331648 251.530480 290.524945 251.373404 290.718242 251.216206 290.911538 251.058886 291.104835 250.901445 291.298132 250.743882 291.491429 250.586196 291.684725 250.428389 291.878022 250.270460 292.071319 250.112409 292.264615 249.954235 292.457912 249.795940 292.651209 249.637522 292.844505 249.478982 293.037802 249.320320 293.231099 249.161535 293.424396 249.002629 293.617692 248.843600 293.810989 248.684448 294.004286 248.525174 294.197582 248.365778 294.390879 248.206259 294.584176 248.046617 294.777473 247.886853 294.970769 247.726967 295.164066 247.566957 295.357363 247.406826 295.550659 247.246571 295.743956 247.086193 295.937253 246.925693 296.130549 246.765070 296.323846 246.604324 296.517143 246.443455 296.710440 246.282463 296.903736 246.121349 297.097033 245.960111 297.290330 245.798750 297.483626 245.637266 297.676923 245.475659 297.870220 245.313929 298.063516 245.152075 298.256813 244.990098 298.450110 244.827998 298.643407 244.665775 298.836703 244.503429 299.030000 244.340958 299.223297 244.178365 299.416593 244.015648 299.609890 243.852808 299.803187 243.689844 299.996484 243.526756 300.189780 243.363545 300.383077 243.200210 300.576374 243.036751 300.769670 242.873169 300.962967 242.709463 301.156264 242.545633 301.349560 242.381680 301.542857 242.217602 301.736154 242.053401 301.929451 241.889076 302.122747 241.724626 302.316044 241.560053 302.509341 241.395355 302.702637 241.230534 302.895934 241.065588 303.089231 240.900518 303.282527 240.735324 303.475824 240.570006 303.669121 240.404564 303.862418 240.238997 304.055714 240.073308 304.249011 239.907496 304.442308 239.741562 304.635604 239.575507 304.828901 239.409330 305.022198 239.243033 305.215495 239.076616 305.408791 238.910080 305.602088 238.743426 305.795385 238.576653 305.988681 238.409762 306.181978 238.242755 306.375275 238.075631 306.568571 237.908391 306.761868 237.741035 306.955165 237.573565 307.148462 237.405980 307.341758 237.238282 307.535055 237.070470 307.728352 236.902546 307.921648 236.734510 308.114945 236.566362 308.308242 236.398103 308.501538 236.229734 308.694835 236.061255 308.888132 235.892667 309.081429 235.723970 309.274725 235.555165 309.468022 235.386252 309.661319 235.217232 309.854615 235.048106 310.047912 234.878874 310.241209 234.709536 310.434505 234.540093 310.627802 234.370546 310.821099 234.200895 311.014396 234.031142 311.207692 233.861285 311.400989 233.691326 311.594286 233.521266 311.787582 233.351105 311.980879 233.180844 312.174176 233.010482 312.367473 232.840022 312.560769 232.669462 312.754066 232.498804 312.947363 232.328049 313.140659 232.157197 313.333956 231.986248 313.527253 231.815203 313.720549 231.644063 313.913846 231.472828 314.107143 231.301498 314.300440 231.130075 314.493736 230.958558 314.687033 230.786949 314.880330 230.615248 315.073626 230.443455 315.266923 230.271572 315.460220 230.099597 315.653516 229.927533 315.846813 229.755380 316.040110 229.583138 316.233407 229.410808 316.426703 229.238390 316.620000 229.065885 316.813297 228.893293 317.006593 228.720616 317.199890 228.547852 317.393187 228.375005 317.586484 228.202072 317.779780 228.029056 317.973077 227.855957 318.166374 227.682775 318.359670 227.509511 318.552967 227.336166 318.746264 227.162739 318.939560 226.989232 319.132857 226.815645 319.326154 226.641979 319.519451 226.468234 319.712747 226.294411 319.906044 226.120510 320.099341 225.946532 320.292637 225.772478 320.485934 225.598347 320.679231 225.424141 320.872527 225.249861 321.065824 225.075505 321.259121 224.901077 321.452418 224.726574 321.645714 224.552000 321.839011 224.377353 322.032308 224.202634 322.225604 224.027845 322.418901 223.852985 322.612198 223.678055 322.805495 223.503055 322.998791 223.327988 323.192088 223.152851 323.385385 222.977647 323.578681 222.802376 323.771978 222.627039 323.965275 222.451635 324.158571 222.276166 324.351868 222.100632 324.545165 221.925034 324.738462 221.749372 324.931758 221.573646 325.125055 221.397858 325.318352 221.222008 325.511648 221.046097 325.704945 220.870124 325.898242 220.694091 326.091538 220.517998 326.284835 220.341845 326.478132 220.165634 326.671429 219.989365 326.864725 219.813037 327.058022 219.636653 327.251319 219.460212 327.444615 219.283715 327.637912 219.107163 327.831209 218.930556 328.024505 218.753894 328.217802 218.577179 328.411099 218.400410 328.604396 218.223589 328.797692 218.046715 328.990989 217.869790 329.184286 217.692814 329.377582 217.515787 329.570879 217.338711 329.764176 217.161585 329.957473 216.984410 330.150769 216.807187 330.344066 216.629917 330.537363 216.452599 330.730659 216.275235 330.923956 216.097824 331.117253 215.920368 331.310549 215.742868 331.503846 215.565322 331.697143 215.387733 331.890440 215.210101 332.083736 215.032426 332.277033 214.854709 332.470330 214.676950 332.663626 214.499151 332.856923 214.321311 333.050220 214.143430 333.243516 213.965511 333.436813 213.787553 333.630110 213.609556 333.823407 213.431522 334.016703 213.253450 334.210000 213.075342 334.403297 212.897198 334.596593 212.719019 334.789890 212.540804 334.983187 212.362555 335.176484 212.184273 335.369780 212.005957 335.563077 211.827608 335.756374 211.649227 335.949670 211.470815 336.142967 211.292371 336.336264 211.113897 336.529560 210.935393 336.722857 210.756860 336.916154 210.578298 337.109451 210.399707 337.302747 210.221089 337.496044 210.042444 337.689341 209.863772 337.882637 209.685074 338.075934 209.506351 338.269231 209.327602 338.462527 209.148829 338.655824 208.970033 338.849121 208.791213 339.042418 208.612370 339.235714 208.433505 339.429011 208.254619 339.622308 208.075711 339.815604 207.896783 340.008901 207.717835 340.202198 207.538868 340.395495 207.359882 340.588791 207.180878 340.782088 207.001855 340.975385 206.822816 341.168681 206.643760 341.361978 206.464688 341.555275 206.285600 341.748571 206.106498 341.941868 205.927381 342.135165 205.748250 342.328462 205.569106 342.521758 205.389949 342.715055 205.210780 342.908352 205.031600 343.101648 204.852408 343.294945 204.673206 343.488242 204.493994 343.681538 204.314772 343.874835 204.135542 344.068132 203.956303 344.261429 203.777057 344.454725 203.597803 344.648022 203.418543 344.841319 203.239276 345.034615 203.060005 345.227912 202.880728 345.421209 202.701446 345.614505 202.522161 345.807802 202.342873 346.001099 202.163582 346.194396 201.984289 346.387692 201.804994 346.580989 201.625698 346.774286 201.446401 346.967582 201.267104 347.160879 201.087808 347.354176 200.908514 347.547473 200.729220 347.740769 200.549930 347.934066 200.370641 348.127363 200.191357 348.320659 200.012076 348.513956 199.832800 348.707253 199.653528 348.900549 199.474262 349.093846 199.295003 349.287143 199.115750 349.480440 198.936504 349.673736 198.757266 349.867033 198.578037 350.060330 198.398816 350.253626 198.219605 350.446923 198.040404 350.640220 197.861213 350.833516 197.682034 351.026813 197.502866 351.220110 197.323711 351.413407 197.144568 351.606703 196.965438 351.800000 196.786323 351.993297 196.607222 352.186593 196.428136 352.379890 196.249066 352.573187 196.070011 352.766484 195.890974 352.959780 195.711954 353.153077 195.532952 353.346374 195.353969 353.539670 195.175005 353.732967 194.996060 353.926264 194.817136 354.119560 194.638233 354.312857 194.459351 354.506154 194.280492 354.699451 194.101655 354.892747 193.922841 355.086044 193.744051 355.279341 193.565286 355.472637 193.386546 355.665934 193.207831 355.859231 193.029143 356.052527 192.850481 356.245824 192.671847 356.439121 192.493241 356.632418 192.314663 356.825714 192.136115 357.019011 191.957596 357.212308 191.779107 357.405604 191.600650 357.598901 191.422224 357.792198 191.243830 357.985495 191.065469 358.178791 190.887141 358.372088 190.708847 358.565385 190.530587 358.758681 190.352363 358.951978 190.174174 359.145275 189.996021 359.338571 189.817905 359.531868 189.639827 359.725165 189.461786 359.918462 189.283784 360.111758 189.105821 360.305055 188.927898 360.498352 188.750015 360.691648 188.572174 360.884945 188.394373 361.078242 188.216615 361.271538 188.038899 361.464835 187.861227 361.658132 187.683599 361.851429 187.506015 362.044725 187.328476 362.238022 187.150983 362.431319 186.973535 362.624615 186.796135 362.817912 186.618782 363.011209 186.441477 363.204505 186.264221 363.397802 186.087014 363.591099 185.909856 363.784396 185.732749 363.977692 185.555693 364.170989 185.378688 364.364286 185.201736 364.557582 185.024836 364.750879 184.847989 364.944176 184.671196 365.137473 184.494458 365.330769 184.317774 365.524066 184.141147 365.717363 183.964575 365.910659 183.788060 366.103956 183.611603 366.297253 183.435204 366.490549 183.258863 366.683846 183.082581 366.877143 182.906359 367.070440 182.730198 367.263736 182.554097 367.457033 182.378058 367.650330 182.202081 367.843626 182.026166 368.036923 181.850315 368.230220 181.674528 368.423516 181.498805 368.616813 181.323147 368.810110 181.147555 369.003407 180.972029 369.196703 180.796570 369.390000 180.621178 369.583297 180.445854 369.776593 180.270599 369.969890 180.095413 370.163187 179.920297 370.356484 179.745251 370.549780 179.570275 370.743077 179.395372 370.936374 179.220540 371.129670 179.045781 371.322967 178.871096 371.516264 178.696484 371.709560 178.521947 371.902857 178.347484 372.096154 178.173097 372.289451 177.998787 372.482747 177.824553 372.676044 177.650397 372.869341 177.476319 373.062637 177.302319 373.255934 177.128398 373.449231 176.954557 373.642527 176.780797 373.835824 176.607117 374.029121 176.433519 374.222418 176.260003 374.415714 176.086569 374.609011 175.913219 374.802308 175.739953 374.995604 175.566771 375.188901 175.393674 375.382198 175.220663 375.575495 175.047738 375.768791 174.874899 375.962088 174.702148 376.155385 174.529485 376.348681 174.356911 376.541978 174.184426 376.735275 174.012030 376.928571 173.839725 377.121868 173.667511 377.315165 173.495388 377.508462 173.323357 377.701758 173.151419 377.895055 172.979574 378.088352 172.807824 378.281648 172.636167 378.474945 172.464606 378.668242 172.293140 378.861538 172.121770 379.054835 171.950497 379.248132 171.779322 379.441429 171.608244 379.634725 171.437265 379.828022 171.266385 380.021319 171.095605 380.214615 170.924925 380.407912 170.754346 380.601209 170.583869 380.794505 170.413494 380.987802 170.243221 381.181099 170.073051 381.374396 169.902986 381.567692 169.733025 381.760989 169.563169 381.954286 169.393418 382.147582 169.223774 382.340879 169.054236 382.534176 168.884806 382.727473 168.715484 382.920769 168.546270 383.114066 168.377165 383.307363 168.208171 383.500659 168.039286 383.693956 167.870513 383.887253 167.701850 384.080549 167.533300 384.273846 167.364863 384.467143 167.196539 384.660440 167.028329 384.853736 166.860233 385.047033 166.692252 385.240330 166.524387 385.433626 166.356638 385.626923 166.189005 385.820220 166.021490 386.013516 165.854094 386.206813 165.686815 386.400110 165.519656 386.593407 165.352616 386.786703 165.185697 386.980000 165.018899 387.173297 164.852222 387.366593 164.685667 387.559890 164.519235 387.753187 164.352926 387.946484 164.186741 388.139780 164.020680 388.333077 163.854745 388.526374 163.688935 388.719670 163.523251 388.912967 163.357694 389.106264 163.192264 389.299560 163.026963 389.492857 162.861789 389.686154 162.696745 389.879451 162.531831 390.072747 162.367047 390.266044 162.202394 390.459341 162.037872 390.652637 161.873483 390.845934 161.709226 391.039231 161.545102 391.232527 161.381112 391.425824 161.217257 391.619121 161.053537 391.812418 160.889952 392.005714 160.726503 392.199011 160.563191 392.392308 160.400017 392.585604 160.236980 392.778901 160.074082 392.972198 159.911323 393.165495 159.748704 393.358791 159.586225 393.552088 159.423887 393.745385 159.261691 393.938681 159.099637 394.131978 158.937725 394.325275 158.775956 394.518571 158.614332 394.711868 158.452851 394.905165 158.291516 395.098462 158.130327 395.291758 157.969283 395.485055 157.808386 395.678352 157.647637 395.871648 157.487036 396.064945 157.326583 396.258242 157.166279 396.451538 157.006125 396.644835 156.846121 396.838132 156.686268 397.031429 156.526567 397.224725 156.367018 397.418022 156.207621 397.611319 156.048378 397.804615 155.889288 397.997912 155.730353 398.191209 155.571573 398.384505 155.412948 398.577802 155.254480 398.771099 155.096168 398.964396 154.938014 399.157692 154.780018 399.350989 154.622180 399.544286 154.464501 399.737582 154.306982 399.930879 154.149624 400.124176 153.992426 400.317473 153.835390 400.510769 153.678514 400.704066 153.521799 400.897363 153.365244 401.090659 153.208848 401.283956 153.052612 401.477253 152.896534 401.670549 152.740614 401.863846 152.584851 402.057143 152.429246 402.250440 152.273797 402.443736 152.118504 402.637033 151.963366 402.830330 151.808384 403.023626 151.653556 403.216923 151.498882 403.410220 151.344362 403.603516 151.189995 403.796813 151.035780 403.990110 150.881717 404.183407 150.727806 404.376703 150.574046 404.570000 150.420437 404.763297 150.266977 404.956593 150.113667 405.149890 149.960507 405.343187 149.807494 405.536484 149.654630 405.729780 149.501914 405.923077 149.349345 406.116374 149.196922 406.309670 149.044645 406.502967 148.892514 406.696264 148.740528 406.889560 148.588687 407.082857 148.436990 407.276154 148.285436 407.469451 148.134025 407.662747 147.982758 407.856044 147.831632 408.049341 147.680648 408.242637 147.529805 408.435934 147.379103 408.629231 147.228541 408.822527 147.078118 409.015824 146.927835 409.209121 146.777690 409.402418 146.627684 409.595714 146.477815 409.789011 146.328084 409.982308 146.178489 410.175604 146.029030 410.368901 145.879707 410.562198 145.730520 410.755495 145.581466 410.948791 145.432548 411.142088 145.283762 411.335385 145.135111 411.528681 144.986591 411.721978 144.838204 411.915275 144.689949 412.108571 144.541825 412.301868 144.393832 412.495165 144.245969 412.688462 144.098235 412.881758 143.950631 413.075055 143.803156 413.268352 143.655809 413.461648 143.508590 413.654945 143.361498 413.848242 143.214533 414.041538 143.067694 414.234835 142.920980 414.428132 142.774393 414.621429 142.627929 414.814725 142.481591 415.008022 142.335376 415.201319 142.189284 415.394615 142.043315 415.587912 141.897468 415.781209 141.751744 415.974505 141.606140 416.167802 141.460658 416.361099 141.315295 416.554396 141.170053 416.747692 141.024930 416.940989 140.879925 417.134286 140.735039 417.327582 140.590271 417.520879 140.445621 417.714176 140.301087 417.907473 140.156669 418.100769 140.012368 418.294066 139.868181 418.487363 139.724110 418.680659 139.580153 418.873956 139.436310 419.067253 139.292580 419.260549 139.148963 419.453846 139.005459 419.647143 138.862066 419.840440 138.718785 420.033736 138.575615 420.227033 138.432555 420.420330 138.289605 420.613626 138.146764 420.806923 138.004033 421.000220 137.861409 421.193516 137.718894 421.386813 137.576486 421.580110 137.434186 421.773407 137.291991 421.966703 137.149903 422.160000 137.007920 422.353297 136.866042 422.546593 136.724268 422.739890 136.582599 422.933187 136.441033 423.126484 136.299569 423.319780 136.158209 423.513077 136.016950 423.706374 135.875793 423.899670 135.734737 424.092967 135.593781 424.286264 135.452925 424.479560 135.312169 424.672857 135.171512 424.866154 135.030953 425.059451 134.890493 425.252747 134.750130 425.446044 134.609863 425.639341 134.469694 425.832637 134.329620 426.025934 134.189642 426.219231 134.049760 426.412527 133.909971 426.605824 133.770277 426.799121 133.630676 426.992418 133.491168 427.185714 133.351753 427.379011 133.212430 427.572308 133.073199 427.765604 132.934058 427.958901 132.795008 428.152198 132.656049 428.345495 132.517179 428.538791 132.378397 428.732088 132.239705 428.925385 132.101101 429.118681 131.962584 429.311978 131.824154 429.505275 131.685811 429.698571 131.547554 429.891868 131.409383 430.085165 131.271297 430.278462 131.133296 430.471758 130.995378 430.665055 130.857545 430.858352 130.719794 431.051648 130.582126 431.244945 130.444540 431.438242 130.307036 431.631538 130.169613 431.824835 130.032271 432.018132 129.895009 432.211429 129.757827 432.404725 129.620723 432.598022 129.483699 432.791319 129.346753 432.984615 129.209884 433.177912 129.073092 433.371209 128.936378 433.564505 128.799739 433.757802 128.663176 433.951099 128.526689 434.144396 128.390276 434.337692 128.253937 434.530989 128.117672 434.724286 127.981481 434.917582 127.845362 435.110879 127.709315 435.304176 127.573340 435.497473 127.437436 435.690769 127.301603 435.884066 127.165840 436.077363 127.030148 436.270659 126.894524 436.463956 126.758969 436.657253 126.623482 436.850549 126.488063 437.043846 126.352712 437.237143 126.217427 437.430440 126.082209 437.623736 125.947056 437.817033 125.811969 438.010330 125.676946 438.203626 125.541988 438.396923 125.407093 438.590220 125.272262 438.783516 125.137494 438.976813 125.002788 439.170110 124.868144 439.363407 124.733561 439.556703 124.599039 439.750000 124.464577 439.943297 124.330175 440.136593 124.195833 440.329890 124.061549 440.523187 123.927324 440.716484 123.793157 440.909780 123.659047 441.103077 123.524994 441.296374 123.390997 441.489670 123.257056 441.682967 123.123171 441.876264 122.989340 442.069560 122.855564 442.262857 122.721842 442.456154 122.588173 442.649451 122.454557 442.842747 122.320993 443.036044 122.187482 443.229341 122.054022 443.422637 121.920612 443.615934 121.787253 443.809231 121.653944 444.002527 121.520685 444.195824 121.387474 444.389121 121.254312 444.582418 121.121198 444.775714 120.988132 444.969011 120.855112 445.162308 120.722139 445.355604 120.589211 445.548901 120.456329 445.742198 120.323493 445.935495 120.190700 446.128791 120.057952 446.322088 119.925247 446.515385 119.792585 446.708681 119.659966 446.901978 119.527388 447.095275 119.394852 447.288571 119.262358 447.481868 119.129903 447.675165 118.997489 447.868462 118.865114 448.061758 118.732778 448.255055 118.600481 448.448352 118.468222 448.641648 118.336000 448.834945 118.203817 449.028242 118.071672 449.221538 117.939566 449.414835 117.807500 449.608132 117.675475 449.801429 117.543490 449.994725 117.411547 450.188022 117.279645 450.381319 117.147786 450.574615 117.015970 450.767912 116.884197 450.961209 116.752469 451.154505 116.620785 451.347802 116.489146 451.541099 116.357553 451.734396 116.226007 451.927692 116.094507 452.120989 115.963054 452.314286 115.831649 452.507582 115.700293 452.700879 115.568986 452.894176 115.437728 453.087473 115.306521 453.280769 115.175364 453.474066 115.044258 453.667363 114.913204 453.860659 114.782202 454.053956 114.651253 454.247253 114.520357 454.440549 114.389516 454.633846 114.258728 454.827143 114.127996 455.020440 113.997319 455.213736 113.866698 455.407033 113.736134 455.600330 113.605627 455.793626 113.475178 455.986923 113.344787 456.180220 113.214455 456.373516 113.084182 456.566813 112.953969 456.760110 112.823817 456.953407 112.693725 457.146703 112.563695 457.340000 112.433727 457.533297 112.303822 457.726593 112.173980 457.919890 112.044202 458.113187 111.914487 458.306484 111.784838 458.499780 111.655254 458.693077 111.525736 458.886374 111.396284 459.079670 111.266900 459.272967 111.137582 459.466264 111.008333 459.659560 110.879153 459.852857 110.750041 460.046154 110.621000 460.239451 110.492028 460.432747 110.363128 460.626044 110.234299 460.819341 110.105541 461.012637 109.976856 461.205934 109.848245 461.399231 109.719706 461.592527 109.591242 461.785824 109.462852 461.979121 109.334538 462.172418 109.206299 462.365714 109.078136 462.559011 108.950050 462.752308 108.822042 462.945604 108.694111 463.138901 108.566259 463.332198 108.438486 463.525495 108.310792 463.718791 108.183179 463.912088 108.055646 464.105385 107.928194 464.298681 107.800824 464.491978 107.673536 464.685275 107.546331 464.878571 107.419209 465.071868 107.292171 465.265165 107.165218 465.458462 107.038349 465.651758 106.911566 465.845055 106.784869 466.038352 106.658259 466.231648 106.531736 466.424945 106.405301 466.618242 106.278953 466.811538 106.152695 467.004835 106.026526 467.198132 105.900447 467.391429 105.774458 467.584725 105.648560 467.778022 105.522754 467.971319 105.397040 468.164615 105.271418 468.357912 105.145890 468.551209 105.020455 468.744505 104.895114 468.937802 104.769869 469.131099 104.644718 469.324396 104.519664 469.517692 104.394706 469.710989 104.269844 469.904286 104.145081 470.097582 104.020415 470.290879 103.895848 470.484176 103.771380 470.677473 103.647012 470.870769 103.522744 471.064066 103.398577 471.257363 103.274511 471.450659 103.150548 471.643956 103.026686 471.837253 102.902928 472.030549 102.779273 472.223846 102.655722 472.417143 102.532275 472.610440 102.408934 472.803736 102.285698 472.997033 102.162569 473.190330 102.039547 473.383626 101.916631 473.576923 101.793824 473.770220 101.671125 473.963516 101.548535 474.156813 101.426055 474.350110 101.303684 474.543407 101.181425 474.736703 101.059276 474.930000 100.937239 475.123297 100.815314 475.316593 100.693502 475.509890 100.571804 475.703187 100.450219 475.896484 100.328749 476.089780 100.207393 476.283077 100.086153 476.476374 99.965030 476.669670 99.844022 476.862967 99.723132 477.056264 99.602360 477.249560 99.481706 477.442857 99.361170 477.636154 99.240754 477.829451 99.120458 478.022747 99.000282 478.216044 98.880227 478.409341 98.760294 478.602637 98.640482 478.795934 98.520794 478.989231 98.401228 479.182527 98.281786 479.375824 98.162468 479.569121 98.043276 479.762418 97.924208 479.955714 97.805266 480.149011 97.686451 480.342308 97.567763 480.535604 97.449202 480.728901 97.330769 480.922198 97.212465 481.115495 97.094289 481.308791 96.976244 481.502088 96.858329 481.695385 96.740544 481.888681 96.622891 482.081978 96.505370 482.275275 96.387981 482.468571 96.270725 482.661868 96.153603 482.855165 96.036614 483.048462 95.919760 483.241758 95.803042 483.435055 95.686459 483.628352 95.570012 483.821648 95.453702 484.014945 95.337529 484.208242 95.221494 484.401538 95.105598 484.594835 94.989841 484.788132 94.874223 484.981429 94.758745 485.174725 94.643407 485.368022 94.528211 485.561319 94.413156 485.754615 94.298244 485.947912 94.183474 486.141209 94.068848 486.334505 93.954366 486.527802 93.840028 486.721099 93.725834 486.914396 93.611787 487.107692 93.497885 487.300989 93.384130 487.494286 93.270522 487.687582 93.157062 487.880879 93.043750 488.074176 92.930587 488.267473 92.817573 488.460769 92.704709 488.654066 92.591995 488.847363 92.479432 489.040659 92.367021 489.233956 92.254762 489.427253 92.142655 489.620549 92.030702 489.813846 91.918902 490.007143 91.807256 490.200440 91.695765 490.393736 91.584430 490.587033 91.473250 490.780330 91.362227 490.973626 91.251360 491.166923 91.140651 491.360220 91.030100 491.553516 90.919708 491.746813 90.809475 491.940110 90.699401 492.133407 90.589488 492.326703 90.479735 492.520000 90.370144 492.713297 90.260715 492.906593 90.151448 493.099890 90.042344 493.293187 89.933403 493.486484 89.824626 493.679780 89.716014 493.873077 89.607567 494.066374 89.499286 494.259670 89.391171 494.452967 89.283223 494.646264 89.175442 494.839560 89.067828 495.032857 88.960384 495.226154 88.853108 495.419451 88.746001 495.612747 88.639065 495.806044 88.532299 495.999341 88.425705 496.192637 88.319282 496.385934 88.213031 496.579231 88.106953 496.772527 88.001048 496.965824 87.895317 497.159121 87.789759 497.352418 87.684374 497.545714 87.579161 497.739011 87.474119 497.932308 87.369248 498.125604 87.264547 498.318901 87.160016 498.512198 87.055654 498.705495 86.951460 498.898791 86.847435 499.092088 86.743576 499.285385 86.639884 499.478681 86.536358 499.671978 86.432998 499.865275 86.329802 500.058571 86.226771 500.251868 86.123903 500.445165 86.021198 500.638462 85.918656 500.831758 85.816276 501.025055 85.714056 501.218352 85.611998 501.411648 85.510099 501.604945 85.408360 501.798242 85.306780 501.991538 85.205358 502.184835 85.104093 502.378132 85.002986 502.571429 84.902035 502.764725 84.801239 502.958022 84.700599 503.151319 84.600114 503.344615 84.499783 503.537912 84.399605 503.731209 84.299580 503.924505 84.199707 504.117802 84.099985 504.311099 84.000415 504.504396 83.900995 504.697692 83.801725 504.890989 83.702604 505.084286 83.603632 505.277582 83.504808 505.470879 83.406131 505.664176 83.307601 505.857473 83.209217 506.050769 83.110979 506.244066 83.012886 506.437363 82.914937 506.630659 82.817132 506.823956 82.719471 507.017253 82.621952 507.210549 82.524574 507.403846 82.427339 507.597143 82.330244 507.790440 82.233289 507.983736 82.136474 508.177033 82.039798 508.370330 81.943260 508.563626 81.846860 508.756923 81.750598 508.950220 81.654472 509.143516 81.558482 509.336813 81.462627 509.530110 81.366907 509.723407 81.271321 509.916703 81.175869 510.110000 81.080550 510.303297 80.985364 510.496593 80.890309 510.689890 80.795385 510.883187 80.700592 511.076484 80.605929 511.269780 80.511395 511.463077 80.416991 511.656374 80.322714 511.849670 80.228565 512.042967 80.134543 512.236264 80.040647 512.429560 79.946877 512.622857 79.853232 512.816154 79.759712 513.009451 79.666316 513.202747 79.573043 513.396044 79.479893 513.589341 79.386866 513.782637 79.293959 513.975934 79.201174 514.169231 79.108509 514.362527 79.015964 514.555824 78.923538 514.749121 78.831231 514.942418 78.739042 515.135714 78.646970 515.329011 78.555015 515.522308 78.463176 515.715604 78.371453 515.908901 78.279844 516.102198 78.188350 516.295495 78.096970 516.488791 78.005703 516.682088 77.914549 516.875385 77.823506 517.068681 77.732575 517.261978 77.641755 517.455275 77.551045 517.648571 77.460444 517.841868 77.369953 518.035165 77.279569 518.228462 77.189294 518.421758 77.099126 518.615055 77.009064 518.808352 76.919108 519.001648 76.829258 519.194945 76.739513 519.388242 76.649871 519.581538 76.560333 519.774835 76.470898 519.968132 76.381566 520.161429 76.292335 520.354725 76.203206 520.548022 76.114177 520.741319 76.025248 520.934615 75.936418 521.127912 75.847687 521.321209 75.759055 521.514505 75.670519 521.707802 75.582081 521.901099 75.493739 522.094396 75.405493 522.287692 75.317343 522.480989 75.229286 522.674286 75.141324 522.867582 75.053455 523.060879 74.965679 523.254176 74.877994 523.447473 74.790402 523.640769 74.702900 523.834066 74.615489 524.027363 74.528168 524.220659 74.440935 524.413956 74.353792 524.607253 74.266736 524.800549 74.179767 524.993846 74.092886 525.187143 74.006090 525.380440 73.919380 525.573736 73.832755 525.767033 73.746215 525.960330 73.659758 526.153626 73.573384 526.346923 73.487093 526.540220 73.400883 526.733516 73.314756 526.926813 73.228708 527.120110 73.142741 527.313407 73.056854 527.506703 72.971045 527.700000 72.885315 527.893297 72.799663 528.086593 72.714087 528.279890 72.628589 528.473187 72.543166 528.666484 72.457818 528.859780 72.372546 529.053077 72.287347 529.246374 72.202222 529.439670 72.117170 529.632967 72.032190 529.826264 71.947282 530.019560 71.862445 530.212857 71.777679 530.406154 71.692983 530.599451 71.608356 530.792747 71.523797 530.986044 71.439307 531.179341 71.354884 531.372637 71.270529 531.565934 71.186239 531.759231 71.102016 531.952527 71.017857 532.145824 70.933763 532.339121 70.849733 532.532418 70.765766 532.725714 70.681862 532.919011 70.598021 533.112308 70.514240 533.305604 70.430521 533.498901 70.346862 533.692198 70.263262 533.885495 70.179722 534.078791 70.096241 534.272088 70.012817 534.465385 69.929450 534.658681 69.846141 534.851978 69.762887 535.045275 69.679689 535.238571 69.596546 535.431868 69.513457 535.625165 69.430422 535.818462 69.347440 536.011758 69.264511 536.205055 69.181633 536.398352 69.098807 536.591648 69.016031 536.784945 68.933306 536.978242 68.850630 537.171538 68.768003 537.364835 68.685424 537.558132 68.602894 537.751429 68.520410 537.944725 68.437973 538.138022 68.355581 538.331319 68.273235 538.524615 68.190934 538.717912 68.108677 538.911209 68.026463 539.104505 67.944292 539.297802 67.862164 539.491099 67.780077 539.684396 67.698031 539.877692 67.616026 540.070989 67.534061 540.264286 67.452135 540.457582 67.370248 540.650879 67.288398 540.844176 67.206587 541.037473 67.124812 541.230769 67.043074 541.424066 66.961371 541.617363 66.879703 541.810659 66.798070 542.003956 66.716471 542.197253 66.634905 542.390549 66.553372 542.583846 66.471871 542.777143 66.390401 542.970440 66.308963 543.163736 66.227554 543.357033 66.146176 543.550330 66.064826 543.743626 65.983505 543.936923 65.902212 544.130220 65.820946 544.323516 65.739707 544.516813 65.658494 544.710110 65.577306 544.903407 65.496143 545.096703 65.415005 545.290000 65.333890 545.483297 65.252799 545.676593 65.171732 545.869890 65.090689 546.063187 65.009671 546.256484 64.928676 546.449780 64.847705 546.643077 64.766759 546.836374 64.685837 547.029670 64.604940 547.222967 64.524067 547.416264 64.443219 547.609560 64.362395 547.802857 64.281597 547.996154 64.200823 548.189451 64.120075 548.382747 64.039351 548.576044 63.958653 548.769341 63.877980 548.962637 63.797333 549.155934 63.716711 549.349231 63.636114 549.542527 63.555543 549.735824 63.474998 549.929121 63.394479 550.122418 63.313986 550.315714 63.233518 550.509011 63.153077 550.702308 63.072662 550.895604 62.992273 551.088901 62.911911 551.282198 62.831575 551.475495 62.751265 551.668791 62.670983 551.862088 62.590727 552.055385 62.510497 552.248681 62.430295 552.441978 62.350120 552.635275 62.269971 552.828571 62.189850 553.021868 62.109756 553.215165 62.029690 553.408462 61.949651 553.601758 61.869639 553.795055 61.789655 553.988352 61.709699 554.181648 61.629771 554.374945 61.549870 554.568242 61.469997 554.761538 61.390153 554.954835 61.310336 555.148132 61.230548 555.341429 61.150788 555.534725 61.071057 555.728022 60.991354 555.921319 60.911680 556.114615 60.832034 556.307912 60.752417 556.501209 60.672829 556.694505 60.593270 556.887802 60.513740 557.081099 60.434239 557.274396 60.354767 557.467692 60.275325 557.660989 60.195912 557.854286 60.116528 558.047582 60.037175 558.240879 59.957850 558.434176 59.878556 558.627473 59.799291 558.820769 59.720056 559.014066 59.640851 559.207363 59.561677 559.400659 59.482532 559.593956 59.403418 559.787253 59.324334 559.980549 59.245281 560.173846 59.166258 560.367143 59.087266 560.560440 59.008305 560.753736 58.929374 560.947033 58.850474 561.140330 58.771606 561.333626 58.692768 561.526923 58.613962 561.720220 58.535186 561.913516 58.456443 562.106813 58.377730 562.300110 58.299049 562.493407 58.220400 562.686703 58.141783 562.880000 58.063197 563.073297 57.984643 563.266593 57.906121 563.459890 57.827631 563.653187 57.749174 563.846484 57.670748 564.039780 57.592355 564.233077 57.513995 564.426374 57.435666 564.619670 57.357371 564.812967 57.279108 565.006264 57.200878 565.199560 57.122681 565.392857 57.044516 565.586154 56.966385 565.779451 56.888287 565.972747 56.810222 566.166044 56.732191 566.359341 56.654193 566.552637 56.576228 566.745934 56.498297 566.939231 56.420400 567.132527 56.342536 567.325824 56.264706 567.519121 56.186910 567.712418 56.109148 567.905714 56.031421 568.099011 55.953727 568.292308 55.876068 568.485604 55.798443 568.678901 55.720853 568.872198 55.643297 569.065495 55.565776 569.258791 55.488289 569.452088 55.410838 569.645385 55.333421 569.838681 55.256039 570.031978 55.178693 570.225275 55.101381 570.418571 55.024105 570.611868 54.946864 570.805165 54.869659 570.998462 54.792489 571.191758 54.715355 571.385055 54.638256 571.578352 54.561194 571.771648 54.484167 571.964945 54.407176 572.158242 54.330222 572.351538 54.253303 572.544835 54.176421 572.738132 54.099575 572.931429 54.022765 573.124725 53.945992 573.318022 53.869256 573.511319 53.792556 573.704615 53.715893 573.897912 53.639267 574.091209 53.562678 574.284505 53.486126 574.477802 53.409611 574.671099 53.333134 574.864396 53.256693 575.057692 53.180290 575.250989 53.103925 575.444286 53.027597 575.637582 52.951307 575.830879 52.875055 576.024176 52.798840 576.217473 52.722663 576.410769 52.646525 576.604066 52.570424 576.797363 52.494362 576.990659 52.418338 577.183956 52.342353 577.377253 52.266406 577.570549 52.190497 577.763846 52.114627 577.957143 52.038796 578.150440 51.963004 578.343736 51.887251 578.537033 51.811536 578.730330 51.735861 578.923626 51.660225 579.116923 51.584628 579.310220 51.509071 579.503516 51.433553 579.696813 51.358075 579.890110 51.282636 580.083407 51.207237 580.276703 51.131878 580.470000 51.056558 580.663297 50.981279 580.856593 50.906040 581.049890 50.830841 581.243187 50.755682 581.436484 50.680563 581.629780 50.605485 581.823077 50.530448 582.016374 50.455451 582.209670 50.380495 582.402967 50.305579 582.596264 50.230705 582.789560 50.155871 582.982857 50.081079 583.176154 50.006327 583.369451 49.931617 583.562747 49.856949 583.756044 49.782321 583.949341 49.707735 584.142637 49.633191 584.335934 49.558689 584.529231 49.484228 584.722527 49.409809 584.915824 49.335432 585.109121 49.261097 585.302418 49.186804 585.495714 49.112554 585.689011 49.038345 585.882308 48.964179 586.075604 48.890056 586.268901 48.815975 586.462198 48.741937 586.655495 48.667942 586.848791 48.593989 587.042088 48.520079 587.235385 48.446213 587.428681 48.372389 587.621978 48.298609 587.815275 48.224872 588.008571 48.151178 588.201868 48.077528 588.395165 48.003921 588.588462 47.930358 588.781758 47.856839 588.975055 47.783364 589.168352 47.709932 589.361648 47.636545 589.554945 47.563201 589.748242 47.489902 589.941538 47.416647 590.134835 47.343436 590.328132 47.270270 590.521429 47.197149 590.714725 47.124072 590.908022 47.051039 591.101319 46.978052 591.294615 46.905109 591.487912 46.832211 591.681209 46.759359 591.874505 46.686551 592.067802 46.613789 592.261099 46.541072 592.454396 46.468401 592.647692 46.395775 592.840989 46.323195 593.034286 46.250660 593.227582 46.178171 593.420879 46.105728 593.614176 46.033331 593.807473 45.960980 594.000769 45.888674 594.194066 45.816412 594.387363 45.744195 594.580659 45.672023 594.773956 45.599894 594.967253 45.527809 595.160549 45.455767 595.353846 45.383767 595.547143 45.311810 595.740440 45.239895 595.933736 45.168022 596.127033 45.096190 596.320330 45.024399 596.513626 44.952649 596.706923 44.880939 596.900220 44.809269 597.093516 44.737638 597.286813 44.666047 597.480110 44.594494 597.673407 44.522980 597.866703 44.451505 598.060000 44.380067 598.253297 44.308666 598.446593 44.237303 598.639890 44.165976 598.833187 44.094686 599.026484 44.023431 599.219780 43.952213 599.413077 43.881029 599.606374 43.809881 599.799670 43.738767 599.992967 43.667687 600.186264 43.596642 600.379560 43.525629 600.572857 43.454650 600.766154 43.383704 600.959451 43.312791 601.152747 43.241909 601.346044 43.171059 601.539341 43.100241 601.732637 43.029454 601.925934 42.958697 602.119231 42.887971 602.312527 42.817274 602.505824 42.746608 602.699121 42.675970 602.892418 42.605362 603.085714 42.534782 603.279011 42.464230 603.472308 42.393706 603.665604 42.323210 603.858901 42.252740 604.052198 42.182298 604.245495 42.111882 604.438791 42.041492 604.632088 41.971128 604.825385 41.900789 605.018681 41.830475 605.211978 41.760186 605.405275 41.689921 605.598571 41.619680 605.791868 41.549463 605.985165 41.479269 606.178462 41.409098 606.371758 41.338949 606.565055 41.268823 606.758352 41.198718 606.951648 41.128635 607.144945 41.058573 607.338242 40.988532 607.531538 40.918511 607.724835 40.848510 607.918132 40.778529 608.111429 40.708567 608.304725 40.638624 608.498022 40.568700 608.691319 40.498794 608.884615 40.428906 609.077912 40.359035 609.271209 40.289182 609.464505 40.219345 609.657802 40.149525 609.851099 40.079722 610.044396 40.009934 610.237692 39.940161 610.430989 39.870404 610.624286 39.800661 610.817582 39.730932 611.010879 39.661218 611.204176 39.591517 611.397473 39.521830 611.590769 39.452155 611.784066 39.382493 611.977363 39.312844 612.170659 39.243206 612.363956 39.173580 612.557253 39.103965 612.750549 39.034360 612.943846 38.964767 613.137143 38.895183 613.330440 38.825609 613.523736 38.756044 613.717033 38.686489 613.910330 38.616942 614.103626 38.547403 614.296923 38.477873 614.490220 38.408350 614.683516 38.338834 614.876813 38.269326 615.070110 38.199824 615.263407 38.130328 615.456703 38.060837 615.650000 37.991353 615.843297 37.921873 616.036593 37.852399 616.229890 37.782928 616.423187 37.713462 616.616484 37.644000 616.809780 37.574540 617.003077 37.505084 617.196374 37.435631 617.389670 37.366180 617.582967 37.296731 617.776264 37.227283 617.969560 37.157836 618.162857 37.088391 618.356154 37.018946 618.549451 36.949501 618.742747 36.880056 618.936044 36.810610 619.129341 36.741164 619.322637 36.671716 619.515934 36.602267 619.709231 36.532816 619.902527 36.463362 620.095824 36.393906 620.289121 36.324446 620.482418 36.254984 620.675714 36.185517 620.869011 36.116047 621.062308 36.046572 621.255604 35.977092 621.448901 35.907607 621.642198 35.838117 621.835495 35.768620 622.028791 35.699118 622.222088 35.629609 622.415385 35.560093 622.608681 35.490569 622.801978 35.421038 622.995275 35.351499 623.188571 35.281952 623.381868 35.212396 623.575165 35.142831 623.768462 35.073256 623.961758 35.003672 624.155055 34.934078 624.348352 34.864473 624.541648 34.794857 624.734945 34.725230 624.928242 34.655592 625.121538 34.585941 625.314835 34.516279 625.508132 34.446604 625.701429 34.376915 625.894725 34.307214 626.088022 34.237499 626.281319 34.167769 626.474615 34.098026 626.667912 34.028267 626.861209 33.958494 627.054505 33.888705 627.247802 33.818900 627.441099 33.749079 627.634396 33.679242 627.827692 33.609388 628.020989 33.539516 628.214286 33.469627 628.407582 33.399720 628.600879 33.329795 628.794176 33.259851 628.987473 33.189888 629.180769 33.119906 629.374066 33.049904 629.567363 32.979882 629.760659 32.909839 629.953956 32.839776 630.147253 32.769691 630.340549 32.699585 630.533846 32.629458 630.727143 32.559308 630.920440 32.489135 631.113736 32.418940 631.307033 32.348721 631.500330 32.278479 631.693626 32.208213 631.886923 32.137922 632.080220 32.067607 632.273516 31.997267 632.466813 31.926901 632.660110 31.856510 632.853407 31.786092 633.046703 31.715648 633.240000 31.645177 633.433297 31.574679 633.626593 31.504154 633.819890 31.433601 634.013187 31.363019 634.206484 31.292409 634.399780 31.221770 634.593077 31.151101 634.786374 31.080403 634.979670 31.009675 635.172967 30.938917 635.366264 30.868128 635.559560 30.797307 635.752857 30.726456 635.946154 30.655572 636.139451 30.584657 636.332747 30.513709 636.526044 30.442728 636.719341 30.371714 636.912637 30.300666 637.105934 30.229585 637.299231 30.158469 637.492527 30.087318 637.685824 30.016133 637.879121 29.944912 638.072418 29.873656 638.265714 29.802363 638.459011 29.731035 638.652308 29.659669 638.845604 29.588266 639.038901 29.516826 639.232198 29.445348 639.425495 29.373832 639.618791 29.302277 639.812088 29.230684 640.005385 29.159051 640.198681 29.087379 640.391978 29.015666 640.585275 28.943914 640.778571 28.872120 640.971868 28.800286 641.165165 28.728410 641.358462 28.656493 641.551758 28.584534 641.745055 28.512532 641.938352 28.440487 642.131648 28.368400 642.324945 28.296270 642.518242 28.224098 642.711538 28.151884 642.904835 28.079628 643.098132 28.007331 643.291429 27.934992 643.484725 27.862611 643.678022 27.790189 643.871319 27.717726 644.064615 27.645222 644.257912 27.572677 644.451209 27.500092 644.644505 27.427467 644.837802 27.354801 645.031099 27.282095 645.224396 27.209349 645.417692 27.136564 645.610989 27.063739 645.804286 26.990874 645.997582 26.917971 646.190879 26.845028 646.384176 26.772047 646.577473 26.699027 646.770769 26.625968 646.964066 26.552871 647.157363 26.479736 647.350659 26.406563 647.543956 26.333352 647.737253 26.260104 647.930549 26.186818 648.123846 26.113495 648.317143 26.040134 648.510440 25.966737 648.703736 25.893302 648.897033 25.819832 649.090330 25.746324 649.283626 25.672781 649.476923 25.599201 649.670220 25.525585 649.863516 25.451934 650.056813 25.378247 650.250110 25.304525 650.443407 25.230767 650.636703 25.156974 650.830000 25.083147 651.023297 25.009284 651.216593 24.935387 651.409890 24.861456 651.603187 24.787490 651.796484 24.713491 651.989780 24.639457 652.183077 24.565390 652.376374 24.491289 652.569670 24.417155 652.762967 24.342987 652.956264 24.268787 653.149560 24.194554 653.342857 24.120288 653.536154 24.045989 653.729451 23.971659 653.922747 23.897296 654.116044 23.822901 654.309341 23.748474 654.502637 23.674015 654.695934 23.599525 654.889231 23.525004 655.082527 23.450452 655.275824 23.375868 655.469121 23.301254 655.662418 23.226609 655.855714 23.151934 656.049011 23.077228 656.242308 23.002492 656.435604 22.927727 656.628901 22.852931 656.822198 22.778106 657.015495 22.703252 657.208791 22.628368 657.402088 22.553455 657.595385 22.478513 657.788681 22.403543 657.981978 22.328544 658.175275 22.253516 658.368571 22.178461 658.561868 22.103377 658.755165 22.028265 658.948462 21.953126 659.141758 21.877959 659.335055 21.802764 659.528352 21.727543 659.721648 21.652294 659.914945 21.577019 660.108242 21.501716 660.301538 21.426388 660.494835 21.351033 660.688132 21.275651 660.881429 21.200244 661.074725 21.124811 661.268022 21.049352 661.461319 20.973868 661.654615 20.898358 661.847912 20.822823 662.041209 20.747264 662.234505 20.671679 662.427802 20.596070 662.621099 20.520436 662.814396 20.444778 663.007692 20.369096 663.200989 20.293390 663.394286 20.217660 663.587582 20.141907 663.780879 20.066130 663.974176 19.990330 664.167473 19.914506 664.360769 19.838660 664.554066 19.762791 664.747363 19.686899 664.940659 19.610985 665.133956 19.535049 665.327253 19.459091 665.520549 19.383111 665.713846 19.307109 665.907143 19.231085 666.100440 19.155040 666.293736 19.078974 666.487033 19.002887 666.680330 18.926779 666.873626 18.850650 667.066923 18.774501 667.260220 18.698331 667.453516 18.622141 667.646813 18.545931 667.840110 18.469701 668.033407 18.393452 668.226703 18.317183 668.420000 18.240895 668.613297 18.164587 668.806593 18.088261 668.999890 18.011916 669.193187 17.935552 669.386484 17.859169 669.579780 17.782769 669.773077 17.706350 669.966374 17.629913 670.159670 17.553458 670.352967 17.476986 670.546264 17.400496 670.739560 17.323989 670.932857 17.247465 671.126154 17.170924 671.319451 17.094366 671.512747 17.017792 671.706044 16.941201 671.899341 16.864594 672.092637 16.787971 672.285934 16.711332 672.479231 16.634677 672.672527 16.558006 672.865824 16.481320 673.059121 16.404619 673.252418 16.327903 673.445714 16.251172 673.639011 16.174426 673.832308 16.097666 674.025604 16.020891 674.218901 15.944103 674.412198 15.867300 674.605495 15.790483 674.798791 15.713652 674.992088 15.636809 675.185385 15.559951 675.378681 15.483081 675.571978 15.406197 675.765275 15.329301 675.958571 15.252392 676.151868 15.175470 676.345165 15.098537 676.538462 15.021591 676.731758 14.944633 676.925055 14.867663 677.118352 14.790681 677.311648 14.713689 677.504945 14.636684 677.698242 14.559669 677.891538 14.482643 678.084835 14.405606 678.278132 14.328558 678.471429 14.251500 678.664725 14.174432 678.858022 14.097353 679.051319 14.020265 679.244615 13.943167 679.437912 13.866059 679.631209 13.788942 679.824505 13.711816 680.017802 13.634680 680.211099 13.557536 680.404396 13.480383 680.597692 13.403221 680.790989 13.326051 680.984286 13.248873 681.177582 13.171687 681.370879 13.094493 681.564176 13.017291 681.757473 12.940082 681.950769 12.862865 682.144066 12.785641 682.337363 12.708410 682.530659 12.631172 682.723956 12.553928 682.917253 12.476677 683.110549 12.399420 683.303846 12.322156 683.497143 12.244887 683.690440 12.167612 683.883736 12.090331 684.077033 12.013044 684.270330 11.935753 684.463626 11.858456 684.656923 11.781154 684.850220 11.703848 685.043516 11.626536 685.236813 11.549221 685.430110 11.471901 685.623407 11.394577 685.816703 11.317249 686.010000 11.239917 686.203297 11.162582 686.396593 11.085243 686.589890 11.007901 686.783187 10.930556 686.976484 10.853208 687.169780 10.775857 687.363077 10.698504 687.556374 10.621149 687.749670 10.543791 687.942967 10.466431 688.136264 10.389069 688.329560 10.311705 688.522857 10.234340 688.716154 10.156974 688.909451 10.079606 689.102747 10.002237 689.296044 9.924868 689.489341 9.847498 689.682637 9.770127 689.875934 9.692756 690.069231 9.615385 690.069231 500.000000" /></g></g><g class="titles"><text class="title plot_title" x="500.0" y="26">China Year: 1960 - 2016 AD</text></g><g class="plot overlay" transform="translate(276, 46)"><g class="series serie-0 color-0"><g class="dots"><circle class="dot reactive tooltip-trigger" cx="13.53076923076923" cy="490.384615385" r="2.5" /><desc class="value">667,070,000.0 People</desc><desc class="x top">13.53076923076923</desc><desc class="y top">490.384615385</desc><desc class="x_label">1960</desc></g><g class="dots"><circle class="dot reactive tooltip-trigger" cx="61.85494505494505" cy="469.247781393" r="2.5" /><desc class="value">698,355,000.0 People</desc><desc class="x top">61.85494505494505</desc><desc class="y top">469.247781393</desc><desc class="x_label">1964</desc></g><g class="dots"><circle class="dot reactive tooltip-trigger" cx="110.17912087912087" cy="417.795788659" r="2.5" /><desc class="value">774,510,000.0 People</desc><desc class="x top">110.17912087912087</desc><desc class="y top">417.795788659</desc><desc class="x_label">1968</desc></g><g class="dots"><circle class="dot reactive tooltip-trigger" cx="158.5032967032967" cy="358.665351996" r="2.5" /><desc class="value">862,030,000.0 People</desc><desc class="x top">158.5032967032967</desc><desc class="y top">358.665351996</desc><desc class="x_label">1972</desc></g><g class="dots"><circle class="dot reactive tooltip-trigger" cx="206.82747252747254" cy="312.280524196" r="2.5" /><desc class="value">930,685,000.0 People</desc><desc class="x top">206.82747252747254</desc><desc class="y top">312.280524196</desc><desc class="x_label">1976</desc></g><g class="dots"><circle class="dot reactive tooltip-trigger" cx="255.1516483516484" cy="278.127832545" r="2.5" /><desc class="value">981,235,000.0 People</desc><desc class="x top">255.1516483516484</desc><desc class="y top">278.127832545</desc><desc class="x_label">1980</desc></g><g class="dots"><circle class="dot reactive tooltip-trigger" cx="303.4758241758242" cy="240.570006059" r="2.5" /><desc class="value">1,036,825,000.0 People</desc><desc class="x ">303.4758241758242</desc><desc class="y ">240.570006059</desc><desc class="x_label">1984</desc></g><g class="dots"><circle class="dot reactive tooltip-trigger" cx="351.8" cy="196.786322925" r="2.5" /><desc class="value">1,101,630,000.0 People</desc><desc class="x ">351.8</desc><desc class="y ">196.786322925</desc><desc class="x_label">1988</desc></g><g class="dots"><circle class="dot reactive tooltip-trigger" cx="400.12417582417584" cy="153.992426007" r="2.5" /><desc class="value">1,164,970,000.0 People</desc><desc class="x left">400.12417582417584</desc><desc class="y left">153.992426007</desc><desc class="x_label">1992</desc></g><g class="dots"><circle class="dot reactive tooltip-trigger" cx="448.44835164835166" cy="118.468221714" r="2.5" /><desc class="value">1,217,550,000.0 People</desc><desc class="x left">448.44835164835166</desc><desc class="y left">118.468221714</desc><desc class="x_label">1996</desc></g><g class="dots"><circle class="dot reactive tooltip-trigger" cx="496.77252747252743" cy="88.0010480248" r="2.5" /><desc class="value">1,262,645,000.0 People</desc><desc class="x left">496.77252747252743</desc><desc class="y left">88.0010480248</desc><desc class="x_label">2000</desc></g><g class="dots"><circle class="dot reactive tooltip-trigger" cx="545.0967032967033" cy="65.4150048618" r="2.5" /><desc class="value">1,296,075,000.0 People</desc><desc class="x left">545.0967032967033</desc><desc class="y left">65.4150048618</desc><desc class="x_label">2004</desc></g><g class="dots"><circle class="dot reactive tooltip-trigger" cx="593.4208791208791" cy="46.1057283556" r="2.5" /><desc class="value">1,324,655,000.0 People</desc><desc class="x left">593.4208791208791</desc><desc class="y left">46.1057283556</desc><desc class="x_label">2008</desc></g><g class="dots"><circle class="dot reactive tooltip-trigger" cx="641.7450549450549" cy="28.5125317069" r="2.5" /><desc class="value">1,350,695,000.0 People</desc><desc class="x left">641.7450549450549</desc><desc class="y left">28.5125317069</desc><desc class="x_label">2012</desc></g><g class="dots"><circle class="dot reactive tooltip-trigger" cx="690.0692307692308" cy="9.61538461538" r="2.5" /><desc class="value">1,378,665,000.0 People</desc><desc class="x left">690.0692307692308</desc><desc class="y left">9.61538461538</desc><desc class="x_label">2016</desc></g></g></g><g class="plot text-overlay" transform="translate(276, 46)"><g class="series serie-0 color-0" /></g><g class="plot tooltip-overlay" transform="translate(276, 46)"><g class="tooltip" style="opacity: 0" transform="translate(0 0)"><rect class="tooltip-box" height="0" rx="0" ry="0" width="0" /><g class="text" /></g></g><g class="legends" transform="translate(10, 56)"><g class="legend reactive activate-serie" id="activate-serie-0"><rect class="color-0 reactive" height="12" width="12" x="0.0" y="1.0" /><text x="17.0" y="11.2">Populations</text></g></g><g class="legends" transform="translate(990, 56)" /></g></svg>